<?xml version="1.0" encoding="utf-8"?>
<!-- Generator: Adobe Illustrator 24.2.0, SVG Export Plug-In . SVG Version: 6.00 Build 0)  -->
<svg version="1.1" id="Calque_1" xmlns:serif="http://www.serif.com/"
	 xmlns="http://www.w3.org/2000/svg" xmlns:xlink="http://www.w3.org/1999/xlink" x="0px" y="0px" viewBox="0 0 36.2 10.1"
	 style="enable-background:new 0 0 36.2 10.1;" xml:space="preserve">
<style type="text/css">
	.st0{fill-rule:evenodd;clip-rule:evenodd;}
</style>
<g transform="matrix(1,0,0,1,-109.475,-1470.13)">
	<path class="st0" d="M114.1,1476.5c0.1,2.5,1.5,3.7,3.1,3.7c1.5,0.1,3.2-1,3.8-3.2c0.5-1.8,0-3.8-0.9-5.2c-0.7-1-1.7-1.6-2.6-1.6
		c-1,0-2.2,0.6-3.1,2.3c-0.2,0.3-0.1,0.7,0.3,0.9c0.3,0.2,0.7,0.1,0.9-0.3c0.6-1.1,1.3-1.6,1.9-1.6c0.6,0,1.2,0.5,1.6,1.1
		c0.8,1,1.1,2.6,0.7,4.1c-0.4,1.5-1.5,2.3-2.5,2.2c-1,0-1.8-0.9-1.8-2.4c0-0.4-0.3-0.6-0.7-0.6
		C114.3,1475.9,114.1,1476.2,114.1,1476.5z M109.5,1471.7c0.1,2.6,0.3,5.1,0.4,7.7c0,0.4,0.3,0.6,0.7,0.6c0.4,0,0.6-0.3,0.6-0.7
		c-0.1-2.6-0.2-5.1-0.4-7.7c0-0.4-0.3-0.6-0.7-0.6C109.7,1471,109.5,1471.3,109.5,1471.7z M127.9,1475.3c-0.5,2.2,0.4,3.5,1.6,4.1
		c1.7,0.8,4.4,0,5.6-2.8c0.7-1.7,0.6-4-0.6-5.5c-0.6-0.8-1.4-1-2.3-1c-1.2,0.1-2.4,0.9-3,1.7c-0.2,0.3-0.1,0.7,0.2,0.9
		c0.3,0.2,0.7,0.1,0.9-0.2c0.3-0.5,1-0.9,1.7-1.1c0.6-0.1,1.2-0.1,1.6,0.4c0.9,1.2,1,2.9,0.5,4.2c-0.8,1.9-2.6,2.7-3.8,2.1
		c-0.8-0.4-1.1-1.3-0.9-2.6c0.1-0.4-0.1-0.7-0.5-0.8C128.3,1474.7,128,1475,127.9,1475.3z M137.4,1475.4c-0.1,2.5,1.1,3.7,2.5,4
		c2,0.5,4.8-1,5.6-4c0.6-2.4-0.9-4.5-2.8-4.9c-1.3-0.3-2.8,0.1-3.9,1.7c-0.2,0.3-0.1,0.7,0.1,0.9c0.3,0.2,0.7,0.1,0.9-0.1
		c0.7-1,1.7-1.4,2.6-1.2c1.3,0.3,2.3,1.7,1.9,3.3c-0.6,2.2-2.5,3.4-4,3.1c-0.9-0.2-1.5-1.1-1.5-2.7c0-0.4-0.3-0.7-0.6-0.7
		C137.7,1474.8,137.4,1475.1,137.4,1475.4z M123.5,1479.2c0.1,0,0.3,0,0.4,0c0.4,0,0.7-0.3,0.7-0.6c0-0.4-0.3-0.7-0.6-0.7
		c-0.1,0-0.3,0-0.4,0c-0.4,0-0.7,0.3-0.7,0.6C122.9,1478.8,123.1,1479.1,123.5,1479.2z M123.5,1475.1c0.1,0,0.2,0,0.3-0.1
		c0.4-0.1,0.6-0.4,0.5-0.7c-0.1-0.4-0.4-0.6-0.7-0.5c-0.1,0-0.2,0-0.3,0c-0.4,0-0.6,0.4-0.6,0.7
		C122.8,1474.9,123.2,1475.2,123.5,1475.1z"/>
</g>
</svg>
