<?xml version="1.0" encoding="utf-8"?>
<!-- Generator: Adobe Illustrator 24.2.0, SVG Export Plug-In . SVG Version: 6.00 Build 0)  -->
<svg version="1.1" id="Calque_1" xmlns:serif="http://www.serif.com/"
	 xmlns="http://www.w3.org/2000/svg" xmlns:xlink="http://www.w3.org/1999/xlink" x="0px" y="0px" viewBox="0 0 35.4 10.1"
	 style="enable-background:new 0 0 35.4 10.1;" xml:space="preserve">
<g>
	<path d="M6.9,0C6.5,0,6.2,0.3,6.2,0.6c0,2.8,0.1,5.6,0,8.4c0,0.4,0.3,0.7,0.6,0.7c0.4,0,0.7-0.3,0.7-0.6c0.1-2.8-0.1-5.6,0-8.4
		C7.5,0.3,7.3,0,6.9,0z"/>
	<path d="M13.6,5.4c0.1,0,0.1,0,0.2,0c0.4-0.1,0.6-0.4,0.5-0.7c-0.1-0.4-0.4-0.6-0.7-0.5c-0.1,0-0.1,0-0.1,0c-0.4,0-0.6,0.4-0.6,0.7
		C12.9,5.2,13.2,5.4,13.6,5.4z"/>
	<path d="M0.7,0.7C0.4,0.7,0.1,1,0.1,1.4c0,2.7-0.2,5.4-0.1,8.1c0,0.4,0.3,0.6,0.7,0.6c0.4,0,0.6-0.3,0.6-0.7C1.2,6.7,1.4,4,1.4,1.4
		C1.4,1,1.1,0.7,0.7,0.7z"/>
	<path d="M13.9,7.6c-0.1,0-0.2,0-0.3-0.1c-0.4-0.1-0.7,0.1-0.8,0.5c-0.1,0.4,0.1,0.7,0.5,0.8c0.1,0,0.2,0,0.3,0.1
		c0.4,0.1,0.7-0.1,0.8-0.5C14.5,8,14.3,7.7,13.9,7.6z"/>
	<path d="M32.4,0.5c-1.3-0.3-2.8,0.1-3.9,1.7c-0.2,0.3-0.1,0.7,0.1,0.9c0.3,0.2,0.7,0.1,0.9-0.1c0.7-1,1.7-1.4,2.6-1.2
		c1.3,0.3,2.3,1.7,1.9,3.3c-0.6,2.2-2.5,3.4-4,3.1C29,8,28.4,7.1,28.5,5.5c0-0.4-0.3-0.7-0.6-0.7c-0.4,0-0.7,0.3-0.7,0.6
		c-0.1,2.5,1.1,3.7,2.5,4c2,0.5,4.8-1,5.6-4C35.9,3.1,34.3,1,32.4,0.5z"/>
	<path d="M21.8,0.1c-1.2,0.1-2.4,0.9-3,1.7c-0.2,0.3-0.1,0.7,0.2,0.9c0.3,0.2,0.7,0.1,0.9-0.2c0.3-0.5,1-0.9,1.7-1.1
		c0.6-0.1,1.2-0.1,1.6,0.4c0.9,1.2,1,2.9,0.5,4.2c-0.8,1.9-2.6,2.7-3.8,2.1c-0.8-0.4-1.1-1.3-0.9-2.6c0.1-0.4-0.1-0.7-0.5-0.8
		c-0.4-0.1-0.7,0.2-0.8,0.5c-0.5,2.2,0.4,3.5,1.6,4.1c1.7,0.8,4.4,0,5.6-2.8c0.7-1.7,0.6-4-0.6-5.5C23.6,0.3,22.7,0,21.8,0.1z"/>
</g>
</svg>
