<?xml version="1.0" encoding="utf-8"?>
<!-- Generator: Adobe Illustrator 24.2.0, SVG Export Plug-In . SVG Version: 6.00 Build 0)  -->
<svg version="1.1" id="Calque_1" xmlns:serif="http://www.serif.com/"
	 xmlns="http://www.w3.org/2000/svg" xmlns:xlink="http://www.w3.org/1999/xlink" x="0px" y="0px" viewBox="0 0 35.8 9.6"
	 style="enable-background:new 0 0 35.8 9.6;" xml:space="preserve">
<g>
	<path d="M9.8,8.4c-1.1,0.1-2.2,0-3.2,0c0.5-0.4,1-0.8,1.5-1.3c0.8-0.8,1.4-1.8,1.5-3S9.5,1.5,8.4,0.9S6.2,0.7,5.5,1.6
		c-0.7,0.8-1,2-0.6,2.9C5,4.8,5.4,5,5.8,4.8c0.3-0.1,0.5-0.5,0.3-0.9c-0.2-0.5,0-1.1,0.4-1.5C6.8,2,7.3,1.7,7.8,2
		c0.3,0.2,0.4,0.4,0.5,0.7c0.1,0.4,0.1,0.8,0,1.2C8.2,4.8,7.7,5.5,7.1,6.1C6.4,6.8,5.6,7.4,4.9,7.9C4.7,8,4.6,8.3,4.6,8.5
		C4.5,8.6,4.5,8.7,4.5,8.9c0,0.4,0.3,0.6,0.7,0.6c1.6,0,3.2,0.1,4.7,0.1c0.4,0,0.6-0.3,0.6-0.7C10.5,8.7,10.2,8.4,9.8,8.4z"/>
	<path d="M14.4,4.5c0.1,0,0.1,0,0.2,0c0.4-0.1,0.6-0.4,0.5-0.7c-0.1-0.4-0.4-0.6-0.7-0.5h-0.1c-0.4,0-0.6,0.4-0.6,0.7
		C13.7,4.3,14,4.6,14.4,4.5z"/>
	<path d="M0.6,1.7C0.2,1.7,0,2,0,2.4c0,2.1,0.1,4.2,0.1,6.3c0,0.4,0.3,0.7,0.7,0.6c0.4,0,0.7-0.3,0.6-0.7c0-2.1-0.1-4.2-0.1-6.3
		C1.3,2,1,1.7,0.6,1.7z"/>
	<path d="M14.7,6.7c-0.1,0-0.2,0-0.3-0.1c-0.3-0.1-0.7,0.1-0.8,0.5c-0.1,0.3,0.1,0.7,0.5,0.8c0.1,0,0.2,0,0.3,0.1
		c0.4,0.1,0.7-0.1,0.8-0.5C15.3,7.2,15.1,6.8,14.7,6.7z"/>
	<path d="M32.8,0.4c-1.3-0.3-2.8,0.1-3.9,1.7C28.7,2.4,28.8,2.8,29,3c0.3,0.2,0.7,0.1,0.9-0.1c0.7-1,1.7-1.4,2.6-1.2
		C33.8,2,34.8,3.4,34.4,5c-0.6,2.2-2.5,3.4-4,3.1c-0.9-0.2-1.5-1.1-1.5-2.7c0-0.4-0.3-0.7-0.6-0.7c-0.4,0-0.7,0.3-0.7,0.6
		c-0.1,2.5,1.1,3.7,2.5,4c2,0.5,4.8-1,5.6-4C36.2,2.9,34.7,0.8,32.8,0.4z"/>
	<path d="M22.2,0c-1.2,0.1-2.4,0.9-3,1.7C19,2,19.1,2.4,19.4,2.6c0.3,0.2,0.7,0.1,0.9-0.2c0.3-0.5,1-0.9,1.7-1.1
		c0.6-0.1,1.2-0.1,1.6,0.4c0.9,1.2,1,2.9,0.5,4.2c-0.8,1.9-2.6,2.7-3.8,2.1c-0.8-0.4-1.1-1.3-0.9-2.6c0.1-0.4-0.2-0.7-0.5-0.8
		c-0.4-0.1-0.7,0.1-0.8,0.5c-0.5,2.2,0.4,3.5,1.6,4.1c1.7,0.8,4.4,0,5.6-2.8c0.7-1.7,0.6-4-0.6-5.5C23.9,0.1,23.1-0.1,22.2,0z"/>
</g>
</svg>
