<?xml version="1.0" encoding="utf-8"?>
<!-- Generator: Adobe Illustrator 24.2.0, SVG Export Plug-In . SVG Version: 6.00 Build 0)  -->
<svg version="1.1" id="Calque_1" xmlns:serif="http://www.serif.com/"
	 xmlns="http://www.w3.org/2000/svg" xmlns:xlink="http://www.w3.org/1999/xlink" x="0px" y="0px" viewBox="0 0 35.2 9.6"
	 style="enable-background:new 0 0 35.2 9.6;" xml:space="preserve">
<g>
	<path d="M9.1,4.6c-0.3,0-0.6,0-1,0.1c0-1.3,0-2.6-0.1-3.9c0-0.4-0.3-0.6-0.7-0.6c-0.1,0-0.2,0-0.3,0.1c0,0-0.1,0-0.1-0.1
		C6.7,0,6.3,0.1,6.1,0.4C5.1,2,4,3.6,3,5.2C2.9,5.5,3,5.9,3.3,6.1c0.2,0.1,0.4,0.1,0.6,0C4,6.2,4.1,6.3,4.3,6.3
		c0.9,0.1,1.7,0,2.6-0.1c0,0.9,0,1.7,0,2.6c0,0.4,0.3,0.6,0.7,0.6c0.4,0,0.6-0.3,0.6-0.7c0-0.9,0-1.8,0-2.7c0.3,0,0.7-0.1,1-0.1
		c0.4,0,0.6-0.3,0.6-0.7C9.8,4.9,9.5,4.6,9.1,4.6z M4.7,5c0.7-1.1,1.4-2.1,2.1-3.2c0,1,0,2,0.1,3.1C6.1,4.9,5.4,5,4.7,5z"/>
	<path d="M0.9,0.6c-0.4,0-0.7,0.2-0.7,0.6C0.1,3.3,0,5.4,0,7.6c0,0.4,0.3,0.7,0.6,0.7c0.4,0,0.7-0.3,0.7-0.6c0-2.1,0.1-4.2,0.2-6.3
		C1.5,0.9,1.3,0.6,0.9,0.6z"/>
	<path d="M13.9,4.6c0.1,0,0.1,0,0.2,0c0.4-0.1,0.6-0.4,0.5-0.7c-0.1-0.4-0.4-0.6-0.7-0.5c-0.1,0-0.1,0-0.2,0c-0.4,0-0.6,0.4-0.6,0.7
		C13.2,4.4,13.5,4.6,13.9,4.6z"/>
	<path d="M32.2,0.4c-1.3-0.3-2.8,0.1-3.9,1.7c-0.2,0.3-0.1,0.7,0.1,0.9c0.3,0.2,0.7,0.1,0.9-0.1c0.7-1,1.7-1.4,2.6-1.2
		C33.2,2,34.2,3.4,33.8,5c-0.6,2.2-2.5,3.4-4,3.1c-0.9-0.2-1.5-1.1-1.5-2.7c0-0.4-0.3-0.7-0.6-0.7c-0.4,0-0.7,0.3-0.7,0.6
		c-0.1,2.5,1.1,3.7,2.5,4c2,0.5,4.8-1,5.6-4C35.7,3,34.2,0.9,32.2,0.4z"/>
	<path d="M21.7,0c-1.2,0.1-2.4,0.9-3,1.7c-0.2,0.3-0.1,0.7,0.2,0.9c0.3,0.2,0.7,0.1,0.9-0.2c0.3-0.5,1-0.9,1.7-1.1
		c0.6-0.1,1.2-0.1,1.6,0.4C23.9,3,24,4.7,23.4,6c-0.8,1.9-2.6,2.7-3.8,2.1c-0.8-0.4-1.1-1.3-0.9-2.7c0.1-0.4-0.2-0.7-0.5-0.8
		c-0.4-0.1-0.7,0.1-0.8,0.5C17,7.3,17.8,8.7,19,9.3c1.7,0.8,4.4,0,5.6-2.8c0.7-1.7,0.6-4-0.6-5.5C23.4,0.2,22.5-0.1,21.7,0z"/>
	<path d="M14.2,6.8c-0.1,0-0.2,0-0.3-0.1c-0.4-0.1-0.7,0.1-0.8,0.5C13,7.6,13.3,7.9,13.6,8c0.1,0,0.2,0,0.3,0.1
		c0.4,0.1,0.7-0.1,0.8-0.5C14.8,7.2,14.6,6.9,14.2,6.8z"/>
</g>
</svg>
