<?xml version="1.0" encoding="utf-8"?>
<!-- Generator: Adobe Illustrator 24.2.0, SVG Export Plug-In . SVG Version: 6.00 Build 0)  -->
<svg version="1.1" id="Calque_1" xmlns:serif="http://www.serif.com/"
	 xmlns="http://www.w3.org/2000/svg" xmlns:xlink="http://www.w3.org/1999/xlink" x="0px" y="0px" viewBox="0 0 34.4 9.6"
	 style="enable-background:new 0 0 34.4 9.6;" xml:space="preserve">
<g>
	<path d="M0.7,1C0.4,1,0.1,1.3,0,1.7c0,2.2,0,4.5,0,6.7c0,0.4,0.3,0.7,0.6,0.7c0.4,0,0.7-0.3,0.7-0.6c0.1-2.2,0-4.5,0-6.7
		C1.4,1.3,1.1,1,0.7,1z"/>
	<path d="M5.3,4.9C5,5,4.8,5.2,4.6,5.3C4.8,3.7,5.8,2.2,7,1.2c0.3-0.2,0.3-0.6,0.1-0.9C6.8,0,6.4-0.1,6.1,0.2
		c-1.7,1.5-3,3.6-2.9,5.9c0,0.7,0.3,1.6,0.7,2.2c0.5,0.7,1.3,1.2,2.4,0.8C7.4,8.8,8,7.9,8,6.9c0-0.6-0.2-1.3-0.6-1.7
		C7,4.9,6.3,4.6,5.3,4.9z M6,7.9C5.5,8.1,5.2,7.9,5,7.6C4.8,7.3,4.7,7,4.6,6.7c0.2,0,0.3-0.1,0.4-0.2c0.2-0.2,0.4-0.3,0.7-0.4
		c0.2-0.1,0.5-0.1,0.6,0c0.2,0.1,0.3,0.3,0.4,0.6C6.8,7.2,6.5,7.7,6,7.9z"/>
	<path d="M13.1,4.6c0.1,0,0.1,0,0.2,0c0.4-0.1,0.6-0.4,0.5-0.7c-0.1-0.4-0.4-0.6-0.7-0.5c-0.1,0-0.1,0-0.1,0c-0.4,0-0.6,0.4-0.6,0.7
		C12.4,4.4,12.7,4.6,13.1,4.6z"/>
	<path d="M31.4,0.4c-1.3-0.3-2.8,0.1-3.9,1.7c-0.2,0.3-0.1,0.7,0.1,0.9c0.3,0.2,0.7,0.1,0.9-0.1c0.7-1,1.7-1.4,2.6-1.2
		C32.4,2,33.4,3.4,33,5c-0.6,2.2-2.5,3.4-4,3.1C28,7.9,27.4,7,27.5,5.4c0-0.4-0.3-0.7-0.6-0.7c-0.4,0-0.7,0.3-0.7,0.6
		c-0.1,2.5,1.1,3.7,2.5,4c2,0.5,4.8-1,5.6-4C34.9,3,33.3,0.9,31.4,0.4z"/>
	<path d="M20.8,0c-1.2,0.1-2.4,0.9-3,1.7C17.6,2,17.7,2.4,18,2.6s0.7,0.1,0.9-0.2c0.3-0.5,1-0.9,1.7-1.1c0.6-0.1,1.2-0.1,1.6,0.4
		c0.9,1.2,1,2.9,0.5,4.2c-0.8,1.9-2.6,2.7-3.8,2.1c-0.8-0.4-1.1-1.3-0.9-2.6c0.1-0.4-0.1-0.7-0.5-0.8c-0.4-0.1-0.7,0.1-0.8,0.5
		c-0.5,2.2,0.4,3.5,1.6,4.1c1.7,0.8,4.4,0,5.6-2.8c0.7-1.7,0.6-4-0.6-5.5C22.6,0.2,21.7-0.1,20.8,0z"/>
	<path d="M13.4,6.8c-0.1,0-0.2,0-0.3-0.1c-0.4-0.1-0.7,0.1-0.8,0.5c-0.1,0.4,0.1,0.7,0.5,0.8c0.1,0,0.2,0,0.3,0.1
		c0.4,0.1,0.7-0.1,0.8-0.5C14,7.2,13.7,6.9,13.4,6.8z"/>
</g>
</svg>
