<?xml version="1.0" encoding="utf-8"?>
<!-- Generator: Adobe Illustrator 24.2.0, SVG Export Plug-In . SVG Version: 6.00 Build 0)  -->
<svg version="1.1" id="Calque_1" xmlns:serif="http://www.serif.com/"
	 xmlns="http://www.w3.org/2000/svg" xmlns:xlink="http://www.w3.org/1999/xlink" x="0px" y="0px" viewBox="0 0 33.6 10.7"
	 style="enable-background:new 0 0 33.6 10.7;" xml:space="preserve">
<g>
	<path d="M12.3,4.9c0.1,0,0.1,0,0.2,0C12.8,4.8,13,4.5,13,4.1c-0.1-0.4-0.4-0.6-0.7-0.5c-0.1,0-0.1,0-0.2,0c-0.4,0-0.6,0.4-0.6,0.7
		C11.6,4.7,11.9,4.9,12.3,4.9z"/>
	<path d="M0.9,1.7C0.6,1.7,0.3,2,0.3,2.3c0,2.2-0.2,4.4-0.3,6.5c0,0.4,0.2,0.7,0.6,0.7c0.4,0,0.7-0.2,0.7-0.6
		c0.1-2.2,0.3-4.4,0.3-6.6C1.6,2,1.3,1.7,0.9,1.7z"/>
	<path d="M12.6,7.1c-0.1,0-0.2,0-0.3-0.1c-0.4-0.1-0.7,0.1-0.8,0.5c-0.1,0.3,0.1,0.7,0.5,0.8c0.1,0,0.2,0,0.3,0.1
		c0.4,0.1,0.7-0.1,0.8-0.5C13.2,7.5,13,7.2,12.6,7.1z"/>
	<path d="M30.6,0.7c-1.3-0.3-2.8,0.1-3.9,1.7c-0.2,0.3-0.1,0.7,0.1,0.9c0.3,0.2,0.7,0.1,0.9-0.1c0.8-1,1.7-1.4,2.6-1.2
		c1.3,0.3,2.3,1.7,1.9,3.3c-0.6,2.2-2.6,3.4-4,3.1c-0.9-0.2-1.5-1.1-1.5-2.7c0-0.4-0.3-0.7-0.6-0.7c-0.4,0-0.7,0.3-0.7,0.6
		c-0.1,2.5,1.1,3.7,2.5,4c2,0.5,4.8-1,5.6-4C34.1,3.3,32.6,1.2,30.6,0.7z"/>
	<path d="M7,6.2C6.9,6,6.8,5.9,6.6,5.8c0-0.1,0-0.2,0-0.3C7,5,7.3,4.4,7.5,3.8c0.1-0.5,0.3-1,0.3-1.5c0.1-1.1-0.4-1.8-1-2.1
		C6.1-0.1,5.2-0.1,4.3,0.7C3.5,1.6,3.2,3.1,3.6,4.3c0.2,0.7,0.6,1.2,1.2,1.6c0,0,0.1,0.1,0.1,0.1C4.6,6.4,4.3,6.8,4,7.2
		C3.7,7.5,3.4,8,3.2,8.4c-0.1,0.6,0,1,0.2,1.4c0.3,0.5,0.9,0.8,1.6,0.9c1.6,0.2,3.6-0.9,3.1-2.8C8,7.3,7.4,6.6,7,6.2z M4.8,3.8
		C4.6,3.1,4.7,2.2,5.2,1.7c0.3-0.3,0.6-0.5,0.9-0.3c0.3,0.1,0.4,0.5,0.3,0.9c0,0.4-0.1,0.8-0.2,1.1c-0.2,0.5-0.4,1-0.7,1.4
		C5.5,4.8,5.4,4.7,5.3,4.6c0,0,0,0,0,0C5.1,4.4,4.9,4.1,4.8,3.8z M6.5,9.1C6.1,9.3,5.6,9.4,5.1,9.4c-0.3,0-0.5-0.1-0.6-0.3
		C4.5,9,4.5,8.9,4.5,8.7C4.6,8.5,4.8,8.2,5,8c0.3-0.4,0.6-0.7,0.9-1.1C5.9,6.9,5.9,7,6,7c0.3,0.3,0.8,0.7,0.9,1.2
		C7,8.6,6.8,8.9,6.5,9.1z"/>
	<path d="M20.1,0.3c-1.2,0.1-2.4,0.9-3,1.7c-0.2,0.3-0.1,0.7,0.2,0.9c0.3,0.2,0.7,0.1,0.9-0.2c0.3-0.5,1-0.9,1.7-1.1
		c0.6-0.1,1.2-0.1,1.6,0.4c0.9,1.2,1,2.9,0.5,4.2C21,8.2,19.2,9,18,8.4c-0.8-0.4-1.1-1.3-0.9-2.7C17.2,5.4,17,5.1,16.6,5
		c-0.4-0.1-0.7,0.2-0.8,0.5c-0.5,2.2,0.4,3.5,1.6,4.1c1.7,0.8,4.4,0,5.6-2.8c0.7-1.7,0.6-4-0.6-5.5C21.8,0.5,20.9,0.2,20.1,0.3z"/>
</g>
</svg>
