<?xml version="1.0" encoding="UTF-8" standalone="no"?>
<!DOCTYPE svg PUBLIC "-//W3C//DTD SVG 1.1//EN" "http://www.w3.org/Graphics/SVG/1.1/DTD/svg11.dtd">
<svg width="100%" height="100%" viewBox="0 0 2481 3508" version="1.1" xmlns="http://www.w3.org/2000/svg" xmlns:xlink="http://www.w3.org/1999/xlink" xml:space="preserve" xmlns:serif="http://www.serif.com/" style="fill-rule:evenodd;clip-rule:evenodd;stroke-linejoin:round;stroke-miterlimit:2;">
    <g transform="matrix(6.12323e-17,-1,1,6.12323e-17,-635.99,2575.06)">
        <path d="M831.59,2178.55C806.263,2200.7 779.404,2221.16 754.491,2243.9C749.819,2248.16 749.487,2255.41 753.75,2260.09C758.013,2264.76 765.266,2265.09 769.938,2260.83C795.648,2237.37 823.426,2216.32 849.455,2193.36C864.828,2209.94 880.447,2226.34 895.381,2243.31C899.559,2248.05 906.806,2248.51 911.552,2244.34C916.299,2240.16 916.76,2232.91 912.582,2228.16C897.875,2211.46 882.512,2195.29 867.366,2178.97C885.693,2179.27 904.029,2179.76 922.364,2180.76C928.679,2181.1 934.085,2176.26 934.429,2169.94C934.773,2163.63 929.926,2158.22 923.611,2157.88C869.054,2154.9 814.49,2156.38 759.957,2154.26C753.638,2154.01 748.307,2158.94 748.061,2165.26C747.815,2171.58 752.746,2176.91 759.065,2177.16C783.236,2178.1 807.413,2178.33 831.59,2178.55ZM889.113,2070.84C889.52,2072.44 890.282,2073.98 891.411,2075.34C895.585,2080.36 894.621,2086.18 891.703,2091.03C887.906,2097.34 881.087,2102.46 874.197,2103.95C856.534,2107.76 837.658,2096.36 827.679,2081.99C825.35,2078.63 821.545,2076.91 817.744,2077.08C815.196,2076.59 812.47,2076.96 810.028,2078.32C777.167,2096.59 744.759,2116.59 711.103,2133.32C705.44,2136.14 703.128,2143.02 705.944,2148.68C708.759,2154.35 715.642,2156.66 721.305,2153.84C752.979,2138.09 783.568,2119.5 814.442,2102.11C830.279,2119.77 855.637,2131.39 879.026,2126.35C891.679,2123.62 904.365,2114.43 911.337,2102.85C919.061,2090.02 920.221,2074.68 909.564,2061.34C909.6,2061.06 909.625,2060.78 909.641,2060.49C909.982,2054.18 905.132,2048.78 898.817,2048.43C863.16,2046.51 826.905,2043.41 791.463,2039.21C785.183,2038.47 779.48,2042.96 778.735,2049.24C777.99,2055.52 782.484,2061.22 788.764,2061.97C821.887,2065.9 855.71,2068.87 889.113,2070.84ZM866.062,1961.98C872.988,1966.29 879.45,1973.15 882.605,1980.41C884.064,1983.77 884.927,1987.18 883.843,1990.28C882.627,1993.75 879.058,1996.16 873.409,1998.14C852.653,2005.43 822.366,2001.37 802.382,1992.82C796.61,1990.34 791.032,1986.94 786.238,1982.88C779.815,1977.44 776.044,1972.68 775.054,1968.09C773.88,1962.64 778.234,1958.83 783.487,1955.72C795.769,1948.43 815.135,1945.95 829.063,1950.74C835.044,1952.79 841.568,1949.6 843.624,1943.62C845.679,1937.64 842.492,1931.12 836.511,1929.06C819.282,1923.14 796.15,1924.86 779.008,1932.33C765.668,1938.14 756.07,1947.5 753.04,1958.34C749.79,1969.95 753.065,1984.82 771.428,2000.37C777.943,2005.89 785.516,2010.52 793.361,2013.88C818.006,2024.44 855.405,2028.76 881.001,2019.77C895.199,2014.78 902.414,2006.58 905.471,1997.85C908.374,1989.57 907.531,1980.27 903.622,1971.28C898.73,1960.02 888.909,1949.21 878.171,1942.53C872.802,1939.19 865.73,1940.83 862.389,1946.2C859.047,1951.57 860.693,1958.64 866.062,1961.98ZM775.64,1805.06C773.114,1806.12 770.954,1808.07 769.693,1810.74C766.991,1816.46 769.439,1823.29 775.156,1826C788.385,1832.25 801.609,1838.69 814.689,1845.37C797.492,1851 780.259,1856.55 763.264,1862.63C757.309,1864.76 754.203,1871.32 756.331,1877.28C757.083,1879.38 758.388,1881.12 760.022,1882.41C760.455,1887.05 763.708,1891.14 768.464,1892.42C818.63,1905.88 871.597,1918.22 922.884,1926.04C929.135,1927 934.985,1922.69 935.939,1916.44C936.892,1910.19 932.591,1904.34 926.339,1903.39C882.987,1896.77 838.416,1886.87 795.422,1875.81C811.579,1870.43 827.829,1865.26 843.939,1859.81C846.834,1858.83 849.081,1856.81 850.402,1854.3C850.982,1853.64 851.496,1852.92 851.928,1852.12C854.932,1846.55 852.852,1839.59 847.287,1836.59C835.038,1829.98 822.593,1823.6 810.065,1817.4C824.821,1813.52 839.894,1810.33 854.45,1806.77C860.594,1805.27 864.363,1799.06 862.862,1792.92C861.361,1786.78 855.155,1783.01 849.011,1784.51C826.139,1790.1 802.048,1794.88 779.737,1802.59C778.162,1803.14 776.782,1803.99 775.64,1805.06ZM889.282,1742.48L762.214,1742.48C755.89,1742.48 750.756,1747.61 750.756,1753.94C750.756,1760.26 755.89,1765.39 762.214,1765.39L893.146,1765.39C895.302,1765.39 897.319,1764.8 899.041,1763.76C908.269,1784.79 916.557,1806.36 923.721,1827.65C925.738,1833.64 932.242,1836.87 938.235,1834.86C944.229,1832.84 947.458,1826.34 945.441,1820.34C932.826,1782.85 916.823,1744.53 898.4,1709.59C895.451,1704 888.514,1701.85 882.92,1704.8C877.326,1707.75 875.179,1714.68 878.128,1720.28C881.957,1727.54 885.678,1734.95 889.282,1742.48ZM888.098,1644.68C891.113,1654.11 890.135,1661.94 886.082,1667.57C875.966,1681.62 850.72,1681.44 836.993,1662.51C834.86,1659.57 831.586,1657.94 828.215,1657.79C824.88,1655.94 820.693,1655.79 817.107,1657.77C783.036,1676.54 746.991,1692.17 712.582,1710.49C707,1713.46 704.882,1720.41 707.854,1725.99C710.827,1731.57 717.772,1733.69 723.354,1730.72C755.941,1713.37 789.987,1698.42 822.449,1680.95C843.252,1704.3 875.597,1704.95 895.028,1690.67C909.457,1680.06 917.849,1661.44 909.664,1636.9C908.953,1634.76 907.672,1632.98 906.047,1631.65C905.258,1626.15 900.558,1621.9 894.835,1621.83C853.831,1621.36 812.871,1621.51 771.867,1621.6C765.543,1621.61 760.42,1626.75 760.433,1633.08C760.446,1639.4 765.591,1644.53 771.915,1644.51C810.656,1644.43 849.358,1644.3 888.098,1644.68ZM789.57,1507.92C778.73,1505 767.917,1502.01 757.147,1498.85C751.078,1497.07 744.707,1500.56 742.929,1506.63C741.151,1512.69 744.634,1519.07 750.703,1520.84C763.668,1524.64 776.696,1528.21 789.743,1531.68C789.72,1547.41 789.501,1563.15 789.558,1578.89C761.57,1586.09 733.489,1592.89 705.243,1598.98C699.06,1600.31 695.122,1606.41 696.453,1612.59C697.785,1618.77 703.885,1622.71 710.067,1621.38C736.873,1615.61 763.531,1609.19 790.093,1602.4C791.216,1607.7 795.989,1611.62 801.595,1611.47C807.917,1611.31 812.918,1606.05 812.757,1599.72C812.73,1598.66 812.705,1597.6 812.682,1596.55C848.296,1587.19 883.777,1577.32 919.274,1567.62C925.374,1565.96 928.974,1559.65 927.308,1553.55C926.254,1549.69 923.343,1546.83 919.802,1545.67C918.59,1544.49 917.094,1543.55 915.373,1542.98C881.51,1531.83 847.012,1523.04 812.578,1514.02C812.523,1509.21 812.435,1504.41 812.299,1499.61C812.121,1493.29 806.844,1488.3 800.522,1488.48C794.201,1488.66 789.213,1493.94 789.392,1500.26C789.464,1502.81 789.523,1505.37 789.57,1507.92ZM812.631,1537.7C812.58,1549.43 812.457,1561.17 812.457,1572.91C834.2,1567.16 855.896,1561.24 877.582,1555.29C856.043,1549.01 834.332,1543.37 812.631,1537.7Z"/>
    </g>
</svg>
