<?xml version="1.0" encoding="UTF-8" standalone="no"?>
<!DOCTYPE svg PUBLIC "-//W3C//DTD SVG 1.1//EN" "http://www.w3.org/Graphics/SVG/1.1/DTD/svg11.dtd">
<svg width="100%" height="100%" viewBox="0 0 2481 3508" version="1.1" xmlns="http://www.w3.org/2000/svg" xmlns:xlink="http://www.w3.org/1999/xlink" xml:space="preserve" xmlns:serif="http://www.serif.com/" style="fill-rule:evenodd;clip-rule:evenodd;stroke-linejoin:round;stroke-miterlimit:2;">
    <g transform="matrix(6.12323e-17,-1,1,6.12323e-17,111.648,2578.18)">
        <path d="M792.084,1352.78C774.746,1364.55 757.33,1376.22 739.995,1388.01C734.766,1391.57 733.409,1398.7 736.966,1403.93C740.523,1409.16 747.657,1410.52 752.885,1406.96C773.062,1393.23 793.345,1379.67 813.494,1365.92C852.889,1390.14 892.214,1414.48 931.587,1438.78C936.969,1442.11 944.035,1440.43 947.356,1435.05C950.678,1429.67 949.005,1422.6 943.623,1419.28C907.121,1396.75 870.66,1374.19 834.139,1351.71C844.42,1344.57 854.645,1337.34 864.783,1329.98C869.901,1326.27 871.041,1319.1 867.326,1313.98C863.611,1308.86 856.44,1307.72 851.322,1311.44C838.604,1320.67 825.746,1329.69 812.812,1338.61C793.09,1326.5 773.343,1314.43 753.558,1302.41C748.153,1299.13 741.099,1300.85 737.816,1306.25C734.533,1311.66 736.255,1318.71 741.66,1322C758.49,1332.22 775.291,1342.48 792.084,1352.78ZM842.564,1207.87C812.373,1198.65 779.154,1194.12 749.656,1208.63C740.978,1212.9 731.771,1220.58 727.069,1229.72C723.223,1237.19 722.088,1245.57 725.278,1254.25C732.502,1273.9 755.807,1285.38 774.509,1289.92C811.913,1299 856.123,1294.47 890.683,1276.76C896.311,1273.87 898.538,1266.96 895.653,1261.33C892.768,1255.7 885.857,1253.48 880.229,1256.36C850.39,1271.66 812.209,1275.49 779.914,1267.65C773.254,1266.03 765.619,1263.42 759.025,1259.41C753.662,1256.16 748.88,1252.03 746.787,1246.34C745.695,1243.37 746.953,1240.62 748.664,1238.23C751.473,1234.3 755.783,1231.16 759.773,1229.19C783.935,1217.31 811.146,1222.24 835.876,1229.79C841.925,1231.63 848.334,1228.22 850.18,1222.17C852.025,1216.12 848.613,1209.71 842.564,1207.87ZM814.49,1089.21C791.264,1080.42 761.953,1077.65 739.876,1091.21C730.539,1096.94 725.38,1103.8 722.916,1110.83C719.224,1121.35 721.519,1132.9 728.064,1143.65C737.01,1158.33 754.042,1171.43 767.324,1176.81C792.968,1187.19 828.978,1191.38 855.078,1179.33C872.609,1171.24 880.033,1156.28 879.313,1141.46C878.621,1127.21 870.056,1112.66 854.171,1104.51C848.543,1101.63 841.632,1103.86 838.746,1109.48C835.861,1115.11 838.087,1122.02 843.714,1124.91C852.83,1129.58 857.689,1138.2 856.18,1146.21C855.228,1151.26 851.576,1155.7 845.472,1158.52C824.777,1168.08 796.258,1163.8 775.925,1155.57C766.362,1151.7 754.074,1142.29 747.633,1131.72C744.942,1127.3 743.022,1122.74 744.54,1118.41C745.549,1115.54 748.046,1113.08 751.866,1110.74C767.991,1100.84 789.419,1104.23 806.383,1110.64C812.298,1112.88 818.917,1109.89 821.154,1103.98C823.391,1098.06 820.405,1091.44 814.49,1089.21ZM859.462,1021.4C827.09,1030.92 786.735,1044.04 753.496,1034.64C747.193,1032.86 742.546,1030.55 739.56,1027.66C737.973,1026.12 736.965,1024.52 736.915,1022.78C736.821,1019.51 739.37,1016.63 742.832,1014.18C748.26,1010.34 756.162,1008.01 765.665,1008.05C771.989,1008.07 777.143,1002.96 777.167,996.633C777.192,990.309 772.077,985.155 765.753,985.13C739.162,985.028 721.13,998.527 715.876,1012.49C710.032,1028.02 716.406,1047.96 747.258,1056.69C784.44,1067.21 829.781,1053.96 865.952,1043.38C869.622,1055.61 873.453,1067.79 877.816,1079.8C879.974,1085.75 886.553,1088.82 892.497,1086.66C898.441,1084.5 901.515,1077.92 899.356,1071.98C889.687,1045.35 882.683,1017.9 874.182,990.914C872.282,984.882 865.843,981.528 859.811,983.428C853.779,985.327 850.424,991.767 852.324,997.799C854.793,1005.64 857.139,1013.51 859.462,1021.4ZM873.186,944.178C827.743,945.405 782.324,946.744 736.888,948.256C730.567,948.466 725.607,953.768 725.817,960.089C726.027,966.409 731.329,971.37 737.65,971.16C783.038,969.65 828.409,968.312 873.804,967.086C880.126,966.916 885.12,961.645 884.949,955.323C884.778,949.001 879.507,944.007 873.186,944.178ZM883.058,839.588C886.162,857.631 875.899,870.216 862.653,874.396C848.378,878.9 830.984,873.805 824.559,855.641C822.527,849.896 816.368,846.783 810.588,848.451C809.335,848.185 808.016,848.127 806.675,848.31C800.409,849.162 796.013,854.942 796.866,861.208C800.335,886.71 777.307,915.889 750.119,904.726C733.387,897.856 727.126,879.788 721.725,863.898C719.69,857.91 713.176,854.702 707.189,856.737C701.201,858.772 697.992,865.286 700.028,871.273C707.473,893.178 718.349,916.455 741.415,925.925C775.675,939.992 807.324,916.15 817.054,885.414C839.551,906.463 876.741,901.708 895.251,879.069C905.196,866.907 910.124,849.628 903.941,828.353C902.77,824.325 899.577,821.43 895.788,820.452C893.599,817.949 890.346,816.412 886.767,816.534C834.06,818.326 781.333,819.349 728.608,820.957C722.286,821.149 717.311,826.438 717.504,832.759C717.696,839.08 722.985,844.055 729.306,843.863C780.56,842.3 831.815,841.289 883.058,839.588Z"/>
    </g>
</svg>
