<?xml version="1.0" encoding="utf-8"?>
<!-- Generator: Adobe Illustrator 24.2.0, SVG Export Plug-In . SVG Version: 6.00 Build 0)  -->
<svg version="1.1" id="Calque_1" xmlns:serif="http://www.serif.com/"
	 xmlns="http://www.w3.org/2000/svg" xmlns:xlink="http://www.w3.org/1999/xlink" x="0px" y="0px" viewBox="0 0 108 73.3"
	 style="enable-background:new 0 0 108 73.3;" xml:space="preserve">
<style type="text/css">
	.st0{fill-rule:evenodd;clip-rule:evenodd;}
</style>
<path class="st0" d="M13.3,67.2c-0.2,1.8,0,3.7,1.4,5c2.3,2.2,5.6,0.7,6.1-2.2c0.4-2.1-0.2-4.5-1.9-5.9c-1.6-1.3-4.1-1.8-5,0.6
	c-0.2,0.4,0.1,0.9,0.5,1.1c0.4,0.2,0.9-0.1,1.1-0.5c0.1-0.3,0.2-0.5,0.4-0.5c0.2-0.1,0.4-0.1,0.7,0c0.4,0.1,0.9,0.4,1.2,0.7
	c1.2,1,1.6,2.8,1.3,4.3c-0.3,1.6-2,2.5-3.3,1.3c-1-0.9-1-2.3-0.8-3.6c0.1-0.5-0.3-0.9-0.8-0.9C13.8,66.4,13.4,66.8,13.3,67.2z
	 M26.1,65.4c-1.4-1.4-2.7-2.8-4.4-3.9c-0.4-0.2-0.9-0.1-1.2,0.3c-0.2,0.4-0.1,0.8,0.2,1.1c0,0.1,0,0.1,0,0.1
	c0.6,2.1,1.2,4.3,1.8,6.5c0.1,0.5,0.6,0.7,1.1,0.6c0.5-0.1,0.7-0.6,0.6-1.1c-0.4-1.5-0.8-2.9-1.2-4.4c1.1,1,2,2.1,3.1,3.1
	c0.2,0.2,0.4,0.3,0.7,0.2c0,0,0,0.1,0,0.1c0.1,0.5,0.5,0.8,1,0.7c0.5-0.1,0.8-0.5,0.7-1c-0.6-3.1-1.6-6.2-2.5-9.1
	c-0.1-0.4-0.6-0.7-1.1-0.6c-0.4,0.1-0.7,0.6-0.6,1.1C25,61.1,25.6,63.2,26.1,65.4z M34.2,58.5c0.9,2.1,1.6,4.3,2.6,6.3
	c0.2,0.4,0.7,0.6,1.1,0.4c0.4-0.2,0.6-0.7,0.4-1.1c-1.1-2.1-1.7-4.4-2.7-6.5c1.3-0.9,2.5-2,3.5-3c0.3-0.3,0.3-0.9,0-1.2
	c-0.3-0.3-0.9-0.3-1.2,0c-1.9,2-4.6,3.8-6.9,5.4c-0.4,0.3-0.5,0.8-0.2,1.2c0.3,0.4,0.8,0.5,1.2,0.2C32.7,59.6,33.4,59.1,34.2,58.5z
	 M43.3,56.6C43.3,56.6,43.3,56.6,43.3,56.6c-1.1,0.7-2.2,1.4-3.3,2.1c-0.1-0.3-0.3-0.6-0.4-0.9c-0.2-0.4-0.7-0.6-1.1-0.4
	c-0.4,0.2-0.6,0.7-0.4,1.1c0.6,1.3,1.2,2.7,1.9,4.1c0.2,0.4,0.7,0.6,1.1,0.4c0.4-0.2,0.6-0.7,0.4-1.1c-0.3-0.5-0.5-1-0.7-1.5
	c1.1-0.6,2.1-1.3,3.2-2c0.4,1.1,0.8,2.2,1.2,3.3c0.2,0.4,0.7,0.7,1.1,0.5c0.4-0.2,0.7-0.7,0.5-1.1c-1.2-3.3-2.3-6.7-3.3-10
	c-0.1-0.5-0.6-0.7-1.1-0.6c-0.5,0.1-0.7,0.6-0.6,1.1C42.2,53.2,42.7,54.9,43.3,56.6z M47.9,52c-0.1,0-0.2-0.1-0.3-0.1
	c-0.5,0-0.9,0.4-0.9,0.8c0,0.5,0,1,0,1.5c0,1.1,0.2,2.9,0.9,4.1c0.5,0.9,1.1,1.6,2,1.9c0.6,0.2,1.3,0.1,2.1-0.2
	c0.5-0.2,1-0.6,1.4-0.9c0.6-0.6,1-1.3,1.3-2c0.2-0.4,0.1-0.9-0.3-1.2c-0.4-0.2-0.9-0.1-1.1,0.3c-0.3,0.5-0.6,1.1-1,1.6
	c-0.2,0.2-0.5,0.5-0.8,0.6c-0.4,0.2-0.7,0.2-1,0.1c-0.4-0.1-0.7-0.5-1-1c-0.1-0.2-0.2-0.5-0.3-0.7c0.1,0,0.1,0,0.2-0.1
	c0.7-0.3,0.7-0.3,1.3-0.7c0.4-0.2,0.6-0.7,0.3-1.2c-0.2-0.4-0.7-0.6-1.2-0.3C49,55,49,55,48.5,55.2c0-0.4-0.1-0.7-0.1-1
	c0-0.2,0-0.3,0-0.5c1-0.7,2-1.3,3-2c0.4-0.3,0.5-0.8,0.2-1.2c-0.3-0.4-0.8-0.5-1.2-0.2C49.7,50.9,48.8,51.5,47.9,52z M7.7,44.6
	C7.7,44.6,7.7,44.6,7.7,44.6c-0.5,0.2-0.7,0.6-0.6,1.1c0.9,2.8,1.7,5.7,3,8.4c0.2,0.4,0.7,0.6,1.1,0.4c0.4-0.2,0.6-0.7,0.4-1.1
	c-1.1-2.4-1.9-5.1-2.7-7.6c0.1,0,0.1-0.1,0.2-0.1c0.4-0.5,0.9-0.8,1.5-0.8c0.5,0,1,0.2,1.5,0.7c0.4,0.4,0.6,0.9,0.6,1.5
	c0,0.4-0.2,0.9-0.6,1.1c-0.4,0.2-0.5,0.7-0.4,1.1c0,0.2,0,0.3,0.1,0.5c0.2,0.4,0.7,0.6,1.2,0.3c0.6-0.3,1.1-0.4,1.6-0.2
	c0.8,0.3,1.2,1.3,1.3,2.3c0.1,1.7-0.9,3.1-2.4,3.7c-0.4,0.2-0.6,0.7-0.5,1.1c0.2,0.4,0.7,0.6,1.1,0.5c2.2-0.9,3.6-2.9,3.5-5.3
	c-0.1-1.7-1-3.2-2.3-3.7c-0.3-0.2-0.7-0.3-1.1-0.3c0.4-1.2,0-2.7-0.8-3.6c-0.8-0.9-1.9-1.3-2.9-1.2c-1,0.1-1.9,0.6-2.7,1.4
	C7.8,44.5,7.8,44.5,7.7,44.6z M58,48.3c0.7,2.4,1.5,4.8,2.2,7.2c0.1,0.4,0.6,0.7,1.1,0.6c0.4-0.1,0.7-0.6,0.6-1.1c-0.3-1-0.6-2-1-3
	c0.4-0.3,0.9-0.5,1.3-0.7c0.4-0.2,0.6-0.7,0.4-1.1c-0.2-0.4-0.7-0.6-1.1-0.4c-0.4,0.2-0.8,0.4-1.2,0.6c-0.2-0.8-0.5-1.6-0.7-2.3
	c1.1-0.8,2.2-1.7,3.3-2.5c0.4-0.3,0.5-0.8,0.2-1.2c-0.3-0.4-0.8-0.5-1.2-0.2c-1.3,1-2.6,2-3.9,2.9C57.7,47.3,57.7,47.9,58,48.3
	C58,48.3,58,48.3,58,48.3z M65.2,47.5c0.7,1.7,1.3,3.5,1.9,5.2c0.2,0.4,0.7,0.7,1.1,0.5c0.4-0.2,0.7-0.7,0.5-1.1
	c-0.7-1.7-1.3-3.5-1.9-5.2c-0.2-0.4-0.7-0.7-1.1-0.5C65.2,46.5,65,47,65.2,47.5z M16.7,44.9c0.3,1.4,0.5,2.9,1.1,4.2
	c0.5,0.9,1.8,2.5,3.1,3.1c0.6,0.2,1.1,0.3,1.7,0.1c0.5-0.2,1-0.6,1.4-1.3c0.2-0.4,0.3-0.8,0.4-1.2c0.3-2.5-0.9-4.8-2.2-6.8
	c-0.3-0.4-0.8-0.5-1.2-0.2c-0.4,0.3-0.5,0.8-0.2,1.2c1.1,1.7,2.2,3.6,2,5.6c0,0.2-0.1,0.5-0.2,0.7c-0.1,0.3-0.3,0.4-0.4,0.5
	c-0.3,0.1-0.6-0.1-0.9-0.3c-0.8-0.5-1.5-1.4-1.8-2c-0.6-1.2-0.7-2.6-0.9-3.8c-0.1-0.5-0.6-0.7-1-0.6C16.9,44,16.6,44.4,16.7,44.9z
	 M68.2,42.9c-0.2,0.2-0.3,0.5-0.2,0.8c0.7,2.2,1.1,4.5,1.9,6.7c0.2,0.4,0.7,0.7,1.1,0.5c0.4-0.2,0.7-0.7,0.5-1.1
	c-0.8-2-1.2-4.1-1.8-6.2c0.2-0.2,0.5-0.4,0.8-0.6c0.3-0.1,0.6-0.1,0.8,0c0.4,0.3,0.7,0.9,0.9,1.5c0.1,0.6,0.1,1.2-0.2,1.5
	c-0.3,0.3-0.3,0.7-0.1,1c0,0.3,0.2,0.5,0.5,0.6c2.3,1.1,4.3,2.7,6.4,4.1c0.4,0.3,0.9,0.2,1.2-0.2c0.3-0.4,0.2-0.9-0.2-1.2
	c-2-1.3-3.8-2.8-5.9-3.9c0.2-0.5,0.3-1.1,0.3-1.7c-0.1-1.3-0.8-2.7-1.7-3.2c-0.6-0.4-1.3-0.5-1.9-0.3c-0.8,0.2-1.6,0.7-2.1,1.3
	C68.3,42.7,68.2,42.8,68.2,42.9z M25.7,41.9C25.7,41.9,25.7,41.9,25.7,41.9c0.9,2.5,1.7,5,2.8,7.3c0.2,0.4,0.7,0.6,1.1,0.4
	c0.4-0.2,0.6-0.7,0.4-1.1c-1.1-2.3-1.9-4.8-2.8-7.2c0,0,0,0,0,0c0.8-0.3,1.6-0.7,2.4-1.1c0.4-0.2,0.6-0.7,0.4-1.1
	c-0.2-0.4-0.7-0.6-1.1-0.4c-1.8,0.9-3.8,1.8-5.8,2.2c-0.5,0.1-0.8,0.5-0.7,1c0.1,0.5,0.5,0.7,1,0.7C24.2,42.4,25,42.1,25.7,41.9z
	 M77.6,39.6c-1.7,0.4-2.8,2.2-1.8,3.9c0.3,0.5,0.7,0.9,1.1,1.3c0.3,0.3,0.6,0.5,0.8,0.9c0.2,0.4,0.2,1-0.3,1.1
	c-0.4,0.2-0.7,0.6-0.5,1.1c0.2,0.4,0.6,0.7,1.1,0.5c1.5-0.5,2-2.2,1.3-3.5c-0.3-0.5-0.7-0.9-1.1-1.3c-0.3-0.3-0.6-0.5-0.8-0.9
	c-0.4-0.6,0.1-1.2,0.8-1.4c0.5-0.1,0.7-0.6,0.6-1C78.5,39.8,78,39.5,77.6,39.6z M82.1,41.4c0.9,1.6,1.5,3.4,2.4,5
	c0.2,0.4,0.7,0.6,1.1,0.4c0.4-0.2,0.6-0.7,0.4-1.1c-0.9-1.8-1.6-3.7-2.6-5.5c0.4-0.3,0.7-0.7,1.1-1c0.9-0.8,1.9-1.4,2.7-2.3
	c0.3-0.3,0.3-0.9,0-1.2c-0.3-0.3-0.9-0.3-1.2,0c-0.8,0.8-1.8,1.4-2.7,2.2c-1.3,1.2-2.6,2.4-3.9,3.5c-0.4,0.3-0.4,0.8-0.1,1.2
	c0.3,0.4,0.8,0.4,1.2,0.1C81.1,42.3,81.6,41.8,82.1,41.4z M37.5,41.6c0.3,1.3,0.7,2.6,1.2,3.8c0.2,0.4,0.7,0.7,1.1,0.5
	c0.4-0.2,0.7-0.7,0.5-1.1c-0.5-1.2-0.8-2.4-1.1-3.6c-0.1-0.5-0.6-0.7-1-0.6C37.6,40.7,37.4,41.2,37.5,41.6z M94.5,34.1
	c-1.1,0.3-1.8,1.1-2,2c-0.1,0.6,0,1.4,0.5,2c0.4,0.5,0.9,0.9,1.4,1.3c0.4,0.4,0.8,0.8,0.8,1.6c0,0.3,0,0.6-0.1,0.8
	c-0.1,0.3-0.2,0.5-0.4,0.7c-0.3,0.3-0.7,0.4-1,0.5c-0.4,0.2-0.7,0.6-0.5,1.1c0.2,0.4,0.6,0.7,1.1,0.5c0.6-0.2,1.1-0.5,1.6-0.9
	c0.4-0.4,0.7-0.9,0.9-1.4c0.1-0.4,0.2-0.9,0.2-1.3c0.1-1.2-0.4-2-1-2.6c-0.5-0.5-1-0.8-1.5-1.4c-0.2-0.2-0.2-0.4-0.2-0.7
	c0.1-0.3,0.4-0.6,0.8-0.7c0.5-0.1,0.7-0.6,0.6-1C95.4,34.3,94.9,34,94.5,34.1z M41,37.6C41,37.6,41,37.6,41,37.6
	c0.6,1.9,1.1,3.8,1.7,5.6c0.2,0.4,0.6,0.7,1.1,0.5c0.4-0.2,0.7-0.6,0.5-1.1c-0.6-1.8-1.1-3.7-1.7-5.5c0-0.1-0.1-0.2-0.1-0.2
	c0.8-0.4,1.6-0.8,2.4-1.2c0.4-0.2,0.6-0.7,0.4-1.1c-0.2-0.4-0.7-0.6-1.1-0.4c-2.2,1.1-4.4,2.2-6.7,3.2c-0.4,0.2-0.6,0.7-0.4,1.1
	c0.2,0.4,0.7,0.6,1.1,0.4C39.1,38.5,40.1,38,41,37.6z M98.1,35.8c0.5,1.7,1.1,3.5,1.7,5.1c0.2,0.4,0.7,0.7,1.1,0.5
	c0.4-0.2,0.7-0.7,0.5-1.1c-0.6-1.6-1.1-3.4-1.7-5c-0.1-0.4-0.6-0.7-1.1-0.6C98.2,34.8,98,35.3,98.1,35.8z M102.6,32.7
	c0.6,2.2,1.4,4.5,2.3,6.6c0.2,0.4,0.7,0.6,1.1,0.5c0.4-0.2,0.6-0.7,0.5-1.1c-0.9-2.2-1.7-4.5-2.3-6.8c1.2-0.7,2.3-1.4,3.5-2.1
	c0.4-0.2,0.5-0.8,0.3-1.2c-0.2-0.4-0.8-0.5-1.2-0.3c-2.3,1.4-4.6,2.9-7,3.9c-0.4,0.2-0.6,0.7-0.4,1.1c0.2,0.4,0.7,0.6,1.1,0.4
	C101.1,33.4,101.8,33.1,102.6,32.7z M50.5,29.8c0,0.1,0,0.1,0,0.2c1,2.7,1.7,5.4,2.6,8.1c0.2,0.4,0.6,0.7,1.1,0.5
	c0.4-0.2,0.7-0.6,0.5-1.1c-0.9-2.6-1.6-5.2-2.5-7.7c1-0.3,2-0.5,3,0c3.1,1.7,4.1,6.6,0.4,8.3c-0.4,0.2-0.6,0.7-0.4,1.1
	c0.2,0.4,0.7,0.6,1.1,0.4c5.1-2.3,3.9-9.1-0.3-11.4c-1.7-0.9-3.5-0.5-5.2,0.2c-0.4,0.2-0.7,0.7-0.5,1.1
	C50.4,29.6,50.4,29.7,50.5,29.8z M0.1,30.4c1.2,2.5,2.1,5.1,3.1,7.8c0.2,0.4,0.7,0.7,1.1,0.5c0.4-0.2,0.7-0.6,0.5-1.1
	c-1-2.7-1.9-5.3-3.2-7.9c-0.2-0.4-0.7-0.6-1.1-0.4C0.1,29.4-0.1,29.9,0.1,30.4z M10.1,25.9c-2.2,1.8-3.4,5-2.3,7.8
	c1.2,3.1,5.5,3.6,7.5,1.1c0.3-0.4,0.2-0.9-0.1-1.2c-0.4-0.3-0.9-0.2-1.2,0.1c-1.3,1.5-3.9,1.3-4.6-0.7c-0.8-2.1,0.2-4.5,1.8-5.9
	c0.4-0.3,0.4-0.8,0.1-1.2C11,25.6,10.5,25.6,10.1,25.9z M60.6,27.1c-0.1,0.1-0.1,0.2-0.1,0.3c-0.3,2.2-0.6,4.8,0.5,6.9
	c0.4,0.8,0.9,1.3,1.4,1.5c0.9,0.5,1.8,0.4,2.8-0.1c1.1-0.6,2.2-1.9,2.6-3.1c0.2-0.4-0.1-0.9-0.5-1.1c-0.4-0.2-0.9,0.1-1.1,0.5
	c-0.3,0.7-0.8,1.5-1.5,2c-0.4,0.3-0.9,0.6-1.4,0.4c-0.3-0.1-0.6-0.4-0.8-0.9c-0.3-0.7-0.5-1.4-0.5-2.1c0.2,0,0.3,0,0.5-0.1
	c0.7-0.3,1.3-0.6,1.9-1c0.4-0.3,0.5-0.8,0.2-1.2c-0.3-0.4-0.8-0.5-1.2-0.2c-0.5,0.3-0.9,0.5-1.4,0.8c0.1-0.7,0.1-1.4,0.2-2.1
	c0,0,0-0.1,0-0.1c1.1-0.6,2.1-1.2,3.1-1.9c0.4-0.2,0.5-0.8,0.3-1.2c-0.2-0.4-0.8-0.5-1.2-0.3c-1.1,0.7-2.2,1.4-3.3,2
	C60.8,26.4,60.6,26.8,60.6,27.1z M67.3,24.5c0,0.1,0,0.2,0,0.3c0.6,2.7,1.2,5.3,1.7,8c0.1,0.5,0.5,0.8,1,0.7c0.5-0.1,0.8-0.5,0.7-1
	c-0.5-2.7-1.1-5.4-1.7-8.1c0,0,0,0,0,0c0.6-0.2,1.1-0.1,1.5,0.1c1.4,0.7,1.9,2.8,0.2,4c-0.4,0.3-0.5,0.8-0.2,1.2
	c0.3,0.4,0.8,0.5,1.2,0.2c2.8-2.1,1.9-5.7-0.5-6.9c-1-0.5-2.3-0.5-3.7,0.2c-0.4,0.2-0.6,0.7-0.3,1.2C67.3,24.4,67.3,24.5,67.3,24.5z
	 M14.3,23c0,0.1-0.1,0.2-0.1,0.3c0,2.3,0.1,4.9-0.2,7.3c-0.4,0.2-0.6,0.6-0.4,1c0.1,0.2,0.2,0.3,0.3,0.4c0.1,0.2,0.3,0.4,0.6,0.5
	c0.5,0.1,0.9-0.2,1-0.7c0,0,0,0,0,0c1.1-0.5,2.1-1.1,3.1-1.7c0.6,1,1.2,2,1.9,3c0.2,0.4,0.8,0.5,1.2,0.3c0.4-0.3,0.5-0.8,0.3-1.2
	c-0.7-1.2-1.5-2.3-2.2-3.5c0,0,0-0.1,0-0.1c0-0.1-0.1-0.2-0.2-0.2c-1.2-2.1-2.5-4.1-3.8-6.2c-0.3-0.4-0.8-0.5-1.2-0.2
	C14.3,22.2,14.2,22.7,14.3,23z M75.6,21.8c-0.4,0-0.6,0.3-0.7,0.7c-0.2,1.2-0.7,2.9-0.7,4.5c0,1.2,0.1,2.4,0.6,3.2
	c0.8,1.4,2.1,1.8,3.4,1.6c1.8-0.3,3.7-1.8,4.3-3.2c0.2-0.4,0-0.9-0.4-1.1c-0.4-0.2-0.9,0-1.1,0.4c-0.4,0.9-1.4,1.7-2.4,2.1
	c-0.9,0.3-1.8,0.3-2.3-0.6c-0.2-0.4-0.3-0.8-0.4-1.2c0.2,0.1,0.4,0.1,0.6,0c0.7-0.3,1.4-0.7,2-1.2c0.4-0.3,0.5-0.8,0.2-1.2
	c-0.3-0.4-0.8-0.5-1.2-0.2c-0.6,0.4-1.1,0.7-1.7,1c0.1-1.2,0.4-2.4,0.6-3.4c0,0,0.1,0,0.1,0c0.9-0.5,1.8-0.9,2.7-1.4
	c0.4-0.2,0.6-0.7,0.4-1.1c-0.2-0.4-0.7-0.6-1.1-0.4c-0.9,0.5-1.8,0.9-2.7,1.4C75.7,21.7,75.7,21.8,75.6,21.8z M26.6,26.6
	c-1.4-1.7-2.8-3.4-4.5-4.9c-0.4-0.3-0.9-0.2-1.2,0.1c-0.2,0.3-0.2,0.6-0.1,0.9c-0.1,0.2-0.1,0.4,0,0.6c0.8,2.6,1.5,5.2,2,7.8
	c0.1,0.5,0.5,0.8,1,0.7c0.5-0.1,0.8-0.5,0.7-1c-0.4-2-0.9-4-1.4-5.9c1.3,1.4,2.4,2.9,3.6,4.3c0.1,0.2,0.3,0.3,0.5,0.3
	c0.2,0.2,0.4,0.2,0.6,0.2c0.5,0,0.8-0.4,0.8-0.9c-0.2-2.3-0.6-4.6-0.8-6.9c-0.2-1.6-0.2-3.3-0.4-4.9c-0.1-0.5-0.5-0.8-1-0.7
	c-0.5,0.1-0.8,0.5-0.7,1c0.2,1.6,0.2,3.2,0.4,4.9C26.1,23.6,26.4,25.1,26.6,26.6z M16,25.7c0,1.4,0,2.8-0.1,4.1
	c0.7-0.4,1.3-0.7,2-1.1C17.2,27.7,16.6,26.7,16,25.7z M86.5,24.5c-1.2-1.7-2.2-3.6-3.3-5.3c0-0.1,0-0.2,0-0.2c0-0.5-0.4-0.8-0.9-0.8
	c-0.5,0-0.8,0.4-0.8,0.9c0,0,0,0.1,0,0.1c0,0.2,0,0.3,0,0.5c0.1,1.9,0.1,3.7,0.4,5.6c0.1,0.5,0.5,0.8,1,0.7c0.5-0.1,0.8-0.5,0.7-1
	c-0.1-0.7-0.2-1.5-0.2-2.2c0.9,1.5,1.8,3,3,4.3c0.1,0.2,0.3,0.3,0.6,0.3c0.1,0.1,0.3,0.1,0.5,0.2c0.5,0,0.9-0.3,0.9-0.8
	c0.1-3.3-0.3-6.5-0.6-9.8c0-0.5-0.4-0.8-0.9-0.8c-0.5,0-0.8,0.4-0.8,0.9C86.1,19.5,86.4,22,86.5,24.5z M36.4,14.6
	c0,0.8,0,1.5-0.1,2.3c0,0.7-0.1,1.5,0,2.2c0.1,0.5,0.1,1.1,0.2,1.6c0.1,1.1,0.3,3.5,1.2,4.9c0.4,0.6,0.8,1.1,1.4,1.3
	c0.6,0.3,1.3,0.3,2.1,0c0.6-0.2,1.1-0.6,1.7-1c0.6-0.4,1-0.8,1.4-1.4c0.3-0.4,0.2-0.9-0.2-1.2c-0.4-0.3-0.9-0.2-1.2,0.2
	c-0.3,0.4-0.6,0.7-1,1c-0.4,0.3-0.8,0.6-1.3,0.8c-0.3,0.1-0.6,0.1-0.8,0c-0.4-0.2-0.7-0.7-0.9-1.2c-0.5-1.2-0.6-2.8-0.7-3.7
	c-0.1-0.5-0.1-1.1-0.2-1.6c-0.1-0.7-0.1-1.3,0-2c0-0.8,0.1-1.6,0.1-2.4c0-0.5-0.4-0.9-0.8-0.9C36.7,13.7,36.4,14.1,36.4,14.6z
	 M90.1,14.5c-0.2-0.1-0.4-0.1-0.5-0.1c-0.5,0.1-0.7,0.6-0.6,1c0.6,2.8,1.2,5.6,1.8,8.4c0.1,0.5,0.5,0.8,1,0.7c0.5-0.1,0.8-0.5,0.7-1
	c-0.5-2.5-1-5-1.5-7.4c2.4-0.2,4,1.7,4.1,4.1c0,0.7-0.2,1.8-0.8,2.6c-0.3,0.4-0.6,0.8-1,0.9c-0.5,0.1-0.8,0.5-0.7,1
	c0.1,0.5,0.5,0.8,1,0.7c0.8-0.2,1.6-0.8,2.1-1.6c0.7-1.1,1.1-2.6,1-3.6C96.4,16.6,93.8,13.9,90.1,14.5z M46.2,12.2
	c-0.4,0.5-0.7,0.9-0.9,1.5c-0.2,0.8-0.3,1.4-0.1,2c0.2,0.8,0.7,1.4,1.4,2c0.7,0.6,1.7,1.2,2.1,2.2c0.2,0.6,0.1,1.3-0.1,1.8
	c-0.2,0.5-0.7,0.9-1.3,0.8c-0.5,0-0.9,0.3-0.9,0.8c0,0.5,0.3,0.9,0.8,0.9c1.3,0.1,2.3-0.7,2.9-1.7c0.5-1,0.6-2.2,0.2-3.2
	c-0.4-1.1-1.3-1.8-2.1-2.5c-0.8-0.6-1.7-1.2-1.2-2.6c0.1-0.3,0.3-0.6,0.5-0.9c0.3-0.4,0.3-0.9-0.1-1.2C47,11.8,46.5,11.8,46.2,12.2z
	 M99.8,12.4c-0.9,0.1-1.9,0.7-2.5,1.5c-0.6,0.9-0.8,2-0.1,3.1c0.4,0.7,1.1,1,1.8,1.4c0.3,0.2,0.6,0.3,0.7,0.6c0.1,0.2,0.1,0.4,0,0.7
	c-0.1,0.2-0.2,0.4-0.3,0.6c-0.2,0.2-0.4,0.5-0.7,0.6c-0.4,0.2-0.6,0.7-0.5,1.1c0.2,0.4,0.7,0.6,1.1,0.5c0.5-0.2,1-0.6,1.4-1.1
	c0.3-0.4,0.5-0.8,0.6-1.3c0.2-0.8,0.1-1.4-0.1-1.9c-0.2-0.5-0.6-0.8-1-1.1c-0.3-0.2-0.7-0.4-1-0.6c-0.2-0.1-0.4-0.3-0.6-0.5
	c-0.3-0.4-0.2-0.9,0.1-1.2c0.3-0.4,0.8-0.8,1.4-0.9c0.5-0.1,0.8-0.5,0.7-1C100.7,12.7,100.3,12.3,99.8,12.4z M41,16.4
	c0.3,1.4,0.7,2.8,1.2,4.2c0.1,0.4,0.6,0.7,1.1,0.6c0.4-0.1,0.7-0.6,0.6-1.1c-0.4-1.4-0.8-2.7-1.1-4.1c-0.1-0.5-0.6-0.7-1-0.6
	C41.2,15.5,40.9,15.9,41,16.4z M52,13.3c0.9,2.3,1.7,4.7,2.4,7.1c0.1,0.5,0.6,0.7,1.1,0.6c0.4-0.1,0.7-0.6,0.6-1.1
	c-0.7-2.5-1.6-5.1-2.6-7.6c1.1-0.8,2.2-1.5,3.3-2.4c0.4-0.3,0.4-0.8,0.1-1.2c-0.3-0.4-0.8-0.4-1.2-0.1c-2.1,1.8-4.5,3.2-6.8,4.7
	c-0.4,0.3-0.5,0.8-0.2,1.2c0.3,0.4,0.8,0.5,1.2,0.2C50.6,14.3,51.3,13.8,52,13.3z M58,10.4c-0.2,0.1-0.3,0.3-0.3,0.5
	c-0.3,1.3-0.7,4.2-0.1,6c0.3,0.8,0.7,1.4,1.3,1.7c0.6,0.3,1.4,0.4,2.5,0c0.5-0.2,1-0.5,1.5-0.8c0.6-0.5,1-1.1,1.4-1.7
	c0.2-0.4,0.1-0.9-0.3-1.2c-0.4-0.2-0.9-0.1-1.2,0.3c-0.3,0.5-0.6,0.9-1,1.3c-0.3,0.2-0.6,0.4-0.9,0.5c-0.5,0.2-0.9,0.2-1.1,0.1
	c-0.4-0.2-0.6-0.8-0.7-1.5c0.1,0,0.1,0,0.2-0.1c0.5-0.3,0.5-0.3,1-0.6c0.4-0.3,0.5-0.8,0.3-1.2c-0.3-0.4-0.8-0.5-1.2-0.3
	c-0.1,0.1-0.2,0.1-0.3,0.2c0.1-0.9,0.2-1.7,0.3-2.3c0.9-0.5,1.7-1.2,2.5-1.8c0.4-0.3,0.5-0.8,0.2-1.2c-0.3-0.4-0.8-0.5-1.2-0.2
	c-0.8,0.6-1.6,1.3-2.5,1.8C58.2,10.2,58.1,10.3,58,10.4z M74.1,14.3c-0.1,1.2-0.3,2.4-0.6,3.5c-0.1,0.4,0.1,0.9,0.5,1.1
	c0.4,0.1,0.9-0.1,1.1-0.5c0.4-1.3,0.6-2.6,0.7-3.9c0-0.5-0.3-0.9-0.8-0.9C74.5,13.4,74.1,13.8,74.1,14.3z M70.7,12.8
	c-1.4-2.4-3-4.7-4.5-7c-0.3-0.4-0.8-0.5-1.2-0.3c-0.4,0.3-0.5,0.8-0.3,1.2l0,0.1c-0.1,0.2-0.2,0.4-0.1,0.6c0.4,2.7,0.9,5.4,1.1,8.1
	c0,0.5,0.4,0.8,0.9,0.8c0.5,0,0.8-0.4,0.8-0.9c-0.1-1.9-0.4-3.8-0.7-5.6c1.2,1.8,2.4,3.6,3.4,5.4c0.2,0.4,0.7,0.5,1.2,0.3
	c0,0,0.1,0,0.1,0c0.5,0,0.9-0.3,0.9-0.8c0.3-4.6,0.4-9.3,0.6-13.9c0-0.5-0.3-0.9-0.8-0.9c-0.5,0-0.9,0.3-0.9,0.8
	C71,4.8,70.9,8.8,70.7,12.8z"/>
</svg>
