<?xml version="1.0" encoding="utf-8"?>
<!-- Generator: Adobe Illustrator 24.2.0, SVG Export Plug-In . SVG Version: 6.00 Build 0)  -->
<svg version="1.1" id="Calque_1" xmlns:serif="http://www.serif.com/"
	 xmlns="http://www.w3.org/2000/svg" xmlns:xlink="http://www.w3.org/1999/xlink" x="0px" y="0px" viewBox="0 0 64.6 45.6"
	 style="enable-background:new 0 0 64.6 45.6;" xml:space="preserve">
<style type="text/css">
	.st0{fill-rule:evenodd;clip-rule:evenodd;}
</style>
<path class="st0" d="M5.8,36.7c1,2.8,1.7,5.6,2.7,8.4c0.2,0.4,0.6,0.7,1.1,0.5c0.4-0.2,0.7-0.6,0.5-1.1c-1-2.9-1.8-5.8-2.8-8.7
	c1.5-0.9,3-1.9,4.4-2.9c0.4-0.3,0.5-0.8,0.2-1.2c-0.3-0.4-0.8-0.5-1.2-0.2c-2.6,1.8-5.5,3.7-8.4,4.9c-0.4,0.2-0.7,0.7-0.5,1.1
	S2.6,38.2,3,38C4,37.6,4.9,37.2,5.8,36.7z M11.1,39.8c0.1,0.7,0.2,1.4,0.5,2.1c0.4,0.6,1,1.2,1.8,1.4c0.8,0.3,1.7,0.1,2.4-0.5
	c1-1,1.2-2.7,1.1-4c-0.1-1.4-0.4-2.9-1.4-3.9c-0.8-0.8-1.7-1-2.4-0.9c-1.1,0.2-2,1.3-2.2,2.8c-0.1,0.5,0.3,0.9,0.8,0.9
	c0.5,0.1,0.9-0.3,0.9-0.8c0.1-0.7,0.4-1.2,0.8-1.3c0.3-0.1,0.6,0.1,0.8,0.4c0.7,0.7,0.9,1.8,0.9,2.8c0,0.5,0,1-0.1,1.6
	c-0.1,0.4-0.2,0.8-0.5,1.1c-0.2,0.2-0.5,0.2-0.7,0.1c-0.3-0.1-0.6-0.3-0.8-0.6c-0.2-0.4-0.3-0.9-0.3-1.4c-0.1-0.5-0.5-0.8-0.9-0.8
	C11.4,39,11.1,39.4,11.1,39.8z M18.2,38.9c0.3,1.3,1.3,2.3,2.3,2.4c0.7,0.1,1.6-0.2,2.3-1.3c0.9-1.4,1-3.4,0.7-5
	c-0.2-1-0.5-2.2-1.2-3c-0.7-0.8-1.7-0.8-2.5-0.4c-0.7,0.3-1.3,1-1.5,1.8c-0.2,0.6-0.2,1.1-0.2,1.7c0,0.5,0.4,0.8,0.9,0.8
	c0.5,0,0.8-0.4,0.8-0.9c0-0.4,0-0.8,0.1-1.2c0.1-0.3,0.3-0.5,0.6-0.7c0.2-0.1,0.4-0.1,0.5,0.1c0.5,0.5,0.6,1.4,0.7,2.1
	c0.2,1.2,0.2,2.7-0.4,3.8c-0.2,0.3-0.4,0.5-0.6,0.5c-0.2,0-0.3-0.1-0.5-0.3c-0.2-0.2-0.3-0.5-0.4-0.8c-0.1-0.5-0.6-0.7-1-0.6
	C18.3,38,18,38.5,18.2,38.9z M28,37.5C28,37.5,28,37.5,28,37.5c0.1,0.5,0.5,0.8,1,0.7c1.7-0.3,3.4-1.1,4.8-2
	c0.4-0.2,0.5-0.8,0.3-1.2c-0.2-0.4-0.8-0.5-1.2-0.3c-1.1,0.6-2.3,1.3-3.6,1.6c-0.1-1.3,0-2.5,0-3.8c0-2.1-0.1-4.3-0.2-6.4
	c0-0.5-0.4-0.8-0.9-0.8c-0.5,0-0.8,0.4-0.8,0.9c0.1,2.1,0.2,4.2,0.2,6.4c0,1.5-0.1,2.9,0.1,4.4C27.8,37.2,27.9,37.4,28,37.5z
	 M33.4,24.4c-0.1,0.1-0.2,0.3-0.3,0.5c-0.4,2.2-0.6,4.5-0.7,6.8c-0.3,0.2-0.5,0.7-0.3,1.1c0,0.1,0.1,0.2,0.2,0.2c0,0.1,0,0.2,0,0.3
	c0,0.5,0.3,0.9,0.8,0.9c0.5,0,0.9-0.3,0.9-0.8c0-0.2,0-0.4,0.1-0.7c1-0.5,2.1-1,3.1-1.6c0.6,1,1.2,2,1.8,3c0.2,0.4,0.8,0.5,1.2,0.3
	c0.4-0.2,0.5-0.8,0.3-1.2c-0.7-1.1-1.3-2.2-1.9-3.3c0-0.2,0-0.3-0.1-0.5c-0.1-0.2-0.2-0.3-0.4-0.4c-1-1.7-2-3.4-3.1-4.9
	c-0.3-0.4-0.8-0.5-1.2-0.2C33.5,24.2,33.5,24.3,33.4,24.4z M34.5,26.9c-0.2,1.3-0.3,2.6-0.4,3.9c0.7-0.4,1.4-0.7,2.1-1.1
	C35.7,28.8,35.1,27.8,34.5,26.9z M40.2,25.4c0.8,1.6,1.2,3.3,2,4.8c0.2,0.4,0.7,0.6,1.1,0.4c0.4-0.2,0.6-0.7,0.4-1.1
	c-0.8-1.6-1.2-3.2-2-4.8c1.2-0.6,2.4-1.3,3.6-1.9c0.4-0.2,0.5-0.8,0.3-1.2c-0.2-0.4-0.8-0.5-1.2-0.3c-2.3,1.3-4.8,2.6-7.3,3.4
	c-0.4,0.1-0.7,0.6-0.6,1.1c0.1,0.4,0.6,0.7,1.1,0.6C38.5,26.1,39.3,25.8,40.2,25.4z M48.3,20.6c-0.4-0.1-0.8,0.1-1,0.5
	c-0.8,2-1.4,4.8-0.5,6.9c0.5,1.1,1.9,1.5,2.9,1.4c1.9-0.3,3.5-1.7,4.4-3.4c0.2-0.4,0.1-0.9-0.3-1.2c-0.4-0.2-0.9-0.1-1.2,0.3
	c-0.7,1.2-1.8,2.3-3.2,2.5c-0.2,0-0.5,0-0.8-0.1c-0.2-0.1-0.3-0.1-0.4-0.3c-0.3-0.6-0.4-1.4-0.3-2.1c0,0.1,0.1,0.1,0.1,0.2
	c0.2,0.4,0.8,0.5,1.2,0.3c0.1,0,0.2-0.1,0.2-0.1c0.4-0.2,0.5-0.8,0.3-1.2c-0.2-0.4-0.8-0.5-1.2-0.3c-0.1,0-0.2,0.1-0.2,0.1
	c-0.1,0.1-0.2,0.2-0.3,0.3c0.1-0.8,0.4-1.6,0.6-2.4c0.2,0,0.4,0,0.5-0.2c0.9-0.6,1.8-1.1,2.8-1.6c0.4-0.2,0.6-0.7,0.4-1.1
	c-0.2-0.4-0.7-0.6-1.1-0.4C50.2,19.4,49.2,19.9,48.3,20.6z M1.7,26.1c1.6,1,3.1,0.9,4.2,0.1c1-0.8,1.6-2.2,1.4-3.9
	c-0.3-1.8-1.4-3.1-2.7-4.2c-1-1-2.2-1.8-2.7-3.1C1.6,14.5,1.7,14,2,13.9c0.1-0.1,0.3,0,0.6,0.1c0.4,0.3,0.9,0.2,1.2-0.2
	c0.3-0.4,0.2-0.9-0.2-1.2c-1-0.7-1.8-0.6-2.5-0.2c-0.9,0.6-1.4,1.9-0.8,3.2c0.7,1.5,1.9,2.6,3.1,3.7c1,0.9,1.9,1.8,2.2,3.3
	c0.2,1-0.1,1.8-0.7,2.2c-0.6,0.4-1.4,0.4-2.2-0.2c-0.4-0.3-0.9-0.1-1.2,0.2C1.2,25.3,1.3,25.8,1.7,26.1z M63,25.8
	c0.5-3.6,1.1-7.3,1.6-10.9c0.1-0.5-0.3-0.9-0.7-0.9c-0.5-0.1-0.9,0.3-0.9,0.7c-0.4,3.6-1.1,7.3-1.6,10.9c-0.1,0.5,0.3,0.9,0.7,0.9
	C62.5,26.6,62.9,26.2,63,25.8z M59.4,24.5c0.1-0.1,0.2-0.1,0.3-0.2c0.4-0.3,0.4-0.8,0.1-1.2c-0.3-0.4-0.8-0.4-1.2-0.1
	c-0.1,0.1-0.2,0.1-0.2,0.2c-0.4,0.3-0.4,0.8-0.2,1.2C58.5,24.7,59,24.8,59.4,24.5z M8,17.5c0.1,1.8,0.6,4,2.1,5.1
	c0.8,0.6,1.6,0.8,2.3,0.7c0.7-0.1,1.4-0.4,1.9-1c1-0.9,1.6-2.5,1.6-3.8c0.1-2.1-0.9-4.8-2.6-6.1c-2-1.6-4.8-0.9-5.6,1.5
	c-0.1,0.4,0.1,0.9,0.5,1.1c0.4,0.1,0.9-0.1,1.1-0.5c0.4-1.3,1.9-1.6,2.9-0.8c1.3,1.1,2,3.2,2,4.8c0,0.9-0.5,2-1.1,2.6
	c-0.3,0.3-0.6,0.5-0.9,0.5c-0.3,0-0.7-0.1-1.1-0.4c-1.1-0.9-1.4-2.6-1.4-3.9c0-0.5-0.4-0.8-0.9-0.8C8.3,16.7,8,17.1,8,17.5z
	 M58.5,21.6C58.6,21.6,58.6,21.6,58.5,21.6c0.4-0.4,0.4-0.9,0.1-1.3c-0.3-0.3-0.9-0.3-1.2,0c0,0-0.1,0.1-0.1,0.1
	c-0.3,0.3-0.3,0.9,0,1.2C57.7,22,58.2,22,58.5,21.6z M15.5,9.9c-0.1,0.2-0.2,0.5-0.1,0.7c1.3,3.4,2.7,6.8,4.2,10.2
	c0.2,0.4,0.7,0.6,1.1,0.4c0.4-0.2,0.6-0.7,0.4-1.1c-1.4-3.2-2.7-6.3-3.9-9.6c1.4-0.8,3.5-0.3,3.9,1.5c0.2,1-0.2,2-0.9,2.8
	c0,0-0.1,0.1-0.1,0.1c-0.1,0.1-0.1,0.1-0.1,0.2c-0.2,0.4,0.1,0.9,0.5,1.1c2.1,0.8,3.8,2.2,5.8,3.2c0.4,0.2,0.9,0.1,1.1-0.4
	c0.2-0.4,0.1-0.9-0.4-1.1c-1.7-0.9-3.2-2-5-2.9c0.6-1,0.9-2.3,0.7-3.5c-0.7-3.2-4.6-4.1-7-2.2C15.6,9.6,15.6,9.8,15.5,9.9z
	 M23.5,7.6c0.8,2.4,1.5,4.8,2.3,7.2c0.2,0.4,0.6,0.7,1.1,0.5c0.4-0.2,0.7-0.6,0.5-1.1C26.6,12,26,9.7,25.2,7.4
	c2.1-1,4.1,1.6,3.2,3.8c-0.1,0.1-0.2,0.2-0.3,0.3c-0.2,0.4-0.1,0.9,0.3,1.2c2.7,1.6,5.2,3.6,7.9,5.2c0.4,0.2,0.9,0.1,1.2-0.3
	c0.2-0.4,0.1-0.9-0.3-1.2c-2.4-1.5-4.7-3.2-7.2-4.7c1.5-3.8-2.6-8.1-6.4-5.3C23.3,6.7,23.2,7.2,23.5,7.6z M41.9,11.6
	c0,0.9-0.1,1.8-0.4,2.7c-0.2,0.4,0,0.9,0.5,1.1c0.4,0.2,0.9,0,1.1-0.5c0.5-1.1,0.6-2.2,0.6-3.4c0-0.5-0.4-0.8-0.9-0.8
	C42.2,10.8,41.8,11.1,41.9,11.6z M35.5,8c-1.1-0.8-2.2-1.6-3.3-2.4c-0.4-0.3-0.9-0.2-1.2,0.2c-0.3,0.4-0.2,0.9,0.2,1.2
	c1.3,0.9,2.6,1.8,3.8,2.8c0.1,0.1,0.1,0.1,0.2,0.1c-0.2,1-0.3,2-0.5,3c-0.1,0.5,0.2,0.9,0.7,1c0.5,0.1,0.9-0.2,1-0.7
	c0.7-4.1,1.3-8.2,1.9-12.3c0.1-0.5-0.3-0.9-0.7-1c-0.5-0.1-0.9,0.3-1,0.7C36.3,3.2,35.9,5.6,35.5,8z"/>
</svg>
