<?xml version="1.0" encoding="utf-8"?>
<!-- Generator: Adobe Illustrator 24.2.0, SVG Export Plug-In . SVG Version: 6.00 Build 0)  -->
<svg version="1.1" id="Calque_1" xmlns:serif="http://www.serif.com/"
	 xmlns="http://www.w3.org/2000/svg" xmlns:xlink="http://www.w3.org/1999/xlink" x="0px" y="0px" viewBox="0 0 73.3 37.2"
	 style="enable-background:new 0 0 73.3 37.2;" xml:space="preserve">
<style type="text/css">
	.st0{fill-rule:evenodd;clip-rule:evenodd;}
</style>
<path class="st0" d="M14,20.6c0.5,1.4,1,2.7,1.4,4.1c0.1,0.3,0.4,0.6,0.8,0.6c0.1,0.1,0.1,0.1,0.2,0.2c0.4,0.3,0.9,0.1,1.2-0.3
	c1.1-1.7,2.1-3.4,3-5.2c0.6,5.5,1.5,11,2.4,16.5c0.1,0.5,0.5,0.8,1,0.7c0.5-0.1,0.8-0.5,0.7-1c-1-6.2-2-12.4-2.6-18.7
	c0-0.5-0.5-0.8-0.9-0.8c-0.3,0-0.5,0.2-0.6,0.4c-0.2,0.1-0.4,0.2-0.5,0.4c-1,1.9-2.1,3.8-3.2,5.7c-0.7-2.1-1.5-4.2-2.2-6.4
	c0-0.1-0.1-0.1-0.1-0.2c-0.1-0.3-0.4-0.4-0.7-0.5c-0.5-0.1-0.9,0.3-0.9,0.8c-0.4,4-1.3,8-1.9,12.1c-0.1,0.5,0.3,0.9,0.7,1
	c0.5,0.1,0.9-0.3,1-0.7C13,26.4,13.5,23.5,14,20.6z M0.2,16.3c0.1,5.5-0.4,11-0.2,16.5c0,0.5,0.4,0.8,0.9,0.8c0.5,0,0.8-0.4,0.8-0.9
	c-0.2-5.5,0.3-11,0.2-16.5c0-0.5-0.4-0.8-0.9-0.8C0.6,15.4,0.2,15.8,0.2,16.3z M38.5,14.4C38.4,14.4,38.4,14.4,38.5,14.4
	c-0.5,0-0.9,0.4-0.9,0.8c0,3.6-0.2,7.2-0.4,10.8c0,0.5,0.3,0.9,0.8,0.9c0.5,0,0.9-0.3,0.9-0.8c0.2-3.4,0.3-6.8,0.4-10.2
	c0.1,0,0.1-0.1,0.2-0.2c0.6-0.7,1.2-0.9,1.7-0.7c0.3,0.1,0.5,0.4,0.7,0.7c0.3,0.6,0.4,1.3,0.3,2.1c-0.1,0.7-0.6,1.4-0.9,2.1
	c-0.3,0.7-0.3,1.4-0.1,2.1c1.1,2.8,3.9,5.4,6,7.4c0.3,0.3,0.9,0.3,1.2,0c0.3-0.3,0.3-0.9,0-1.2c-1.9-1.9-4.6-4.2-5.6-6.8
	c-0.2-0.4,0-0.8,0.2-1.2c0.3-0.7,0.7-1.4,0.8-2.1c0.4-2.1-0.6-4-1.9-4.6C40.9,13.1,39.7,13.2,38.5,14.4z M30.7,13.3
	c-0.3,0.1-0.6,0.4-0.6,0.8c-0.1,3.7-0.3,7.4-0.2,11.1c0,0.5,0.4,0.8,0.9,0.8c0.5,0,0.8-0.4,0.8-0.9c0-1.7,0-3.4,0.1-5.1
	c0.1,0,0.3,0,0.4-0.1c0.9-0.4,1.8-0.8,2.7-1.3c0.4-0.2,0.6-0.7,0.3-1.2c-0.2-0.4-0.7-0.6-1.2-0.3c-0.7,0.4-1.5,0.7-2.2,1.1
	c0-1.2,0.1-2.5,0.1-3.7c1.4-1.1,2.9-2,4.5-2.7c0.4-0.2,0.6-0.7,0.4-1.1c-0.2-0.4-0.7-0.6-1.1-0.4C33.9,11.2,32.2,12.1,30.7,13.3z
	 M49,11c-0.1-0.1-0.1-0.1-0.2-0.2c-0.4-0.2-0.9-0.1-1.2,0.3c-0.9,1.5-2.1,4.8-2.2,7.4c-0.1,1.5,0.3,2.9,1.1,3.7
	c0.9,0.8,2.3,1.3,4.5,0.7c0.9-0.2,1.7-0.6,2.5-1.1c0.4-0.2,0.6-0.7,0.3-1.2c-0.2-0.4-0.7-0.6-1.2-0.3c-0.7,0.4-1.4,0.7-2.1,0.9
	c-1.4,0.3-2.3,0.2-2.9-0.3c-0.5-0.5-0.7-1.4-0.6-2.4c0-0.2,0-0.5,0.1-0.7c0.1,0,0.3,0,0.4-0.1c0.6-0.3,1.3-0.6,1.9-0.9
	c0.4-0.2,0.6-0.7,0.4-1.1c-0.2-0.4-0.7-0.6-1.1-0.4c-0.4,0.2-0.8,0.4-1.2,0.6c0.3-1.1,0.7-2.1,1-2.9c1.4-0.6,2.9-1.1,4.3-1.7
	c0.4-0.2,0.6-0.7,0.4-1.1c-0.2-0.4-0.7-0.6-1.1-0.4C51.2,10.2,50.1,10.6,49,11z M60.4,8.7C60,8.5,59.4,8.6,59.2,9
	c-0.4,0.6-0.7,1.3-0.9,1.9c-0.6,1.5-1.3,4.2-1,6.3c0.2,1.7,1.1,3,2.9,3.5c0.6,0.1,1.3,0.1,1.9,0.1c0.8-0.1,1.6-0.3,2.4-0.6
	c1-0.4,1.9-1.1,2.7-1.8c0.3-0.3,0.4-0.9,0.1-1.2c-0.3-0.3-0.9-0.4-1.2-0.1c-0.7,0.6-1.4,1.1-2.2,1.5c-0.6,0.3-1.2,0.4-1.9,0.5
	c-0.4,0-0.9,0.1-1.3,0c-1.1-0.3-1.5-1.1-1.6-2c0-0.2-0.1-0.5-0.1-0.7c0.1,0,0.2,0,0.4,0c0.7-0.2,1.4-0.4,2-0.6
	c0.4-0.2,0.6-0.7,0.5-1.1c-0.2-0.4-0.7-0.6-1.1-0.5c-0.5,0.2-1.1,0.4-1.6,0.5c0.2-1.2,0.5-2.3,0.8-3c0.1-0.4,0.3-0.7,0.5-1.1
	c0.1,0,0.1,0,0.2,0c1.5-0.4,2.8-1,4.1-1.8c0.4-0.3,0.5-0.8,0.3-1.2c-0.3-0.4-0.8-0.5-1.2-0.3C62.6,7.8,61.5,8.3,60.4,8.7z M6.8,14.9
	c0,1,0,2-0.1,3c0,0.5,0.3,0.9,0.8,0.9c0.5,0,0.9-0.3,0.9-0.8C8.5,17,8.5,16,8.5,14.9c0-0.5-0.4-0.8-0.9-0.8
	C7.2,14.1,6.8,14.5,6.8,14.9z M72.5,18.3c0.1,0,0.2-0.1,0.3-0.1c0.4-0.2,0.7-0.6,0.5-1.1c-0.2-0.4-0.6-0.7-1.1-0.5
	c-0.1,0-0.1,0-0.2,0c-0.5,0.1-0.7,0.6-0.6,1C71.6,18.2,72,18.5,72.5,18.3z M70.5,0.9c0.1,4,0.4,8,0.8,11.9c0,0.5,0.5,0.8,0.9,0.8
	c0.5,0,0.8-0.5,0.8-0.9c-0.4-3.9-0.6-7.9-0.7-11.8c0-0.5-0.4-0.8-0.9-0.8C70.9,0,70.5,0.4,70.5,0.9z"/>
</svg>
