<?xml version="1.0" encoding="utf-8"?>
<!-- Generator: Adobe Illustrator 24.2.0, SVG Export Plug-In . SVG Version: 6.00 Build 0)  -->
<svg version="1.1" id="Calque_1" xmlns:serif="http://www.serif.com/"
	 xmlns="http://www.w3.org/2000/svg" xmlns:xlink="http://www.w3.org/1999/xlink" x="0px" y="0px" viewBox="0 0 36.5 95.4"
	 style="enable-background:new 0 0 36.5 95.4;" xml:space="preserve">
<style type="text/css">
	.st0{fill-rule:evenodd;clip-rule:evenodd;}
</style>
<g transform="matrix(1,0,0,1,-540.487,-152.326)">
	<path class="st0" d="M546,155.1c0-1.5-1.2-2.7-2.7-2.7c-1.5,0-2.7,1.2-2.7,2.7c0,9.8,0,19.6,0,29.3c0,19.7,0,39.1,0,58.7
		c0,1.5,1.2,2.8,2.7,2.8c1.5,0,2.7-1.2,2.8-2.7c0-8.2,0-16.3,0-24.5c2.5,0,5.1,0.1,7.6,0.1c0,3.9-0.1,7.9-0.2,11.8
		c0,1.5,1.2,2.8,2.7,2.8c1.5,0,2.8-1.2,2.8-2.7c0.1-3.9,0.2-7.9,0.2-11.8l0.1,0c0.5,0,0.9,0,1.4,0l1.6,0c0.1,8.6-0.1,17.3-0.3,25.9
		c0,1.5,1.2,2.8,2.7,2.8c1.5,0,2.8-1.2,2.8-2.7c0.2-8.6,0.4-17.3,0.3-25.9c1.2,0,2.5,0.1,3.7,0.1c0,4,0,7.9-0.1,11.9
		c0,1.5,1.2,2.8,2.7,2.8c1.5,0,2.8-1.2,2.8-2.7c0.1-7.9,0.1-15.9,0.1-23.9c0-0.2,0-0.4-0.1-0.6c0,0,0-0.1,0-0.1
		c0-1.5-1.2-2.8-2.7-2.8c-5.1-0.1-10.2-0.3-15.3-0.5c-0.1-12.3-0.2-24.7-0.2-37.1c0-1.5-1.2-2.7-2.8-2.7c-1.5,0-2.7,1.2-2.7,2.8
		c0,2.1,0,4.3,0,6.4c-2.4-1.4-4.8-2.8-7.3-4.2C546,164,546,159.5,546,155.1z M546,210.1c0,0.6,0,1.2,0,1.8v1.2
		c8.5,0.1,17,0.4,25.5,0.6c0-1.5,0-3,0-4.6c-8.5-0.3-17-0.6-25.5-0.9L546,210.1z M546,202.8c2.5,0.1,4.9,0.2,7.4,0.3
		c0-5.1-0.1-10.2-0.1-15.3c-2.5-0.7-4.9-1.5-7.3-2.3C546,191.3,546,197.1,546,202.8z M546,182.3c2.4,0.8,4.9,1.6,7.3,2.3
		c0-2.9,0-5.7,0-8.6c-2.4-1.4-4.8-2.8-7.3-4.2C546,175.4,546,178.9,546,182.3z"/>
</g>
</svg>
