<?xml version="1.0" encoding="UTF-8" standalone="no"?>
<!DOCTYPE svg PUBLIC "-//W3C//DTD SVG 1.1//EN" "http://www.w3.org/Graphics/SVG/1.1/DTD/svg11.dtd">
<svg width="100%" height="100%" viewBox="0 0 2481 3508" version="1.1" xmlns="http://www.w3.org/2000/svg" xmlns:xlink="http://www.w3.org/1999/xlink" xml:space="preserve" xmlns:serif="http://www.serif.com/" style="fill-rule:evenodd;clip-rule:evenodd;stroke-linejoin:round;stroke-miterlimit:2;">
    <g transform="matrix(1,0,0,1,-540.487,-152.326)">
        <path d="M1833.71,1774.57C1823.64,1780.38 1813.5,1786.14 1803.49,1791.98C1803.51,1783.11 1803.54,1774.24 1803.56,1765.38C1803.57,1759.05 1798.45,1753.91 1792.12,1753.89C1785.8,1753.88 1780.65,1759.01 1780.64,1765.33C1780.53,1816.84 1780.23,1868.41 1779.86,1919.79C1758.58,1920.57 1737.29,1921.32 1716.02,1921.9C1709.7,1922.07 1704.71,1927.35 1704.88,1933.67C1704.88,1933.79 1704.89,1933.91 1704.9,1934.04C1704.71,1934.86 1704.62,1935.71 1704.62,1936.59C1704.7,1969.63 1704.69,2003.07 1704.93,2036.01C1704.98,2042.34 1710.15,2047.43 1716.47,2047.39C1722.8,2047.34 1727.89,2042.17 1727.85,2035.84C1727.73,2019.44 1727.67,2002.92 1727.63,1986.38C1732.79,1986.28 1737.94,1986.16 1743.1,1986.03C1742.56,2022.03 1743.45,2057.99 1744.36,2093.98C1744.52,2100.3 1749.78,2105.31 1756.1,2105.15C1762.42,2104.99 1767.42,2099.73 1767.27,2093.41C1766.36,2057.4 1765.47,2021.42 1766.03,1985.41L1772.8,1985.22C1774.76,1985.16 1776.71,1985.11 1778.67,1985.06L1778.95,1985.05C1779.11,2001.5 1779.44,2017.96 1779.83,2034.36C1779.97,2040.68 1785.23,2045.69 1791.55,2045.54C1797.87,2045.39 1802.88,2040.14 1802.74,2033.81C1802.35,2017.4 1802.02,2000.92 1801.87,1984.46C1812.47,1984.21 1823.07,1984.02 1833.67,1983.92C1833.66,2017.83 1833.68,2051.79 1833.73,2085.93C1833.74,2092.26 1838.88,2097.38 1845.2,2097.37C1851.53,2097.37 1856.65,2092.22 1856.65,2085.9C1856.52,2003.89 1856.62,1923 1856.67,1841.08C1856.69,1800.42 1856.58,1759.53 1856.57,1718.83C1856.57,1712.51 1851.44,1707.37 1845.11,1707.38C1838.79,1707.38 1833.65,1712.51 1833.66,1718.84C1833.66,1737.39 1833.68,1755.98 1833.71,1774.57ZM1833.69,1940.75C1798.32,1941.99 1762.91,1943.44 1727.55,1944.5C1727.57,1950.81 1727.58,1957.13 1727.59,1963.47C1762.94,1962.73 1798.31,1961.32 1833.68,1961.01L1833.68,1955.83C1833.68,1953.29 1833.68,1950.74 1833.68,1948.2L1833.69,1940.75ZM1833.75,1845.63C1823.59,1848.91 1813.45,1852.34 1803.2,1855.27C1803.08,1876.51 1802.94,1897.75 1802.79,1918.94C1813.09,1918.56 1823.4,1918.18 1833.7,1917.82C1833.71,1893.8 1833.73,1869.76 1833.75,1845.63ZM1833.73,1788.98C1823.6,1794.8 1813.43,1800.59 1803.43,1806.51C1803.38,1818.42 1803.33,1830.33 1803.27,1842.23C1813.49,1839.2 1823.61,1835.74 1833.75,1832.5C1833.75,1818.01 1833.74,1803.5 1833.73,1788.98Z"/>
    </g>
</svg>
