<?xml version="1.0" encoding="utf-8"?>
<!-- Generator: Adobe Illustrator 24.2.0, SVG Export Plug-In . SVG Version: 6.00 Build 0)  -->
<svg version="1.1" id="Calque_1" xmlns:serif="http://www.serif.com/"
	 xmlns="http://www.w3.org/2000/svg" xmlns:xlink="http://www.w3.org/1999/xlink" x="0px" y="0px" viewBox="0 0 24.2 9.3"
	 style="enable-background:new 0 0 24.2 9.3;" xml:space="preserve">
<style type="text/css">
	.st0{fill-rule:evenodd;clip-rule:evenodd;}
</style>
<path class="st0" d="M6,6.1c0,0,0,0.1-0.1,0.2C5.9,6.6,5.8,6.8,5.7,7.1C5.6,7.5,5.7,7.8,6.1,8c0.3,0.1,0.7-0.1,0.8-0.4
	C7,7.3,7,7.1,7.1,6.9c0.7-0.2,1.4-0.3,2.1-0.5C9.4,7.2,9.6,8,9.8,8.8c0.1,0.3,0.5,0.5,0.8,0.4c0.3-0.1,0.5-0.5,0.4-0.8
	c-0.2-0.7-0.4-1.5-0.6-2.2l0,0c0.4-0.1,0.6-0.4,0.5-0.8c-0.1-0.4-0.4-0.6-0.8-0.5c0,0-0.1,0-0.1,0C9.9,3.8,9.5,2.7,9.1,1.6
	C9,1.4,8.8,1.3,8.6,1.2C8.6,1.2,8.5,1.1,8.4,1.1C8.1,1,7.7,1.2,7.6,1.5C7.1,3,6.5,4.6,6,6.1z M0.1,1C0.1,1.1,0,1.2,0,1.3
	c0,1.5,0,3.1,0,4.6c0,0.4,0.3,0.7,0.6,0.7c0.4,0,0.7-0.3,0.7-0.6c0.1-1.4,0-2.8,0-4.2C2.8,1.6,4,3,4,4.5c0,1.5-1.3,2.9-2.7,3.3
	C0.9,7.9,0.7,8.3,0.8,8.6C0.9,9,1.3,9.2,1.6,9c1.9-0.6,3.6-2.5,3.6-4.5C5.3,2,3.1-0.2,0.5,0.6C0.3,0.7,0.2,0.8,0.1,1z M17.7,2
	c-0.9,1.3-1.8,3-1.7,4.6c0.1,1,0.5,1.6,1,1.9c0.5,0.3,1.1,0.4,1.7,0.2c0.8-0.2,1.7-0.7,2.3-1.3c0.3-0.3,0.3-0.7,0-0.9
	c-0.3-0.3-0.7-0.3-0.9,0c-0.5,0.5-1.1,0.8-1.7,1c-0.3,0.1-0.6,0.1-0.8-0.1c-0.2-0.2-0.4-0.5-0.4-0.9c0-0.4,0-0.7,0.1-1.1
	c0.1,0.1,0.2,0.1,0.4,0.1c0.5-0.1,0.9-0.2,1.4-0.3c0.3-0.1,0.6-0.4,0.5-0.8C19.7,4,19.3,3.8,19,3.9c-0.3,0.1-0.7,0.2-1,0.2
	c0.3-0.6,0.7-1.1,1-1.6c0.7-0.3,1.3-0.5,2-0.8c0.3-0.1,0.5-0.5,0.4-0.8c-0.1-0.3-0.5-0.5-0.8-0.4c-0.8,0.3-1.6,0.6-2.4,0.9
	C17.9,1.5,17.8,1.7,17.7,2z M13.1,2.9c0,1.7,0,3.4,0,5.1c0,0.4,0.3,0.7,0.6,0.7c0.4,0,0.7-0.3,0.7-0.6c0-1.9,0-3.8,0-5.7
	c0.9-0.4,1.8-0.7,2.7-1.1c0.3-0.1,0.5-0.5,0.4-0.8C17.3,0.1,17-0.1,16.6,0c-1.9,0.7-3.9,1.5-5.7,2.4c-0.3,0.2-0.5,0.6-0.3,0.9
	c0.2,0.3,0.6,0.5,0.9,0.3C12,3.3,12.6,3.1,13.1,2.9z M23.3,7.1c0.1,0,0.2,0.1,0.3,0.1c0.4,0,0.7-0.3,0.7-0.6c0-0.3-0.1-0.4-0.1-0.4
	c-0.1-0.1-0.6-0.3-0.6-0.3s0,0,0.1,0c-0.4,0-0.7,0.3-0.7,0.6C22.9,6.8,23,7,23.3,7.1z M8.4,3.3C8.1,4,7.9,4.8,7.6,5.5
	C8,5.4,8.5,5.3,8.9,5.2C8.7,4.6,8.6,3.9,8.4,3.3z M23.2,3.5c-0.2,0.1-0.3,0.3-0.3,0.6c0,0.4,0.3,0.6,0.7,0.6c0,0-0.1,0-0.1,0
	s0.4-0.1,0.5-0.2c0.1-0.1,0.1-0.1,0.2-0.2c0-0.1,0.1-0.2,0-0.4c0-0.1,0-0.2-0.2-0.4C23.8,3.4,23.5,3.4,23.2,3.5z M23,4.3
	c0,0,0,0.1,0.1,0.1c0,0,0.1,0.1,0.1,0.1C23,4.5,23,4.4,23,4.3z"/>
</svg>
