<?xml version="1.0" encoding="utf-8"?>
<!-- Generator: Adobe Illustrator 24.2.0, SVG Export Plug-In . SVG Version: 6.00 Build 0)  -->
<svg version="1.1" id="Calque_1" xmlns:serif="http://www.serif.com/"
	 xmlns="http://www.w3.org/2000/svg" xmlns:xlink="http://www.w3.org/1999/xlink" x="0px" y="0px" viewBox="0 0 30.3 8.7"
	 style="enable-background:new 0 0 30.3 8.7;" xml:space="preserve">
<style type="text/css">
	.st0{fill-rule:evenodd;clip-rule:evenodd;}
</style>
<path class="st0" d="M2.7,0.7C2.4,0.6,2.1,0.7,1.9,1C1,2.4,0.1,4,0,5.7c0,1,0.3,1.9,0.9,2.4c0.4,0.4,1,0.6,1.8,0.5
	c0.3,0,0.9-0.2,1.2-0.2c0.5-0.1,1-0.4,1.4-0.6c0.3-0.2,0.4-0.6,0.2-0.9C5.4,6.6,5,6.4,4.7,6.6C4.3,6.8,4,7,3.6,7.2
	c-0.2,0.1-0.7,0.2-1,0.2c-1,0.1-1.4-0.7-1.3-1.6c0-0.2,0-0.5,0.1-0.7c0.1,0.3,0.4,0.4,0.7,0.3c0.1,0,0.3-0.1,0.4-0.1
	C2.9,5.2,3.1,4.8,3,4.5C2.9,4.1,2.6,3.9,2.2,4C2.1,4,2,4.1,1.8,4.1c-0.1,0-0.1,0-0.2,0.1c0.3-0.7,0.7-1.4,1.1-2.1
	c0.1,0,0.2,0,0.3-0.1c0.6-0.3,1.2-0.5,1.8-0.8c0.3-0.1,0.5-0.5,0.4-0.8C5.1,0.1,4.7-0.1,4.4,0C3.8,0.3,3.2,0.5,2.7,0.7z M12.8,1.1
	c-0.1,0.1-0.1,0.1-0.2,0.2c-0.4,0.7-0.7,1.4-1,2.2c-0.2-0.8-0.5-1.5-0.8-2.3c-0.1-0.3-0.5-0.5-0.9-0.3C9.7,1,9.5,1.2,9.5,1.5
	c0,0,0,0.1-0.1,0.2C9.1,3.5,8.6,5.3,8.1,7.2C8,7.5,8.2,7.9,8.5,8c0.3,0.1,0.7-0.1,0.8-0.5c0.3-1.2,0.7-2.5,1-3.7
	c0.2,0.6,0.3,1.2,0.5,1.7c0.1,0.3,0.5,0.5,0.8,0.4c0.3-0.1,0.4-0.3,0.5-0.6c0.4-0.7,0.7-1.3,1-2c0.1,1.5,0.1,3.1,0.6,4.4
	c0.1,0.3,0.5,0.5,0.8,0.4c0.3-0.1,0.5-0.5,0.4-0.8c-0.7-2-0.4-4.3-0.9-6.3c-0.1-0.4-0.4-0.6-0.8-0.5C13,0.6,12.8,0.9,12.8,1.1z
	 M15.7,5c-0.3,0.1-0.5,0.3-0.5,0.6c0,0.2,0,0.3,0.1,0.4c0,0.2,0.1,0.5,0.4,0.6c0.3,0.2,0.7,0,0.9-0.3l0,0c0.8,0,1.6-0.1,2.4-0.2
	c0.2,0.6,0.3,1.1,0.5,1.7c0.1,0.3,0.5,0.5,0.8,0.4c0.3-0.1,0.5-0.5,0.4-0.8c-0.2-0.5-0.3-1-0.5-1.5c0.1,0,0.1,0,0.2,0
	c0.4-0.1,0.6-0.4,0.5-0.8c-0.1-0.4-0.4-0.6-0.8-0.5c-0.1,0-0.2,0-0.3,0.1c-0.3-1.1-0.7-2.3-1.1-3.4c0-0.2-0.2-0.5-0.4-0.6
	c-0.3-0.1-0.7,0-0.9,0.3C16.8,2.3,16.3,3.7,15.7,5z M24.4,1.1c-0.1,0.4-0.2,0.9-0.3,1.3c-0.2,0.9-0.8,2.5-0.6,3.7
	c0.1,0.5,0.2,1,0.6,1.3c0.3,0.3,0.8,0.5,1.5,0.6c0.4,0,0.5,0,1-0.1c0.6-0.1,1.2-0.4,1.8-0.6c0.3-0.1,0.5-0.5,0.3-0.9
	c-0.1-0.3-0.5-0.5-0.9-0.3c-0.5,0.2-1,0.4-1.5,0.6c-0.4,0.1-0.4,0.1-0.7,0.1c-0.3,0-0.5-0.1-0.6-0.2c-0.2-0.2-0.2-0.6-0.2-1
	c0.1-1,0.5-2.1,0.6-2.8c0.1-0.4,0.2-0.9,0.3-1.3c0.1-0.4-0.2-0.7-0.5-0.8C24.8,0.5,24.5,0.7,24.4,1.1z M21.2,2
	c0.1,1.3,0.1,2.6,0.2,3.9c0,0.4,0.3,0.6,0.7,0.6c0.4,0,0.6-0.3,0.6-0.7c-0.1-1.3-0.1-2.6-0.2-3.9c0-0.4-0.4-0.6-0.7-0.6
	C21.5,1.3,21.2,1.6,21.2,2z M6.1,5.8c0.3,0,0.6,0,0.9,0c0.4,0,0.6-0.3,0.6-0.7c0-0.4-0.3-0.6-0.7-0.6c-0.3,0-0.6,0-0.8,0
	c-0.4,0-0.6,0.3-0.6,0.7C5.4,5.5,5.7,5.8,6.1,5.8z M30,4.8c0.1-0.1,0.2-0.3,0.2-0.5c0-0.4-0.3-0.6-0.7-0.6c-0.3,0-0.4,0.1-0.4,0.2
	c-0.1,0.1-0.2,0.6-0.2,0.6s0,0,0-0.1c0,0.4,0.3,0.6,0.7,0.6C29.7,5,29.9,4.9,30,4.8z M29.8,4.9C29.8,4.9,29.8,5,29.8,4.9
	c-0.1,0-0.2,0-0.2,0.1C29.7,5,29.8,5,29.8,4.9z M17.9,3c-0.3,0.7-0.6,1.3-0.8,2c0.5,0,0.9-0.1,1.4-0.2C18.3,4.2,18.1,3.6,17.9,3z
	 M29.5,1.5C29.5,1.5,29.5,1.5,29.5,1.5c-0.4,0.1-0.6,0.4-0.5,0.8c0.1,0.3,0.4,0.6,0.8,0.5c0,0,0,0,0,0c0.3-0.1,0.6-0.4,0.5-0.8
	C30.2,1.6,29.8,1.4,29.5,1.5z"/>
</svg>
