<?xml version="1.0" encoding="utf-8"?>
<!-- Generator: Adobe Illustrator 24.2.0, SVG Export Plug-In . SVG Version: 6.00 Build 0)  -->
<svg version="1.1" id="Calque_1" xmlns:serif="http://www.serif.com/"
	 xmlns="http://www.w3.org/2000/svg" xmlns:xlink="http://www.w3.org/1999/xlink" x="0px" y="0px" viewBox="0 0 207.3 44.5"
	 style="enable-background:new 0 0 207.3 44.5;" xml:space="preserve">
<style type="text/css">
	.st0{fill-rule:evenodd;clip-rule:evenodd;}
</style>
<path class="st0" d="M34.6,4.6c-0.3,0.3-0.5,0.6-0.7,1.1C31.7,12.3,30,19.2,28.3,26c-0.8,0.4-1.4,1.2-1.4,2.2c0,0.6,0.2,1.1,0.5,1.6
	c-0.4,1.3,0.4,2.7,1.8,3.1c1.3,0.4,2.7-0.4,3.1-1.8l0-0.1c3.6,0.2,7.3,0.5,10.8,0.4c0.1,0.2,0.1,0.4,0.2,0.7c1,3.6,1.6,7.5,2.9,10.9
	c0.5,1.3,2,1.9,3.2,1.4c1.3-0.5,1.9-2,1.4-3.2c-1.3-3.3-1.8-6.9-2.8-10.4c-2.4-9-4.7-18.6-8.6-27.2c-0.6-1.3-2.1-1.8-3.3-1.2
	C35.2,2.7,34.6,3.6,34.6,4.6z M183,3.4c-1.1,0.2-2,1.1-2.1,2.3c-0.5,8.3-0.6,16.6-1.4,24.9c-0.1,1.4,0.9,2.6,2.3,2.7
	c1.4,0.1,2.6-0.9,2.7-2.3c0.7-7.7,0.9-15.6,1.3-23.3c7.6-0.7,9.7,9.9,4.1,14.3c-1.1,0.8-1.3,2.4-0.4,3.5c0.1,0.1,0.1,0.1,0.2,0.2
	c0.1,0.3,0.3,0.6,0.5,0.8c4.8,4.8,8.4,10.8,12.7,16.1c0.9,1.1,2.4,1.2,3.5,0.4c1.1-0.9,1.2-2.4,0.4-3.5c-4.1-5-7.5-10.6-11.9-15.3
	C201.9,16,196.8,0.5,184,3C183.7,3.1,183.3,3.2,183,3.4z M70.2,2.8c-0.1,0.1-0.1,0.2-0.1,0.3c-1.7,5.3-3.8,10.6-5.9,15.8
	c-1.1-5.2-2.5-10.5-4.6-15.1c-0.6-1.2-2.1-1.8-3.3-1.2c-1.2,0.6-1.8,2-1.2,3.3c-0.2,0.3-0.3,0.6-0.3,0.9c-1,6.7-2.8,13.4-4.3,20.1
	c-0.3,1.3,0.5,2.7,1.9,3c1.3,0.3,2.7-0.5,3-1.9c1-4.2,2-8.5,2.9-12.7c1,3.9,1.7,7.9,2.4,11.6c0.2,1.1,1.1,1.9,2.1,2
	c1.3,0.5,2.7-0.1,3.2-1.3c1.9-4.4,3.8-9,5.6-13.6c0.6,8.3,0.7,17.2,0.9,24.7c0,1.4,1.2,2.5,2.6,2.4c1.4,0,2.5-1.2,2.4-2.6
	C77.1,27.2,77.1,12.7,75.2,2c-0.3-1.4-1.6-2.3-2.9-2C70.9,0.3,70.1,1.5,70.2,2.8z M23.4,25.5c0.9-0.6,1.3-1.7,1-2.7
	c-0.4-1.3-1.7-2.1-3.1-1.7c-1.8,0.5-3.5,1.1-5.4,1.5c-1.4,0.2-2.3,1.5-2,2.9c0.2,1.4,1.5,2.3,2.9,2c0.6-0.1,1.2-0.2,1.8-0.4
	c0.3,2.1,0.3,4.2-0.8,6c-0.8,1.4-2.2,2.2-3.7,2.6c-4.7,1.2-7.9-2-8.8-6.6c-1.3-6.4,1.1-13.8,5.3-18.7c0.7-0.8,1.6-1.8,2.6-2.5
	c0.6-0.4,1.2-0.8,1.8-1c0.2-0.1,0.5-0.2,0.7-0.1c0.1,0.1,0.2,0.2,0.3,0.4c0.2,0.3,0.3,0.7,0.5,1.2c0.3,1.3,1.7,2.1,3,1.8
	c1.3-0.3,2.1-1.7,1.8-3c-0.8-3.2-2.5-4.6-4.2-5.1c-1.6-0.5-3.4-0.2-5.2,0.8c-2,1-3.9,2.9-5.2,4.4c-5.1,6-7.9,15.1-6.4,22.9
	c0.9,4.5,3.3,8,6.7,9.7c2.3,1.2,5.1,1.6,8.3,0.7c2.8-0.7,5.3-2.4,6.8-5C23.9,32.5,24,28.9,23.4,25.5z M167,6.2
	c-0.2-0.1-0.4-0.3-0.6-0.4c-1.3-0.5-2.7,0.1-3.3,1.4c-3.1,7.7-6.4,17.6-5.8,26c0.5,5.7,6.2,9.1,11.5,7c3.1-1.2,5.8-3.9,7.7-6.5
	c0.8-1.1,0.6-2.7-0.5-3.5c-1.1-0.8-2.7-0.6-3.5,0.5c-1.4,1.9-3.2,4-5.5,4.9c-2.2,0.8-4.6-0.4-4.8-2.8c-0.2-2-0.1-4.1,0.2-6.2
	c0.1,0,0.1,0,0.2,0c1.8-0.3,3.4-0.9,5.1-1.6c1.3-0.6,1.8-2.1,1.2-3.3c-0.6-1.3-2.1-1.8-3.3-1.2c-0.7,0.3-1.4,0.6-2.1,0.8
	c0.9-3.4,2-6.8,3.2-9.8c2.9-0.6,5.8-1.4,8.6-2.2c1.3-0.4,2.1-1.8,1.7-3.1c-0.4-1.3-1.8-2.1-3.1-1.7C171.8,5,169.4,5.6,167,6.2z
	 M88.8,3.7c-0.2-0.1-0.3-0.2-0.5-0.3C87,3,85.6,3.6,85.1,4.9c-3.1,7.9-5.5,16.3-4.9,24.9c0.3,4.4,1.7,7.6,3.9,9.1
	c2.3,1.5,5.8,1.6,10.4-1.6c1.5-1,2.7-2.2,3.9-3.5c1-1,0.9-2.6-0.1-3.5c-1-1-2.6-0.9-3.5,0.1c-1,1-2,2-3.2,2.9
	c-1.1,0.8-2.1,1.3-3,1.5c-0.7,0.2-1.3,0.3-1.8,0c-0.5-0.3-0.7-0.8-1-1.5c-0.4-1-0.6-2.3-0.7-3.7c-0.1-1.5-0.1-3,0-4.5
	c0.2,0,0.5,0,0.7,0c2.1-0.4,2-0.4,4-1.2c1.3-0.5,2-1.9,1.5-3.2c-0.5-1.3-1.9-2-3.2-1.5c-1.2,0.5-1.4,0.6-2.3,0.8
	c0.7-3.8,1.9-7.5,3.2-11.1c3.4-0.2,6.6-1.2,10.1-1.6c1.4-0.2,2.3-1.4,2.2-2.8C101,3,99.8,2,98.4,2.2C95.1,2.6,92.1,3.5,88.8,3.7z
	 M147.8,26.2c-1.1-6.9-2.2-13.8-3.1-20.7c-0.2-1.4-1.4-2.3-2.8-2.2c-1.4,0.2-2.3,1.4-2.2,2.8c1.2,9.7,2.9,19.4,4.4,29
	c0,0.3,0.1,0.5,0.2,0.8c-0.3,1.1,0.2,2.3,1.3,2.8c1.2,0.6,2.7,0.1,3.4-1.1c2.3-4.6,3.4-9.6,4.7-14.5c1.6-5.9,3.5-11.7,5.5-17.4
	c0.5-1.3-0.2-2.7-1.5-3.2c-1.3-0.5-2.7,0.2-3.2,1.5c-2,5.8-3.9,11.8-5.6,17.7C148.6,23.3,148.2,24.8,147.8,26.2z M120.7,15.5
	c-0.9,3.1-1.2,6.3-1.3,9.6c-0.1,2.6,0.5,6.8,2.1,9.7c1,1.9,2.4,3.2,4.2,3.8c1.7,0.5,3.9,0.4,6.4-1.4c1.1-0.8,2.1-1.8,2.8-2.8
	c4-5.4,5.2-13,4.8-19.6c-0.1-2.3-1.1-5.6-2.8-7.9c-1.3-1.7-3-2.9-4.9-3.2c-1.3-0.2-2.8,0.1-4.4,1.1c-1.2,0.7-1.6,2.2-0.9,3.4
	c0.7,1.2,2.2,1.6,3.4,0.9c0.5-0.3,0.9-0.4,1.3-0.4c0.6,0.1,1.1,0.6,1.5,1.1c1.1,1.5,1.7,3.7,1.8,5.3c0.3,5.4-0.5,11.9-3.8,16.3
	c-0.5,0.6-1.1,1.3-1.7,1.7c-0.8,0.6-1.4,0.9-2,0.7c-0.6-0.2-0.9-0.8-1.3-1.4c-1.2-2.1-1.6-5.3-1.5-7.2c0.1-2.8,0.4-5.6,1.1-8.4
	c0.4-1.3-0.4-2.7-1.7-3.1C122.5,13.4,121.1,14.2,120.7,15.5z M37.3,11.6c-1.4,4.8-2.6,9.6-3.9,14.4c2.7,0.2,5.5,0.3,8.3,0.4
	C40.4,21.4,39,16.4,37.3,11.6z"/>
</svg>
