<?xml version="1.0" encoding="UTF-8" standalone="no"?>
<!DOCTYPE svg PUBLIC "-//W3C//DTD SVG 1.1//EN" "http://www.w3.org/Graphics/SVG/1.1/DTD/svg11.dtd">
<svg width="100%" height="100%" viewBox="0 0 2481 3508" version="1.1" xmlns="http://www.w3.org/2000/svg" xmlns:xlink="http://www.w3.org/1999/xlink" xml:space="preserve" xmlns:serif="http://www.serif.com/" style="fill-rule:evenodd;clip-rule:evenodd;stroke-linejoin:round;stroke-miterlimit:2;">
    <g transform="matrix(1,0,0,1,-721.314,98.0439)">
        <path d="M1961.13,1640.55C1960.97,1640.51 1960.8,1640.49 1960.62,1640.48C1959.13,1640.43 1957.87,1641.6 1957.82,1643.09C1957.42,1653.83 1956.73,1664.54 1956.48,1675.28C1956.45,1676.78 1957.63,1678.02 1959.13,1678.05C1960.62,1678.09 1961.86,1676.9 1961.9,1675.41C1962.13,1665.28 1962.76,1655.17 1963.16,1645.05C1963.53,1645.05 1963.9,1644.98 1964.25,1644.82C1967.44,1643.42 1970.06,1643.31 1972.1,1644.27C1975.18,1645.73 1976.73,1649.39 1976.94,1653.26C1977.14,1656.98 1976.09,1660.98 1973.58,1663.85C1972.7,1663.41 1971.61,1663.46 1970.76,1664.08C1969.55,1664.96 1969.28,1666.65 1970.16,1667.86C1970.26,1668 1970.36,1668.14 1970.46,1668.27C1970.52,1668.68 1970.67,1669.08 1970.92,1669.43C1971.16,1669.77 1971.46,1670.04 1971.8,1670.23C1978.42,1680.19 1982.81,1691.84 1990.3,1701.06C1991.25,1702.22 1992.95,1702.4 1994.11,1701.46C1995.27,1700.52 1995.45,1698.81 1994.51,1697.65C1987.36,1688.85 1983.08,1677.81 1976.93,1668.19C1980.87,1664.19 1982.65,1658.38 1982.35,1652.97C1982.02,1647 1979.17,1641.62 1974.41,1639.38C1971.21,1637.87 1967.07,1637.66 1962.07,1639.87C1961.7,1640.03 1961.38,1640.27 1961.13,1640.55ZM1886.43,1673.65C1890.88,1673.06 1895.34,1672.51 1899.81,1672.09C1900.54,1672.02 1901.18,1671.66 1901.62,1671.14C1902.06,1678.64 1902.63,1686.14 1903.43,1693.59C1903.59,1695.07 1904.93,1696.15 1906.41,1695.99C1907.9,1695.83 1908.98,1694.5 1908.82,1693.01C1907.17,1677.65 1906.5,1662.06 1905.93,1646.63C1905.88,1645.14 1904.62,1643.97 1903.13,1644.03C1901.63,1644.08 1900.46,1645.34 1900.52,1646.83C1900.77,1653.68 1901.04,1660.55 1901.41,1667.42C1900.87,1666.9 1900.11,1666.62 1899.3,1666.69C1894.87,1667.11 1890.44,1667.66 1886.03,1668.24C1885.38,1659.57 1884.78,1650.9 1884.92,1642.2C1884.94,1640.7 1883.75,1639.47 1882.26,1639.45C1880.76,1639.42 1879.53,1640.62 1879.5,1642.11C1879.25,1657.77 1881.38,1673.34 1881.87,1688.98C1881.92,1690.48 1883.17,1691.65 1884.66,1691.61C1886.16,1691.56 1887.33,1690.31 1887.29,1688.82C1887.13,1683.76 1886.8,1678.7 1886.43,1673.65ZM1932.31,1644.16C1932.17,1644.02 1932.02,1643.9 1931.85,1643.8C1930.57,1643.02 1928.9,1643.42 1928.12,1644.69C1922.41,1653.98 1915.62,1666.94 1917.03,1678.32C1917.36,1681.01 1918.1,1684.11 1919.61,1686.41C1922.06,1690.15 1926.75,1690.99 1930.81,1690.55C1938.2,1689.75 1944.04,1685.82 1948.35,1679.82C1949.22,1678.6 1948.94,1676.91 1947.73,1676.04C1946.52,1675.17 1944.82,1675.44 1943.95,1676.66C1940.57,1681.37 1936.03,1684.54 1930.23,1685.16C1928.07,1685.39 1925.43,1685.42 1924.13,1683.44C1923.06,1681.81 1922.64,1679.57 1922.4,1677.65C1922.2,1676.03 1922.19,1674.37 1922.35,1672.69C1922.68,1672.72 1923.03,1672.69 1923.37,1672.59C1926.71,1671.56 1929.98,1670.24 1933.15,1668.75C1934.5,1668.12 1935.09,1666.5 1934.45,1665.15C1933.82,1663.8 1932.2,1663.21 1930.85,1663.85C1928.44,1664.98 1925.97,1666.01 1923.46,1666.86C1925.09,1661.02 1928.14,1655.24 1931.07,1650.28C1931.23,1650.26 1931.39,1650.22 1931.55,1650.16C1936.1,1648.53 1940.68,1647.13 1945.15,1645.27C1946.53,1644.69 1947.18,1643.1 1946.6,1641.72C1946.03,1640.34 1944.44,1639.69 1943.06,1640.27C1939.53,1641.74 1935.91,1642.92 1932.31,1644.16ZM2007.68,1638.21C2006.69,1637.65 2005.42,1637.76 2004.53,1638.56C1997.22,1645.19 1991.01,1657.18 1993.34,1667.39C1994,1670.29 1995.48,1673.9 1997.66,1676.67C1999.3,1678.76 2001.33,1680.37 2003.63,1681.09C2006.73,1682.05 2010.01,1681.62 2013.07,1680.29C2017.24,1678.48 2021,1675 2023.15,1671.77C2023.98,1670.53 2023.65,1668.85 2022.4,1668.02C2021.16,1667.18 2019.48,1667.52 2018.65,1668.76C2016.99,1671.24 2014.12,1673.93 2010.92,1675.32C2009.07,1676.12 2007.11,1676.5 2005.25,1675.91C2003.94,1675.51 2002.85,1674.51 2001.92,1673.33C2000.25,1671.2 1999.13,1668.41 1998.62,1666.19C1998.39,1665.18 1998.27,1664.16 1998.24,1663.12C1998.6,1663.22 1999,1663.24 1999.4,1663.17C2001.5,1662.8 2003.57,1662.29 2005.55,1661.51C2006.94,1660.96 2007.62,1659.38 2007.07,1657.99C2006.52,1656.6 2004.95,1655.92 2003.56,1656.47C2002.04,1657.08 2000.46,1657.46 1998.85,1657.77C2000.19,1652.34 2003.55,1647.1 2007.27,1643.43C2007.68,1643.58 2008.13,1643.62 2008.59,1643.55C2012.33,1642.98 2016.06,1642.28 2019.77,1641.53C2021.23,1641.24 2022.18,1639.81 2021.89,1638.34C2021.59,1636.88 2020.16,1635.93 2018.7,1636.22C2015.07,1636.95 2011.42,1637.63 2007.77,1638.2C2007.74,1638.2 2007.71,1638.21 2007.68,1638.21ZM2036.14,1675.58C2037.23,1676.23 2038.33,1676.85 2039.43,1677.46C2040.74,1678.19 2042.39,1677.72 2043.12,1676.42C2043.85,1675.11 2043.38,1673.46 2042.07,1672.73C2041.02,1672.14 2039.96,1671.55 2038.92,1670.93C2037.63,1670.17 2035.97,1670.59 2035.2,1671.87C2034.44,1673.15 2034.86,1674.82 2036.14,1675.58ZM2036.62,1612.27C2035.71,1628.08 2034.81,1643.8 2035.24,1659.64C2035.28,1661.14 2036.52,1662.32 2038.02,1662.28C2039.51,1662.24 2040.69,1660.99 2040.65,1659.5C2040.23,1643.81 2041.12,1628.24 2042.03,1612.59C2042.12,1611.1 2040.98,1609.81 2039.49,1609.73C2037.99,1609.64 2036.71,1610.78 2036.62,1612.27Z"/>
    </g>
</svg>
