<?xml version="1.0" encoding="utf-8"?>
<!-- Generator: Adobe Illustrator 24.2.0, SVG Export Plug-In . SVG Version: 6.00 Build 0)  -->
<svg version="1.1" id="Calque_1" xmlns:serif="http://www.serif.com/"
	 xmlns="http://www.w3.org/2000/svg" xmlns:xlink="http://www.w3.org/1999/xlink" x="0px" y="0px" viewBox="0 0 27.3 8.1"
	 style="enable-background:new 0 0 27.3 8.1;" xml:space="preserve">
<style type="text/css">
	.st0{fill-rule:evenodd;clip-rule:evenodd;}
</style>
<path class="st0" d="M1.4,5.3c0.7-0.1,1.4-0.1,2.2-0.2c0,0.8,0,1.6,0.1,2.4c0,0.4,0.4,0.6,0.7,0.6c0.4,0,0.6-0.3,0.6-0.7
	c-0.2-2,0-4-0.2-6C4.7,1,4.4,0.7,4,0.8S3.4,1.1,3.4,1.5C3.5,2.2,3.5,3,3.5,3.8c-0.7,0-1.4,0.1-2.2,0.2c0-0.9,0-1.7-0.1-2.6
	C1.3,1,1,0.7,0.6,0.7C0.3,0.7,0,1,0,1.4C0,3.3,0.1,5.1,0,7c0,0.4,0.3,0.7,0.6,0.7c0.4,0,0.7-0.3,0.7-0.6C1.3,6.5,1.4,5.9,1.4,5.3z
	 M15.7,0.7c-0.2,0.1-0.3,0.3-0.3,0.6c0,1.6-0.4,3.3-0.3,4.9c0,0.4,0.3,0.6,0.7,0.6c0.4,0,0.6-0.3,0.6-0.7c-0.1-1.5,0.2-3,0.3-4.4
	c0.2-0.1,0.4,0,0.5,0.1c0.3,0.2,0.4,0.7,0.3,1.2c0,0.2-0.2,0.4-0.3,0.5C17.1,3.7,17,4,17,4.3c0,0.2,0.1,0.4,0.3,0.5
	c0.7,1,1.2,2,1.9,3c0.2,0.3,0.6,0.4,0.9,0.1c0.3-0.2,0.4-0.6,0.1-0.9c-0.7-0.9-1.2-2-1.9-2.9c0-0.1,0.1-0.2,0.1-0.2
	c0.1-0.2,0.3-0.5,0.3-0.7C19,2,18.6,1,17.9,0.6c-0.5-0.3-1.2-0.4-1.9-0.1C15.9,0.5,15.8,0.6,15.7,0.7z M7.2,1.5
	C7.1,1.5,7.1,1.5,7.2,1.5c-0.4-0.1-0.8,0-0.9,0.4C6,2.6,5.2,4.5,5.2,5.9c0,0.6,0.2,1.1,0.5,1.5C6,7.7,6.6,8,7.4,7.9
	c0.5,0,0.6-0.1,1.2-0.3c0.5-0.2,0.9-0.4,1.3-0.8c0.3-0.2,0.3-0.6,0.1-0.9C9.9,5.7,9.4,5.6,9.2,5.8c-0.3,0.2-0.6,0.4-1,0.6
	C7.7,6.6,7.7,6.6,7.3,6.6c-0.3,0-0.5,0-0.7-0.2C6.5,6.3,6.5,6.1,6.5,5.9c0-0.2,0-0.5,0.1-0.8C6.8,5.3,7,5.3,7.3,5.2
	C7.6,5.1,7.5,5.1,7.8,5c0.3-0.1,0.5-0.5,0.4-0.8C8,3.8,7.7,3.7,7.3,3.8C7.1,3.9,7.1,3.9,6.9,4C7,3.6,7.2,3.2,7.3,2.8
	c0.7-0.3,1.3-0.5,2-0.7C9.6,2,9.8,1.6,9.7,1.3C9.6,0.9,9.3,0.7,8.9,0.8C8.3,1,7.7,1.2,7.2,1.5z M10.1,3c-0.1,0.5-0.1,1.1,0,1.7
	c0.1,0.5,0.3,1.6,0.8,2.1c0.2,0.3,0.5,0.5,0.8,0.5c0.3,0.1,0.7,0,1.1-0.2c0.2-0.1,0.4-0.3,0.6-0.5c0.2-0.2,0.5-0.5,0.6-0.8
	c0.6-1.1,0.7-2.4,0.5-3.7c-0.1-0.4-0.4-0.6-0.7-0.5c-0.4,0.1-0.6,0.4-0.5,0.8c0.2,0.9,0.1,2-0.3,2.8c-0.1,0.2-0.2,0.4-0.4,0.5
	c-0.1,0.1-0.2,0.2-0.4,0.3C12.1,6,12,6,11.9,6c-0.1,0-0.2-0.1-0.2-0.3c-0.2-0.4-0.3-1-0.4-1.3c-0.1-0.4,0-0.9,0-1.3
	c0-0.4-0.2-0.7-0.6-0.7C10.4,2.3,10.1,2.6,10.1,3z M22.2,0.6C22.1,0.5,22.1,0.5,22.2,0.6c-0.4-0.3-0.8-0.2-1,0.1
	c-0.7,1.1-1.6,2.5-1.6,3.8c0,0.3,0,0.6,0.1,0.9c0.2,0.9,0.6,1.4,1.1,1.6c0.5,0.2,1,0.3,1.6,0.1c0.7-0.2,1.4-0.7,2-1.2
	c0.3-0.2,0.3-0.7,0-0.9c-0.2-0.3-0.7-0.3-0.9,0c-0.4,0.3-0.8,0.6-1.2,0.8C22,5.9,21.6,6,21.4,5.9C21.2,5.8,21,5.5,21,5.1
	c0-0.2-0.1-0.4-0.1-0.6c0-0.1,0-0.1,0-0.2c0.1,0.1,0.3,0.1,0.4,0.1c0.3,0,0.5-0.1,0.8-0.2c0.3-0.1,0.6-0.4,0.5-0.8
	c-0.1-0.3-0.4-0.6-0.8-0.5c-0.2,0-0.4,0.1-0.5,0.1c0.2-0.4,0.4-0.7,0.6-1.1c0.8-0.2,1.5-0.5,2.3-0.7c0.3-0.1,0.5-0.5,0.4-0.8
	c-0.1-0.3-0.5-0.5-0.8-0.4C23.2,0.2,22.7,0.4,22.2,0.6z M27.2,5C27.2,5,27.2,5,27.2,5c-0.2-0.3-0.6-0.4-0.9-0.3
	C26,5,25.8,5.4,26,5.7c0,0,0,0,0,0c0.2,0.3,0.6,0.4,0.9,0.2C27.2,5.8,27.3,5.4,27.2,5z M26,3.4c0,0,0,0.1,0,0.1
	c0,0.3,0.3,0.6,0.6,0.6c0.3,0,0.6-0.3,0.7-0.6c0,0,0-0.1-0.1-0.3c-0.1-0.3-0.5-0.5-0.9-0.3C26.1,2.9,26,3.1,26,3.4z M26,3.4L26,3.4
	c0-0.1,0-0.1,0-0.1S26,3.3,26,3.4L26,3.4L26,3.4C26,3.4,26,3.4,26,3.4L26,3.4c0,0.1,0,0.1,0.1,0.2C26,3.6,26,3.5,26,3.4L26,3.4z"/>
</svg>
