<?xml version="1.0" encoding="UTF-8" standalone="no"?>
<!DOCTYPE svg PUBLIC "-//W3C//DTD SVG 1.1//EN" "http://www.w3.org/Graphics/SVG/1.1/DTD/svg11.dtd">
<svg width="100%" height="100%" viewBox="0 0 2481 3508" version="1.1" xmlns="http://www.w3.org/2000/svg" xmlns:xlink="http://www.w3.org/1999/xlink" xml:space="preserve" xmlns:serif="http://www.serif.com/" style="fill-rule:evenodd;clip-rule:evenodd;stroke-linejoin:round;stroke-miterlimit:2;">
    <g transform="matrix(1,0,0,1,-41.7553,214.675)">
        <path d="M1104.03,1474.79C1099.48,1476.11 1096.04,1480.18 1095.77,1485.18C1093.83,1521.1 1094.45,1557.16 1093.71,1593.13C1093.58,1599.45 1098.61,1604.69 1104.93,1604.82C1111.26,1604.95 1116.49,1599.92 1116.62,1593.6C1117.31,1560.03 1116.8,1526.38 1118.34,1492.85C1124.15,1489.39 1130.04,1488.71 1135.34,1490.37C1145.49,1493.57 1153,1504.22 1154.14,1516.79C1155.38,1530.24 1146.71,1539.25 1137.14,1547.45C1136.66,1547.67 1136.19,1547.92 1135.74,1548.21C1130.39,1551.58 1128.79,1558.67 1132.17,1564.01C1149.09,1590.81 1169.94,1615.85 1190.24,1640.17C1194.3,1645.03 1201.53,1645.68 1206.38,1641.63C1211.24,1637.57 1211.89,1630.34 1207.84,1625.49C1190.34,1604.53 1172.38,1583.05 1157.09,1560.28C1169.74,1548.13 1178.71,1533.73 1176.97,1514.7C1174.92,1492.29 1160.31,1474.2 1142.2,1468.51C1130.41,1464.81 1116.96,1465.99 1104.03,1474.79ZM999.694,1548.86C996.317,1565.32 994.397,1588.85 1003.43,1604.19C1009.9,1615.19 1017.85,1619.91 1025.57,1621.22C1033.35,1622.55 1041.51,1620.31 1049.04,1615.28C1060.85,1607.38 1071.14,1592.23 1075.04,1580.39C1081.77,1559.92 1084.93,1533.26 1076.35,1512.83C1069.82,1497.28 1058.66,1489.61 1047.38,1488.63C1036.3,1487.66 1023.78,1493.1 1013.98,1507.49C1010.42,1512.71 1011.77,1519.85 1017,1523.41C1022.23,1526.97 1029.36,1525.61 1032.92,1520.38C1036.84,1514.63 1040.96,1511.07 1045.39,1511.46C1049.63,1511.83 1052.76,1515.86 1055.22,1521.7C1061.77,1537.3 1058.41,1557.61 1053.27,1573.23C1051.71,1577.98 1048.57,1583.51 1044.64,1588.34C1041.66,1592 1038.24,1595.3 1034.56,1597.28C1032.65,1598.31 1030.73,1599.14 1028.83,1598.48C1026.69,1597.74 1024.99,1595.65 1023.18,1592.57C1016.81,1581.75 1019.76,1565.07 1022.14,1553.46C1023.41,1547.26 1019.42,1541.2 1013.22,1539.93C1007.02,1538.66 1000.96,1542.66 999.694,1548.86ZM916.7,1467.38C912.374,1469.34 909.56,1473.89 910.031,1478.89C914.136,1522.47 914.842,1566.18 918.607,1609.79C919.152,1616.09 924.709,1620.77 931.009,1620.22C937.31,1619.68 941.983,1614.12 941.439,1607.82C937.892,1566.74 937.052,1525.57 933.543,1484.51C941.811,1481.35 951.827,1479.95 959.747,1483.3C966.915,1486.32 972.203,1493.17 974.674,1500.74C977.022,1507.93 976.874,1515.99 972.28,1522.17C968.542,1527.2 963.353,1530.62 957.989,1533.69C952.502,1536.84 950.602,1543.84 953.747,1549.33C956.893,1554.82 963.9,1556.72 969.387,1553.57C977.482,1548.93 985.031,1543.43 990.672,1535.84C999.749,1523.63 1001.1,1507.84 996.458,1493.63C991.942,1479.79 981.759,1467.71 968.656,1462.18C953.444,1455.76 933.343,1458.77 918.965,1465.9C918.137,1466.31 917.38,1466.81 916.7,1467.38ZM1589.13,1509.25C1590.64,1503.66 1596.16,1495.76 1602.74,1489.37C1606.53,1485.69 1610.69,1482.48 1614.91,1480.84C1616.62,1480.17 1618.28,1479.68 1619.86,1480.09C1621.24,1480.45 1622.29,1481.63 1623.35,1483.29C1635.94,1502.86 1631.21,1534.43 1626.62,1555.9C1624.52,1565.74 1622.76,1578.15 1614.74,1585.06C1611.24,1588.09 1606.64,1589.48 1602.03,1589.58C1593.52,1589.78 1588.11,1584.82 1584.87,1578.33C1580.68,1569.91 1579.64,1559.18 1580.74,1550.23C1581.51,1543.96 1577.03,1538.24 1570.76,1537.47C1564.48,1536.7 1558.76,1541.18 1557.99,1547.45C1556.39,1560.56 1558.22,1576.23 1564.36,1588.55C1571.47,1602.81 1583.86,1612.92 1602.56,1612.49C1612.43,1612.27 1622.18,1608.91 1629.71,1602.42C1641.42,1592.33 1645.96,1575.07 1649.03,1560.69C1654.72,1534.1 1658.22,1495.13 1642.62,1470.89C1638.4,1464.33 1633.27,1460.55 1627.9,1458.61C1620.15,1455.82 1611.43,1456.86 1602.87,1461.14C1586.33,1469.41 1570.43,1490.63 1567.01,1503.27C1565.36,1509.37 1568.97,1515.67 1575.07,1517.32C1581.18,1518.97 1587.48,1515.36 1589.13,1509.25ZM1256.33,1496.35C1255.96,1530.5 1256.26,1565.05 1257.19,1599.14C1257.37,1605.46 1262.64,1610.45 1268.96,1610.28C1275.28,1610.11 1280.28,1604.83 1280.1,1598.51C1279.7,1583.97 1279.42,1569.34 1279.26,1554.7C1279.96,1554.57 1280.66,1554.37 1281.34,1554.1C1287.89,1551.54 1294.52,1549.16 1301.03,1546.5C1306.89,1544.11 1309.7,1537.42 1307.31,1531.56C1304.92,1525.71 1298.22,1522.9 1292.37,1525.29C1287.98,1527.08 1283.53,1528.74 1279.1,1530.42C1279.08,1520.93 1279.11,1511.44 1279.19,1501.98C1299.05,1494.84 1320.12,1485.79 1339.94,1481.32C1346.11,1479.92 1349.98,1473.79 1348.59,1467.62C1347.2,1461.45 1341.06,1457.57 1334.89,1458.96C1311.66,1464.21 1286.73,1475.42 1263.89,1483.04C1258.29,1484.91 1255.09,1490.71 1256.33,1496.35ZM1441.13,1582.17C1441.33,1580.6 1441.59,1578.8 1441.89,1577.31C1443.45,1569.74 1445.8,1561.58 1446.39,1558.72C1452.8,1527.61 1461.91,1486.26 1473.21,1457.02C1475.49,1451.12 1472.56,1444.48 1466.66,1442.2C1460.76,1439.92 1454.12,1442.86 1451.84,1448.76C1440.13,1479.05 1430.59,1521.87 1423.95,1554.09C1423.02,1558.62 1418.11,1575.59 1417.82,1584.52C1417.64,1589.96 1419.14,1593.97 1420.75,1596.2C1424.4,1601.23 1430.16,1604.12 1436.93,1604.91C1443.15,1605.64 1450.33,1604.48 1454.85,1603.68C1476.18,1599.92 1499.24,1594.18 1518.64,1584.31C1524.28,1581.44 1526.52,1574.54 1523.66,1568.9C1520.79,1563.26 1513.88,1561.02 1508.25,1563.88C1490.82,1572.75 1470.04,1577.73 1450.87,1581.11C1448.77,1581.48 1445.85,1582.04 1442.86,1582.2C1442.37,1582.23 1441.75,1582.21 1441.13,1582.17ZM1325.5,1533.25C1316.67,1548.62 1314.83,1575.33 1325.7,1590.52C1333.48,1601.38 1345.56,1605.41 1357.85,1604.22C1368.87,1603.15 1379.89,1597.68 1387.04,1590.05C1403.84,1572.11 1411.36,1542.7 1406.81,1518.75C1403.95,1503.69 1393.34,1492.53 1380.47,1489.26C1371.7,1487.03 1361.7,1488.25 1352.05,1494.86C1346.83,1498.43 1345.49,1505.57 1349.06,1510.79C1352.63,1516.01 1359.77,1517.35 1364.99,1513.78C1368.36,1511.47 1371.76,1510.69 1374.82,1511.47C1379.68,1512.7 1383.22,1517.33 1384.3,1523.02C1387.57,1540.26 1382.4,1561.48 1370.31,1574.39C1366.73,1578.22 1361.16,1580.87 1355.64,1581.41C1351.4,1581.82 1347.03,1580.93 1344.34,1577.18C1338.16,1568.55 1340.36,1553.39 1345.37,1544.66C1348.52,1539.18 1346.62,1532.17 1341.14,1529.02C1335.65,1525.87 1328.64,1527.77 1325.5,1533.25ZM1195.76,1479.15C1196.14,1503.12 1198.6,1527.22 1197.66,1551.13C1197.42,1557.44 1202.35,1562.78 1208.67,1563.02C1214.99,1563.27 1220.32,1558.34 1220.56,1552.02C1221.56,1526.34 1218.75,1500.44 1218.63,1474.72C1218.63,1474.39 1218.62,1474.07 1218.59,1473.75C1244.59,1468.15 1270.52,1462.3 1296.57,1456.92C1302.77,1455.64 1306.75,1449.57 1305.47,1443.38C1304.19,1437.18 1298.13,1433.19 1291.93,1434.48C1263.52,1440.35 1235.24,1446.77 1206.87,1452.83C1195.72,1455.2 1185.12,1459.14 1173.68,1460.08C1167.37,1460.6 1162.68,1466.14 1163.2,1472.45C1163.72,1478.75 1169.26,1483.44 1175.57,1482.92C1182.49,1482.35 1189.13,1480.83 1195.76,1479.15ZM1515.3,1470.09C1512.47,1491.38 1509.28,1514.35 1509.59,1535.81C1509.68,1542.14 1514.89,1547.2 1521.22,1547.1C1527.54,1547.01 1532.6,1541.81 1532.51,1535.48C1532.21,1515.11 1535.33,1493.32 1538.01,1473.11C1538.85,1466.84 1534.43,1461.07 1528.16,1460.24C1521.89,1459.41 1516.13,1463.82 1515.3,1470.09Z"/>
    </g>
</svg>
