<?xml version="1.0" encoding="UTF-8" standalone="no"?>
<!DOCTYPE svg PUBLIC "-//W3C//DTD SVG 1.1//EN" "http://www.w3.org/Graphics/SVG/1.1/DTD/svg11.dtd">
<svg width="100%" height="100%" viewBox="0 0 2481 3508" version="1.1" xmlns="http://www.w3.org/2000/svg" xmlns:xlink="http://www.w3.org/1999/xlink" xml:space="preserve" xmlns:serif="http://www.serif.com/" style="fill-rule:evenodd;clip-rule:evenodd;stroke-linejoin:round;stroke-miterlimit:2;">
    <g transform="matrix(1,0,0,1,104.126,363.117)">
        <path d="M907.467,1384.88C901.636,1371.8 896.034,1358.66 890.741,1345.46C888.387,1339.59 881.71,1336.74 875.841,1339.09C869.971,1341.44 867.117,1348.12 869.47,1353.99C877.637,1374.36 886.527,1394.59 895.846,1414.65C887.535,1436.43 879.121,1458.23 867.833,1478.6C864.767,1484.13 866.768,1491.11 872.299,1494.18C877.83,1497.24 884.81,1495.24 887.876,1489.71C896.183,1474.72 903,1458.99 909.351,1443.05C917.103,1459.02 925.041,1474.86 933.013,1490.57C935.875,1496.21 942.777,1498.46 948.417,1495.6C954.056,1492.74 956.31,1485.84 953.448,1480.2C942.327,1458.29 931.271,1436.11 920.708,1413.71C923.378,1406.79 926.077,1399.88 928.889,1393.04C938.775,1369 950.319,1345.32 961.723,1321.96C964.497,1316.27 962.135,1309.41 956.452,1306.63C950.769,1303.86 943.903,1306.22 941.128,1311.9C929.511,1335.7 917.766,1359.84 907.694,1384.33L907.467,1384.88ZM996.154,1372.06C987.957,1407.8 984.219,1444.65 978.37,1480.72C977.358,1486.97 981.604,1492.86 987.846,1493.87C994.089,1494.88 999.979,1490.63 1000.99,1484.39C1007.53,1444.09 1011.28,1402.79 1021.96,1363.23C1022.63,1360.76 1022.44,1358.25 1021.56,1356.04C1037.28,1345.77 1052.88,1335.32 1069.24,1326.37C1074.79,1323.34 1076.84,1316.37 1073.8,1310.82C1070.77,1305.28 1063.8,1303.23 1058.25,1306.26C1021.12,1326.56 988.131,1355.05 948.35,1370.46C942.453,1372.74 939.52,1379.39 941.804,1385.28C944.088,1391.18 950.731,1394.11 956.628,1391.83C970.445,1386.48 983.479,1379.61 996.154,1372.06ZM761.868,1435.47C750.982,1412.75 740.349,1389.9 729.022,1367.42C728.65,1366.26 728.099,1365.18 727.405,1364.22C727.11,1363.64 726.812,1363.06 726.514,1362.47C723.641,1356.84 716.735,1354.6 711.101,1357.47C705.467,1360.34 703.226,1367.25 706.099,1372.88C706.397,1373.47 706.694,1374.05 706.992,1374.64C709.796,1400.33 712.025,1426.14 714.705,1451.86C715.786,1462.23 715.208,1473.78 717.73,1483.91C719.258,1490.04 725.481,1493.78 731.617,1492.26C737.754,1490.73 741.495,1484.51 739.967,1478.37C737.696,1469.25 738.472,1458.82 737.498,1449.48C736.974,1444.46 736.468,1439.43 735.971,1434.4C743.058,1449.3 750.186,1464.17 757.621,1478.88C759.766,1483.13 764.198,1485.46 768.665,1485.15C769.642,1485.48 770.679,1485.69 771.759,1485.75C778.074,1486.08 783.473,1481.23 783.809,1474.91C786.948,1415.82 780.825,1356.29 785.278,1297.12C785.752,1290.81 781.017,1285.3 774.711,1284.83C768.405,1284.36 762.9,1289.09 762.426,1295.4C758.919,1342 761.935,1388.82 761.868,1435.47ZM804.873,1357.03C797.856,1390.18 791.258,1424.29 793.554,1458.28C794.756,1476.07 802.513,1485.3 811.384,1489.16C823.609,1494.48 841.8,1489.23 856.306,1474.26C862.67,1467.7 868.075,1460.68 873.164,1453.1C876.687,1447.85 875.283,1440.72 870.032,1437.2C864.78,1433.67 857.656,1435.08 854.133,1440.33C849.814,1446.77 845.254,1452.74 839.853,1458.31C835.826,1462.47 831.458,1465.66 827.182,1467.35C824.755,1468.31 822.461,1468.99 820.534,1468.15C819.395,1467.65 818.703,1466.47 818.074,1464.95C817.166,1462.76 816.642,1460.03 816.419,1456.73C815.665,1445.58 815.96,1434.41 816.945,1423.27C817.582,1423.21 818.221,1423.1 818.859,1422.93C825.633,1421.1 831.954,1418.81 838.344,1415.94C844.116,1413.36 846.703,1406.58 844.119,1400.8C841.534,1395.03 834.75,1392.44 828.978,1395.03C826.036,1396.35 823.112,1397.52 820.131,1398.56C822.328,1385.14 825.15,1371.81 827.958,1358.64C838.191,1353.29 848.452,1348.15 859.283,1344.02C865.191,1341.76 868.155,1335.13 865.898,1329.22C863.642,1323.32 857.013,1320.35 851.106,1322.61C836.839,1328.06 823.476,1335.08 809.974,1342.21C804.602,1345.05 802.416,1351.57 804.873,1357.03ZM1183.2,1419.11C1185.42,1417.93 1187.61,1416.72 1189.74,1415.46C1195.19,1412.25 1197,1405.22 1193.79,1399.77C1190.57,1394.32 1183.54,1392.51 1178.1,1395.72C1166.49,1402.57 1153.12,1407.91 1140.57,1412.72C1134.66,1414.98 1131.71,1421.61 1133.97,1427.52C1136.23,1433.42 1142.86,1436.38 1148.77,1434.12C1153,1432.5 1157.31,1430.82 1161.62,1429.04C1162.33,1439.42 1158.8,1448.92 1153.02,1455.29C1149,1459.71 1143.89,1462.66 1138.47,1462.34C1132.69,1461.99 1127.2,1457.9 1122.27,1450.15C1113.1,1435.74 1115.76,1418.5 1119.26,1402.64C1121.79,1391.16 1125.77,1378.7 1133.57,1369.69C1141.28,1360.78 1150.9,1352.48 1162.86,1350.75C1169.12,1349.85 1173.47,1344.04 1172.57,1337.78C1171.67,1331.52 1165.85,1327.17 1159.59,1328.07C1142.14,1330.59 1127.49,1341.7 1116.25,1354.69C1106,1366.53 1100.21,1382.63 1096.88,1397.71C1092.1,1419.37 1090.41,1442.77 1102.93,1462.45C1116.49,1483.76 1134.3,1488.2 1149.55,1483.81C1170.87,1477.66 1188.97,1451.1 1183.69,1421C1183.58,1420.34 1183.41,1419.71 1183.2,1419.11ZM1211.64,1373.51C1203.56,1396.89 1197.54,1428.64 1201.94,1453.28C1203.19,1460.3 1206.15,1468.68 1210.87,1474.55C1217.41,1482.66 1226.68,1487.12 1239.3,1482.37C1256.67,1475.83 1266.51,1456.91 1272.71,1440.72C1286.03,1405.93 1290.04,1364.71 1284.49,1327.83C1283.55,1321.58 1277.71,1317.27 1271.46,1318.21C1265.2,1319.15 1260.89,1324.99 1261.83,1331.24C1266.81,1364.33 1263.26,1401.31 1251.31,1432.52C1249.03,1438.47 1246.33,1445.08 1242.55,1450.78C1239.64,1455.17 1236.13,1459.08 1231.23,1460.92C1229.41,1461.6 1228.51,1460.05 1227.72,1458.7C1226.02,1455.81 1225.04,1452.27 1224.5,1449.26C1220.73,1428.15 1226.38,1401.03 1233.3,1381.01C1235.37,1375.03 1232.2,1368.5 1226.22,1366.43C1220.24,1364.36 1213.71,1367.54 1211.64,1373.51ZM1415.39,1329.4C1387.27,1329.94 1367.84,1358.88 1377.4,1385.5C1382.02,1398.38 1393.23,1409.56 1402.28,1420.51C1406.59,1425.73 1410.7,1430.61 1410.68,1436.37C1410.66,1442.18 1406.11,1447.79 1396.62,1455.23C1392.94,1458.1 1389.31,1460.67 1384.58,1460.94C1378.26,1461.3 1373.43,1466.71 1373.79,1473.03C1374.15,1479.34 1379.56,1484.17 1385.88,1483.82C1395.48,1483.27 1403.29,1479.1 1410.74,1473.27C1424.95,1462.15 1431.05,1451.92 1432.91,1442.93C1435.02,1432.81 1432.16,1423.45 1426.33,1414.47C1421.99,1407.78 1415.85,1401.24 1410.05,1394.48C1405.53,1389.2 1401.14,1383.82 1398.97,1377.76C1394.66,1365.76 1403.16,1352.56 1415.83,1352.31C1422.15,1352.19 1427.19,1346.96 1427.07,1340.64C1426.95,1334.32 1421.71,1329.28 1415.39,1329.4ZM1328.35,1323.7C1325.27,1324.44 1322.52,1326.45 1320.92,1329.46C1303.38,1362.51 1288.91,1400.87 1284.79,1438.23C1282.62,1457.92 1287.92,1470.12 1295.66,1476.66C1301.11,1481.27 1308.13,1483.6 1316.37,1483.36C1325.69,1483.08 1337.05,1479.23 1348.86,1471.84C1357.14,1466.66 1364.29,1460.37 1371.55,1453.87C1376.26,1449.65 1376.66,1442.4 1372.44,1437.69C1368.22,1432.98 1360.97,1432.58 1356.26,1436.8C1349.99,1442.41 1343.87,1447.93 1336.71,1452.41C1330.09,1456.55 1323.8,1459.34 1318.23,1460.21C1315.13,1460.69 1312.37,1460.78 1310.45,1459.15C1309.22,1458.12 1308.51,1456.49 1307.99,1454.46C1307.06,1450.84 1306.95,1446.29 1307.57,1440.75C1308.07,1436.18 1308.75,1431.59 1309.58,1427.01C1311.53,1427.57 1313.67,1427.63 1315.78,1427.05C1324.11,1424.78 1332.58,1423.6 1340.58,1420.19C1346.4,1417.72 1349.11,1410.98 1346.63,1405.16C1344.16,1399.35 1337.42,1396.63 1331.61,1399.11C1326.27,1401.38 1320.66,1402.41 1315.06,1403.65C1320.95,1383.1 1329.41,1362.98 1338.93,1344.48C1352.72,1341.28 1366.42,1337.73 1379.99,1333.67C1386.05,1331.86 1389.49,1325.46 1387.68,1319.41C1385.87,1313.35 1379.48,1309.9 1373.42,1311.71C1359.36,1315.92 1345.14,1319.56 1330.83,1322.83C1329.95,1323.03 1329.12,1323.32 1328.35,1323.7ZM1547.58,1353.91C1520.72,1344.19 1498.88,1372.38 1509.12,1396.89C1511.21,1401.88 1515.31,1407.33 1520.45,1412.89C1526.36,1419.28 1533.77,1426.06 1539.13,1433.11C1541.96,1436.83 1544.51,1440.39 1544.29,1444.25C1544.09,1447.85 1541,1450.81 1535.56,1454.4C1532.6,1456.36 1529.08,1458.53 1525.45,1458.22C1519.15,1457.67 1513.59,1462.35 1513.05,1468.65C1512.51,1474.95 1517.18,1480.51 1523.49,1481.05C1532.16,1481.79 1541.12,1478.2 1548.2,1473.52C1561.93,1464.44 1566.65,1454.65 1567.17,1445.56C1567.68,1436.74 1563.85,1427.75 1557.38,1419.24C1552.47,1412.79 1546.06,1406.48 1540.29,1400.51C1535.97,1396.04 1531.91,1391.99 1530.27,1388.06C1527.46,1381.35 1532.43,1372.8 1539.78,1375.46C1545.73,1377.61 1552.3,1374.53 1554.45,1368.59C1556.61,1362.64 1553.53,1356.07 1547.58,1353.91ZM1467.34,1363.02C1467.77,1397.44 1465.78,1431.9 1467.52,1466.32C1467.84,1472.64 1473.23,1477.51 1479.55,1477.18C1485.86,1476.86 1490.73,1471.48 1490.41,1465.16C1488.48,1427.13 1491.15,1389.05 1490.02,1351.02C1492.16,1349.81 1494.29,1348.58 1496.41,1347.32C1516.17,1335.58 1534.64,1321.85 1554.68,1310.55C1560.18,1307.45 1562.14,1300.45 1559.03,1294.95C1555.92,1289.44 1548.93,1287.49 1543.42,1290.59C1523.24,1301.97 1504.61,1315.79 1484.7,1327.62C1465.05,1339.3 1443.99,1348.7 1423.83,1359.44C1418.25,1362.41 1416.13,1369.36 1419.1,1374.94C1422.08,1380.52 1429.02,1382.64 1434.6,1379.67C1445.38,1373.92 1456.41,1368.55 1467.34,1363.02Z"/>
    </g>
</svg>
