<?xml version="1.0" encoding="UTF-8" standalone="no"?>
<!DOCTYPE svg PUBLIC "-//W3C//DTD SVG 1.1//EN" "http://www.w3.org/Graphics/SVG/1.1/DTD/svg11.dtd">
<svg width="100%" height="100%" viewBox="0 0 2481 3508" version="1.1" xmlns="http://www.w3.org/2000/svg" xmlns:xlink="http://www.w3.org/1999/xlink" xml:space="preserve" xmlns:serif="http://www.serif.com/" style="fill-rule:evenodd;clip-rule:evenodd;stroke-linejoin:round;stroke-miterlimit:2;">
    <g transform="matrix(1,0,0,1,0.0302894,-218.499)">
        <path d="M1381.75,1891C1377.81,1892.53 1374.86,1896.18 1374.46,1900.67C1369.88,1951.73 1369.29,2004.31 1374.11,2055.42C1374.71,2061.71 1380.3,2066.34 1386.6,2065.75C1392.89,2065.16 1397.52,2059.56 1396.93,2053.26C1392.42,2005.49 1392.79,1956.39 1396.78,1908.55C1431.33,1887.28 1465.29,1935.24 1438.88,1963.29C1432.62,1969.94 1422.12,1972.07 1413.49,1973.88C1407.31,1975.19 1403.34,1981.27 1404.65,1987.46C1405.95,1993.65 1412.03,1997.61 1418.22,1996.31C1431.13,1993.59 1446.19,1988.95 1455.57,1979C1500.21,1931.58 1440.16,1850.37 1381.75,1891ZM1100.35,1895.86C1088.42,1878.59 1070.81,1875.95 1056.95,1882.05C1043.54,1887.93 1033.09,1902.64 1035.26,1922.24C1036.32,1931.79 1040.31,1942.58 1045.97,1950.4C1052.51,1959.43 1061.7,1965.76 1069.25,1973.87C1076.01,1981.13 1082.36,1991.62 1085.19,2002.48C1087.57,2011.57 1087.6,2021.06 1081.59,2028.35C1070.68,2041.58 1050.16,2035.48 1040.36,2023.6C1031.37,2012.71 1030.25,1998.12 1034.31,1985.02C1036.19,1978.98 1032.8,1972.55 1026.76,1970.68C1020.72,1968.81 1014.3,1972.19 1012.42,1978.23C1006.1,1998.64 1008.69,2021.22 1022.69,2038.19C1040.81,2060.15 1079.1,2067.39 1099.28,2042.92C1108.07,2032.26 1110.75,2019.2 1109.13,2005.86C1106.99,1988.19 1097,1970.05 1086.03,1958.26C1079.12,1950.84 1070.52,1945.22 1064.54,1936.96C1061.07,1932.18 1058.68,1925.56 1058.03,1919.71C1057.15,1911.75 1060.72,1905.42 1066.17,1903.03C1071.16,1900.83 1077.2,1902.66 1081.5,1908.89C1085.09,1914.09 1092.24,1915.39 1097.44,1911.8C1102.64,1908.21 1103.95,1901.06 1100.35,1895.86ZM1189.81,1960.95C1177.04,1963.5 1164.22,1965.34 1151.35,1967.21C1151.31,1947.51 1151.6,1927.84 1152.29,1908.27C1152.51,1901.95 1147.56,1896.64 1141.23,1896.42C1134.91,1896.2 1129.6,1901.15 1129.38,1907.47C1127.78,1953.34 1128.3,1999.84 1130.16,2045.69C1130.42,2052.01 1135.76,2056.93 1142.08,2056.68C1148.39,2056.42 1153.32,2051.08 1153.06,2044.76C1152.33,2026.7 1151.8,2008.53 1151.54,1990.34C1164.05,1988.51 1176.51,1986.76 1188.92,1984.45C1188.39,2002.65 1188.25,2020.84 1188.97,2038.97C1189.22,2045.29 1194.55,2050.22 1200.87,2049.97C1207.19,2049.72 1212.12,2044.39 1211.87,2038.07C1210.07,1992.44 1213.76,1946.46 1215.57,1900.84C1215.82,1894.52 1210.89,1889.19 1204.57,1888.94C1198.25,1888.69 1192.92,1893.62 1192.67,1899.93C1191.86,1920.22 1190.7,1940.58 1189.81,1960.95ZM1243.84,1975.62C1241.93,1986.07 1240.88,1996.88 1242.07,2007.48C1242.81,2014.14 1244.3,2021.01 1246.63,2027.3C1252.01,2041.77 1261.99,2050 1273.28,2052.81C1284.22,2055.53 1296.87,2053.1 1308.5,2044.7C1324.04,2033.47 1333.05,2014.92 1338.46,1997.17C1345.53,1974 1348.39,1942.05 1334.44,1920.4C1329.27,1912.37 1323.07,1907.76 1316.62,1905.42C1307.09,1901.95 1296.58,1903.44 1286.66,1908.53C1272.94,1915.56 1260.45,1929.64 1254.84,1941.47C1252.13,1947.18 1254.57,1954.02 1260.29,1956.73C1266,1959.44 1272.84,1957 1275.55,1951.28C1279.36,1943.26 1287.81,1933.69 1297.11,1928.92C1301.01,1926.92 1305.05,1925.59 1308.79,1926.95C1311.19,1927.83 1313.25,1929.82 1315.17,1932.81C1325.64,1949.06 1321.85,1973.09 1316.55,1990.48C1312.53,2003.62 1306.59,2017.81 1295.08,2026.13C1289.65,2030.05 1283.92,2031.84 1278.82,2030.57C1274.07,2029.39 1270.38,2025.41 1268.12,2019.33C1266.42,2014.76 1265.38,2009.77 1264.84,2004.93C1263.9,1996.54 1264.88,1988 1266.38,1979.74C1267.52,1973.52 1263.39,1967.54 1257.17,1966.41C1250.94,1965.27 1244.97,1969.4 1243.84,1975.62Z"/>
    </g>
</svg>
