<?xml version="1.0" encoding="utf-8"?>
<!-- Generator: Adobe Illustrator 24.2.0, SVG Export Plug-In . SVG Version: 6.00 Build 0)  -->
<svg version="1.1" id="Calque_1" xmlns:serif="http://www.serif.com/"
	 xmlns="http://www.w3.org/2000/svg" xmlns:xlink="http://www.w3.org/1999/xlink" x="0px" y="0px" viewBox="0 0 19.5 9"
	 style="enable-background:new 0 0 19.5 9;" xml:space="preserve">
<style type="text/css">
	.st0{fill-rule:evenodd;clip-rule:evenodd;}
</style>
<g>
	<path class="st0" d="M5.8,0.1C4.2-0.1,2.5,0.2,0.9,0.3c-0.4,0-0.7,0.3-0.7,0.6c0,0.4,0.3,0.6,0.7,0.6c0.6,0,1.1-0.1,1.7-0.1
		c0.3,0.8,0.7,1.6,1,2.5c0.3,0.8,0.5,1.6,0.3,2.3c-0.1,0.7-0.7,1-1.2,1.1c-0.6,0-1.2-0.1-1.5-0.6C1,6.4,0.6,6.4,0.3,6.6
		C0,6.8-0.1,7.2,0.1,7.5c0.6,0.9,1.7,1.2,2.8,1.1c1-0.2,2-0.8,2.3-1.9C5.4,5.9,5.3,5,5.1,4.2c-0.3-1-0.8-2-1.1-2.8
		c0.6,0,1.1,0,1.7,0.1c0.3,0,0.6-0.3,0.7-0.6C6.4,0.5,6.2,0.2,5.8,0.1z"/>
	<path class="st0" d="M11.5,6.6c-0.5,0.6-1.2,1-1.9,1.1c-0.4,0-0.7,0-1-0.2S8,6.9,7.9,6.3C7.8,5.8,7.9,5.2,8,4.7
		c0.1,0.1,0.3,0.1,0.4,0.1c0.9-0.1,1.8-0.3,2.6-0.6c0.3-0.1,0.5-0.5,0.4-0.8S10.9,2.9,10.6,3C9.9,3.3,9.1,3.4,8.3,3.5l0,0
		C8.5,2.9,8.7,2.2,9,1.6l0,0c1,0,1.9,0,2.8-0.2c0.4-0.1,0.6-0.4,0.6-0.7c-0.1-0.4-0.4-0.6-0.7-0.6C10.8,0.3,10,0.4,9.1,0.3
		c-0.1,0-0.2,0-0.3,0.1C8.5,0.3,8.2,0.4,8,0.7C7.2,2.5,6.3,4.6,6.7,6.6c0.2,1,0.6,1.6,1.2,2c1.3,0.8,3.3,0.4,4.6-1.1
		c0.2-0.3,0.2-0.7,0-0.9C12.1,6.4,11.7,6.4,11.5,6.6z"/>
	<path class="st0" d="M18.7,1c-0.4,0-0.6,0.3-0.6,0.7c0.1,1.6,0.1,3.3-0.7,4.7c-0.1,0.2-0.3,0.4-0.5,0.5c-0.2,0.2-0.4,0.3-0.6,0.3
		c-0.3,0-0.4-0.3-0.6-0.6c-0.4-0.8-0.5-1.9-0.5-2.5c0-0.9,0.2-1.8,0.4-2.7c0.1-0.3-0.1-0.7-0.5-0.8c-0.3-0.1-0.7,0.1-0.8,0.5
		c-0.3,1-0.4,2-0.4,3c0,0.9,0.3,2.7,1,3.7c0.3,0.4,0.7,0.7,1.2,0.7c0.4,0.1,1-0.1,1.6-0.5c0.3-0.2,0.7-0.6,0.9-0.9
		c0.9-1.6,1-3.6,0.9-5.4C19.4,1.3,19.1,1,18.7,1z"/>
</g>
</svg>
