<?xml version="1.0" encoding="utf-8"?>
<!-- Generator: Adobe Illustrator 24.2.0, SVG Export Plug-In . SVG Version: 6.00 Build 0)  -->
<svg version="1.1" id="Calque_1" xmlns:serif="http://www.serif.com/"
	 xmlns="http://www.w3.org/2000/svg" xmlns:xlink="http://www.w3.org/1999/xlink" x="0px" y="0px" viewBox="0 0 20.5 9.1"
	 style="enable-background:new 0 0 20.5 9.1;" xml:space="preserve">
<style type="text/css">
	.st0{fill-rule:evenodd;clip-rule:evenodd;}
</style>
<g>
	<path class="st0" d="M4.9,7.4c-1.1,0.1-2.3,0.1-3.4,0c0,0,0,0,0-0.1c0.7-2.1,1.3-4.3,2-6.5C3.6,0.5,3.4,0.1,3,0
		C2.7-0.1,2.3,0.1,2.2,0.5C1.6,2.6,0.9,4.8,0.3,7c0,0.2,0,0.3,0,0.4C0.2,7.5,0,7.7,0,7.9c0,0.4,0.2,0.7,0.6,0.7c1.5,0.2,3,0.2,4.5,0
		c0.4,0,0.6-0.4,0.6-0.7C5.6,7.6,5.3,7.4,4.9,7.4z"/>
	<path class="st0" d="M11.3,2c-0.4,0.1-0.6,0.4-0.5,0.7C11,4.3,11,5.7,10.1,7C10,7.2,9.8,7.3,9.6,7.5C9.2,7.8,8.8,8,8.6,7.8
		C8.3,7.7,8.1,7.4,7.9,7.1c-0.3-0.6-0.4-1.4-0.4-2c0-1,0.2-2,0.3-2.9c0.1-0.4-0.2-0.7-0.5-0.7C7,1.4,6.7,1.6,6.6,2
		C6.4,3,6.2,4.1,6.3,5.1c0,0.8,0.2,1.8,0.6,2.6C7.2,8.3,7.6,8.8,8.2,9s1.3,0.2,2.3-0.5C10.7,8.3,11,8,11.2,7.7
		c1-1.6,1.1-3.3,0.8-5.1C12,2.2,11.6,2,11.3,2z"/>
	<path class="st0" d="M20.1,0.1c-0.3-0.1-0.7,0.1-0.8,0.5c-0.5,1.9-1,3.8-1.4,5.7c-0.9-1.8-1.5-3.7-2.6-5.4
		c-0.2-0.3-0.6-0.4-0.9-0.2c-0.1,0.1-0.2,0.2-0.3,0.4c-0.3,0.1-0.4,0.3-0.5,0.6c-0.2,2-0.3,4.2-0.6,6.3c-0.1,0.4,0.2,0.7,0.5,0.7
		c0.4,0.1,0.7-0.2,0.7-0.5c0.3-1.8,0.4-3.7,0.5-5.5c0.9,1.6,1.4,3.4,2.4,5c0.1,0.1,0.1,0.2,0.2,0.2c-0.1,0.3,0.1,0.7,0.5,0.8
		c0.3,0.1,0.7-0.1,0.8-0.5c0.6-2.5,1.2-4.9,1.9-7.4C20.6,0.5,20.4,0.2,20.1,0.1z"/>
</g>
</svg>
