<?xml version="1.0" encoding="utf-8"?>
<!-- Generator: Adobe Illustrator 24.2.0, SVG Export Plug-In . SVG Version: 6.00 Build 0)  -->
<svg version="1.1" id="Calque_1" xmlns:serif="http://www.serif.com/"
	 xmlns="http://www.w3.org/2000/svg" xmlns:xlink="http://www.w3.org/1999/xlink" x="0px" y="0px" viewBox="0 0 19.9 8.8"
	 style="enable-background:new 0 0 19.9 8.8;" xml:space="preserve">
<style type="text/css">
	.st0{fill-rule:evenodd;clip-rule:evenodd;}
</style>
<g>
	<path class="st0" d="M5.9,0.2c-0.3,0-0.5,0.2-0.5,0.5C5.2,0.7,5,0.8,4.9,0.9C4.3,1.7,3.8,2.5,3.2,3.3C2.7,2.5,2.1,1.8,1.4,1
		C1.2,0.7,0.8,0.7,0.5,0.9C0.4,1,0.3,1.2,0.3,1.3C0.2,1.5,0.1,1.6,0.1,1.8C0,3.8,0,5.7,0,7.7c0,0.4,0.3,0.7,0.6,0.7
		c0.4,0,0.7-0.3,0.7-0.6c0-1.6,0-3.2,0.1-4.7C1.9,3.7,2.3,4.3,2.8,5c0.1,0.2,0.5,0.3,0.8,0.1C3.8,5,3.9,4.8,3.9,4.6
		c0.6-0.7,1-1.6,1.6-2.3C5.7,4.2,5.7,6.1,5.9,8c0,0.4,0.3,0.6,0.7,0.6c0.4,0,0.6-0.3,0.6-0.7C6.9,5.5,6.9,3.2,6.6,0.8
		C6.6,0.4,6.3,0.2,5.9,0.2z"/>
	<path class="st0" d="M12.1,6.4c-0.3,0.3-0.6,0.6-1,0.8c-0.2,0.1-0.4,0.2-0.6,0.3c-0.4,0.1-0.6,0.1-0.8,0C9.5,7.4,9.5,7.1,9.4,6.9
		c-0.1-0.6,0-1.3,0.1-2l0,0c0.6-0.2,1.3-0.4,1.9-0.6c0.3-0.1,0.5-0.5,0.3-0.9c-0.1-0.3-0.5-0.5-0.9-0.3c-0.3,0.1-0.7,0.3-1,0.4
		C9.9,3.2,10,3,10,2.9c0.2-0.6,0.2-0.7,0.3-1c0.6-0.1,1.2-0.2,1.9-0.3c0.4-0.1,0.6-0.4,0.5-0.7c0-0.4-0.3-0.7-0.7-0.6
		c-0.7,0.1-1.5,0.2-2.2,0.4c-0.1,0-0.2,0-0.2,0.1c-0.1,0-0.3,0.1-0.4,0.3C9,1.8,9,1.8,8.8,2.5S8.1,4.8,8.1,6.2c0,1,0.3,1.9,0.8,2.3
		c0.4,0.3,1,0.4,1.9,0.2c0.3-0.1,0.6-0.2,0.9-0.4c0.5-0.3,0.9-0.6,1.3-1c0.3-0.3,0.3-0.7,0-0.9C12.7,6.2,12.3,6.2,12.1,6.4z"/>
	<path class="st0" d="M18.2,5c0.8-0.9,1.3-2.2,0.9-3.4c-0.5-1.5-2.2-1.8-3.4-1.2C15.6,0.2,15.4,0,15.1,0c-0.4,0-0.7,0.3-0.7,0.6
		c0,2.1-0.3,4.2-0.2,6.3c0,0.4,0.3,0.6,0.7,0.6s0.6-0.3,0.6-0.7c-0.1-1.6,0.1-3.3,0.2-4.9c0,0,0.1,0,0.1-0.1
		c0.3-0.3,0.8-0.5,1.2-0.5c0.4,0,0.8,0.2,0.9,0.7c0.3,0.8-0.2,1.5-0.7,2.1c-0.1,0-0.2,0-0.3,0.1c-0.3,0.2-0.4,0.6-0.2,0.9
		c0.7,1,1.3,2,1.9,3.2c0.2,0.3,0.5,0.5,0.9,0.3c0.3-0.2,0.5-0.5,0.3-0.9C19.4,6.8,18.8,5.9,18.2,5z"/>
</g>
</svg>
