<?xml version="1.0" encoding="utf-8"?>
<!-- Generator: Adobe Illustrator 24.2.0, SVG Export Plug-In . SVG Version: 6.00 Build 0)  -->
<svg version="1.1" id="Calque_1" xmlns:serif="http://www.serif.com/"
	 xmlns="http://www.w3.org/2000/svg" xmlns:xlink="http://www.w3.org/1999/xlink" x="0px" y="0px" viewBox="0 0 33.5 9.1"
	 style="enable-background:new 0 0 33.5 9.1;" xml:space="preserve">
<style type="text/css">
	.st0{fill-rule:evenodd;clip-rule:evenodd;}
</style>
<path class="st0" d="M0.3,1.2C0.1,1.3,0,1.5,0,1.7C0.1,4,0,6.3,0.2,8.5c0,0.4,0.3,0.6,0.7,0.6c0.4,0,0.6-0.3,0.6-0.7
	C1.3,6.3,1.4,4.1,1.3,1.9c0.5-0.3,1.1-0.5,1.6-0.3c1,0.4,0.6,1.5-0.1,2C2.5,3.9,2.4,4.3,2.6,4.6c0.2,0.3,0.6,0.3,0.9,0.1
	C5,3.6,5.5,1.2,3.4,0.4c-0.9-0.3-2-0.1-2.8,0.4C0.4,0.9,0.4,1,0.3,1.2z M10.7,4.2c0,0.7,0,1.4,0.1,2.1c0.2,1.2,1.1,2.3,2,2.5
	c0.7,0.2,1.5,0,2.2-0.9C16,6.7,16.2,4.6,16,3.2c-0.1-0.6-0.4-1.4-0.9-1.8c-0.3-0.3-0.6-0.5-1-0.5c-0.4-0.1-0.8,0-1.2,0.3
	c-0.3,0.2-0.4,0.6-0.2,0.9c0.2,0.3,0.6,0.4,0.9,0.2c0.1-0.1,0.2-0.1,0.3-0.1c0.1,0,0.2,0.1,0.3,0.2c0.3,0.3,0.5,0.7,0.5,1.1
	c0.2,1.1,0.1,2.7-0.6,3.6c-0.2,0.3-0.5,0.5-0.7,0.5c-0.3,0-0.5-0.1-0.7-0.4c-0.3-0.3-0.5-0.7-0.5-1.1C12,5.4,12,4.9,12,4.3
	c0-0.4-0.3-0.7-0.6-0.7C11.1,3.6,10.8,3.9,10.7,4.2z M6.6,1.1C6.5,1,6.3,1,6.2,1C5.8,1,5.5,1.2,5.5,1.6C5.4,3.4,5.1,5.2,5.2,7
	c0,0.4,0.3,0.6,0.7,0.6c0.4,0,0.6-0.3,0.6-0.7C6.4,5.5,6.6,4,6.7,2.6C7,2.4,7.3,2.2,7.6,2.1C7.8,2.1,8,2.1,8.2,2.2
	c0.2,0.1,0.2,0.3,0.3,0.6c0.1,0.6-0.2,1-0.5,1.4c-0.1,0-0.2,0.1-0.3,0.1C7.4,4.6,7.3,5,7.5,5.3C8.2,6.1,8.7,7.1,9.2,8
	c0.2,0.3,0.6,0.4,0.9,0.2c0.3-0.2,0.4-0.6,0.2-0.9C9.9,6.6,9.5,5.8,9,5.1C9,5,9.1,5,9.1,4.9c0.4-0.8,0.8-1.3,0.7-2.2
	C9.7,1.9,9.4,1.4,9,1.2C8.6,0.9,8.1,0.8,7.6,0.8C7.3,0.9,6.9,1,6.6,1.1z M22.9,2c-0.2,0.1-0.3,0.2-0.3,0.3c-0.5,1.1-1,2.3-0.9,3.5
	c0,0.8,0.3,1.4,0.8,1.7c0.5,0.4,1.1,0.5,1.9,0.2c0.3-0.1,0.6-0.3,0.9-0.5c0.5-0.4,0.9-0.9,1.3-1.4c0.2-0.3,0.2-0.7-0.1-0.9
	c-0.3-0.2-0.7-0.2-0.9,0.1c-0.3,0.4-0.6,0.8-1,1.1c-0.2,0.1-0.3,0.3-0.6,0.3c-0.3,0.1-0.5,0.1-0.7,0c-0.2-0.1-0.3-0.4-0.3-0.7
	c0-0.3,0-0.5,0.1-0.8c0.1,0,0.2,0,0.4,0c0.6-0.1,0.5-0.1,1-0.4c0.3-0.2,0.5-0.5,0.3-0.9c-0.2-0.3-0.5-0.5-0.9-0.3
	c-0.2,0.1-0.3,0.2-0.4,0.2c0.1-0.3,0.2-0.6,0.4-0.8c0-0.1,0.1-0.2,0.1-0.3c0.9-0.2,1.7-0.5,2.5-0.8c0.3-0.1,0.5-0.5,0.4-0.8
	c-0.1-0.3-0.5-0.5-0.8-0.4c-0.8,0.3-1.7,0.5-2.5,0.7C23.1,1.4,22.9,1.7,22.9,2z M18.7,2.3c0,0.3,0.1,0.7,0.1,1
	c0.1,0.4,0.2,0.9,0.3,1.4c0.1,0.4,0.2,0.7,0.1,1c0,0.2-0.2,0.4-0.3,0.5c-0.2,0.1-0.4,0-0.5-0.2c-0.3-0.2-0.7-0.2-0.9,0
	c-0.2,0.3-0.2,0.7,0,0.9c0.6,0.5,1.3,0.7,1.8,0.5c0.6-0.2,1.1-0.7,1.2-1.5c0.1-0.4,0-0.8-0.1-1.3c-0.1-0.5-0.3-1.1-0.4-1.5
	c-0.1-0.3-0.1-0.6-0.1-1c0.3,0,0.6-0.1,0.9-0.1c0.4-0.1,0.6-0.4,0.5-0.7c-0.1-0.4-0.4-0.6-0.7-0.5c-1.1,0.2-2.2,0.3-3.3,0.3
	c-0.4,0-0.7,0.3-0.7,0.6c0,0.4,0.3,0.7,0.6,0.7C17.8,2.4,18.3,2.4,18.7,2.3z M28.7,2.7c0,1.4-0.2,2.8,0.1,4.1
	c0.1,0.4,0.4,0.6,0.8,0.5c0.4-0.1,0.6-0.4,0.5-0.8c-0.3-1.3,0-2.9-0.1-4.3c0.8-0.3,1.6-0.7,2.5-1c0.3-0.1,0.5-0.5,0.4-0.8
	c-0.1-0.3-0.5-0.5-0.8-0.4c-1.8,0.7-3.5,1.5-5.3,2c-0.3,0.1-0.5,0.5-0.4,0.8c0.1,0.3,0.5,0.5,0.8,0.4C27.6,3.1,28.1,2.9,28.7,2.7z
	 M33.2,5c-0.2-0.1-0.4-0.2-0.6-0.1c-0.3,0.1-0.6,0.4-0.5,0.8C32.2,5.9,32.3,6,32.4,6c0.1,0.1,0.5,0.2,0.5,0.2s0,0,0,0
	c0.4,0,0.6-0.3,0.6-0.6C33.5,5.3,33.4,5.1,33.2,5z M33.3,5.1c0,0,0,0.1,0.1,0.1c0,0,0,0.1,0,0.1C33.4,5.2,33.3,5.2,33.3,5.1z
	 M33.4,3.6c0.1-0.3,0.1-0.6-0.2-0.8c-0.2-0.2-0.4-0.2-0.5-0.1c-0.1,0-0.2,0.1-0.3,0.1c-0.1,0.1-0.3,0.6-0.3,0.6s0,0,0-0.1
	c0,0.4,0.3,0.6,0.7,0.6C33.1,4,33.3,3.8,33.4,3.6z M32.4,3.9c0.1,0,0.1,0.1,0.2,0.1c0,0,0.1,0,0.1,0C32.6,4,32.5,3.9,32.4,3.9z"/>
</svg>
