<?xml version="1.0" encoding="utf-8"?>
<!-- Generator: Adobe Illustrator 24.2.0, SVG Export Plug-In . SVG Version: 6.00 Build 0)  -->
<svg version="1.1" id="Calque_1" xmlns:serif="http://www.serif.com/"
	 xmlns="http://www.w3.org/2000/svg" xmlns:xlink="http://www.w3.org/1999/xlink" x="0px" y="0px" viewBox="0 0 22 9"
	 style="enable-background:new 0 0 22 9;" xml:space="preserve">
<style type="text/css">
	.st0{fill-rule:evenodd;clip-rule:evenodd;}
</style>
<g>
	<path class="st0" d="M4.9,4.2C4.4,4,3.9,3.7,3.4,3.5C3.1,3.3,2.8,3.1,2.6,2.7c-0.1-0.4,0-0.8,0.3-1.1s0.6-0.4,1-0.2
		c0.3,0.1,0.7,0,0.9-0.3s0.1-0.7-0.3-0.9C3.6-0.3,2.7,0,2,0.7C1.4,1.3,1.1,2.3,1.4,3.1c0.2,0.6,0.6,1,1.1,1.3
		c0.4,0.3,0.9,0.5,1.3,0.7c0.6,0.3,1.1,0.5,1,1.3c-0.1,0.6-0.5,1-1,1.2C3.2,7.8,2.6,7.8,2.1,7.5S1.4,6.6,1.3,6.1
		C1.2,5.7,0.8,5.5,0.5,5.6C0.1,5.7-0.1,6.1,0,6.4c0.2,0.8,0.6,1.8,1.4,2.2c0.8,0.5,1.9,0.5,2.8,0.1S5.9,7.6,6,6.5
		C6.2,5.4,5.7,4.7,4.9,4.2z"/>
	<path class="st0" d="M13,4.9c-0.1-0.3-0.5-0.5-0.8-0.4h-0.1c-0.3-1.3-0.6-2.5-1.3-3.7c-0.2-0.3-0.6-0.4-0.9-0.2c0,0,0,0-0.1,0.1
		c-0.1,0-0.1-0.1-0.2-0.1C9.3,0.5,9,0.7,8.9,1C8.5,2.4,8.1,3.8,7.7,5.2C7.5,5.3,7.3,5.5,7.3,5.8c0,0.1,0,0.2,0.1,0.3
		c0,0.1-0.1,0.3-0.1,0.4C7.2,6.8,7.4,7.2,7.8,7.3c0.3,0.1,0.7-0.1,0.8-0.5c0-0.2,0.1-0.3,0.1-0.5c0.8-0.1,1.6-0.1,2.4-0.3
		c0.1,0.5,0.3,1,0.4,1.5C11.6,7.8,12,8,12.3,7.9s0.5-0.5,0.4-0.8c-0.1-0.4-0.3-0.8-0.4-1.3c0.1,0,0.1,0,0.2,0
		C12.9,5.6,13.1,5.3,13,4.9z M9.1,5C9.4,4,9.7,3,10,1.9c0.5,0.9,0.7,1.9,0.9,2.8C10.3,4.9,9.7,4.9,9.1,5z"/>
	<path class="st0" d="M20.6,0.8c-0.1-0.3-0.5-0.5-0.8-0.4c-0.2,0.1-0.3,0.2-0.4,0.4c-0.1,0-0.3,0.1-0.4,0.3
		c-0.6,0.9-1.1,1.8-1.6,2.7C17,2.9,16.7,2,16.1,1.1C16,1,16,0.9,15.9,0.9c-0.1-0.1-0.3-0.2-0.4-0.2c-0.4,0-0.7,0.2-0.7,0.6
		c-0.2,1.9-0.4,3.8-0.6,5.6c0,0.4,0.2,0.7,0.6,0.7c0.4,0,0.7-0.2,0.7-0.6c0.2-1.3,0.3-2.5,0.4-3.8c0.2,0.5,0.4,1.1,0.7,1.7
		c0,0.4,0.4,0.6,0.8,0.4c0.1,0,0.1-0.1,0.2-0.1c0.3,0.1,0.5,0,0.7-0.3c0.5-0.8,1-1.6,1.5-2.4c0.4,1.8,0.5,3.6,1,5.4
		c0.1,0.3,0.5,0.6,0.8,0.5c0.2-0.2,0.4-0.5,0.3-0.9C21.3,5.3,21.3,3,20.6,0.8z"/>
</g>
</svg>
