<?xml version="1.0" encoding="utf-8"?>
<!-- Generator: Adobe Illustrator 24.2.0, SVG Export Plug-In . SVG Version: 6.00 Build 0)  -->
<svg version="1.1" id="Calque_1" xmlns:serif="http://www.serif.com/"
	 xmlns="http://www.w3.org/2000/svg" xmlns:xlink="http://www.w3.org/1999/xlink" x="0px" y="0px" viewBox="0 0 67.4 20"
	 style="enable-background:new 0 0 67.4 20;" xml:space="preserve">
<style type="text/css">
	.st0{fill-rule:evenodd;clip-rule:evenodd;}
</style>
<g transform="matrix(1,0,0,1,-9.84319,8.4837)">
	<path class="st0" d="M50.5-5c1.3-0.2,2.6,0.6,3.3,1.6c0.7,1,0.7,2.3-0.4,3.2C53.2-0.1,53.1,0,53.1,0c-0.1,0-0.2,0.1-0.2,0.1
		c-0.8,0.3-1.1,1.2-0.8,2c1.3,2.8,2.1,5.9,3.5,8.6c0.4,0.7,1.3,1,2,0.6c0.7-0.4,1-1.3,0.6-2c-1.2-2.3-2-4.8-3-7.3
		c2.5-2.1,2.4-5,0.9-7.1C54.9-7,52.4-8.3,50-7.9c-0.3-0.4-0.8-0.6-1.3-0.5c-0.8,0.1-1.4,0.8-1.3,1.7c0.5,4.1,0,7.9-0.1,12
		c0,0.8,0.6,1.5,1.5,1.5c0.8,0,1.5-0.6,1.5-1.5C50.3,1.8,50.6-1.5,50.5-5z M17.8-7.8c-3.3-0.5-6.5,2.7-4.9,6
		c0.6,1.3,2.1,2.3,3.6,3.3c0.5,0.3,1,0.6,1.4,1c0.6,0.5,1.1,1.2,0.7,2.2c-0.5,1.4-2,2-3.3,1.8c-1.3-0.2-2.4-1-2.5-2.6
		c0-0.8-0.7-1.5-1.6-1.4c-0.8,0-1.5,0.7-1.4,1.6C10,7.4,12.4,9.2,15,9.6c2.6,0.3,5.4-0.9,6.4-3.8c0.4-1.2,0.4-2.2,0.2-3.1
		c-0.4-1.2-1.3-2.2-2.5-3c-0.7-0.5-1.5-1-2.3-1.5c-0.5-0.4-1-0.7-1.2-1.2c-0.5-1,0.6-2,1.7-1.8c0.8,0.1,1.6-0.4,1.7-1.2
		C19.2-6.9,18.7-7.6,17.8-7.8z M62.2-5.7c-0.2,0.2-0.4,0.4-0.5,0.6c-1.2,2.8-2.6,6.5-2.1,9.6c0.2,1.3,0.8,2.3,1.6,2.9
		c0.8,0.6,1.7,0.9,2.8,1c2.6,0.1,5.8-1.6,7.1-3.3c0.5-0.7,0.4-1.6-0.3-2.1c-0.7-0.5-1.6-0.4-2.1,0.3C68,4,66.3,4.9,64.8,5.2
		C64.1,5.3,63.5,5.3,63,5c-0.3-0.2-0.4-0.6-0.5-1c-0.1-0.7-0.1-1.4,0-2.1c0.2,0.1,0.5,0.1,0.8,0c0.9-0.2,0.7-0.2,1.6-0.4
		c0.8-0.2,1.3-1,1.1-1.8c-0.2-0.8-1-1.3-1.8-1.1c-0.6,0.1-0.7,0.2-1,0.2c0.3-0.9,0.7-1.7,1-2.4c1.9-0.6,3.8-1.2,5.8-1.6
		c0.8-0.2,1.4-0.9,1.2-1.7c-0.2-0.8-0.9-1.4-1.7-1.2C67.3-7.7,65.2-7,63-6.4C62.6-6.3,62.4-6,62.2-5.7z M30.9-6.2
		c-4.7-0.8-7.4,3.8-7.4,7.9c0,2.7,1.2,5,3.1,5.7c1.3,0.5,3,0.4,5.2-1.1c0.7-0.5,0.9-1.4,0.4-2.1c-0.5-0.7-1.4-0.9-2.1-0.4
		c-1,0.7-1.8,1-2.4,0.8c-0.4-0.1-0.6-0.5-0.8-0.8c-0.3-0.6-0.4-1.3-0.4-2.1c0-1.3,0.4-2.8,1.1-3.8c0.6-0.8,1.5-1.4,2.7-1.2
		c0.8,0.1,1.6-0.4,1.7-1.2C32.2-5.3,31.7-6,30.9-6.2z M37.6,3.8c0.1-0.3,0.1-0.6,0-0.9c-0.3-1-0.4-2.2-0.3-3.3
		c0.1-0.8-0.5-1.5-1.4-1.6c-0.8-0.1-1.5,0.5-1.6,1.4c-0.1,0.6-0.1,1.2,0,1.8c0,0.1,0,0.2,0,0.4c0.1,3.6,1.4,5.1,2.8,5.6
		c1.1,0.4,2.4,0.2,3.6-0.6c2.2-1.4,4.4-4.9,4.2-8.1c-0.1-1.5-0.8-3.2-1.9-4.3c-0.9-0.9-1.9-1.4-3-1.4c-1.1,0-2.4,0.6-3.4,2.2
		c-0.4,0.7-0.2,1.6,0.5,2.1c0.7,0.4,1.6,0.2,2.1-0.5C39.4-4,39.7-4.3,40-4.3c0.3,0,0.6,0.3,0.9,0.6c0.6,0.6,1,1.5,1,2.3
		c0.1,1.9-1,3.9-2.3,5c-0.4,0.3-0.7,0.6-1.1,0.7c-0.2,0.1-0.3,0.1-0.5,0.1C37.9,4.3,37.8,4.1,37.6,3.8C37.7,3.9,37.6,3.9,37.6,3.8z
		 M77,5.3c0.1-0.1,0.1-0.1,0.1-0.2c0.1-0.2,0.1-0.5,0-0.7c-0.1-0.2-0.3-0.4-0.6-0.6c-0.3-0.1-0.6-0.2-0.9-0.1
		c-0.2,0.1-0.4,0.2-0.5,0.4c-0.1,0.2-0.2,0.4-0.1,0.7c0.1,0.4,0.5,0.8,0.7,0.9c0.3,0.1,0.5,0.1,0.7,0c0.2-0.1,0.3-0.2,0.4-0.4
		C77,5.4,77,5.3,77,5.3z M75.5-0.9c-0.2,0.3-0.2,0.7-0.1,1c0.1,0.2,0.3,0.3,0.4,0.4c0.1,0,0.2,0.1,0.3,0.1c0.3,0,0.6-0.1,0.8-0.4
		c0.1-0.2,0.2-0.5,0.2-0.7c0-0.2-0.1-0.4-0.2-0.5c-0.1-0.1-0.1-0.1-0.2-0.2c-0.1-0.1-0.3-0.2-0.5-0.2c-0.1,0-0.3,0-0.5,0.2
		C75.6-1.2,75.5-1.1,75.5-0.9C75.5-1,75.5-1,75.5-0.9z"/>
</g>
</svg>
