<?xml version="1.0" encoding="UTF-8" standalone="no"?>
<!DOCTYPE svg PUBLIC "-//W3C//DTD SVG 1.1//EN" "http://www.w3.org/Graphics/SVG/1.1/DTD/svg11.dtd">
<svg width="100%" height="100%" viewBox="0 0 2481 3508" version="1.1" xmlns="http://www.w3.org/2000/svg" xmlns:xlink="http://www.w3.org/1999/xlink" xml:space="preserve" xmlns:serif="http://www.serif.com/" style="fill-rule:evenodd;clip-rule:evenodd;stroke-linejoin:round;stroke-miterlimit:2;">
    <g transform="matrix(6.12323e-17,-1,1,6.12323e-17,795.638,2569.33)">
        <path d="M799.353,608.804C785.125,604.991 762.217,606.607 746.057,614.528C736.387,619.268 729.087,626.229 725.754,634.787C722.337,643.56 722.565,654.463 730.369,667.36C742.873,688.022 766.273,698.09 788.46,704.202C815.391,711.62 845.156,713.813 870.623,699.853C884.804,692.08 890.837,681.99 892.2,672.107C893.482,662.812 890.501,653.116 884.203,644.474C876.177,633.461 862.649,624.156 848.603,620.171C842.519,618.445 836.179,621.984 834.453,628.068C832.727,634.152 836.265,640.492 842.349,642.218C851.523,644.82 860.441,650.778 865.683,657.971C868.233,661.47 870.018,665.212 869.499,668.976C868.931,673.09 865.511,676.522 859.608,679.757C839.456,690.804 815.856,687.978 794.546,682.108C777.803,677.496 759.411,671.087 749.975,655.495C746.958,650.509 745.787,646.496 747.108,643.104C748.511,639.503 752.075,637.1 756.144,635.106C767.452,629.563 783.464,628.271 793.42,630.94C799.529,632.577 805.817,628.947 807.455,622.838C809.092,616.73 805.462,610.442 799.353,608.804ZM773.894,495.421C764.245,495.681 753.859,495.978 744.823,499.81C720.863,509.97 708.675,539.644 726.056,561.491C740.627,579.806 767.042,587.486 789.049,590.541C810.493,593.518 836.76,595.678 856.649,584.438C870.55,576.583 876.892,565.933 878.1,555.372C879.836,540.197 870.429,523.481 851.52,513.227C843.774,509.027 835.722,506.186 827.199,504.052C821.064,502.517 814.837,506.251 813.301,512.385C811.766,518.52 815.499,524.747 821.634,526.283C828.272,527.945 834.563,530.102 840.596,533.373C849.84,538.385 856.18,545.349 855.332,552.767C854.817,557.263 851.292,561.143 845.375,564.487C829.762,573.31 809.033,570.179 792.2,567.842C775.566,565.533 755.004,561.068 743.99,547.223C736.421,537.71 743.336,525.332 753.769,520.908C760.194,518.184 767.651,518.514 774.511,518.33C780.833,518.159 785.827,512.889 785.657,506.567C785.487,500.245 780.216,495.251 773.894,495.421ZM788.447,469.419C790.18,475.625 791.418,481.814 792.275,488.047C793.136,494.312 798.922,498.7 805.187,497.839C811.452,496.978 815.839,491.192 814.978,484.927C814.257,479.677 813.3,474.453 812.061,469.23C823.784,469.202 835.514,469.307 847.246,469.694C853.567,469.903 858.868,464.94 859.076,458.62C859.285,452.299 854.323,446.998 848.002,446.79C805.076,445.374 762.2,447.725 719.285,446.548C712.963,446.374 707.69,451.366 707.516,457.688C707.343,464.009 712.335,469.282 718.656,469.456C741.928,470.094 765.188,469.693 788.447,469.419ZM862.38,390.856C861.684,390.766 860.971,390.739 860.246,390.781C821.285,393.001 782.362,394.778 743.513,398.737C737.221,399.378 732.634,405.006 733.275,411.298C733.916,417.589 739.544,422.177 745.836,421.535C784.346,417.611 822.929,415.861 861.55,413.66C864.246,413.506 866.673,412.43 868.539,410.757C875.245,432.718 881.559,454.847 886.068,477.086C887.324,483.284 893.376,487.296 899.574,486.04C905.772,484.783 909.784,478.731 908.527,472.533C900.597,433.418 887.241,394.62 875.75,356.446C873.928,350.391 867.531,346.954 861.476,348.777C855.42,350.6 851.983,356.996 853.806,363.052C856.586,372.286 859.48,381.555 862.38,390.856ZM755.111,278.653C753.893,278.308 752.678,277.962 751.463,277.614C745.383,275.874 739.034,279.397 737.294,285.477C735.553,291.557 739.076,297.906 745.156,299.646C749.34,300.843 753.531,302.024 757.73,303.191C759.206,317.184 759.611,331.513 760.082,345.686C758.685,346.163 757.287,346.638 755.889,347.112C739.019,352.835 721.532,357.125 705.028,363.875C699.174,366.268 696.365,372.964 698.759,378.817C701.153,384.671 707.848,387.48 713.702,385.086C729.092,378.793 745.374,374.742 761.151,369.518C761.588,375.807 767.036,380.57 773.332,380.157C779.642,379.743 784.43,374.284 784.016,367.973C783.881,365.923 783.761,363.863 783.651,361.8C812.718,351.685 841.663,341.154 870.669,330.908C876.632,328.802 879.763,322.251 877.657,316.288C875.999,311.592 871.583,308.652 866.87,308.643C866.403,308.446 865.916,308.277 865.413,308.141C836.512,300.277 807.342,292.93 778.375,285.09C778.063,283.246 777.725,281.408 777.36,279.579C776.123,273.377 770.084,269.347 763.882,270.584C759.539,271.45 756.261,274.671 755.111,278.653ZM781.257,309.593C781.97,318.968 782.346,328.437 782.684,337.865C797.752,332.588 812.789,327.213 827.82,321.84C812.303,317.766 796.758,313.734 781.257,309.593ZM866.315,236.475C818.241,236.749 770.147,235.121 722.074,236.231C715.752,236.377 710.738,241.629 710.884,247.951C711.03,254.274 716.281,259.288 722.603,259.142C774.621,257.941 826.664,259.952 878.684,259.279C890.036,280.097 901.33,300.963 910.955,322.671C913.518,328.452 920.293,331.065 926.074,328.501C931.856,325.938 934.468,319.163 931.905,313.382C912.483,269.58 886.291,229.194 866.46,185.681C863.837,179.927 857.036,177.384 851.282,180.007C845.527,182.629 842.984,189.431 845.607,195.185C851.994,209.199 859.043,222.888 866.315,236.475Z"/>
    </g>
</svg>
