<?xml version="1.0" encoding="utf-8"?>
<!-- Generator: Adobe Illustrator 24.2.0, SVG Export Plug-In . SVG Version: 6.00 Build 0)  -->
<svg version="1.1" id="Calque_1" xmlns:serif="http://www.serif.com/"
	 xmlns="http://www.w3.org/2000/svg" xmlns:xlink="http://www.w3.org/1999/xlink" x="0px" y="0px" viewBox="0 0 17.6 8.6"
	 style="enable-background:new 0 0 17.6 8.6;" xml:space="preserve">
<style type="text/css">
	.st0{fill-rule:evenodd;clip-rule:evenodd;}
</style>
<g transform="matrix(1,0,0,1,0,42.1913)">
	<g transform="matrix(1.08549,0,0,1.08549,-114.191,121.066)">
		<path class="st0" d="M105.2-148.6c0.7,1.8,1.3,3.7,2,5.5c0.1,0.3,0.5,0.5,0.8,0.4c0.3-0.1,0.5-0.5,0.4-0.8c-0.7-1.8-1.3-3.7-2-5.5
			c-0.1-0.3-0.5-0.5-0.8-0.4C105.3-149.2,105.1-148.9,105.2-148.6z"/>
	</g>
	<g transform="matrix(0.931753,0,0,1.22498,83.6867,79.3729)">
		<path class="st0" d="M-86.1-92.8c0.7-1.8,1.4-3.7,2.1-5.5c0.1-0.3-0.1-0.6-0.5-0.7c-0.4-0.1-0.8,0.1-0.9,0.3
			c-0.8,1.8-1.4,3.7-2.1,5.5c-0.1,0.3,0.1,0.6,0.5,0.7C-86.6-92.3-86.2-92.5-86.1-92.8z"/>
	</g>
	<g transform="matrix(1.08549,0,0,1.08549,-115.11,123.952)">
		<path class="st0" d="M112.3-151.1c-0.7,1.2-1.3,2.7-1.2,4.1c0.1,0.7,0.3,1.2,0.7,1.6c0.4,0.3,1,0.5,1.8,0.2c0.4-0.1,0.7-0.3,1-0.5
			c0.5-0.3,0.9-0.7,1.3-1.2c0.2-0.2,0.2-0.6-0.1-0.8c-0.2-0.2-0.6-0.2-0.8,0.1c-0.3,0.4-0.7,0.7-1.1,1c-0.2,0.2-0.5,0.3-0.7,0.4
			c-0.3,0.1-0.5,0.1-0.7,0c-0.2-0.1-0.2-0.4-0.3-0.7c-0.1-1.2,0.5-2.5,1-3.4c0.2-0.3,0.1-0.7-0.2-0.8
			C112.8-151.5,112.4-151.4,112.3-151.1z"/>
	</g>
	<g transform="matrix(0.788448,0,0,0.673396,269.582,242.577)">
		<path class="st0" d="M-333.3-414.1c0.6-0.2,1.1-0.4,1.6-0.7c0.4-0.2,0.6-0.8,0.4-1.3c-0.2-0.5-0.7-0.7-1.1-0.5
			c-0.4,0.2-0.9,0.4-1.4,0.6c-0.4,0.1-0.7,0.7-0.6,1.2C-334.2-414.3-333.7-414-333.3-414.1z"/>
	</g>
	<g transform="matrix(0.85681,0,0,0.437324,183.928,302.439)">
		<path class="st0" d="M-205.2-781.3c0.6-0.3,1.2-0.6,1.8-0.8c0.4-0.2,0.7-1,0.6-1.8c-0.1-0.8-0.5-1.3-0.9-1.1
			c-0.6,0.3-1.3,0.5-1.9,0.9c-0.4,0.2-0.6,1-0.5,1.8C-206-781.6-205.6-781.1-205.2-781.3z"/>
	</g>
	<g transform="matrix(1.08549,0,0,1.08549,-114.903,123.94)">
		<path class="st0" d="M116.9-151.6c-0.1,1.7,0,3.4-0.2,5.1c0,0.3,0.2,0.6,0.5,0.7c0.3,0,0.6-0.2,0.7-0.5c0.2-1.7,0.1-3.5,0.2-5.2
			c0-0.3-0.2-0.6-0.6-0.6C117.2-152.2,116.9-152,116.9-151.6z"/>
	</g>
	<g transform="matrix(1.42276,0,0,1.27576,-562.216,71.9972)">
		<path class="st0" d="M403.8-87.9c0.7,1.5,1,3.3,1.8,4.8c0.1,0.2,0.4,0.3,0.6,0.2c0.2-0.1,0.3-0.4,0.2-0.7c-0.8-1.5-1-3.3-1.8-4.8
			c-0.1-0.2-0.4-0.3-0.6-0.2C403.8-88.5,403.7-88.2,403.8-87.9z"/>
	</g>
	<g transform="matrix(1.08549,0,0,1.08549,-114.903,123.94)">
		<path class="st0" d="M120.9-152.6c-0.5,2.2-0.7,4.4-1.3,6.5c-0.1,0.3,0.1,0.6,0.4,0.7c0.3,0.1,0.6-0.1,0.7-0.4
			c0.6-2.1,0.8-4.4,1.3-6.6c0.1-0.3-0.1-0.6-0.4-0.7C121.3-153.1,121-152.9,120.9-152.6z"/>
	</g>
</g>
</svg>
