<?xml version="1.0" encoding="utf-8"?>
<!-- Generator: Adobe Illustrator 24.2.0, SVG Export Plug-In . SVG Version: 6.00 Build 0)  -->
<svg version="1.1" id="Calque_1" xmlns:serif="http://www.serif.com/"
	 xmlns="http://www.w3.org/2000/svg" xmlns:xlink="http://www.w3.org/1999/xlink" x="0px" y="0px" viewBox="0 0 25.2 8.2"
	 style="enable-background:new 0 0 25.2 8.2;" xml:space="preserve">
<style type="text/css">
	.st0{fill-rule:evenodd;clip-rule:evenodd;}
</style>
<path class="st0" d="M9,1.3C8.9,1.8,8.8,2.2,8.7,2.7C8.5,3.3,8.1,4.7,8,5.9C7.9,6.8,8.1,7.6,8.7,8c0.4,0.2,1,0.3,1.8,0.1
	c0.3-0.1,0.6-0.3,0.9-0.4c0.3-0.2,0.4-0.6,0.2-0.9c-0.2-0.3-0.6-0.4-0.9-0.2c-0.2,0.1-0.4,0.3-0.7,0.3C9.8,6.9,9.6,6.9,9.4,6.8
	c-0.1,0-0.1-0.1-0.1-0.2C9.2,6.4,9.2,6.2,9.3,6c0.1-1.1,0.6-2.4,0.7-3c0.1-0.5,0.2-0.9,0.3-1.4c0.1-0.4-0.1-0.7-0.5-0.8
	C9.4,0.7,9.1,1,9,1.3z M2.4,5.6C2,4.2,1.8,2.6,1.3,1.2C1.1,0.8,0.8,0.7,0.4,0.8C0.1,0.9-0.1,1.3,0,1.6c0.7,2,0.9,4.1,1.7,6.1
	C1.8,7.9,1.9,8,2.1,8.1c0,0,0.1,0,0.1,0c0.3,0.1,0.7,0,0.8-0.4c0.8-2.2,1.6-4.3,2.6-6.4c0.2-0.3,0-0.7-0.3-0.9
	C5,0.3,4.6,0.4,4.4,0.8C3.7,2.4,3,4,2.4,5.6z M13.2,1.1c-0.4,1.5-1.1,3.1-1.1,4.6c0,0.9,0.3,1.6,0.8,2C13.2,8,13.7,8.1,14.5,8
	c0.4-0.1,0.8-0.2,1.2-0.4C16,7.4,16.1,7,16,6.7c-0.1-0.3-0.5-0.5-0.9-0.3c-0.3,0.1-0.6,0.3-0.9,0.3c-0.3,0.1-0.5,0.1-0.6,0
	c-0.1,0-0.1-0.1-0.1-0.2c-0.1-0.2-0.1-0.4-0.1-0.7c0-1.5,0.7-2.9,1.1-4.3c0.1-0.3-0.1-0.7-0.5-0.8C13.6,0.6,13.3,0.8,13.2,1.1z
	 M5.7,3.1c0,1.4,0,2.8,0.1,4.1c0,0.4,0.3,0.6,0.7,0.6c0.4,0,0.6-0.3,0.6-0.7C6.9,5.8,7,4.4,7,3.1c0-0.4-0.3-0.6-0.7-0.6
	C6,2.5,5.7,2.7,5.7,3.1z M18.5,1.3c-0.1,0.1-0.2,0.1-0.3,0.3c-0.2,0.3-0.3,0.6-0.4,0.9c-0.1,0.3-0.3,0.6-0.4,0.9
	c-0.2,0.6-0.4,1.7-0.3,2.5c0.1,0.6,0.3,1,0.7,1.3c0.4,0.3,0.9,0.4,1.7,0.1C19.7,7.2,20,7,20.3,6.9c0.4-0.2,0.7-0.4,1.1-0.7
	c0.3-0.2,0.4-0.6,0.2-0.9c-0.2-0.3-0.6-0.4-0.9-0.2c-0.3,0.2-0.6,0.4-1,0.6C19.5,5.9,19.2,6,19,6.1c-0.2,0.1-0.4,0.1-0.5,0.1
	c-0.1-0.1-0.1-0.2-0.1-0.4c-0.1-0.4,0-0.9,0.1-1.3c0.1,0,0.2,0,0.3,0c0.4-0.1,0.4-0.1,0.7-0.2C19.8,4.2,20,3.8,20,3.5
	c-0.1-0.3-0.4-0.6-0.8-0.5c-0.1,0-0.2,0.1-0.3,0.1c0,0,0-0.1,0.1-0.1c0.1-0.3,0.3-0.5,0.4-0.8c0,0,0-0.1,0-0.1
	c0.9-0.3,1.8-0.6,2.7-0.8c0.3-0.1,0.5-0.5,0.5-0.8c-0.1-0.3-0.5-0.5-0.8-0.5c-0.9,0.3-1.9,0.6-2.8,0.9C18.7,0.9,18.5,1.1,18.5,1.3z
	 M24.1,5.6c-0.2,0.1-0.3,0.3-0.3,0.6c0,0.4,0.3,0.6,0.7,0.6c0.1,0,0.3-0.1,0.4-0.1c0.3-0.1,0.5-0.5,0.4-0.8
	c-0.1-0.3-0.5-0.6-0.8-0.5C24.2,5.5,24.1,5.5,24.1,5.6z M24.8,6.7c0.1,0,0.1-0.1,0.1-0.1c0,0,0.1-0.1,0.1-0.1S24.9,6.6,24.8,6.7z
	 M24,3.2c-0.2,0.1-0.3,0.3-0.3,0.6c0,0.4,0.3,0.6,0.7,0.6c0.2,0,0.3,0,0.3-0.1c0,0,0.1-0.1,0.1-0.1C25.1,4,25.2,3.7,25,3.4
	c-0.2-0.3-0.6-0.4-0.9-0.3C24.1,3.1,24.1,3.1,24,3.2z M24.9,4.2C24.9,4.2,24.9,4.1,24.9,4.2C24.9,4.1,25,4.1,25,4.1
	S24.9,4.1,24.9,4.2z M24.3,3.1L24.3,3.1L24.3,3.1L24.3,3.1z M24.3,3.1L24.3,3.1L24.3,3.1L24.3,3.1z M24.4,3.1L24.4,3.1
	C24.4,3.1,24.4,3.1,24.4,3.1z"/>
</svg>
