<?xml version="1.0" encoding="utf-8"?>
<!-- Generator: Adobe Illustrator 24.2.0, SVG Export Plug-In . SVG Version: 6.00 Build 0)  -->
<svg version="1.1" id="Calque_1" xmlns:serif="http://www.serif.com/"
	 xmlns="http://www.w3.org/2000/svg" xmlns:xlink="http://www.w3.org/1999/xlink" x="0px" y="0px" viewBox="0 0 423.9 4.2"
	 style="enable-background:new 0 0 423.9 4.2;" xml:space="preserve">
<style type="text/css">
	.st0{fill-rule:evenodd;clip-rule:evenodd;}
</style>
<path class="st0" d="M0.6,3.1c25.9-0.5,52.2-1.5,78-0.9c16.5,0.4,32.9,2.2,49.5,2c98.4-1.6,196.9-0.5,295.3-3c0.3,0,0.6-0.3,0.6-0.6
	c0-0.3-0.3-0.6-0.6-0.6C324.9,2.5,226.4,1.4,128,3c-16.6,0.3-32.9-1.6-49.4-2C52.8,0.4,26.5,1.4,0.6,1.9C0.3,1.9,0,2.2,0,2.5
	C0,2.8,0.3,3.1,0.6,3.1z"/>
</svg>
