<?xml version="1.0" encoding="UTF-8" standalone="no"?>
<!DOCTYPE svg PUBLIC "-//W3C//DTD SVG 1.1//EN" "http://www.w3.org/Graphics/SVG/1.1/DTD/svg11.dtd">
<svg width="100%" height="100%" viewBox="0 0 2481 3508" version="1.1" xmlns="http://www.w3.org/2000/svg" xmlns:xlink="http://www.w3.org/1999/xlink" xml:space="preserve" xmlns:serif="http://www.serif.com/" style="fill-rule:evenodd;clip-rule:evenodd;stroke-linejoin:round;stroke-miterlimit:2;">
    <path d="M1037.79,1873.08C1035.44,1873.59 1033.49,1875.44 1032.98,1877.94C1029.98,1892.62 1027.35,1907.34 1023.68,1921.87C1022.84,1925.22 1024.87,1928.62 1028.21,1929.46C1031.56,1930.3 1034.96,1928.27 1035.8,1924.93C1039.36,1910.83 1041.96,1896.57 1044.84,1882.34C1044.99,1882.3 1045.13,1882.25 1045.27,1882.2C1046.57,1881.72 1048.1,1881.12 1049.65,1880.73C1050.41,1880.54 1051.18,1880.31 1051.87,1880.48C1054.23,1881.07 1056.15,1883.06 1057.76,1885.36C1060.73,1889.62 1062.56,1895.25 1062.3,1899.41C1061.89,1905.99 1058.54,1909.58 1053,1912.7C1051.28,1913.67 1050.19,1915.34 1049.9,1917.15C1049.21,1918.96 1049.37,1921.07 1050.51,1922.81C1059.3,1936.23 1065.16,1953.47 1072.81,1967.88C1074.43,1970.93 1078.21,1972.09 1081.26,1970.47C1084.31,1968.86 1085.47,1965.07 1083.85,1962.02C1076.88,1948.9 1071.31,1933.51 1063.82,1920.6C1070.49,1915.71 1074.19,1909.59 1074.78,1900.18C1075.18,1893.7 1072.64,1884.83 1068,1878.2C1064.54,1873.25 1059.93,1869.59 1054.85,1868.35C1050.5,1867.28 1045,1868.99 1040.99,1870.45C1039.6,1870.96 1038.5,1871.91 1037.79,1873.08ZM877.339,1935.24C873.954,1928.64 870.724,1921.96 867.386,1915.32C865.837,1912.24 862.077,1910.99 858.995,1912.54C856.918,1913.59 855.675,1915.63 855.56,1917.8C853.036,1926.21 850.425,1934.87 847.589,1943.37C841.67,1920.67 835.764,1898.3 831.658,1874.97C831.06,1871.57 827.817,1869.3 824.419,1869.9C821.022,1870.5 818.749,1873.74 819.347,1877.14C824.257,1905.04 831.692,1931.57 838.703,1958.91C839.177,1960.76 840.429,1962.2 842.018,1962.98C842.595,1964.67 843.886,1966.1 845.678,1966.79C848.895,1968.04 852.518,1966.43 853.762,1963.22C857.259,1954.18 860.39,1944.68 863.328,1935.22C866.183,1940.93 869.094,1946.6 872.221,1952.18C872.251,1952.23 872.282,1952.29 872.314,1952.34C872.294,1954.96 873.936,1957.41 876.549,1958.3C879.814,1959.41 883.369,1957.67 884.481,1954.4C893.775,1927.13 898.1,1898.45 908.817,1871.51C910.092,1868.3 908.525,1864.66 905.32,1863.39C902.115,1862.11 898.477,1863.68 897.202,1866.89C888.374,1889.08 883.825,1912.43 877.339,1935.24ZM944.147,1912.9C943.805,1912.98 943.465,1913.1 943.131,1913.24C937.06,1915.87 930.811,1917.68 924.531,1919.56C923.977,1907.9 923.35,1896.25 922.838,1884.63C922.686,1881.18 919.765,1878.51 916.319,1878.66C912.873,1878.81 910.198,1881.73 910.35,1885.18C911.432,1909.71 913.028,1934.37 913.363,1958.91C913.41,1962.36 916.249,1965.12 919.698,1965.08C923.147,1965.03 925.909,1962.19 925.862,1958.74C925.742,1949.99 925.464,1941.22 925.105,1932.44C931.818,1930.36 938.517,1928.53 945.056,1925.97C945.757,1935.8 946.501,1945.64 947.311,1955.48C947.594,1958.91 950.615,1961.48 954.053,1961.19C957.491,1960.91 960.052,1957.89 959.769,1954.45C957.694,1929.25 956.054,1904.03 954.445,1878.79C954.226,1875.35 951.253,1872.73 947.81,1872.95C944.368,1873.17 941.751,1876.14 941.97,1879.59C942.679,1890.69 943.393,1901.8 944.147,1912.9ZM1540.1,1863.96C1539.92,1863.92 1539.72,1863.89 1539.53,1863.87C1536.1,1863.51 1533.02,1866 1532.65,1869.43C1529.95,1894.85 1527.66,1920.15 1525.88,1945.69C1525.64,1949.13 1528.24,1952.12 1531.68,1952.36C1535.12,1952.6 1538.11,1950 1538.35,1946.56C1540.01,1922.81 1542.1,1899.27 1544.57,1875.64L1544.57,1875.64C1550.83,1873.14 1556.55,1875.49 1560.45,1879.8C1564.8,1884.59 1567.14,1891.69 1565.87,1898.25C1564.87,1903.42 1559.62,1907.09 1555.54,1910.02C1555,1910.42 1554.53,1910.88 1554.16,1911.4C1551.85,1913.52 1551.45,1917.09 1553.34,1919.68C1563.53,1933.65 1570.56,1949.66 1582.65,1962.18C1585.04,1964.66 1589,1964.73 1591.48,1962.33C1593.97,1959.94 1594.04,1955.98 1591.64,1953.5C1581.32,1942.81 1574.92,1929.41 1566.78,1917.12C1571.99,1912.76 1576.87,1907.17 1578.14,1900.63C1580.15,1890.26 1576.58,1878.97 1569.71,1871.4C1562.45,1863.38 1551.73,1859.4 1540.1,1863.96ZM1410.27,1901.29C1401.22,1901.54 1392.21,1901.2 1383.16,1901.99C1383.59,1893.77 1383.97,1885.55 1384.05,1877.33C1384.08,1873.88 1381.3,1871.06 1377.85,1871.03C1374.4,1871 1371.58,1873.77 1371.55,1877.22C1371.35,1899.76 1368.86,1922.32 1369.34,1944.85C1369.42,1948.3 1372.28,1951.04 1375.73,1950.97C1379.17,1950.89 1381.91,1948.03 1381.84,1944.58C1381.62,1934.6 1382,1924.6 1382.5,1914.61C1391.65,1913.64 1400.74,1914 1409.89,1913.8C1409.43,1928.31 1408.95,1942.81 1408.42,1957.31C1408.29,1960.75 1410.99,1963.65 1414.44,1963.78C1417.88,1963.91 1420.79,1961.21 1420.91,1957.76C1421.99,1928.42 1422.84,1899.05 1423.75,1869.7C1423.85,1866.25 1421.14,1863.37 1417.69,1863.26C1414.24,1863.15 1411.36,1865.87 1411.25,1869.32C1410.92,1879.97 1410.6,1890.63 1410.27,1901.29ZM1252.7,1877.86C1246.97,1866.1 1231.66,1861.27 1222.19,1872.5C1217.59,1877.95 1216.44,1887.37 1217.37,1894.16C1218.55,1902.69 1223.25,1908.8 1229.16,1914.13C1233.8,1918.32 1239.26,1921.95 1243.34,1926.62C1244.94,1928.45 1246.41,1930.8 1247.13,1933.29C1247.66,1935.07 1247.84,1936.96 1246.94,1938.63C1246.01,1940.36 1244.69,1941.83 1243.37,1943.25C1241.52,1945.25 1239.44,1947.06 1237.09,1948.43C1233.18,1950.7 1228.8,1950.72 1224.39,1950.9C1220.94,1951.03 1218.26,1953.94 1218.39,1957.38C1218.53,1960.83 1221.43,1963.52 1224.88,1963.39C1231.34,1963.13 1237.65,1962.56 1243.37,1959.24C1246.8,1957.24 1249.86,1954.64 1252.54,1951.74C1254.58,1949.54 1256.52,1947.21 1257.95,1944.55C1262.57,1935.96 1258.63,1925.12 1252.75,1918.39C1248.35,1913.36 1242.53,1909.36 1237.53,1904.85C1233.8,1901.49 1230.5,1897.84 1229.76,1892.45C1229.25,1888.76 1229.25,1883.52 1231.75,1880.56C1234.83,1876.89 1239.59,1879.5 1241.46,1883.33C1242.97,1886.43 1246.71,1887.72 1249.82,1886.21C1252.92,1884.7 1254.21,1880.96 1252.7,1877.86ZM1647.17,1961.03C1648.52,1961.59 1649.89,1962.12 1651.25,1962.69C1654.43,1964.03 1658.1,1962.53 1659.43,1959.35C1660.77,1956.17 1659.28,1952.5 1656.1,1951.16C1654.73,1950.59 1653.34,1950.06 1651.98,1949.49C1648.79,1948.16 1645.13,1949.67 1643.8,1952.86C1642.48,1956.04 1643.98,1959.7 1647.17,1961.03ZM987.677,1884.08C985.017,1883.95 982.47,1885.55 981.512,1888.18C975.74,1904.03 969.677,1922.2 971.593,1939.36C972.833,1950.47 978.21,1957 985.071,1959.67C991.616,1962.23 1000.14,1961.28 1008.94,1955.92C1013.64,1953.06 1017.87,1949.58 1021.51,1945.46C1023.79,1942.88 1023.55,1938.93 1020.96,1936.64C1018.38,1934.36 1014.43,1934.6 1012.14,1937.18C1009.33,1940.36 1006.06,1943.04 1002.44,1945.25C997.661,1948.16 993.17,1949.42 989.616,1948.03C986.377,1946.77 984.601,1943.22 984.016,1937.97C983.66,1934.78 983.631,1931.56 983.855,1928.32C984.969,1928.65 986.187,1928.67 987.382,1928.31C990.372,1927.43 993.282,1926.43 996.213,1925.36C999.454,1924.18 1001.13,1920.6 999.95,1917.35C998.771,1914.11 995.182,1912.44 991.94,1913.62C989.91,1914.35 987.892,1915.06 985.845,1915.71C987.445,1908.9 989.743,1902.19 992.037,1895.82C999.109,1892.64 1006.09,1889.18 1013.4,1886.61C1016.66,1885.47 1018.37,1881.9 1017.23,1878.64C1016.09,1875.39 1012.52,1873.67 1009.26,1874.82C1001.87,1877.41 994.811,1880.85 987.677,1884.08ZM1452.75,1882.64C1451.32,1883.4 1450.19,1884.71 1449.7,1886.38C1445.35,1901.18 1440.86,1916.1 1436.25,1930.93C1435.64,1930.96 1435.04,1931 1434.43,1931.03C1430.99,1931.23 1428.35,1934.19 1428.55,1937.63C1428.7,1940.11 1430.28,1942.18 1432.43,1943.06C1431.6,1945.69 1430.76,1948.32 1429.91,1950.94C1428.86,1954.23 1430.67,1957.75 1433.95,1958.81C1437.23,1959.86 1440.76,1958.06 1441.81,1954.77C1443.07,1950.86 1444.32,1946.93 1445.56,1943C1452.71,1942.68 1459.88,1942.33 1466.92,1941.46C1468,1941.32 1469.07,1941.17 1470.13,1941C1471.36,1944.94 1472.62,1948.86 1473.94,1952.77C1475.04,1956.04 1478.59,1957.8 1481.86,1956.69C1485.13,1955.59 1486.89,1952.04 1485.78,1948.78C1484.68,1945.5 1483.61,1942.2 1482.57,1938.9C1483.46,1938.78 1484.36,1938.67 1485.26,1938.58C1488.69,1938.23 1491.19,1935.16 1490.84,1931.73C1490.49,1928.29 1487.42,1925.79 1483.99,1926.14C1482.28,1926.32 1480.58,1926.56 1478.88,1926.83C1474.32,1911.56 1470.05,1896.2 1464.9,1881.11C1463.78,1877.85 1460.23,1876.1 1456.96,1877.22C1454.53,1878.05 1452.94,1880.23 1452.75,1882.64ZM1105.82,1872.44C1103.48,1872.75 1101.41,1874.38 1100.67,1876.78C1095.35,1893.92 1087.64,1910.9 1086.77,1929.06C1086.18,1941.17 1092.95,1954.19 1106.77,1954.42C1112.12,1954.51 1117.21,1952.52 1122.03,1950.44C1127.68,1948 1132.44,1944.93 1136.98,1940.74C1139.51,1938.39 1139.66,1934.43 1137.32,1931.9C1134.98,1929.37 1131.02,1929.22 1128.49,1931.56C1125.03,1934.76 1121.39,1937.1 1117.07,1938.97C1113.86,1940.36 1110.54,1941.98 1106.97,1941.92C1100.78,1941.82 1098.99,1935.09 1099.25,1929.66C1099.35,1927.69 1099.53,1925.74 1099.79,1923.8C1100.54,1923.84 1101.32,1923.74 1102.08,1923.48C1106.55,1921.97 1110.92,1920.52 1115.24,1918.62C1118.4,1917.23 1119.83,1913.54 1118.44,1910.38C1117.06,1907.22 1113.37,1905.79 1110.21,1907.17C1107.74,1908.26 1105.25,1909.18 1102.74,1910.05C1105.28,1901.1 1108.75,1892.33 1111.64,1883.52C1117.03,1880.27 1122.88,1878.04 1129.01,1876.54C1132.36,1875.71 1134.41,1872.33 1133.58,1868.98C1132.76,1865.63 1129.37,1863.58 1126.02,1864.4C1118.9,1866.15 1112.12,1868.73 1105.82,1872.44ZM1354.18,1887.01C1350.76,1874.57 1342.37,1868.56 1333.61,1867.91C1325.12,1867.29 1315.64,1871.87 1309.37,1882.29C1301.51,1895.33 1299.51,1916.05 1306.32,1929.84C1313.1,1943.58 1327.84,1955.83 1344.17,1946.89C1348.09,1944.75 1351.16,1941.98 1354.09,1938.66C1356.37,1936.07 1356.12,1932.12 1353.53,1929.84C1350.95,1927.56 1346.99,1927.8 1344.71,1930.39C1342.77,1932.6 1340.78,1934.5 1338.17,1935.93C1333.13,1938.69 1328.51,1937.1 1324.85,1934.02C1321.78,1931.43 1319.29,1927.87 1317.53,1924.31C1312.43,1913.99 1314.2,1898.5 1320.08,1888.74C1323.45,1883.14 1328.14,1880.05 1332.69,1880.38C1336.97,1880.69 1340.46,1884.25 1342.13,1890.33C1343.05,1893.65 1346.49,1895.61 1349.82,1894.69C1353.14,1893.78 1355.1,1890.34 1354.18,1887.01ZM1190.29,1885.89C1190.45,1903.5 1192.82,1921.17 1192.44,1938.76C1192.37,1942.21 1195.11,1945.07 1198.56,1945.14C1202,1945.22 1204.86,1942.48 1204.94,1939.03C1205.32,1921.31 1202.95,1903.51 1202.79,1885.77C1202.76,1882.32 1199.93,1879.55 1196.48,1879.58C1193.03,1879.61 1190.26,1882.44 1190.29,1885.89ZM1498.28,1881.01C1498.92,1896.13 1502.18,1919.06 1500.58,1933.44C1500.2,1936.87 1502.67,1939.96 1506.1,1940.34C1509.53,1940.72 1512.62,1938.25 1513.01,1934.82C1514.66,1919.91 1511.43,1896.16 1510.77,1880.49C1510.63,1877.04 1507.71,1874.36 1504.27,1874.5C1500.82,1874.65 1498.14,1877.56 1498.28,1881.01ZM1458.3,1901.38C1455.43,1911.02 1452.5,1920.68 1449.52,1930.31C1454.84,1930.05 1460.15,1929.7 1465.39,1929.05C1465.75,1929.01 1466.11,1928.96 1466.47,1928.91C1463.74,1919.74 1461.1,1910.53 1458.3,1901.38ZM1615.91,1890.69C1612.14,1881.05 1612.64,1867.75 1620.27,1860.09C1626.77,1853.57 1638.83,1850.04 1643.97,1859.53C1652.02,1874.38 1647.68,1884.31 1643.66,1894.49C1640.22,1903.19 1636.96,1912.07 1638.1,1923.01C1638.46,1926.44 1641.54,1928.93 1644.97,1928.57C1648.4,1928.22 1650.89,1925.14 1650.54,1921.71C1649.36,1910.48 1654.37,1902.02 1657.6,1893.04C1661.66,1881.76 1663.82,1869.92 1654.96,1853.57C1645.51,1836.13 1623.38,1839.27 1611.41,1851.27C1600.41,1862.3 1598.84,1881.35 1604.27,1895.24C1605.53,1898.46 1609.16,1900.04 1612.37,1898.79C1615.58,1897.53 1617.17,1893.9 1615.91,1890.69Z"/>
</svg>
