<?xml version="1.0" encoding="utf-8"?>
<!-- Generator: Adobe Illustrator 24.2.0, SVG Export Plug-In . SVG Version: 6.00 Build 0)  -->
<svg version="1.1" id="Calque_1" xmlns="http://www.w3.org/2000/svg" xmlns:xlink="http://www.w3.org/1999/xlink" x="0px" y="0px"
	 viewBox="0 0 95.7 17.2" style="enable-background:new 0 0 95.7 17.2;" xml:space="preserve">
<style type="text/css">
	.st0{fill-rule:evenodd;clip-rule:evenodd;}
</style>
<g>
	<path class="st0" d="M6.4,4c1.9-0.5,3.8-0.9,5.7-1.5c0.5-0.1,0.8-0.7,0.7-1.2c-0.2-0.5-0.7-0.8-1.2-0.7C8,1.6,4.3,2.3,0.7,3.3
		C0.2,3.5-0.1,4,0,4.6c0.2,0.5,0.7,0.8,1.2,0.7C2.3,5,3.4,4.7,4.5,4.4c0.2,3.4,0.4,6.8,0.4,10.3c0,0.6,0.4,1,1,1s1-0.4,1-1
		c0-3.5-0.2-7-0.4-10.6C6.4,4.1,6.4,4,6.4,4z"/>
	<path class="st0" d="M11.5,14.7c-0.3-2.5-0.3-5.1-0.6-7.6c-0.1-0.5-0.6-0.9-1.1-0.9C9.2,6.3,8.8,6.8,8.9,7.4
		c0.4,2.5,0.3,5.1,0.6,7.6c0.1,0.5,0.6,0.9,1.1,0.9C11.1,15.8,11.5,15.3,11.5,14.7z"/>
	<path class="st0" d="M20.6,3.1c-0.2-0.5-0.8-0.8-1.3-0.6c-2.6,1-5,1.5-7.7,1.9c-0.5,0.1-0.9,0.6-0.9,1.1c0.1,0.5,0.6,0.9,1.1,0.9
		c0.7-0.1,1.3-0.2,2-0.3c0.4,2.6,0.6,5.1,0.8,7.7c0,0.6,0.5,1,1.1,0.9c0.6,0,1-0.5,0.9-1.1c-0.2-2.7-0.3-5.3-0.8-8
		c1.4-0.3,2.8-0.8,4.3-1.3C20.5,4.2,20.8,3.6,20.6,3.1z"/>
	<path class="st0" d="M24.6,10.8c0.9-1,1.2-2,1.1-2.8c-0.1-0.8-0.7-1.6-1.5-2.1c-1-0.6-2.5-0.9-3.9-0.7c-0.2,0-0.4,0.1-0.5,0.3
		c-0.1,0-0.1,0-0.2,0c-0.6,0-1,0.5-1,1c0.1,2.3,0.1,4.6,0.1,6.9c0,0.6,0.4,1,1,1c0.6,0,1-0.4,1-1c0-2.1,0-4.1-0.1-6.2
		c0.6-0.1,1.3,0,1.8,0.2c0.4,0.1,0.7,0.3,0.9,0.5c0.1,0.1,0.2,0.3,0.3,0.5c0,0.4-0.2,0.7-0.7,1.2c-0.2,0.2-0.2,0.4-0.3,0.6
		c-0.3,0.3-0.4,0.8-0.1,1.2c1,1.8,2,3.7,3.2,5.4c0.3,0.4,0.9,0.6,1.4,0.2c0.4-0.3,0.6-0.9,0.2-1.4C26.3,14.1,25.5,12.4,24.6,10.8z"
		/>
	<path class="st0" d="M32,14.1c0.7-0.4,1.4-0.8,2-1.4c0.4-0.4,0.5-1,0.1-1.4c-0.3-0.4-1-0.5-1.4-0.1c-0.5,0.4-1,0.8-1.6,1.1
		c-0.7,0.3-1.3,0.3-1.7,0c-0.5-0.3-0.7-0.9-0.7-1.6c0-0.4,0-0.8,0.1-1.1c0.6-0.1,1.1-0.1,1.7-0.3c0.5-0.1,0.9-0.6,0.8-1.2
		s-0.6-0.9-1.2-0.8c-0.2,0-0.3,0-0.5,0.1c0.3-0.5,0.5-1,0.8-1.5c0-0.1,0.1-0.2,0.1-0.3c0.9-0.3,1.8-0.5,2.7-0.6c0.6,0,1-0.5,0.9-1.1
		c0-0.6-0.5-1-1.1-0.9c-1.3,0.1-2.4,0.4-3.6,0.8c-0.4,0.1-0.7,0.5-0.7,1c0,0.1-0.1,0.1-0.1,0.2c-0.9,1.8-2,3.7-1.9,5.8
		c0,1.4,0.7,2.6,1.6,3.2C29.3,14.6,30.6,14.8,32,14.1z"/>
	<path class="st0" d="M40.2,13.6c0.5,0.1,1.1-0.2,1.2-0.7c0.2-0.8,0.4-1.6,0.7-2.4c0.8,0,1.5,0,2.3-0.1c0.2,1.1,0.5,2.1,0.9,3.1
		c0.2,0.5,0.8,0.8,1.3,0.6c0.5-0.2,0.8-0.8,0.6-1.3c-0.3-0.9-0.5-1.8-0.7-2.7c0.5-0.1,0.8-0.6,0.8-1.1c-0.1-0.5-0.6-0.9-1.1-0.9
		c0,0-0.1,0-0.1,0c-0.4-2-0.6-4.1-1.1-6c-0.1-0.5-0.7-0.9-1.2-0.8c-0.5,0.1-0.8,0.6-0.8,1.1c-0.3,0.1-0.6,0.4-0.7,0.7
		c-0.4,1.8-1,3.5-1.6,5.1C40.3,8.6,40,9,39.9,9.4c0,0.3,0.1,0.5,0.2,0.7c-0.2,0.8-0.5,1.6-0.7,2.4C39.4,13,39.7,13.5,40.2,13.6z
		 M42.8,8.5c0.3-0.8,0.5-1.6,0.8-2.4c0.1,0.8,0.3,1.6,0.4,2.4C43.6,8.5,43.2,8.5,42.8,8.5z"/>
	<path class="st0" d="M53.1,4.2c0.5,0.1,1.1-0.2,1.2-0.7c0.1-0.5-0.2-1.1-0.7-1.2c-1.3-0.3-2.8-0.1-4.1,0c-0.5,0.1-0.9,0.6-0.9,1.1
		c0,0.1-0.1,0.2-0.1,0.2c-0.1,2.9-0.7,6.2-0.3,9.1c0.1,0.5,0.6,0.9,1.1,0.8c0.5-0.1,0.9-0.6,0.8-1.1c-0.1-1-0.2-2.1-0.1-3.2
		c0.4,0,0.8,0,1.2,0c0.5,0,1-0.5,0.9-1.1c0-0.5-0.5-1-1.1-0.9c-0.3,0-0.6,0-0.9,0c0.1-1.1,0.2-2.1,0.2-3.1C51.4,4,52.3,4,53.1,4.2z"
		/>
	<path class="st0" d="M60.3,5.2c0.5,0.2,1.1-0.1,1.3-0.6c0.2-0.5-0.1-1.1-0.6-1.3c-1.5-0.5-3.3-0.3-4.9-0.3c-0.6,0-1,0.4-1,1
		c0,0.2,0.1,0.4,0.1,0.5c0,0.1-0.1,0.2-0.1,0.2c-0.1,2.7-0.4,5.4-0.7,8.1c-0.1,0.5,0.3,1,0.9,1.1c0.5,0.1,1-0.3,1.1-0.9
		c0.1-1.1,0.2-2.2,0.3-3.4c0.8-0.1,1.7-0.1,2.5-0.2c0.5-0.1,0.9-0.6,0.9-1.1S59.6,7.3,59,7.4c-0.7,0.1-1.4,0.1-2.1,0.1
		C57,6.7,57,5.8,57.1,4.9C58.2,4.9,59.3,4.8,60.3,5.2z"/>
	<path class="st0" d="M63.2,13.9c-0.1-2.2,0.4-4.5,0.3-6.7c0-0.6-0.5-1-1-1c-0.6,0-1,0.5-1,1c0,2.2-0.5,4.5-0.3,6.8
		c0,0.6,0.5,1,1.1,0.9C62.8,14.9,63.2,14.5,63.2,13.9z"/>
	<path class="st0" d="M65.4,14.1c0.7,0.5,1.6,0.6,2.4,0.5c1-0.1,2.1-0.6,3-0.9c0.5-0.2,0.8-0.8,0.6-1.3c-0.2-0.5-0.8-0.8-1.3-0.6
		c-0.6,0.2-1.4,0.5-2.1,0.7c-0.5,0.1-1.1,0.2-1.5-0.1c-0.1-0.1-0.1-0.2-0.2-0.3c-0.1-0.2-0.1-0.4-0.1-0.6C66,9.9,67.4,8.2,69,8.2
		c0.6,0,1-0.5,1-1c0-0.6-0.5-1-1-1c-2.8,0.1-5.1,2.9-4.8,5.5C64.3,12.6,64.6,13.6,65.4,14.1z"/>
	<path class="st0" d="M73.8,11c0-0.5,0.1-1.1,0.1-1.6c0.6,0,1.2,0,1.8-0.1c0.1,0,0.2,0,0.3-0.1c-0.2,1.6-0.3,3.1-0.4,4.7
		c0,0.6,0.4,1,0.9,1.1c0.6,0,1-0.4,1.1-0.9c0.2-3.1,0.5-6.1,0.9-9.2c0.1-0.5-0.3-1-0.9-1.1s-1,0.3-1.1,0.9c-0.1,0.9-0.2,1.9-0.3,2.8
		c-0.2-0.1-0.4-0.2-0.6-0.2c-0.5,0-1,0.1-1.5,0.1c0.1-0.5,0.1-1.1,0.2-1.6c0.1-0.5-0.2-1.1-0.8-1.2c-0.5-0.1-1.1,0.2-1.2,0.8
		c-0.4,1.8-0.4,3.6-0.5,5.5c0,0.6,0.4,1,0.9,1.1C73.3,12,73.7,11.6,73.8,11z"/>
	<path class="st0" d="M83.9,11.4c-0.4,0.3-0.8,0.5-1.3,0.7c-0.4,0.1-0.7,0.2-1.1,0.3c-0.3,0-0.5,0-0.7-0.1c-0.1-0.2-0.1-0.4-0.1-0.6
		c0-0.4,0.1-0.7,0.2-1.1c0.2,0.1,0.4,0.1,0.6,0c0.8-0.2,1.5-0.3,2.3-0.5c0.5-0.1,0.9-0.7,0.8-1.2c-0.1-0.5-0.7-0.9-1.2-0.8
		c-0.6,0.1-1.2,0.2-1.7,0.4c0.1-0.2,0.2-0.5,0.3-0.6c0.3-0.5,0.3-0.6,0.6-0.9c0,0,0.1,0,0.1,0c0.9,0.1,1.7,0.1,2.6,0
		C85.7,6.9,86,6.4,86,5.8c-0.1-0.5-0.6-0.9-1.1-0.8c-0.7,0.1-1.4,0.1-2.1,0c-0.2,0-0.4,0-0.6,0.1c-0.4-0.1-0.9,0-1.2,0.3
		c-0.6,0.8-0.6,0.7-1,1.5c-0.1,0.2-0.4,0.9-0.5,1.2c-0.4,0.9-0.8,2.3-0.8,3.5c0,0.8,0.2,1.5,0.7,2c0.5,0.5,1.2,0.9,2.3,0.7
		c0.6-0.1,1.1-0.2,1.7-0.4c0.6-0.2,1.2-0.6,1.7-0.9c0.5-0.3,0.6-0.9,0.3-1.4C84.9,11.2,84.3,11.1,83.9,11.4z"/>
	<path class="st0" d="M85,0.1c-0.9,0.5-1.7,1.1-2.6,1.7c-0.5,0.3-0.6,0.9-0.3,1.4c0.3,0.5,0.9,0.6,1.4,0.3C84.4,3,85.2,2.4,86,1.9
		c0.5-0.3,0.6-0.9,0.3-1.4C86.1,0,85.5-0.1,85,0.1z"/>
	<path class="st0" d="M93.5,9.6c0-0.2,0.1-0.5,0.2-0.6c0.4-0.6,0.9-1.2,1.3-1.8c0.5-0.8,0.8-1.7,0.7-2.7c-0.1-0.5-0.3-1.1-0.6-1.5
		c-0.7-1.1-1.6-1.5-2.4-1.5c-1.1,0-2.2,0.8-2.8,2.4c-0.2,0.5,0,1.1,0.6,1.3c0.5,0.2,1.1,0,1.3-0.6c0.2-0.4,0.3-0.7,0.6-0.9
		c0.1-0.1,0.2-0.2,0.4-0.2c0.3,0,0.5,0.2,0.7,0.6c0.1,0.2,0.2,0.4,0.3,0.6c0.1,0.6-0.1,1-0.4,1.4c-0.4,0.6-0.9,1.2-1.3,1.8
		c-0.3,0.5-0.5,1.2-0.5,1.8c0,0.5,0.2,1,0.5,1.4c0.3,0.4,1,0.5,1.4,0.2c0.4-0.3,0.5-1,0.2-1.4C93.4,9.9,93.5,9.8,93.5,9.6z"/>
	<path class="st0" d="M93.2,13.9c-0.3-0.5-0.9-0.6-1.4-0.4c-0.5,0.3-0.6,0.9-0.4,1.4c0.1,0.2,0.2,0.3,0.3,0.5
		c0.3,0.5,0.9,0.6,1.4,0.4c0.5-0.3,0.6-0.9,0.4-1.4C93.4,14.2,93.3,14,93.2,13.9z"/>
</g>
</svg>
