<?xml version="1.0" encoding="utf-8"?>
<!-- Generator: Adobe Illustrator 24.2.0, SVG Export Plug-In . SVG Version: 6.00 Build 0)  -->
<svg version="1.1" id="Calque_1" xmlns="http://www.w3.org/2000/svg" xmlns:xlink="http://www.w3.org/1999/xlink" x="0px" y="0px"
	 viewBox="0 0 80.9 15.5" style="enable-background:new 0 0 80.9 15.5;" xml:space="preserve">
<g>
	<path d="M1.5,2c-0.3,0-0.7,0.1-0.9,0.4C0.3,2.5,0,2.9,0,3.3c0.2,3.2,0.4,6.4,0.8,9.6c0.1,0.5,0.6,0.9,1.1,0.9
		c0.5-0.1,0.9-0.6,0.9-1.1C2.5,9.9,2.2,7,2.1,4.1c3.5,1,4.5,5.9,1.9,8.5c-0.4,0.4-0.4,1,0,1.4c0.4,0.4,1,0.4,1.4,0
		C9.3,10,7.3,2.6,1.5,2z"/>
	<path d="M11,3.7c0-0.5-0.4-1-0.9-1.1S9,3,9,3.5C8.7,6.8,9.1,10,9,13.3c0,0.6,0.4,1,1,1c0.6,0,1-0.4,1-1C11.1,10.1,10.7,6.9,11,3.7z
		"/>
	<path d="M13.5,3.7c-0.8,0.5-1.4,1.4-1.4,2.7c0,0.7,0.2,1.3,0.7,1.8c0.3,0.3,0.7,0.7,1.1,1.2c0.3,0.4,0.5,0.8,0.7,1.1
		c0.1,0.2,0.1,0.4,0,0.5c-0.1,0.2-0.3,0.3-0.6,0.4c-0.4,0.1-0.9,0.2-1.3,0.2c-0.6,0-1,0.5-1,1c0,0.6,0.5,1,1,1
		c0.6,0,1.3-0.1,1.9-0.3c1.1-0.4,1.7-1,1.9-1.7c0.2-0.6,0.1-1.4-0.2-2.1c-0.5-1.1-1.5-2.2-2.1-2.8c-0.1-0.1-0.1-0.2-0.1-0.4
		c0-0.4,0.2-0.7,0.4-0.9c0.4-0.2,1-0.1,1.4,0.3c0.3,0.4,1,0.5,1.4,0.2c0.4-0.3,0.5-1,0.2-1.4C16.5,3.2,14.7,3,13.5,3.7z"/>
	<path d="M24.3,5.8c-0.5-1.6-1.9-2.9-4-3.1c0,0,0,0,0,0c-0.1,0-0.2-0.1-0.3-0.1c-0.6,0-1,0.4-1.1,0.9c-0.2,3.4-0.3,6.8-0.8,10.1
		c-0.1,0.5,0.3,1.1,0.8,1.1c0.5,0.1,1.1-0.3,1.1-0.8c0.5-3,0.6-6.1,0.8-9.2c0.8,0.3,1.4,0.8,1.6,1.5c0.3,0.9,0,1.9-0.9,2.6
		c-0.4,0.4-0.5,1-0.1,1.4c0.4,0.4,1,0.5,1.4,0.1C24.4,9.2,24.8,7.4,24.3,5.8z"/>
	<path d="M28.5,11.6c-0.8,0.4-1.9,0.6-2.8,0.7c0.1-0.4,0.1-0.8,0.2-1.2c0.6-2.5,1.5-5,2.2-7.4c0.1-0.5-0.2-1.1-0.7-1.2
		c-0.5-0.1-1.1,0.2-1.2,0.7c-0.7,2.5-1.6,5-2.2,7.5c-0.1,0.6-0.2,1.1-0.3,1.7c0,0.1-0.2,0.4-0.2,0.5c-0.1,0.4,0,0.8,0.3,1.1
		c0.2,0.2,0.5,0.3,0.8,0.4c0.4,0.1,0.9,0,1.2-0.1c1.1-0.2,2.4-0.4,3.5-0.9c0.5-0.2,0.7-0.8,0.5-1.3C29.6,11.6,29,11.4,28.5,11.6z"/>
	<path d="M35.5,9.2c0-0.4-0.3-0.8-0.7-0.9c-0.3-2-0.7-4-1-6c-0.1-0.5-0.6-0.9-1.1-0.8c0,0-0.1,0-0.1,0c-0.4,0-0.8,0.2-0.9,0.6
		c-1,2.1-1.7,4.3-2.5,6.5c-0.2,0.2-0.3,0.4-0.3,0.6c0,0.1,0,0.2,0,0.3c0,0.1-0.1,0.3-0.1,0.4c-0.2,0.5,0.1,1.1,0.6,1.3
		c0.5,0.2,1.1-0.1,1.3-0.6c0-0.1,0-0.1,0.1-0.2c0.8,0,1.6,0,2.4-0.1c0.2,1.1,0.4,2.2,0.5,3.3c0.1,0.5,0.6,0.9,1.1,0.8
		s0.9-0.6,0.8-1.1c-0.2-1.1-0.4-2.1-0.5-3.2C35.3,9.8,35.5,9.5,35.5,9.2z M31.4,8.4c0.3-0.9,0.6-1.8,1-2.7c0.1,0.9,0.3,1.8,0.4,2.7
		C32.3,8.3,31.8,8.3,31.4,8.4z"/>
	<path d="M43.5,2.8c-0.5-0.3-1.1-0.1-1.4,0.4c-0.8,1.4-1.4,2.9-2,4.4c-0.8-1.6-1.5-3.3-2.5-4.9c-0.3-0.5-0.9-0.6-1.4-0.4
		c-0.5,0.3-0.6,0.9-0.4,1.4c1.1,1.9,1.9,3.9,3,5.8c0.1,0.1,0.1,0.2,0.2,0.3c-0.6,1.4-1.2,2.7-1.9,4.1c-0.3,0.5-0.1,1.1,0.4,1.3
		c0.5,0.3,1.1,0.1,1.3-0.4c1.8-3.5,3-7.3,4.9-10.7C44.1,3.7,43.9,3.1,43.5,2.8z"/>
	<path d="M51.3,3.4c1.4-0.5,2.8-1,4.3-1.5c0.5-0.2,0.8-0.7,0.6-1.3C56,0.2,55.4-0.1,54.9,0c-2.9,0.9-5.8,2-8.7,3.1
		c-0.5,0.2-0.8,0.8-0.6,1.3s0.8,0.8,1.3,0.6c0.8-0.3,1.6-0.6,2.4-0.9c0.1,2.9,0.3,5.8,0.3,8.7c0,0.6,0.4,1,1,1c0.6,0,1-0.4,1-1
		c0-3.1-0.2-6.1-0.3-9.2C51.3,3.5,51.3,3.5,51.3,3.4z"/>
	<path d="M55,6.7c0-0.6-0.4-1-1-1s-1,0.4-1,1c0,1.6,0,3.3,0.1,4.9c0,0.5,0.5,1,1.1,0.9c0.5,0,1-0.5,0.9-1.1C55,9.9,55,8.3,55,6.7z"
		/>
	<path d="M61.6,3.1c0.5-0.2,0.7-0.8,0.5-1.3c-0.2-0.5-0.8-0.7-1.3-0.5c-2,0.8-4.2,1.6-6.2,2c-0.5,0.1-0.9,0.6-0.8,1.2
		C53.9,5,54.5,5.4,55,5.2c0.6-0.1,1.2-0.3,1.9-0.5c0,2.3,0,4.7,0,7c0,0.6,0.4,1,1,1c0.6,0,1-0.4,1-1c0-2.5,0-5.1,0-7.7
		C59.8,3.8,60.7,3.5,61.6,3.1z"/>
	<path d="M63.7,11.2c-0.4,0.2-0.5,0.3-0.9,0.4c-0.3,0.1-0.6,0.1-0.8-0.1c-0.2-0.1-0.3-0.4-0.3-0.7c0-0.9,0.4-1.8,0.7-2.7
		c0.4-1.1,0.6-2.2,0.9-3.3c0.1-0.5-0.2-1.1-0.7-1.2c-0.5-0.1-1.1,0.2-1.2,0.7c-0.2,1.1-0.5,2.1-0.8,3.1c-0.4,1.1-0.8,2.2-0.8,3.3
		c0,1,0.4,1.8,1.1,2.3c0.6,0.5,1.5,0.7,2.6,0.4c0.5-0.1,0.7-0.2,1.2-0.5c0.5-0.2,0.7-0.8,0.5-1.3C64.8,11.1,64.2,10.9,63.7,11.2z"/>
	<path d="M71.5,2.7c-1.2,0.2-2.3,0.4-3.5,0.5c0,0,0,0-0.1,0c-0.4,0-0.8,0.2-0.9,0.6c-0.2,0.4-0.3,0.7-0.5,1.1
		c-0.2,0.4-0.3,0.7-0.5,1.1c-0.3,0.9-0.9,2.8-0.8,4.1c0.1,0.6,0.3,1.2,0.7,1.6c0.4,0.4,1,0.7,1.8,0.7c0.6,0,1.1-0.1,1.6-0.3
		c0.6-0.2,1.1-0.4,1.6-0.7c0.5-0.3,0.6-0.9,0.4-1.4c-0.3-0.5-0.9-0.7-1.4-0.4c-0.4,0.2-0.8,0.4-1.2,0.5c-0.3,0.1-0.6,0.2-1,0.2
		c-0.2,0-0.4,0-0.4-0.1c-0.2-0.2-0.2-0.6-0.2-0.9c0-0.1,0-0.2,0-0.2c0.6,0,1.2,0,1.9-0.1c0.5-0.1,0.9-0.7,0.8-1.2
		c-0.1-0.5-0.7-0.9-1.2-0.8c-0.3,0.1-0.6,0.1-0.9,0.1c0.1-0.2,0.1-0.3,0.2-0.4c0.1-0.3,0.3-0.7,0.4-1c0.1-0.2,0.2-0.4,0.2-0.5
		c1.1-0.1,2.1-0.3,3.2-0.5c0.5-0.1,0.9-0.6,0.9-1.1C72.5,3,72,2.6,71.5,2.7z"/>
	<path d="M80.2,1.1c-0.4-0.6-1.1-1-1.9-1c-0.9-0.1-1.9,0.2-2.6,0.7c-1.6,1-1.9,2.8-1.6,4.5c0.1,0.5,0.6,0.9,1.2,0.8
		c0.5-0.1,0.9-0.6,0.8-1.2c-0.2-0.9-0.1-1.9,0.7-2.4c0.3-0.2,0.7-0.3,1.1-0.4c0.2,0,0.5,0,0.6,0.2c0.6,0.8,0.4,1.5,0,2.2
		c-0.3,0.6-0.8,1.1-1.3,1.6c-0.4,0.5-1,1.2-1.3,2c-0.2,0.7-0.2,1.4,0,2c0.2,0.5,0.8,0.7,1.3,0.5c0.5-0.2,0.7-0.8,0.5-1.3
		c-0.1-0.2,0-0.5,0.1-0.7c0.2-0.4,0.5-0.8,0.7-1C80.3,5.8,81.9,3.5,80.2,1.1z"/>
	<path d="M77,11.9c-0.5,0-1,0.4-1,1s0.4,1,1,1c0,0,0,0,0,0c0.1,0,0.1,0,0.2,0l-0.1-1l0.1,1c0.5-0.1,1-0.6,0.9-1.1
		C78,12.2,77.6,11.9,77,11.9z"/>
</g>
</svg>
