<?xml version="1.0" encoding="utf-8"?>
<!-- Generator: Adobe Illustrator 24.2.0, SVG Export Plug-In . SVG Version: 6.00 Build 0)  -->
<svg version="1.1" id="Calque_1" xmlns="http://www.w3.org/2000/svg" xmlns:xlink="http://www.w3.org/1999/xlink" x="0px" y="0px"
	 viewBox="0 0 171 17" style="enable-background:new 0 0 171 17;" xml:space="preserve">
<style type="text/css">
	.st0{fill-rule:evenodd;clip-rule:evenodd;}
</style>
<g>
	<path class="st0" d="M9.7,10.4c0.1-0.2,0.1-0.4,0.1-0.6c0-0.3-0.2-0.5-0.5-0.7C8.7,6.6,8.2,4.2,7.5,1.8C7.4,1.2,6.8,0.9,6.3,1
		C5.9,1.2,5.6,1.5,5.6,1.8C5.4,2,5.2,2.1,5.1,2.4C4.4,4.7,3.3,6.9,2.4,9.1c-0.5,0-0.9,0-1.4,0c-0.6,0-1,0.4-1,1c0,0.6,0.4,1,1,1
		c0.2,0,0.4,0,0.7,0c-0.2,0.6-0.4,1.2-0.6,1.8c-0.2,0.5,0.1,1.1,0.7,1.3c0.5,0.2,1.1-0.1,1.3-0.7c0.3-0.8,0.5-1.6,0.8-2.4
		c1.3,0,2.7,0,4-0.1c0.5,1.7,1,3.4,1.7,5c0.2,0.5,0.8,0.8,1.3,0.5c0.5-0.2,0.8-0.8,0.5-1.3C10.7,13.7,10.1,12,9.7,10.4z M4.6,9.1
		C5.1,7.8,5.7,6.4,6.3,5c0.3,1.3,0.7,2.7,1,4C6.4,9.1,5.5,9.1,4.6,9.1z"/>
	<path class="st0" d="M17.6,0.2c-0.5-0.1-1.1,0.3-1.1,0.8c-0.4,2.8-0.5,5.7-0.6,8.5c-0.3-0.9-0.7-1.8-1-2.7c-0.6-1.6-1-3.3-1.8-4.9
		c-0.3-0.5-0.9-0.7-1.3-0.4c-0.4,0.2-0.6,0.6-0.5,1.1c0,0,0,0.1,0,0.1c0.2,0.7-0.1,1.6-0.2,2.3c-0.1,2.2-0.2,4.4-0.5,6.5
		c-0.1,0.5,0.3,1,0.9,1.1c0.5,0.1,1-0.3,1.1-0.9c0.2-1.5,0.3-2.9,0.3-4.4c0,0.1,0,0.1,0.1,0.2c0.8,2.2,1.6,4.4,2.6,6.5
		c0.1,0.1,0.1,0.2,0.2,0.3c0.2,0.2,0.4,0.4,0.8,0.4c0.6,0,1-0.4,1-1c0-1.2,0.2-2.5,0.3-3.7C18,7.2,18,4.3,18.5,1.4
		C18.5,0.8,18.2,0.3,17.6,0.2z"/>
	<path class="st0" d="M21.5,3.4c-0.6,0.3-0.9,0.9-1.3,1.4c-0.3,0.5-0.2,1.1,0.3,1.4c0.5,0.3,1.1,0.2,1.4-0.3
		c0.2-0.3,0.3-0.6,0.6-0.8c0.1-0.1,0.2,0,0.3,0c0.2,0.1,0.4,0.3,0.4,0.4c0.5,1.3,0.5,2.7,0,4c-0.2,0.5-0.5,1.1-0.8,1.5
		c-0.3,0.4-0.6,0.7-1,0.9c-0.2,0.1-0.3-0.1-0.5-0.2c-0.2-0.1-0.4-0.4-0.5-0.6c-0.1-0.5,0.1-1.1,0.3-1.5c0.2-0.5,0-1.1-0.5-1.3
		c-0.5-0.2-1.1,0-1.3,0.5c-0.3,0.8-0.6,1.9-0.4,2.7c0.2,0.8,0.9,1.6,1.7,2c0.6,0.3,1.3,0.4,1.9,0.1c1.4-0.6,2.4-2.2,2.9-3.5
		c0.7-1.7,0.7-3.8,0-5.5C24.6,3.5,22.9,2.6,21.5,3.4z"/>
	<path class="st0" d="M33.5,0c-0.5-0.2-1.1,0.1-1.2,0.7c-0.8,2.9-1.3,5.8-1.8,8.7c-0.5-1.8-0.9-3.7-1.3-5.5C29.1,3.3,28.6,3,28,3.1
		c-0.3,0.1-0.6,0.3-0.7,0.6C27.1,3.8,27,4.1,27,4.4c-0.1,3-0.7,6-0.8,9c0,0.6,0.4,1,1,1c0.6,0,1-0.4,1-1c0-1.2,0.2-2.5,0.3-3.7
		c0.4,1.3,0.8,2.6,1.2,3.9c0,0,0,0,0,0c-0.1,0.5,0.2,1.1,0.8,1.2c0.5,0.1,1.1-0.2,1.2-0.8c1-4.3,1.3-8.6,2.6-12.8
		C34.4,0.8,34.1,0.2,33.5,0z"/>
	<path class="st0" d="M41.5,1.7c-0.5-0.3-1.1-0.1-1.4,0.3c-1,1.6-1.7,3.2-2.6,4.8c0,0.1-0.1,0.1-0.1,0.2c-0.6-1.1-1.2-2.2-1.7-3.5
		c-0.2-0.5-0.8-0.8-1.3-0.6c-0.5,0.2-0.8,0.8-0.6,1.3c0.7,1.7,1.6,3.3,2.5,4.9c-0.9,1.8-1.8,3.7-2.5,5.6c-0.2,0.5,0.1,1.1,0.6,1.3
		c0.5,0.2,1.1-0.1,1.3-0.6c1-2.7,2.3-5.3,3.6-7.8c0.8-1.6,1.6-3.2,2.5-4.7C42.1,2.6,42,2,41.5,1.7z"/>
	<path class="st0" d="M50.9,2.8c0-0.6-0.5-1-1.1-0.9c-0.3,0-0.6,0.2-0.7,0.4c-0.3,0.1-0.5,0.3-0.6,0.6c-0.5,1.5-1.3,2.9-2,4.3
		C46,6.1,45.6,5.1,45.2,4c-0.1-0.4-0.5-0.7-0.9-0.7c-0.1-0.1-0.2-0.1-0.3-0.1c-0.5-0.1-1.1,0.2-1.2,0.8c-0.5,2.8-1,5.6-1.3,8.4
		c-0.1,0.5,0.4,1,0.9,1.1c0.5,0.1,1-0.4,1.1-0.9c0.2-1.8,0.4-3.6,0.7-5.4c0.4,1,0.8,2,1.2,2.9c0.2,0.5,0.8,0.8,1.3,0.6c0,0,0,0,0,0
		c0.3-0.1,0.5-0.3,0.6-0.6c0.5-1.3,1.1-2.5,1.7-3.7c0.2,3.2,0.5,6.4,1,9.5c0.1,0.5,0.6,0.9,1.2,0.8c0.5-0.1,0.9-0.6,0.8-1.2
		C51.4,11.2,51.2,6.9,50.9,2.8z"/>
	<path class="st0" d="M57.3,4.1c-0.9-0.3-2.1,0-3,1.1c-0.4,0.4-0.7,0.9-0.9,1.3c-0.3,0.5-0.1,1.1,0.4,1.4c0.5,0.3,1.1,0.1,1.4-0.4
		c0.2-0.4,0.4-0.7,0.7-1c0.3-0.3,0.6-0.6,0.9-0.5C56.9,6.1,57,6.3,57,6.5c0.4,1.2,0.4,2.6,0,3.9c-0.2,0.8-0.7,1.8-1.4,2.2
		c-0.2,0.1-0.5,0.2-0.6,0.1c-0.2-0.1-0.3-0.4-0.3-0.7c-0.1-0.6,0.1-1.2,0.2-1.8c0.1-0.5-0.3-1.1-0.8-1.2C53.5,9,53,9.3,52.9,9.9
		c-0.1,0.7-0.3,1.6-0.2,2.3c0.1,1.1,0.6,1.8,1.3,2.2c0.7,0.4,1.7,0.4,2.6-0.2c1.1-0.7,1.9-2.2,2.3-3.3c0.5-1.6,0.5-3.5,0-5.1
		C58.6,4.9,58,4.3,57.3,4.1z"/>
	<path class="st0" d="M65.5,3c-0.5,0.1-0.9,0.7-0.7,1.2c0.3,1.3,0.4,2.7,0.4,4c0,0.8-0.1,1.6-0.3,2.4c-0.1,0.3-0.3,0.8-0.5,1.2
		c-0.1,0.3-0.3,0.5-0.5,0.7c-0.1,0.1-0.1,0.2-0.2,0.2c0,0,0,0-0.1-0.1c-0.1-0.1-0.1-0.1-0.2-0.2c-0.1-0.2-0.3-0.4-0.4-0.6
		c-0.7-1.6-0.5-3.7-0.1-5.4c0.1-0.5-0.2-1.1-0.7-1.2c-0.5-0.1-1.1,0.2-1.2,0.7c-0.6,2.1-0.7,4.7,0.1,6.7c0.2,0.4,0.4,0.7,0.6,1
		c0.6,0.8,1.3,1.1,1.9,1.1c0.6,0,1.2-0.3,1.7-0.8c0.7-0.7,1.2-1.9,1.4-2.7c0.2-0.9,0.3-1.9,0.4-2.8c0-1.5-0.1-3.1-0.4-4.5
		C66.5,3.2,66,2.9,65.5,3z"/>
	<path class="st0" d="M72.6,8.3c-0.4-0.3-0.9-0.5-1.3-0.8c-0.4-0.2-0.8-0.5-0.9-0.9c-0.1-0.3,0-0.8,0.2-1.2c0.1-0.2,0.1-0.4,0.3-0.3
		c0.2,0,0.3,0.2,0.5,0.3c0.2,0.2,0.4,0.5,0.6,0.8c0.3,0.5,0.9,0.6,1.4,0.3c0.5-0.3,0.6-0.9,0.3-1.4c-0.5-0.8-1.3-1.7-2.3-2
		c-1-0.3-1.8,0.2-2.4,0.9c-0.6,0.9-0.8,2.2-0.6,3c0.3,1.1,1.1,1.8,2.1,2.3c0.4,0.2,0.8,0.4,1.1,0.7c0.3,0.2,0.5,0.5,0.5,1
		c0,0.5-0.3,1-0.6,1.4c-0.3,0.3-0.6,0.6-1,0.7c-0.6,0-1.2-0.4-1.6-0.8c-0.4-0.3-1.1-0.2-1.4,0.2c-0.3,0.4-0.2,1.1,0.2,1.4
		c0.9,0.6,1.8,1.2,3,1.2c0.8-0.1,1.5-0.4,2.1-1c0.8-0.8,1.2-1.9,1.3-2.8C74.2,9.8,73.6,9,72.6,8.3z"/>
	<path class="st0" d="M83.1,3.1c-0.9-0.8-2.4-1-3.6-1.1c-0.4,0-0.7,0.2-0.9,0.5c-0.3,0.2-0.5,0.5-0.5,0.9c0.2,3.6,0,7.2,0.3,10.9
		c0.1,0.5,0.5,1,1.1,0.9c0.5-0.1,1-0.5,0.9-1.1c-0.3-3.3-0.2-6.7-0.3-10.1c0.6,0,1.2,0.2,1.6,0.5c1.5,1.4,1.5,3.9-0.3,5
		c-0.5,0.3-0.6,0.9-0.3,1.4c0.3,0.5,0.9,0.6,1.4,0.3C85.4,9.5,85.5,5.3,83.1,3.1z"/>
	<path class="st0" d="M90.9,9.3c-0.2,0.1-0.5,0.2-0.8,0.3c-0.4-1.8-0.7-3.7-1-5.6C89,3.4,88.5,3.1,88,3.2c-0.4,0.1-0.7,0.4-0.8,0.8
		c0,0,0,0,0,0.1c-0.6,2.3-1.2,4.6-1.8,6.9c-0.5,0.2-1,0.3-1.5,0.5c-0.5,0.2-0.8,0.8-0.5,1.3c0.2,0.5,0.8,0.8,1.3,0.5c0,0,0,0,0.1,0
		c-0.1,0.3-0.2,0.6-0.3,1c-0.2,0.5,0.1,1.1,0.6,1.3c0.5,0.2,1.1-0.1,1.3-0.6c0.2-0.8,0.5-1.5,0.7-2.3c0.5-0.1,1.1-0.3,1.6-0.4
		c0.3,1.4,0.8,2.7,1,4.1c0.1,0.5,0.6,0.9,1.2,0.8c0.5-0.1,0.9-0.6,0.8-1.2c-0.3-1.5-0.7-2.9-1.1-4.3c0.4-0.1,0.7-0.2,1.1-0.4
		c0.5-0.2,0.8-0.8,0.6-1.3C92,9.3,91.5,9.1,90.9,9.3z M88,8.8c0.1,0.4,0.2,0.9,0.3,1.3c-0.2,0.1-0.4,0.1-0.6,0.2
		C87.8,9.8,87.9,9.3,88,8.8z"/>
	<path class="st0" d="M97.5,11c0.5-0.5,0.8-1.1,1-1.8c0.5-1.3,0.7-2.6,0.2-3.9c-0.8-2.2-3.2-3.3-5.2-2.4c-0.1,0-0.2,0-0.3,0
		c-0.6,0-1,0.5-1,1c0.1,3.5,0.5,7,0.6,10.6c0,0.6,0.5,1,1,1c0.6,0,1-0.5,1-1c-0.1-3.2-0.4-6.4-0.6-9.6c1-0.4,2.1,0.2,2.5,1.3
		c0.3,0.8,0.1,1.7-0.2,2.5c-0.1,0.3-0.2,0.6-0.4,0.9c-0.1,0.1-0.1,0.2-0.2,0.2c-0.1,0-0.3,0.1-0.4,0.1c-0.5,0.3-0.6,0.9-0.3,1.4
		c0.9,1.4,1.4,2.9,2.2,4.2c0.3,0.5,0.9,0.6,1.4,0.3c0.5-0.3,0.6-0.9,0.3-1.4C98.6,13.3,98.1,12.1,97.5,11z"/>
	<path class="st0" d="M107.8,0.2c-2.8,0.6-5.4,1.9-8,2.9c-0.5,0.2-0.8,0.8-0.6,1.3c0.2,0.5,0.8,0.8,1.3,0.6c0.5-0.2,0.9-0.4,1.4-0.6
		c0,1.6,0.1,3.1,0.2,4.7c0.1,1.5-0.1,3,0.1,4.5c0.1,0.5,0.6,0.9,1.1,0.9c0.5-0.1,0.9-0.6,0.9-1.1c-0.2-1.4,0-2.9-0.1-4.3
		c-0.1-1.7-0.3-3.4-0.2-5c0-0.1,0-0.3-0.1-0.4c1.4-0.6,2.9-1.2,4.4-1.5c0.5-0.1,0.9-0.6,0.8-1.2C108.9,0.4,108.3,0.1,107.8,0.2z"/>
	<path class="st0" d="M107.9,4.9c0-0.6-0.5-1-1-1c-0.6,0-1,0.5-1,1c0,2.5-0.3,5.1,0,7.6c0,0.5,0.5,1,1.1,0.9c0.6,0,1-0.5,0.9-1.1
		C107.6,9.9,107.9,7.4,107.9,4.9z"/>
	<path class="st0" d="M114.9,12.1c-0.5,0.3-1.2,0.5-1.8,0.4c-0.6,0-1.1-0.3-1.5-0.7c-0.5-0.7-0.4-1.7-0.4-2.5c0-2.2,1.7-4.4,3.8-5.1
		c0.5-0.2,0.8-0.7,0.6-1.3c-0.2-0.5-0.7-0.8-1.3-0.6c-2.8,0.9-5.1,4-5.2,7c0,1.2,0,2.7,0.8,3.7c1.3,1.8,4.2,1.9,5.9,0.9
		c0.5-0.3,0.6-0.9,0.3-1.4C116,12,115.4,11.8,114.9,12.1z"/>
	<path class="st0" d="M118.7,2.6c-0.5-0.1-1,0.3-1.1,0.9c-0.3,2.4-0.3,4.8-0.4,7.3c0,0.6,0.4,1,0.9,1c0.6,0,1-0.4,1-0.9
		c0.1-2.4,0.2-4.8,0.4-7.1C119.7,3.2,119.3,2.7,118.7,2.6z"/>
	<path class="st0" d="M128.1,6.9c0.3-2.8-2.2-5.5-5-5.2c-0.2-0.1-0.3-0.2-0.5-0.2c-0.6,0-1,0.4-1,1c0,0.1,0,0.2,0,0.4c0,0,0,0,0,0
		c-0.1,3.6,0.1,7.2-0.3,10.7c-0.1,0.5,0.3,1,0.9,1.1c0.5,0.1,1.1-0.3,1.1-0.9c0.2-1.3,0.3-2.7,0.3-4.1c0,0.1,0,0.2,0.1,0.4
		c0.2,0.5,0.8,0.8,1.3,0.5C126.4,10,127.9,8.7,128.1,6.9z M124.1,8.8c-0.4,0.2-0.6,0.5-0.6,0.9c0.1-2,0-4,0.1-6.1
		c0.6,0,1.2,0.2,1.6,0.6c0.6,0.6,1.1,1.5,1,2.4C126,7.8,125,8.4,124.1,8.8z"/>
	<path class="st0" d="M134.1,9.2c-0.1,0-0.2,0-0.2,0.1c-0.1-1.9-0.2-3.9-0.3-5.8c0-0.5-0.4-0.8-0.8-0.9c0,0,0,0-0.1,0
		c-0.5-0.2-1.1,0.1-1.3,0.6c-0.8,2.4-1.9,4.6-2.9,6.9c-0.3,0-0.6,0.1-0.9,0.1c-0.5,0.1-0.9,0.6-0.8,1.2c0.1,0.4,0.4,0.7,0.8,0.8
		c-0.2,0.4-0.3,0.8-0.5,1.2c-0.2,0.5,0.1,1.1,0.6,1.3c0.5,0.2,1.1-0.1,1.3-0.6c0.3-0.7,0.6-1.4,0.8-2.1c0.5,0,0.9,0,1.4-0.1
		c0.3,0,0.5-0.1,0.8-0.1c0.1,1,0.2,2,0.4,2.9c0.1,0.5,0.6,0.9,1.2,0.8s0.9-0.6,0.8-1.2c-0.2-1-0.3-2-0.4-3.1
		c0.2-0.1,0.4-0.1,0.6-0.2c0.5-0.1,0.8-0.7,0.7-1.2C135.2,9.3,134.7,9,134.1,9.2z M131.1,9.9c-0.1,0-0.2,0-0.3,0
		c0.3-0.7,0.7-1.5,1-2.2c0,0.7,0.1,1.4,0.1,2.1C131.7,9.8,131.4,9.8,131.1,9.9z"/>
	<path class="st0" d="M143.5,3.3c-0.1-0.5-0.6-0.9-1.1-0.9c-1.2,0.2-2.3,0.5-3.4,0.7c-1.4,0.3-2.8,0.4-4.2,0.6
		c-0.5,0.1-0.9,0.6-0.9,1.1c0.1,0.5,0.6,0.9,1.1,0.9c0.5-0.1,1-0.1,1.4-0.2c-0.1,2.6-0.4,5.2-0.6,7.8c0,0.6,0.4,1,0.9,1.1
		c0.6,0,1-0.4,1.1-0.9c0.2-2.8,0.5-5.5,0.7-8.3c0.3,0,0.6-0.1,0.9-0.1c1.1-0.2,2.2-0.6,3.3-0.7C143.2,4.3,143.6,3.8,143.5,3.3z"/>
	<path class="st0" d="M141.2,6c-0.5-0.1-1.1,0.2-1.2,0.7c-0.4,1.7-1,3.7-1,5.4c0,0.6,0.5,1,1,1c0.6,0,1-0.5,1-1
		c0-1.6,0.6-3.4,0.9-4.9C142.1,6.7,141.7,6.1,141.2,6z"/>
	<path class="st0" d="M149.3,4.1c-0.7-0.3-1.6-0.3-2.6,0.6c-0.4,0.4-0.6,0.6-1,1c-0.4,0.4-0.3,1.1,0.1,1.4c0.4,0.4,1.1,0.3,1.4-0.1
		c0.3-0.3,0.4-0.5,0.7-0.8c0.2-0.2,0.4-0.3,0.5-0.3c0,0,0.1,0.1,0.1,0.1c0.1,0.1,0.1,0.3,0.2,0.5c0.3,1.4,0,3.1-0.7,4.3
		c-0.3,0.6-0.9,1.4-1.6,1.8c-0.2,0.1-0.4,0.2-0.6,0.2c-0.2,0-0.3-0.2-0.5-0.4c-0.2-0.3-0.3-0.5-0.4-0.8c-0.1-0.8,0.3-1.7,0.6-2.3
		c0.2-0.5-0.1-1.1-0.6-1.3c-0.5-0.2-1.1,0.1-1.3,0.6c-0.4,1-0.9,2.3-0.7,3.4c0.1,0.6,0.4,1,0.7,1.5c0.5,0.9,1.2,1.2,1.8,1.3
		c0.6,0.1,1.3-0.1,1.9-0.4c1-0.6,1.9-1.7,2.4-2.6c0.9-1.6,1.2-3.8,0.9-5.6C150.5,5.1,150,4.4,149.3,4.1z"/>
	<path class="st0" d="M160.7,0.9c-0.5-0.2-1.1,0-1.3,0.5c-0.6,1.4-0.8,2.9-1.1,4.4c-0.4,1.8-0.8,3.7-1.4,5.5
		c-0.8-2.2-1.4-4.4-2.1-6.6c-0.2-0.5-0.7-0.8-1.3-0.7c-0.5,0.2-0.8,0.7-0.7,1.1c-0.1,0.1-0.2,0.3-0.2,0.5c-0.2,2.9-0.5,5.8-0.9,8.7
		c-0.1,0.5,0.3,1,0.9,1.1c0.5,0.1,1-0.3,1.1-0.9c0.2-1.6,0.4-3.2,0.5-4.8c0.5,1.6,1.1,3.3,1.8,4.9c0.2,0.5,0.8,0.7,1.3,0.5
		c0.3-0.1,0.5-0.3,0.5-0.6c0-0.1,0.1-0.1,0.1-0.2c0.9-2.7,1.5-5.5,2.2-8.3c0.3-1.4,0.5-2.8,1-4.1C161.4,1.7,161.2,1.2,160.7,0.9z"/>
	<path class="st0" d="M170.6,2.8c-0.8-2-3.4-2.7-5.2-1.8c-2,1-3.1,3.7-2.4,5.8c0.2,0.5,0.8,0.8,1.3,0.6c0.5-0.2,0.8-0.8,0.6-1.3
		c-0.4-1.2,0.2-2.7,1.4-3.3c0.8-0.4,2.1-0.2,2.4,0.7c0.6,1.6,0.1,3-1.1,4.1c-0.6,0.6-1.4,1.1-2,1.8c-0.8,0.9-1.2,2-0.7,3.4
		c0.2,0.5,0.8,0.8,1.3,0.6c0.5-0.2,0.8-0.8,0.6-1.3c-0.3-0.7,0.1-1.3,0.6-1.7c0.5-0.5,1.1-0.9,1.6-1.3
		C170.7,7.4,171.5,5.2,170.6,2.8z"/>
	<path class="st0" d="M165.8,14.9c-0.1,0-0.1,0-0.1,0c-0.5-0.2-1.1,0-1.3,0.5c-0.2,0.5,0,1.1,0.5,1.3c0.2,0.1,0.1,0.1,0.3,0.1
		c0.5,0.2,1.1-0.1,1.2-0.7C166.7,15.6,166.4,15,165.8,14.9z"/>
</g>
</svg>
