<?xml version="1.0" encoding="utf-8"?>
<!-- Generator: Adobe Illustrator 24.2.0, SVG Export Plug-In . SVG Version: 6.00 Build 0)  -->
<svg version="1.1" id="Calque_1" xmlns="http://www.w3.org/2000/svg" xmlns:xlink="http://www.w3.org/1999/xlink" x="0px" y="0px"
	 viewBox="0 0 174.9 16" style="enable-background:new 0 0 174.9 16;" xml:space="preserve">
<style type="text/css">
	.st0{fill-rule:evenodd;clip-rule:evenodd;}
</style>
<g>
	<path class="st0" d="M105.9,10c0-0.6-0.5-1-1-1c-0.4,0-0.9,0-1.3,0c-0.6-2.4-1.1-4.9-1.8-7.3c-0.2-0.5-0.7-0.8-1.2-0.7
		c-0.5,0.1-0.8,0.6-0.7,1.1c-0.7,2.3-1.3,4.5-2.1,6.8c-0.1,0-0.3,0-0.4,0c-0.6,0-1,0.4-1.1,0.9c0,0.5,0.3,0.9,0.8,1
		c-0.2,0.6-0.4,1.2-0.7,1.8c-0.2,0.5,0,1.1,0.5,1.3c0.5,0.2,1.1,0,1.3-0.5c0.4-0.8,0.7-1.6,1-2.5c0.9,0,1.9,0,2.8,0
		c0.3,1.2,0.6,2.4,1,3.6c0.2,0.5,0.7,0.8,1.3,0.6c0.5-0.2,0.8-0.7,0.6-1.3c-0.3-1-0.6-2-0.9-3c0.3,0,0.6,0,0.9,0
		C105.5,11,106,10.6,105.9,10z M99.9,9.1c0.3-1,0.7-2,1-3c0.2,1,0.5,2.1,0.7,3.1C101,9.1,100.4,9.1,99.9,9.1z"/>
	<path class="st0" d="M113.3,2.5c-0.1,3-0.5,6-0.8,9c-1.1-3-2.1-6-3.2-9c-0.2-0.5-0.8-0.8-1.3-0.6c0,0,0,0,0,0
		c-0.5,0.1-0.8,0.5-0.8,0.9c-0.1,3.5-0.5,6.9-0.6,10.4c0,0.6,0.4,1,1,1c0.6,0,1-0.4,1-1c0.1-2,0.2-4,0.4-6c0.8,2.3,1.6,4.6,2.5,6.9
		c0.2,0.4,0.6,0.6,1,0.6c0.2,0.3,0.4,0.5,0.8,0.5c0.6,0,1-0.4,1.1-0.9c0.3-4,1-7.9,1.1-11.9c0-0.6-0.4-1-1-1
		C113.8,1.5,113.4,1.9,113.3,2.5z"/>
	<path class="st0" d="M118.3,15.1c0.7,0.4,1.7,0.4,2.9-0.3c0.4-0.3,0.8-0.6,1.2-1c1.7-2,2.1-5.3,1.6-7.8c-0.3-1.3-1.2-2.7-2.4-2.9
		c-0.6-0.1-1.2,0-2,0.5c-0.5,0.3-0.6,0.9-0.2,1.4c0.3,0.5,0.9,0.6,1.4,0.2c0.2-0.1,0.3-0.2,0.4-0.2c0.1,0,0.3,0.1,0.4,0.3
		c0.2,0.3,0.4,0.7,0.5,1.1c0.4,2,0.2,4.6-1.2,6.2c-0.2,0.2-0.4,0.5-0.7,0.6c-0.4,0.3-0.7,0.4-1,0.3c-0.3-0.1-0.4-0.5-0.5-0.8
		c-0.3-1-0.2-2.4,0.5-3.1c0.4-0.4,0.3-1-0.1-1.4c-0.4-0.4-1-0.3-1.4,0.1c-1,1.1-1.3,3.3-0.9,5C117,14,117.5,14.8,118.3,15.1z"/>
	<path class="st0" d="M127.8,2.8c-0.3,0.1-0.6,0.4-0.6,0.8c-0.4,3.2-0.8,6.4-1.3,9.6c-0.1,0.5,0.3,1.1,0.8,1.1
		c0.5,0.1,1.1-0.3,1.1-0.8c0.3-1.9,0.6-3.9,0.8-5.8c0.5,2.3,1.1,4.6,1.8,6.8c0.2,0.5,0.7,0.8,1.3,0.6c0.1,0,0.1-0.1,0.1-0.1
		c0.4,0,0.8-0.2,1-0.7c0.7-2.1,1.1-4.2,1.8-6.3c0.4-1.4,1.1-2.8,1.5-4.2c0.1-0.5-0.2-1.1-0.7-1.2c-0.5-0.1-1.1,0.2-1.2,0.7
		c-0.4,1.4-1,2.7-1.5,4.1c-0.4,1.3-0.7,2.7-1.1,4c-0.8-2.8-1.4-5.6-2-8.5c-0.1-0.5-0.7-0.9-1.2-0.8C128.1,2.3,127.9,2.5,127.8,2.8z"
		/>
	<path class="st0" d="M137.6,14.9c0.5,0.2,1.1-0.1,1.3-0.6c1.3-3.3,3.2-6.4,4.7-9.6c0.2-0.5,0-1.1-0.5-1.3c-0.5-0.2-1.1,0-1.3,0.5
		c-0.6,1.4-1.3,2.7-2,4c-0.4-1.3-0.7-2.6-1.2-3.9c-0.2-0.5-0.8-0.7-1.3-0.5c-0.5,0.2-0.7,0.8-0.5,1.3c0.7,1.7,1,3.4,1.6,5.2
		c0,0.1,0.1,0.2,0.2,0.3c-0.5,1.1-1,2.2-1.5,3.3C136.8,14.1,137.1,14.7,137.6,14.9z"/>
	<path class="st0" d="M144,13.7c0.5,0.2,1.1-0.2,1.2-0.7c0.5-1.8,1-3.6,1.5-5.4c0.4,1.7,0.9,3.4,1.5,5c0.2,0.5,0.8,0.8,1.3,0.6
		c0.2-0.1,0.4-0.2,0.5-0.4c0.4,0,0.8-0.2,1-0.6c0.6-1.3,1.1-2.6,1.5-3.9c0.2,2,0.6,4,1.2,5.9c0.2,0.5,0.8,0.8,1.3,0.6
		c0.5-0.2,0.8-0.8,0.6-1.3c-1.1-3-1.3-6.4-1.5-9.6c0-0.5-0.5-1-1.1-0.9c-0.4,0-0.8,0.3-0.9,0.7c-0.2,0.1-0.4,0.3-0.4,0.6
		c-0.6,2-1.3,4.1-2.1,6c-0.7-2.1-1.2-4.3-1.6-6.4c-0.1-0.5-0.6-0.9-1.2-0.8c-0.5,0.1-0.8,0.5-0.8,1c-0.2,0.1-0.4,0.3-0.5,0.6
		c-0.8,2.5-1.4,5.1-2.2,7.6C143.2,12.9,143.5,13.5,144,13.7z"/>
	<path class="st0" d="M163.6,10.3c-0.5,0.4-1,0.8-1.5,1.1c-0.6,0.3-1.1,0.5-1.7,0.5c-0.7,0-1.2,0-1.6-0.3c-0.2-0.2-0.2-0.4-0.3-0.6
		c-0.1-0.4,0-0.8,0.1-1.3c0-0.2,0.1-0.5,0.2-0.7c0.2,0.3,0.6,0.4,1,0.3c1.1-0.2,1-0.3,2-0.6c0.5-0.2,0.8-0.7,0.7-1.3
		c-0.2-0.5-0.7-0.8-1.3-0.7c-0.9,0.3-0.9,0.3-1.8,0.5c0.4-0.9,0.8-1.7,1.2-2.4c1.1,0,2.2-0.1,3.3-0.3c0.5-0.1,0.9-0.6,0.8-1.2
		s-0.6-0.9-1.2-0.8c-1.1,0.2-2.2,0.3-3.4,0.3c-0.1,0-0.3,0-0.4,0.1c-0.3,0.1-0.5,0.2-0.7,0.5c-0.7,1.2-2,3.7-2.4,5.7
		c-0.3,1.6-0.1,2.9,0.8,3.8c0.6,0.5,1.6,0.9,3,0.8c0.9-0.1,1.6-0.3,2.5-0.7c0.7-0.4,1.4-0.9,2-1.4c0.4-0.4,0.5-1,0.1-1.4
		C164.7,10,164,10,163.6,10.3z"/>
	<path class="st0" d="M171.9,0c-1.9-0.1-4,1.6-3.7,4.2c0.1,0.5,0.6,0.9,1.1,0.9c0.5-0.1,0.9-0.6,0.9-1.1c-0.1-1.2,0.8-2.1,1.6-2
		c0.5,0,1,0.5,1.1,1.4c0.1,0.6-0.1,1.2-0.4,1.8c-0.4,0.7-0.9,1.4-1.4,2c-0.2,0.3-0.8,0.9-1.1,1.4c-0.2,0.4-0.3,0.9-0.3,1.2
		c0.1,0.5,0.6,0.9,1.1,0.8c0.5-0.1,0.9-0.5,0.8-1c0-0.1,0.2-0.3,0.3-0.4c0.3-0.4,0.6-0.7,0.7-0.9c0.5-0.7,1.1-1.4,1.5-2.2
		c0.5-1,0.8-2,0.6-3.1C174.5,0.9,173.2,0.1,171.9,0z"/>
	<path class="st0" d="M171.8,12.9c-0.3-0.5-0.9-0.7-1.3-0.4c-0.5,0.3-0.7,0.9-0.4,1.3c0.1,0.1,0.1,0.2,0.2,0.4
		c0.3,0.5,0.9,0.6,1.4,0.3c0.5-0.3,0.6-0.9,0.3-1.4C171.9,13,171.9,12.9,171.8,12.9z"/>
	<path class="st0" d="M7.4,3c-2-0.7-5-0.6-6.9,0.4C0,3.6-0.1,4.2,0.1,4.7C0.4,5.2,1,5.4,1.5,5.1C1.7,5,2,4.9,2.3,4.8
		c0.1,3.4,0,6.8,0.3,10.2c0,0.6,0.5,1,1.1,0.9c0.6,0,1-0.5,0.9-1.1C4.3,11.4,4.4,7.9,4.3,4.5c0.9,0,1.8,0.1,2.5,0.4
		c1,0.3,0.9,1.6,0.4,2.3C6.7,8,6,8.6,5.3,9.2c-0.4,0.4-0.5,1-0.1,1.4c0.4,0.4,1,0.5,1.4,0.1c0.9-0.8,1.7-1.5,2.3-2.5
		C10,6.4,9.6,3.8,7.4,3z"/>
	<path class="st0" d="M14.8,12.5c0.4,1,0.7,2,1.1,2.9c0.2,0.5,0.8,0.7,1.3,0.5c0.5-0.2,0.7-0.8,0.5-1.3c-0.3-0.8-0.6-1.5-0.9-2.3
		c0,0,0.1,0,0.1,0c0.5-0.1,0.9-0.6,0.8-1.2c-0.1-0.5-0.6-0.9-1.2-0.8c-0.2,0-0.3,0-0.5,0.1c-0.7-1.9-1.3-3.9-1.9-5.9
		c-0.2-0.5-0.7-0.8-1.2-0.7c-0.1,0-0.2,0.1-0.2,0.1c0,0,0,0,0,0c-0.5-0.1-1.1,0.2-1.2,0.7C11,6.8,10.5,9,9.8,11.1
		c-0.1,0-0.2,0.1-0.3,0.1C9,11.4,8.7,12,8.9,12.5c0.1,0.2,0.2,0.4,0.4,0.5c0,0.1-0.1,0.2-0.1,0.3c-0.2,0.5,0.1,1.1,0.6,1.3
		c0.5,0.2,1.1-0.1,1.3-0.6c0.1-0.4,0.2-0.7,0.3-1.1C12.5,12.6,13.7,12.5,14.8,12.5z M13,7.1c0.4,1.2,0.7,2.3,1.1,3.4
		c-0.7,0-1.4,0.1-2.1,0.2C12.4,9.5,12.7,8.3,13,7.1z"/>
	<path class="st0" d="M27,14c-0.7-1.3-1.5-2.4-2.3-3.6c1.3-1.3,1.1-3.3,0.1-4.8c-1.2-1.8-3.1-2.6-5.3-2.2C19,3.5,18.6,4,18.7,4.5
		c-0.2,0.2-0.3,0.5-0.3,0.7c0.1,2.7,0.2,5.3,0.1,8c0,0.6,0.4,1,1,1c0.6,0,1-0.4,1-1c0.1-2.7,0-5.3-0.1-8c1.1,0,2,0.5,2.7,1.5
		c0.5,0.7,0.7,1.7,0.1,2.3c-0.2,0-0.4,0-0.5,0.1c-0.5,0.3-0.6,0.9-0.3,1.4c0.9,1.5,2,2.9,2.8,4.4c0.3,0.5,0.9,0.7,1.4,0.4
		C27,15.1,27.2,14.5,27,14z"/>
	<path class="st0" d="M32.8,2.7c-2.4,0.7-5,0.5-7.4,1c-0.5,0.1-0.9,0.6-0.8,1.2s0.6,0.9,1.2,0.8c0.6-0.1,1.2-0.2,1.8-0.2
		c0.2,2.4,0.4,4.8,0.6,7.2c0,0.6,0.5,1,1.1,0.9c0.6,0,1-0.5,0.9-1.1c-0.2-2.4-0.4-4.9-0.6-7.3c1.3-0.1,2.6-0.2,3.8-0.6
		c0.5-0.2,0.8-0.7,0.7-1.2C33.9,2.9,33.4,2.6,32.8,2.7z"/>
	<path class="st0" d="M32.8,6.2c-0.5,0-1,0.5-0.9,1.1c0.2,2.2,0.2,4.4,0.4,6.6c0.1,0.5,0.5,0.9,1.1,0.9c0.5-0.1,0.9-0.5,0.9-1.1
		c-0.2-2.2-0.2-4.4-0.4-6.5C33.9,6.5,33.4,6.1,32.8,6.2z"/>
	<path class="st0" d="M38.1,15.4c1.1,0.3,2.3,0.1,3.4-0.3c0.5-0.2,0.8-0.8,0.6-1.3c-0.2-0.5-0.8-0.8-1.3-0.6
		c-0.7,0.2-1.5,0.4-2.2,0.2c-0.8-0.2-1.1-0.8-1.3-1.6c-0.3-1.4,0-3.1,0.7-4c0.2-0.3,0.5-0.6,0.8-0.8C39,7,39.3,6.9,39.5,6.9
		c0.6,0,1-0.4,1-1c0-0.6-0.4-1-1-1c-1.3-0.1-2.5,0.9-3.2,1.9c-1,1.3-1.5,3.7-1,5.7C35.7,13.9,36.6,15,38.1,15.4z"/>
	<path class="st0" d="M44,12.8c0.6,0,1-0.5,0.9-1.1c-0.1-2-0.1-4-0.1-5.9c0-0.6-0.4-1-1-1s-1,0.4-1,1c0,2,0,4.1,0.1,6.1
		C43,12.4,43.5,12.8,44,12.8z"/>
	<path class="st0" d="M49.8,9.1c-0.5,0.3-0.6,0.9-0.2,1.4c0.3,0.5,0.9,0.6,1.4,0.2c1.3-0.9,2.4-2.9,2.2-4.5c-0.4-2.8-3.7-4-6-3.1
		c-0.5,0.2-0.8,0.8-0.6,1.3c0.1,0.2,0.2,0.3,0.3,0.4c-0.1,0.1-0.1,0.3-0.1,0.4c0.1,2.7,0.1,5.3,0,7.9c0,0.6,0.4,1,1,1
		c0.6,0,1-0.4,1-1c0.1-2.7,0.1-5.3,0-8c0-0.1,0-0.2-0.1-0.3c1.1-0.1,2.3,0.4,2.5,1.7C51.3,7.4,50.6,8.5,49.8,9.1z"/>
	<path class="st0" d="M53.9,11.2c-0.4,0-0.8,0.1-1.2,0.1c-0.5,0-1,0.5-0.9,1.1c0,0.6,0.5,1,1.1,0.9c0.2,0,0.3,0,0.5,0
		c0,0.1-0.1,0.2-0.1,0.3c-0.2,0.5,0.1,1.1,0.7,1.2c0.5,0.2,1.1-0.1,1.2-0.7c0.1-0.3,0.2-0.7,0.3-1c0.6-0.1,1.2-0.1,1.8-0.3
		c0.2,0,0.4-0.1,0.6-0.2c0.3,1,0.7,1.9,1.1,2.9c0.2,0.5,0.8,0.7,1.3,0.5c0.5-0.2,0.7-0.8,0.5-1.3c-0.4-0.8-0.7-1.7-1-2.6
		c0.6-0.2,1.2-0.4,1.8-0.5c0.5-0.1,0.9-0.6,0.8-1.2c-0.1-0.5-0.6-0.9-1.2-0.8c-0.7,0.1-1.3,0.3-1.9,0.6c-0.6-2-1-4-1.8-5.9
		c-0.2-0.5-0.8-0.8-1.3-0.6c-0.3,0.1-0.6,0.4-0.6,0.8c0,0,0,0.1-0.1,0.1C55.1,6.8,54.5,9,53.9,11.2z M56.9,10.8
		c-0.3,0.1-0.5,0.1-0.8,0.1c0.2-0.9,0.5-1.8,0.7-2.6c0.2,0.8,0.4,1.6,0.7,2.4C57.2,10.7,57,10.8,56.9,10.8z"/>
	<path class="st0" d="M64.5,14.9c0.1,0.5,0.5,1,1.1,0.9c0.5-0.1,0.9-0.5,0.9-1.1c-0.3-3.3-0.4-6.6-0.4-9.9c0-0.1,0-0.1,0-0.2
		C67,4.5,68,4.5,69,4.4c0.5-0.1,0.9-0.6,0.8-1.1c-0.1-0.5-0.6-0.9-1.1-0.8c-1.4,0.2-2.7,0.2-4.1,0.6c-1.3,0.4-2.5,1.1-3.7,1.5
		c-0.5,0.2-0.8,0.7-0.6,1.3c0.2,0.5,0.7,0.8,1.3,0.6c0.9-0.3,1.7-0.7,2.6-1.1C64.1,8.5,64.2,11.7,64.5,14.9z"/>
	<path class="st0" d="M70.3,14c0.5,0,1-0.5,0.9-1.1c-0.2-2-0.1-4.1-0.2-6.1c0-0.6-0.5-1-1-1c-0.6,0-1,0.5-1,1c0.1,2,0,4.1,0.2,6.2
		C69.3,13.7,69.8,14.1,70.3,14z"/>
	<path class="st0" d="M75.1,15.2c0.7,0.2,1.4,0,2.1-0.3c1.1-0.6,2.1-1.8,2.5-2.8c0.8-2,1.3-4.6,0.6-6.7c-0.4-1-1-1.7-1.7-2
		c-1.5-0.7-3.7,0.1-4.8,1.8c-0.3,0.5-0.2,1.1,0.3,1.4c0.5,0.3,1.1,0.2,1.4-0.3c0.3-0.5,0.7-0.8,1.2-1c0.4-0.2,0.8-0.2,1.1-0.1
		C78,5.4,78.2,5.6,78.4,6c0.6,1.6,0.1,3.7-0.5,5.2c-0.3,0.7-0.9,1.4-1.6,1.8c-0.2,0.1-0.5,0.2-0.7,0.1c-0.2-0.1-0.4-0.2-0.6-0.6
		c-0.5-0.9-0.3-2.2,0-3.2c0.2-0.5-0.2-1.1-0.7-1.2C73.7,8.1,73.1,8.4,73,9c-0.4,1.4-0.6,3.4,0.2,4.7C73.8,14.6,74.4,15,75.1,15.2z"
		/>
	<path class="st0" d="M91.7,0.9c-0.5-0.2-1.1,0.1-1.3,0.6c-1.1,3.3-2,6.6-3.1,9.9c-0.8-2.6-1.4-5.3-2.5-7.9C84.6,3,84,2.7,83.5,2.9
		c-0.5,0.2-0.7,0.7-0.6,1.1c-0.2,0.2-0.3,0.4-0.4,0.7c-0.3,2.7-0.8,5.4-1.1,8.1c-0.1,0.5,0.3,1,0.9,1.1c0.5,0.1,1-0.3,1.1-0.9
		c0.2-1.8,0.5-3.5,0.7-5.3c0.6,2.1,1.1,4.1,1.9,6.1c0.2,0.4,0.5,0.6,0.9,0.6c0.1,0,0.1,0.1,0.2,0.1c0.5,0.2,1.1-0.1,1.3-0.6
		c1.4-3.9,2.4-8,3.8-11.9C92.4,1.7,92.2,1.1,91.7,0.9z"/>
</g>
</svg>
