<?xml version="1.0" encoding="utf-8"?>
<!-- Generator: Adobe Illustrator 24.2.0, SVG Export Plug-In . SVG Version: 6.00 Build 0)  -->
<svg version="1.1" id="Calque_1" xmlns="http://www.w3.org/2000/svg" xmlns:xlink="http://www.w3.org/1999/xlink" x="0px" y="0px"
	 viewBox="0 0 54 13.5" style="enable-background:new 0 0 54 13.5;" xml:space="preserve">
<style type="text/css">
	.st0{fill-rule:evenodd;clip-rule:evenodd;}
</style>
<g>
	<path class="st0" d="M53.6,10.6c0.3-0.3,0.4-0.9,0.2-1.3c-0.2-0.4-0.7-0.6-1.2-0.5c-0.5,0.1-0.9,0.6-0.9,1.1c0,0.3,0.2,0.6,0.5,0.7
		c0.2,0.1,0.4,0.2,0.6,0.2C53.2,10.9,53.4,10.8,53.6,10.6z"/>
	<path class="st0" d="M53.9,6.1c-0.3-0.5-0.9-0.7-1.3-0.4c-0.4,0.2-0.6,0.6-0.6,1c0,0.6,0.4,1,1,1c0.4,0,0.8-0.3,1-0.7
		C54,6.7,54,6.4,53.9,6.1z"/>
	<path class="st0" d="M0.9,2.8C-0.2,4.7-0.3,7.9,0.7,10c0.8,1.6,2.2,2.7,4.1,2.4c1-0.1,1.8-0.6,2.6-1.2c0.5-0.3,0.6-0.9,0.2-1.4
		C7.4,9.4,6.8,9.3,6.3,9.6c-0.6,0.4-1.1,0.8-1.8,0.8c-1,0.1-1.7-0.5-2.1-1.3C1.7,7.5,1.8,5.2,2.6,3.8c0.5-0.9,1.6-1.3,2.4-1
		C5.6,3,6,3.5,6.1,4.2c0.1,0.5,0.6,0.9,1.1,0.8C7.8,5,8.2,4.5,8.1,3.9c-0.2-1.6-1.2-2.6-2.3-3C4.1,0.3,1.9,0.9,0.9,2.8z"/>
	<path class="st0" d="M10.9,11.5c0.8,0.3,1.7,0.3,2.6-0.4c1.3-1,2.2-2.6,2.5-4.2c0.2-1.1,0-2.6-0.5-3.7c-0.4-0.7-0.9-1.2-1.5-1.4
		c-0.6-0.2-1.4-0.2-2.4,0.3c-0.5,0.2-0.9,0.6-1.2,1C9.9,3.6,9.8,4.2,9.6,4.9c-0.1,0.5,0.2,1.1,0.7,1.2c0.5,0.1,1.1-0.2,1.2-0.7
		c0.1-0.4,0.2-0.8,0.4-1.2c0.1-0.2,0.3-0.3,0.5-0.4c0.3-0.2,0.6-0.2,0.8-0.2c0.3,0.1,0.5,0.5,0.6,0.9C14.1,5.2,14.1,6,14,6.6
		c-0.2,1.1-0.8,2.2-1.7,2.9c-0.2,0.2-0.4,0.2-0.6,0.2c-0.2-0.1-0.4-0.4-0.5-0.7c-0.1-0.3-0.1-0.7-0.1-1c0-0.6-0.4-1-1-1s-1,0.4-1,1
		c0,0.5,0,1,0.2,1.6C9.6,10.5,10.2,11.2,10.9,11.5z"/>
	<path class="st0" d="M18.9,11.4c0.1-1.3,0.2-2.7,0.3-4.1c0.4,1.2,0.9,2.5,1.6,3.4c0.1,0.1,0.2,0.2,0.3,0.3c0,0.4,0.3,0.8,0.8,0.9
		c0.5,0.1,1.1-0.2,1.2-0.7c0.7-2.8,0.8-5.7,1.4-8.5c0.1-0.5-0.2-1.1-0.8-1.2c-0.5-0.1-1.1,0.2-1.2,0.8C22.1,4.1,21.9,6,21.6,8
		c-0.6-1.5-1.1-3.3-1.7-4.7c-0.2-0.5-0.8-0.7-1.3-0.5C18.2,2.9,18,3.3,18,3.6c-0.2,0.1-0.4,0.4-0.4,0.6c-0.4,2.2-0.4,4.7-0.6,6.9
		c0,0.5,0.4,1,0.9,1.1C18.4,12.3,18.9,11.9,18.9,11.4z"/>
	<path class="st0" d="M32.9,1.8c0.5-0.3,0.6-0.9,0.3-1.4c-0.3-0.5-0.9-0.6-1.4-0.3c-1.1,0.7-2.3,1.4-3.5,2c0,0,0,0,0,0
		c-0.4,0-0.7,0.2-0.8,0.5c-0.7,0.4-1.3,0.7-2,1.1C25,4,24.8,4.6,25.1,5.1c0.3,0.5,0.9,0.6,1.4,0.4C26.7,5.3,27,5.2,27.3,5
		c0,1.9-0.1,3.9,0,5.8c0,0.6,0.5,1,1,1c0.6,0,1-0.5,1-1c-0.1-2.3,0-4.6,0-6.8C30.5,3.3,31.7,2.6,32.9,1.8z"/>
	<path class="st0" d="M31.7,11.5c0.5,0.1,1.1-0.2,1.2-0.7c0-0.2,0.1-0.4,0.1-0.6c0.7-0.1,1.4-0.1,2.1-0.3c0.3,1,0.6,2.1,1.1,3
		c0.2,0.5,0.8,0.7,1.3,0.5c0.5-0.2,0.7-0.8,0.5-1.3c-1.3-2.9-1.8-6.3-3.3-9.1c-0.3-0.5-0.9-0.6-1.4-0.4C33.2,2.8,33.1,2.9,33,3
		c-0.2,0.1-0.4,0.3-0.5,0.6c-0.6,2.2-1.1,4.4-1.6,6.7C30.8,10.8,31.1,11.3,31.7,11.5z M33.5,8.1c0.1-0.6,0.3-1.3,0.5-1.9
		c0.2,0.6,0.4,1.2,0.6,1.8C34.2,8,33.8,8,33.5,8.1z"/>
	<path class="st0" d="M37.4,7.6c-0.1,0.7,0.1,1.6,0.5,2.3c0.3,0.6,0.8,1,1.5,1.2c0.7,0.2,1.6,0.1,2.5-0.3c1-0.4,2.1-1,2.8-1.5
		C45.2,9.1,45.3,8.4,45,8c-0.3-0.5-0.9-0.6-1.4-0.3C43,8,42.1,8.6,41.2,9c-0.4,0.2-0.9,0.3-1.3,0.2c-0.2,0-0.3-0.2-0.4-0.4
		c-0.1-0.3-0.2-0.7-0.2-1c0-0.4,0.3-0.7,0.5-1.1c0.3-0.4,0.6-0.9,1-1.3c0.3-0.3,0.6-0.5,0.9-0.6c0.5-0.1,0.9-0.6,0.8-1.2
		c-0.1-0.5-0.6-0.9-1.2-0.8c-0.7,0.1-1.2,0.4-1.7,0.9c-0.6,0.5-1.1,1.3-1.5,1.9C37.9,6.2,37.5,6.8,37.4,7.6z"/>
	<path class="st0" d="M52.5,1.3c-1.7,0.1-3.4,0.1-5.1,0.2c-1.1,0.1-2.2,0.3-3.4,0.1c-0.5-0.1-1,0.3-1.1,0.9c-0.1,0.5,0.3,1,0.9,1.1
		c0.9,0.1,1.8,0,2.8-0.1c0,2.1,0.2,4.3,0.4,6.4c0,0.6,0.5,1,1.1,0.9c0.6,0,1-0.5,0.9-1.1c-0.1-2.1-0.3-4.2-0.4-6.4
		c1.4-0.1,2.7-0.1,4.1-0.1c0.6,0,1-0.5,1-1C53.6,1.7,53.1,1.3,52.5,1.3z"/>
</g>
</svg>
