<?xml version="1.0" encoding="utf-8"?>
<!-- Generator: Adobe Illustrator 24.2.0, SVG Export Plug-In . SVG Version: 6.00 Build 0)  -->
<svg version="1.1" id="Calque_1" xmlns="http://www.w3.org/2000/svg" xmlns:xlink="http://www.w3.org/1999/xlink" x="0px" y="0px"
	 viewBox="0 0 132.1 19.3" style="enable-background:new 0 0 132.1 19.3;" xml:space="preserve">
<style type="text/css">
	.st0{fill-rule:evenodd;clip-rule:evenodd;}
</style>
<g>
	<path class="st0" d="M4,14.4c-0.4,0.4-0.5,1-0.1,1.4c0.4,0.4,1,0.5,1.4,0.1c1.1-0.9,2.1-2.1,2.8-3.4C10.7,7,7.2,1.8,1.7,0.6
		c-0.3-0.1-0.6,0-0.8,0.2c0,0,0,0,0,0C0.4,0.8,0,1.3,0,1.8c0.3,4,0.7,8.3,0.5,12.3c0,0.6,0.4,1,1,1c0.6,0,1-0.4,1-1
		c0.2-3.8-0.2-7.7-0.4-11.5c3.8,1.2,6.1,5,4.2,8.9C5.8,12.7,4.9,13.6,4,14.4z"/>
	<path class="st0" d="M11.8,14.6c0.2-0.5,0.3-1,0.5-1.5c1.2-0.2,2.3-0.4,3.5-0.7c0.2,1.8,0.4,3.5,0.7,5.3c0.1,0.5,0.6,0.9,1.1,0.8
		c0.5-0.1,0.9-0.6,0.8-1.1c-0.3-1.9-0.5-3.7-0.8-5.6c0.4-0.1,0.7-0.3,1.1-0.4c0.5-0.2,0.8-0.7,0.7-1.2c-0.2-0.5-0.7-0.8-1.2-0.7
		c-0.3,0.1-0.5,0.2-0.8,0.3c-0.4-3-0.8-6-1.3-8.9C16.1,0.3,15.5-0.1,15,0c-0.5,0.1-0.8,0.5-0.8,1c0,0.1-0.1,0.1-0.1,0.2
		c-1,3.4-2.1,6.8-3.3,10.2c-0.2,0-0.3,0.1-0.5,0.1c-0.5,0.1-0.8,0.7-0.7,1.2c0.1,0.3,0.3,0.5,0.5,0.6c-0.1,0.2-0.1,0.4-0.2,0.5
		c-0.2,0.5,0.1,1.1,0.6,1.3C11,15.4,11.6,15.1,11.8,14.6z M14.9,5.4c0.2,1.7,0.5,3.3,0.7,5c-0.1,0-0.1,0-0.2,0
		c-0.8,0.2-1.6,0.4-2.3,0.5C13.7,9.1,14.3,7.2,14.9,5.4z"/>
	<path class="st0" d="M19.5,5.6c0.8-0.1,1.5-0.2,2.2-0.4c0.3,3.1,0.2,6.2,0.3,9.3c0,0.6,0.5,1,1,1c0.6,0,1-0.5,1-1
		C24,11.3,24,8,23.7,4.7c0.4-0.1,0.7-0.2,1.1-0.3c1.5-0.4,3-0.7,4.4-1.3c0.5-0.2,0.8-0.8,0.6-1.3c-0.2-0.5-0.8-0.8-1.3-0.6
		c-1.4,0.5-2.8,0.8-4.3,1.2c-1.6,0.5-3.2,1-4.8,1.1c-0.6,0-1,0.5-0.9,1.1C18.5,5.2,19,5.7,19.5,5.6z"/>
	<path class="st0" d="M34.2,11.9c-0.4-0.4-1-0.4-1.4-0.1c-0.5,0.5-1.2,0.9-1.8,1.2c-0.4,0.2-0.9,0.3-1.4,0.4c-0.2,0-0.5,0.1-0.7,0.1
		c-0.2,0-0.4-0.1-0.5-0.2c-0.2-0.2-0.3-0.5-0.3-0.9c0-0.5,0-1,0.1-1.5c0.8-0.1,1.6-0.1,2.4-0.3c0.5-0.1,0.9-0.6,0.8-1.2
		c-0.1-0.5-0.6-0.9-1.2-0.8c-0.5,0.1-1.1,0.1-1.6,0.2c0-0.1,0-0.1,0.1-0.2c0.1-0.4,0.3-0.8,0.4-1.3c0.1-0.3,0.3-0.7,0.4-1
		c2.2-0.6,4.4-1,6.7-1c0.6,0,1-0.5,1-1c0-0.6-0.5-1-1-1c-2.4,0.1-4.8,0.5-7.1,1.1c-0.4-0.1-0.9,0.1-1.1,0.5
		c-0.3,0.5-0.5,1.1-0.7,1.7c-0.2,0.5-0.3,0.9-0.5,1.4c-0.1,0.4-0.2,0.8-0.3,1.2c-0.2,1.1-0.6,2.8-0.2,4c0.3,1.1,1,2,2.5,2.1
		c0.4,0,0.9,0,1.3-0.1c0.6-0.1,1.2-0.3,1.7-0.5c0.9-0.3,1.8-0.9,2.5-1.6C34.5,13,34.6,12.3,34.2,11.9z"/>
	<path class="st0" d="M42.7,19c0.2,0.2,0.5,0.3,0.7,0.1c0.2-0.1,0.3-0.5,0.1-0.7C40.8,14.3,40.3,7,43.7,3.1c0.2-0.2,0.2-0.5-0.1-0.7
		c-0.2-0.2-0.5-0.2-0.7,0.1C39.3,6.7,39.8,14.6,42.7,19z"/>
	<path class="st0" d="M51.2,4.7c-0.3,3-0.7,5.9-1,8.9c-0.9-2.6-1.9-5.3-3.1-7.8c-0.1-0.2-0.4-0.4-0.7-0.2c0,0,0,0,0,0
		C46.2,5.5,46,5.7,46,6c-0.1,3-0.5,6-0.4,9c0,0.3,0.2,0.5,0.5,0.5c0.3,0,0.5-0.2,0.5-0.5c-0.1-2.4,0.2-4.9,0.3-7.3
		c1.1,2.5,2,5.1,2.9,7.6c0.1,0.2,0.3,0.4,0.6,0.3c0.1,0,0.1,0.1,0.2,0.1c0.3,0,0.5-0.2,0.5-0.5c0.3-3.5,0.7-6.9,1.1-10.4
		c0-0.3-0.2-0.5-0.4-0.6C51.5,4.2,51.3,4.4,51.2,4.7z"/>
	<path class="st0" d="M54.3,8.3C54.1,8.8,54,9.4,53.9,10c0,0.3,0.1,0.5,0.4,0.6c0.3,0,0.5-0.1,0.6-0.4c0.1-0.5,0.2-1,0.4-1.4
		C55.4,8.3,55.7,8,56,7.8c0.1-0.1,0.3-0.1,0.4-0.1c0.2,0.1,0.3,0.2,0.4,0.5c0.4,1.2,0.4,2.8,0,4.1c-0.2,0.8-0.6,1.6-1.3,2
		c-0.3,0.2-0.6,0.2-0.8,0.1c-0.3-0.1-0.4-0.4-0.5-0.8c-0.1-0.3-0.1-0.6-0.1-0.9c0-0.4,0.1-0.7,0.3-1.1c0.1-0.3,0-0.5-0.3-0.6
		c-0.3-0.1-0.5,0-0.6,0.3c-0.2,0.4-0.3,0.9-0.3,1.4c0,0.4,0,0.7,0.1,1.1c0.1,0.7,0.5,1.2,1,1.5c0.5,0.3,1.2,0.3,1.8-0.2
		c0.9-0.6,1.5-1.6,1.7-2.6c0.4-1.4,0.4-3.2-0.1-4.7c-0.2-0.6-0.6-1-1-1.1c-0.4-0.1-0.8-0.1-1.2,0.1C55.1,7.2,54.6,7.7,54.3,8.3z"/>
	<path class="st0" d="M59.5,7.1c0.1,0.3,0.3,0.4,0.6,0.4c0.6-0.2,1.2-0.3,1.7-0.5c0,0.1-0.1,0.2-0.1,0.3c0,2.6-0.4,5.3-0.3,7.9
		c0,0.3,0.2,0.5,0.5,0.5c0.3,0,0.5-0.2,0.5-0.5c-0.1-2.6,0.3-5.3,0.3-7.9c0-0.2-0.1-0.4-0.3-0.5c1.5-0.5,3.1-0.9,4.7-1.1
		c0.3,0,0.5-0.3,0.4-0.6c0-0.3-0.3-0.5-0.6-0.4c-2.5,0.3-4.8,1.1-7.2,1.8C59.5,6.5,59.4,6.8,59.5,7.1z"/>
	<path class="st0" d="M77.7,8.9c-0.4,0.3-1,0.6-1.3,0.8c-0.2,0.1-0.3,0.4-0.2,0.7c0.1,0.2,0.4,0.3,0.7,0.2c0.4-0.2,1-0.5,1.4-0.9
		c0.4-0.3,0.7-0.6,0.8-0.9c1.1-2.3-1-4.7-3.3-4.5C75.7,4.1,75.6,4,75.5,4C75.2,4,75,4.2,75,4.5c-0.1,3.4-0.2,6.8-0.1,10.3
		c0,0.3,0.2,0.5,0.5,0.5s0.5-0.2,0.5-0.5c-0.1-3.2,0-6.3,0.1-9.5c1.6-0.1,3,1.5,2.3,3.1C78.1,8.5,77.9,8.7,77.7,8.9z"/>
	<path class="st0" d="M84.7,13.5c1-1,1.3-2.6,1.3-3.9c0-1.5-0.3-2.9-0.6-4.3c-0.1-0.3-0.3-0.4-0.6-0.4c-0.3,0.1-0.4,0.3-0.4,0.6
		c0.3,1.3,0.6,2.7,0.6,4.1c0,1.1-0.2,2.4-1,3.3c-0.5,0.5-1.2,0.6-1.7,0c-0.4-0.6-0.6-1.3-0.7-2c-0.1-1.2,0.1-2.6,0.2-3.6
		c0.1-0.3-0.1-0.5-0.4-0.6c-0.3,0-0.5,0.1-0.6,0.4c-0.2,1.1-0.4,2.6-0.3,3.9c0.1,1,0.4,1.8,0.9,2.5C82.4,14.6,83.8,14.5,84.7,13.5z"
		/>
	<path class="st0" d="M91.8,13.5c-0.6,0.2-1.3,0.2-1.7,0.1c-0.3,0-0.5,0.2-0.6,0.4c0,0.3,0.2,0.5,0.4,0.6c0.6,0.1,1.4,0.1,2.1-0.1
		c0.5-0.2,1-0.4,1.3-0.8c0.8-0.9,0.9-2,0.5-2.9c-0.3-0.6-0.8-1.1-1.5-1.4c0.3-0.5,0.5-1.1,0.4-1.7c-0.1-0.9-0.6-1.7-1.3-2.2
		c-0.7-0.5-1.7-0.6-2.5-0.6c0,0,0,0-0.1,0c0,0,0,0,0,0c-0.3,0-0.5,0.2-0.5,0.5c0,2.6-0.2,5.2,0.1,7.8c0,0.3,0.3,0.5,0.6,0.4
		s0.5-0.3,0.4-0.6c-0.3-2.4-0.1-4.8-0.1-7.2c0.5,0,1.1,0.1,1.5,0.4c0.5,0.3,0.8,0.9,0.9,1.6c0.1,0.5-0.1,1.1-0.5,1.4
		c-0.1,0.1-0.2,0.2-0.2,0.3c0,0,0,0.1,0,0.2c0,0.3,0.2,0.5,0.5,0.5c0.7,0,1.3,0.4,1.5,1c0.2,0.6,0.1,1.2-0.4,1.9
		C92.5,13.2,92.1,13.4,91.8,13.5z"/>
	<path class="st0" d="M95.5,12.3c0,0.2,0.1,0.5,0.3,0.5c1.6,0.6,3.2,0.2,4.7-0.6c0.2-0.1,0.3-0.4,0.2-0.7c-0.1-0.2-0.4-0.3-0.7-0.2
		C99,12,97.8,12.3,96.6,12c0.2-2.4,1-4.7,1.4-7c0-0.3-0.1-0.5-0.4-0.6c-0.3,0-0.5,0.1-0.6,0.4C96.6,7.3,95.7,9.7,95.5,12.3
		C95.5,12.3,95.5,12.3,95.5,12.3z"/>
	<path class="st0" d="M101.8,11.8c0,0.3,0.3,0.5,0.6,0.4c0.3,0,0.5-0.3,0.4-0.6c-0.1-0.8,0.1-1.7,0.1-2.5c0.1-1.1,0-2.1,0-3.2
		c0-0.3-0.2-0.5-0.5-0.5c-0.3,0-0.5,0.2-0.5,0.5c0,1.1,0.1,2.1,0,3.1C101.9,10,101.7,11,101.8,11.8z"/>
	<path class="st0" d="M103.4,14.7c0.6,0.3,1.5,0.2,2.1,0.1c0.4-0.1,0.8-0.4,1.1-0.6c0.2-0.2,0.5-0.4,0.7-0.7
		c0.9-1.1,0.5-2.3-0.2-3.4c-0.3-0.5-0.6-0.9-0.8-1.4c-0.2-0.4-0.4-0.8-0.4-1.2c0-0.6,0.4-1.2,0.9-1.6c0.5-0.3,1.1-0.4,1.6,0
		c0.2,0.2,0.5,0.1,0.7-0.1c0.2-0.2,0.1-0.5-0.1-0.7c-0.9-0.7-1.9-0.6-2.8-0.1c-0.8,0.5-1.4,1.4-1.4,2.4c0,0.5,0.1,0.9,0.3,1.4
		c0.3,0.6,0.7,1.2,1,1.8c0.5,0.8,0.8,1.5,0.3,2.3c-0.1,0.2-0.3,0.3-0.5,0.5c-0.2,0.2-0.5,0.4-0.8,0.5c-0.4,0.1-1,0.2-1.3,0
		c-0.2-0.1-0.5,0-0.7,0.2C103,14.3,103.1,14.6,103.4,14.7z"/>
	<path class="st0" d="M110,13.5c0.3,0,0.5-0.3,0.4-0.6c-0.1-0.7-0.1-1.4-0.1-2.1c0.9,0,1.8-0.1,2.7-0.3c-0.1,1.6-0.2,3.2-0.4,4.8
		c0,0.3,0.2,0.5,0.4,0.6s0.5-0.2,0.6-0.4c0.2-1.8,0.3-3.5,0.4-5.3c0.1-0.1,0.1-0.3,0.1-0.4c0,0,0,0,0-0.1c0.1-1.9,0.1-3.9,0.3-5.8
		c0-0.3-0.2-0.5-0.5-0.5c-0.3,0-0.5,0.2-0.5,0.5c-0.1,1.9-0.2,3.8-0.3,5.7c-0.9,0.2-1.8,0.3-2.7,0.3c0.1-1.1,0.2-2.1,0.2-3.1
		c0-0.3-0.2-0.5-0.5-0.5s-0.5,0.2-0.5,0.5c-0.1,2.1-0.4,4.3-0.2,6.4C109.5,13.4,109.7,13.5,110,13.5z"/>
	<path class="st0" d="M117.6,13.8c0.9-0.3,1.5-0.9,2.1-1.6c0.2-0.2,0.2-0.5,0-0.7c-0.2-0.2-0.5-0.2-0.7,0c-0.5,0.5-1,1.1-1.7,1.3
		c-0.8,0.2-1.5-0.3-1.6-1.1c0-0.4,0-0.9,0.1-1.3c0.1,0,0.2,0,0.2,0c0.7-0.1,1.3-0.3,2-0.5c0.3-0.1,0.4-0.3,0.4-0.6
		c-0.1-0.3-0.3-0.4-0.6-0.4c-0.6,0.1-1.1,0.3-1.7,0.4c0.3-0.7,0.6-1.4,1-2.1c1-0.2,1.9-0.5,2.9-0.7c0.3-0.1,0.4-0.3,0.4-0.6
		c-0.1-0.3-0.3-0.4-0.6-0.4c-0.9,0.2-1.7,0.4-2.6,0.6c0,0-0.1-0.1-0.1-0.1c-0.2-0.1-0.5,0-0.7,0.2c-0.8,1.5-1.9,3.6-1.8,5.4
		C114.8,13.3,116.2,14.3,117.6,13.8z"/>
	<path class="st0" d="M126.2,11.4c0.9-1.5,1-3,0.4-4.2C126,6,124.9,5,123.4,4.5c-0.2-0.1-0.3,0-0.5,0.1c0,0,0,0,0,0
		c-0.3,0-0.5,0.2-0.5,0.5c-0.1,2.4-0.6,4.8-0.8,7.1c0,0.3,0.2,0.5,0.4,0.5c0.3,0,0.5-0.2,0.5-0.4c0.2-2.3,0.7-4.5,0.8-6.7
		c1.1,0.4,2,1.1,2.4,2c0.4,1,0.4,2.1-0.4,3.3c-0.5,0.8-1.2,1.2-1.9,1.8c-0.2,0.2-0.3,0.5-0.1,0.7c0.2,0.2,0.5,0.3,0.7,0.1
		C124.8,12.8,125.6,12.3,126.2,11.4z"/>
	<path class="st0" d="M129.1,2.1c-0.2,0.2-0.3,0.5-0.1,0.7c3.2,4.1,2.6,10.2-0.6,14.1c-0.2,0.2-0.1,0.5,0.1,0.7
		c0.2,0.2,0.5,0.1,0.7-0.1c3.5-4.2,4.1-10.9,0.6-15.4C129.6,2,129.3,2,129.1,2.1z"/>
</g>
</svg>
