<?xml version="1.0" encoding="utf-8"?>
<!-- Generator: Adobe Illustrator 24.2.0, SVG Export Plug-In . SVG Version: 6.00 Build 0)  -->
<svg version="1.1" id="Calque_1" xmlns="http://www.w3.org/2000/svg" xmlns:xlink="http://www.w3.org/1999/xlink" x="0px" y="0px"
	 viewBox="0 0 99.4 18.5" style="enable-background:new 0 0 99.4 18.5;" xml:space="preserve">
<style type="text/css">
	.st0{fill-rule:evenodd;clip-rule:evenodd;}
</style>
<g>
	<path class="st0" d="M41.7,2c-2.7,2.6-3.5,8-2.2,11.4c0.4,1,0.8,2.1,1.5,2.9c0.2,0.2,0.5,0.2,0.7,0c0.2-0.2,0.2-0.5,0-0.7
		c-0.6-0.7-1-1.7-1.3-2.6c-1.2-3.1-0.5-7.9,2-10.3c0.2-0.2,0.2-0.5,0-0.7C42.2,1.8,41.9,1.8,41.7,2z"/>
	<path class="st0" d="M42.4,13c0,0.3,0.1,0.5,0.4,0.6c0.3,0,0.5-0.1,0.6-0.4c0.2-1.3,0.4-2.7,0.6-4c0.4,1.6,0.9,3.2,1.3,4.8
		c0.1,0.3,0.3,0.4,0.6,0.4c0.2-0.1,0.3-0.2,0.4-0.4c0.1-0.1,0.1-0.1,0.1-0.2c0.8-2.8,1.6-5.6,2.6-8.4c0.1-0.3,0-0.5-0.3-0.6
		c-0.3-0.1-0.5,0-0.6,0.3c-0.9,2.3-1.6,4.8-2.3,7.2c-0.5-1.8-1-3.7-1.4-5.6c0-0.3-0.3-0.5-0.6-0.4c-0.3,0-0.5,0.3-0.4,0.6
		c0,0,0,0.1,0,0.1c-0.1,0.1-0.2,0.2-0.2,0.3C43,9.1,42.7,11,42.4,13z"/>
	<path class="st0" d="M53,12c0.5-1.1,0.7-2.6,0.3-3.8c-0.2-0.6-0.7-1-1.2-1.2c-0.5-0.1-1.1,0-1.6,0.4c-0.2,0.2-0.2,0.5-0.1,0.7
		c0.2,0.2,0.5,0.2,0.7,0.1C51.3,8.1,51.5,8,51.8,8c0.2,0.1,0.4,0.3,0.5,0.5c0.3,0.9,0.2,2.1-0.2,3.1c-0.2,0.5-0.7,1.1-1.3,1.5
		c-0.3,0.2-0.5,0.3-0.8,0.2c-0.2,0-0.3-0.2-0.4-0.4c-0.6-1-0.3-2.3,0.1-3.3c0.1-0.3,0-0.5-0.3-0.6c-0.3-0.1-0.5,0-0.6,0.3
		c-0.4,1.3-0.7,2.9,0,4.1c0.3,0.5,0.6,0.7,1,0.8c0.4,0.1,0.7,0.1,1.1-0.1C51.8,13.9,52.7,12.7,53,12z"/>
	<path class="st0" d="M54.5,13.9c0.3,0.1,0.5-0.1,0.6-0.4c0.3-1.1,0.6-2.3,0.8-3.4c0.4,1.1,0.8,2.3,1.2,3.4c-0.1,0.3,0,0.5,0.3,0.6
		c0.3,0.1,0.5,0,0.6-0.3c0,0,0-0.1,0-0.1c0,0,0,0,0,0c1.1-2.9,2-5.8,3.2-8.6c0.1-0.3,0-0.5-0.3-0.7c-0.3-0.1-0.5,0-0.7,0.3
		c-1,2.4-1.8,4.9-2.7,7.4c-0.4-1.3-0.9-2.5-1.4-3.8C56.2,8,55.9,7.9,55.7,8c-0.1,0.1-0.2,0.2-0.3,0.3c-0.1,0.1-0.1,0.1-0.1,0.2
		c-0.4,1.6-0.7,3.2-1.1,4.8C54.1,13.5,54.3,13.8,54.5,13.9z"/>
	<path class="st0" d="M66.6,10.5c-0.3,0.1-0.4,0.3-0.4,0.6c0.1,0.3,0.3,0.4,0.6,0.4c0.3-0.1,0.7-0.3,0.9-0.6
		c1.1-0.9,1.2-2.3,0.7-3.5c-0.5-1.2-1.6-2-3-1.9c-0.1,0-0.2-0.1-0.2-0.1c-0.3,0-0.5,0.2-0.5,0.5c0,2.5-0.3,5-0.4,7.5
		c0,0.3,0.2,0.5,0.5,0.5c0.3,0,0.5-0.2,0.5-0.5c0.1-2.3,0.3-4.6,0.4-7c0.8,0,1.5,0.5,1.8,1.3c0.3,0.8,0.3,1.7-0.4,2.3
		C66.9,10.3,66.8,10.5,66.6,10.5z"/>
	<path class="st0" d="M70.8,7.8c0-0.3-0.2-0.5-0.5-0.5c-0.3,0-0.5,0.2-0.5,0.5c-0.1,0.9-0.2,1.8-0.2,2.6c0,0.6,0.3,2,0.8,2.7
		c0.2,0.3,0.6,0.5,0.9,0.6c0.3,0.1,0.8,0,1.2-0.3c0.2-0.2,0.5-0.4,0.6-0.6c0.2-0.3,0.4-0.6,0.6-0.9c0.9-1.9,0.8-4,0.3-6
		c-0.1-0.3-0.3-0.4-0.6-0.4c-0.3,0.1-0.4,0.3-0.4,0.6c0.4,1.8,0.5,3.7-0.3,5.4c-0.1,0.3-0.3,0.5-0.5,0.7c-0.1,0.2-0.3,0.3-0.5,0.4
		c-0.2,0.1-0.3,0.2-0.4,0.2c-0.2,0-0.4-0.3-0.5-0.5c-0.3-0.6-0.4-1.5-0.5-1.9C70.5,9.4,70.7,8.6,70.8,7.8z"/>
	<path class="st0" d="M79.5,9c0.1-0.6-0.1-1.2-0.4-1.7c-0.5-0.7-1.4-1.2-2.5-1.1c0,0,0,0-0.1,0c-0.1,0-0.1,0-0.2,0
		c-0.3,0-0.5,0.2-0.5,0.5c0.1,2.1-0.2,4.2-0.1,6.3c0,0.3,0.2,0.5,0.5,0.5c0.3,0,0.5-0.2,0.5-0.5c-0.1-1.9,0.1-3.9,0.1-5.8
		c0.6,0,1.1,0.3,1.4,0.7c0.2,0.3,0.3,0.6,0.3,0.9c-0.1,0.3-0.3,0.6-0.8,0.8c0,0-0.1,0-0.1,0.1c-0.2,0.1-0.3,0.3-0.3,0.5
		c0,0.3,0.2,0.5,0.5,0.5c0.3,0,0.7,0,1,0.2c0.8,0.4,0.9,1.2,0.7,1.9c-0.3,0.7-1,1.4-1.8,1.4c-0.3,0-0.5,0.2-0.5,0.5
		c0,0.3,0.2,0.5,0.5,0.5c1.2,0,2.3-0.9,2.8-2c0.5-1.1,0.2-2.4-1.1-3.1c-0.1,0-0.2,0-0.2-0.1C79.3,9.6,79.5,9.3,79.5,9z"/>
	<path class="st0" d="M82.9,11.7c0.4-1.5,1-3,1.6-4.4c0.1-0.3,0-0.5-0.3-0.7s-0.5,0-0.7,0.3c-0.7,1.5-1.2,3-1.6,4.5
		c-0.1,0.3-0.2,0.7-0.3,1.1c0,0.4,0,0.7,0.3,1c0.3,0.3,0.8,0.5,1.3,0.5c0.6,0,1.3-0.2,1.7-0.3c0.6-0.2,1.1-0.4,1.7-0.6
		c0.3-0.1,0.4-0.4,0.3-0.6c-0.1-0.3-0.4-0.4-0.6-0.3c-0.5,0.2-1,0.4-1.5,0.6c-0.4,0.1-0.9,0.3-1.4,0.2c-0.2,0-0.4,0-0.6-0.2
		c0,0,0-0.1,0-0.1c0-0.1,0-0.2,0-0.2C82.7,12.2,82.8,11.9,82.9,11.7z"/>
	<path class="st0" d="M88,14c0.3,0,0.5-0.3,0.5-0.5c-0.1-1.8,0.1-3.7,0.3-5.5c0-0.3-0.2-0.5-0.4-0.6c-0.3,0-0.5,0.2-0.6,0.4
		c-0.3,1.9-0.5,3.8-0.4,5.7C87.5,13.8,87.8,14,88,14z"/>
	<path class="st0" d="M91.6,8.1c0.9,0,1.7-0.1,2.5-0.4c0.3-0.1,0.4-0.4,0.3-0.6c-0.1-0.3-0.4-0.4-0.6-0.3c-0.7,0.2-1.5,0.3-2.3,0.3
		c-0.1,0-0.1,0-0.2,0c0,0,0,0,0,0c-0.2-0.1-0.5,0-0.7,0.2c-0.7,1.5-1.4,3.1-1.4,4.8c0,1.7,1.7,2.4,3.2,1.7c0.5-0.2,0.9-0.6,1.4-0.9
		c0.2-0.2,0.3-0.5,0.1-0.7c-0.2-0.2-0.5-0.3-0.7-0.1c-0.4,0.3-0.7,0.6-1.1,0.8c-0.8,0.3-1.8,0.1-1.8-0.8c0-0.3,0-0.6,0.1-0.9
		c0.1,0.1,0.3,0.1,0.4,0.1c0.4-0.1,0.9-0.2,1.4-0.4c0.3-0.1,0.4-0.3,0.4-0.6C92.5,10.1,92.3,10,92,10c-0.4,0.1-0.9,0.2-1.3,0.4
		c0.2-0.8,0.5-1.6,0.9-2.3C91.6,8.1,91.6,8.1,91.6,8.1z"/>
	<path class="st0" d="M94.9,3.4c-0.2-0.2-0.5-0.3-0.7-0.1c-0.8,0.5-1.6,1.2-2.4,1.7c-0.2,0.1-0.3,0.5-0.2,0.7
		c0.1,0.2,0.5,0.3,0.7,0.2c0.9-0.5,1.6-1.2,2.4-1.7C95,3.9,95.1,3.6,94.9,3.4z"/>
	<path class="st0" d="M97.7,12c-0.4,1.1-0.9,2.2-1.5,3.3c-0.1,0.2-0.1,0.5,0.2,0.7c0.2,0.1,0.5,0.1,0.7-0.2c0.6-1.1,1.2-2.2,1.6-3.4
		C100,8.5,99.4,4.7,98,1.1c-0.1-0.3-0.4-0.4-0.6-0.3c-0.3,0.1-0.4,0.4-0.3,0.6C98.4,4.9,99,8.4,97.7,12z"/>
	<path class="st0" d="M0.5,14.1c0,0.6,0.4,1,1,1c0.6,0,1-0.4,1-1c0.2-3.8-0.2-7.7-0.4-11.5c3.8,1.2,6.1,5,4.2,8.9
		c-0.5,1.1-1.4,1.9-2.3,2.7c-0.4,0.4-0.5,1-0.1,1.4c0.4,0.4,1,0.5,1.4,0.1c1.1-0.9,2.1-2.1,2.8-3.4C10.7,7,7.2,1.8,1.7,0.6
		c-0.3-0.1-0.6,0-0.8,0.2c0,0,0,0,0,0C0.4,0.8,0,1.3,0,1.8C0.3,5.8,0.7,10.1,0.5,14.1z"/>
	<path class="st0" d="M19.6,10.1c-0.2-0.5-0.7-0.8-1.2-0.7c-0.3,0.1-0.5,0.2-0.8,0.3c-0.4-3-0.8-6-1.3-8.9C16.1,0.3,15.5-0.1,15,0
		c-0.5,0.1-0.8,0.5-0.8,1c0,0.1-0.1,0.1-0.1,0.2c-1,3.4-2.1,6.8-3.3,10.2c-0.2,0-0.3,0.1-0.5,0.1c-0.5,0.1-0.8,0.7-0.7,1.2
		c0.1,0.3,0.3,0.5,0.5,0.6c-0.1,0.2-0.1,0.4-0.2,0.5c-0.2,0.5,0.1,1.1,0.6,1.3c0.5,0.2,1.1-0.1,1.3-0.6c0.2-0.5,0.3-1,0.5-1.5
		c1.2-0.2,2.3-0.4,3.5-0.7c0.2,1.8,0.4,3.5,0.7,5.3c0.1,0.5,0.6,0.9,1.1,0.8c0.5-0.1,0.9-0.6,0.8-1.1c-0.3-1.9-0.5-3.7-0.8-5.6
		c0.4-0.1,0.7-0.3,1.1-0.4C19.4,11.2,19.7,10.7,19.6,10.1z M15.4,10.4c-0.8,0.2-1.6,0.4-2.3,0.5c0.6-1.8,1.2-3.7,1.8-5.6
		c0.2,1.7,0.5,3.3,0.7,5C15.5,10.4,15.5,10.4,15.4,10.4z"/>
	<path class="st0" d="M18.4,4.7c0,0.5,0.5,1,1.1,0.9c0.8-0.1,1.5-0.2,2.2-0.4c0.3,3.1,0.2,6.2,0.3,9.3c0,0.6,0.5,1,1,1
		c0.6,0,1-0.5,1-1C24,11.3,24,8,23.7,4.7c0.4-0.1,0.7-0.2,1.1-0.3c1.5-0.4,3-0.7,4.4-1.3c0.5-0.2,0.8-0.8,0.6-1.3
		c-0.2-0.5-0.8-0.8-1.3-0.6c-1.4,0.5-2.8,0.8-4.3,1.2c-1.6,0.5-3.2,1-4.8,1.1C18.8,3.7,18.4,4.1,18.4,4.7z"/>
	<path class="st0" d="M36.1,3.4c-2.4,0.1-4.8,0.5-7.1,1.1c-0.4-0.1-0.9,0.1-1.1,0.5c-0.3,0.5-0.5,1.1-0.7,1.7
		c-0.2,0.5-0.3,0.9-0.5,1.4c-0.1,0.4-0.2,0.8-0.3,1.2c-0.2,1.1-0.6,2.8-0.2,4c0.3,1.1,1,2,2.5,2.1c0.4,0,0.9,0,1.3-0.1
		c0.6-0.1,1.2-0.3,1.7-0.5c0.9-0.3,1.8-0.9,2.5-1.6c0.4-0.4,0.4-1,0.1-1.4c-0.4-0.4-1-0.4-1.4-0.1c-0.5,0.5-1.2,0.9-1.8,1.2
		c-0.4,0.2-0.9,0.3-1.4,0.4c-0.2,0-0.5,0.1-0.7,0.1c-0.2,0-0.4-0.1-0.5-0.2c-0.2-0.2-0.3-0.5-0.3-0.9c0-0.5,0-1,0.1-1.5
		c0.8-0.1,1.6-0.1,2.4-0.3c0.5-0.1,0.9-0.6,0.8-1.2c-0.1-0.5-0.6-0.9-1.2-0.8c-0.5,0.1-1.1,0.1-1.6,0.2c0-0.1,0-0.1,0.1-0.2
		c0.1-0.4,0.3-0.8,0.4-1.3c0.1-0.3,0.3-0.7,0.4-1c2.2-0.6,4.4-1,6.7-1c0.6,0,1-0.5,1-1C37.1,3.9,36.6,3.4,36.1,3.4z"/>
</g>
</svg>
