<?xml version="1.0" encoding="utf-8"?>
<!-- Generator: Adobe Illustrator 24.2.0, SVG Export Plug-In . SVG Version: 6.00 Build 0)  -->
<svg version="1.1" id="Calque_1" xmlns="http://www.w3.org/2000/svg" xmlns:xlink="http://www.w3.org/1999/xlink" x="0px" y="0px"
	 viewBox="0 0 162.8 54.4" style="enable-background:new 0 0 162.8 54.4;" xml:space="preserve">
<style type="text/css">
	.st0{fill-rule:evenodd;clip-rule:evenodd;}
</style>
<g>
	<path class="st0" d="M21,19.5c-0.8-5.5-0.6-11.1-1.1-16.6c0-0.3,0-0.7-0.1-1c-0.2-1.1-1.2-2-2.4-1.8c-1.1,0.1-2,1.1-2,2.2
		C13.5,6,11.9,10,9.9,13.8c-1.3-3.4-2.2-7-3.6-10.4C5.9,2.2,4.7,1.7,3.5,2.1c-0.4,0.2-0.8,0.4-1,0.8c-1.1,0.1-2,1-2,2.1
		c-0.1,5.5,0.3,11,0.2,16.5c-0.1,3-0.7,6-0.7,9c0,1.2,1,2.2,2.2,2.2c1.2,0,2.2-1,2.2-2.2c0-3,0.6-5.9,0.7-8.9c0.1-2.9,0-5.8-0.1-8.8
		c0.7,2.1,1.4,4.1,2.4,6.1c0.6,1.1,1.9,1.5,3,1c0.3-0.2,0.5-0.4,0.7-0.6c0.6-0.1,1.1-0.5,1.4-1c1.3-2.2,2.4-4.5,3.4-6.8
		c0.1,2.9,0.3,5.7,0.7,8.6c0.5,3.8,1.9,7.5,2.5,11.3c0.2,1.2,1.4,2,2.5,1.8c1.2-0.2,2-1.4,1.8-2.5C22.8,26.8,21.5,23.2,21,19.5z"/>
	<path class="st0" d="M30.5,24.5c-0.6-6-0.1-12-0.7-18c-0.1-1.2-1.2-2.1-2.4-2c-1.2,0.1-2.1,1.2-2,2.4c0.6,6,0.1,12,0.7,18
		c0.1,1.2,1.2,2.1,2.4,2S30.6,25.7,30.5,24.5z"/>
	<path class="st0" d="M38.2,31.5c1.4-0.6,2.7-1.4,3.8-2.4c1-0.8,1.8-1.7,2.5-2.7c2.4-3.4,1.4-6.2-0.6-8.9c-1.2-1.7-3.1-3.3-3.6-5.3
		c-0.1-0.6-0.1-1.6,0.3-2.4C40.8,9.4,41,9,41.4,9.1c1.2,0.3,2.4-0.5,2.6-1.6c0.3-1.2-0.5-2.4-1.6-2.6c-3-0.7-4.9,0.9-5.9,3.1
		c-0.8,1.8-0.9,4-0.5,5.2c0.6,2.5,2.7,4.7,4.3,6.8c0.8,1.2,1.5,2.4,0.5,3.8c-0.5,0.7-1.1,1.4-1.8,2c-0.7,0.6-1.6,1.2-2.5,1.6
		c-1.1,0.5-1.7,1.7-1.2,2.9C35.7,31.4,37,31.9,38.2,31.5z"/>
	<path class="st0" d="M51.8,16.8c1.1,1.8,1.7,3.6,1.4,5.2c-0.3,1.6-1.4,3.1-3.4,4.4c-1,0.6-1.2,1.9-0.4,2.8c0.7,0.9,2.1,1,3.1,0.4
		c3.2-2.1,4.7-4.5,5.2-7c0.4-2.4-0.3-5-1.9-7.7c-0.6-1-1.6-2.3-2.1-3.7c-0.3-0.7-0.6-1.5-0.2-2.1c0.2-0.4,0.7-0.7,1.3-0.9
		c1.1-0.4,1.6-1.6,1.2-2.6c-0.5-1-1.8-1.5-2.9-1c-2,0.7-3,1.8-3.6,2.9c-0.6,1.1-0.7,2.4-0.3,3.7C49.5,13.2,50.9,15.3,51.8,16.8z"/>
	<path class="st0" d="M87.1,29c1.1-0.6,1.5-1.9,0.9-3c-0.6-1.1-1.9-1.5-3-0.9c-3.9,2-8.1,1.1-9.1-2.7C74.6,17.2,77.6,9.3,85,8.6
		c1.2-0.1,2.1-1.2,2-2.4c-0.1-1.2-1.2-2.1-2.4-2c-10.4,1-14.8,11.9-12.9,19.3C73.4,30.1,80.4,32.5,87.1,29z"/>
	<path class="st0" d="M94.5,29.9c1.2,0,2.2-1,2.1-2.3c-0.1-2.4-0.1-4.9-0.2-7.3c1.7,0.2,3.4,0.3,5.2,0.1c0,3,0.2,6,0.2,8.9
		c0,1.2,1,2.2,2.2,2.2c1.2,0,2.2-1,2.2-2.2c-0.1-6.8-0.9-14.1,1-20.7c0.3-1.2-0.3-2.4-1.5-2.7c-1.2-0.3-2.4,0.3-2.7,1.5
		c-0.8,2.8-1.1,5.7-1.3,8.6c-0.1,0-0.3,0-0.4,0c-1.6,0.3-3.2,0.1-4.8-0.1c0-2,0-4,0.1-5.9c0.1-1.2-0.9-2.2-2.1-2.3
		c-1.2-0.1-2.2,0.9-2.3,2.1c-0.3,6-0.1,12,0,18C92.3,29,93.3,29.9,94.5,29.9z"/>
	<path class="st0" d="M109.5,25.1c0,0.1,0,0.2-0.1,0.3c-0.2,1.2,0.6,2.3,1.7,2.6c1.2,0.2,2.3-0.6,2.6-1.7c0-0.1,0.1-0.3,0.1-0.4
		c1.7-0.2,3.5-0.3,5.2-0.4c0.3,0.9,0.6,1.7,0.9,2.6c0.4,1.1,1.7,1.7,2.8,1.3c1.1-0.4,1.7-1.7,1.3-2.8c-0.2-0.5-0.4-1-0.5-1.5
		c0.8-0.4,1.3-1.2,1.2-2.2c-0.1-1.2-1.2-2.1-2.4-2c-0.1,0-0.1,0-0.2,0c-1.3-4.5-2.2-9.1-3.2-13.6c-0.3-1.2-1.5-1.9-2.6-1.6
		c-0.4,0.1-0.7,0.3-0.9,0.5c-0.7,0.2-1.3,0.8-1.5,1.5c-1.3,4.8-2.7,9.6-3.7,14.4c-0.7,0.4-1.2,1.3-1.1,2.2
		C109.2,24.5,109.3,24.8,109.5,25.1z M114.9,21.2c0.5-2,1-3.9,1.5-5.9c0.4,1.9,0.9,3.8,1.4,5.7C116.8,21,115.9,21.1,114.9,21.2z"/>
	<path class="st0" d="M131.9,8.1c-1.2,0-2.2,1-2.1,2.3c0.1,4.3-0.1,8.5-0.3,12.8c-0.1,1.2,0.8,2.3,2.1,2.3c1.2,0.1,2.3-0.8,2.3-2.1
		c0.3-4.4,0.4-8.7,0.3-13.2C134.1,9.1,133.1,8.1,131.9,8.1z"/>
	<path class="st0" d="M162.2,33.3c-1.9-2-4.4-4.2-6.4-6.5c-1.8-2-3.4-4.2-3.8-6.4c-0.2-0.9,0.2-1.4,0.5-1.9c0.3-0.5,0.6-1.1,0.8-1.8
		c0.7-2.4,0.4-5-0.7-7.3c-0.6-1.3-3.3-4-5.7-4.9c-1.4-0.5-2.7-0.5-3.8,0c-0.2,0.1-0.3,0.2-0.4,0.3c-0.2,0-0.4-0.1-0.6,0
		c-1.2,0.1-2.1,1.2-1.9,2.4c0.7,6.7-0.9,12.9-1.3,19.6c-0.1,1.2,0.8,2.3,2.1,2.3c1.2,0.1,2.3-0.8,2.3-2.1c0.4-6.1,1.7-11.8,1.4-17.9
		c0.2-0.2,0.3-0.3,0.4-0.5c0.2,0.1,0.7,0.2,1,0.4c1.2,0.7,2.3,1.7,2.6,2.4c0.6,1.3,0.9,2.7,0.4,4.1c-0.3,0.8-0.7,1.4-0.9,2
		c-0.5,1-0.8,2.2-0.4,3.9c0.5,2.4,1.8,4.7,3.6,7c2.3,2.9,5.4,5.7,7.8,8.1c0.8,0.9,2.2,0.9,3.1,0C163,35.5,163,34.1,162.2,33.3z"/>
	<path class="st0" d="M101.5,52.9c-0.4,0.1-0.8,0.2-1.2,0.3c-0.3,0.1-0.6,0-0.8-0.2c-0.2-0.3-0.1-0.7,0.1-1.2c0.4-0.9,1.1-1.9,1.7-3
		c0.6-1.2,1-2.5,0.7-3.9c-0.2-0.6-0.5-1-0.9-1.2c-0.6-0.3-1.3-0.2-1.9,0.3c-0.8,0.7-1.3,2.2-1.2,3.5c0,0.3,0.3,0.5,0.6,0.5
		c0.3,0,0.5-0.3,0.5-0.6c-0.1-0.9,0.2-2.1,0.8-2.5c0.2-0.2,0.5-0.3,0.7-0.2c0.1,0.1,0.2,0.2,0.3,0.5c0.3,1.1-0.1,2.1-0.6,3.1
		c-0.6,1.1-1.3,2.2-1.7,3.1c-0.4,1-0.4,1.8,0,2.2c0.3,0.5,1,0.8,1.9,0.6c0.4-0.1,0.9-0.2,1.3-0.3c0.3-0.1,0.5-0.4,0.4-0.7
		C102.1,53,101.8,52.9,101.5,52.9z"/>
	<path class="st0" d="M105.9,44.4c-0.6,0.1-1.3,0.8-1.7,2c-0.1,0.3,0.1,0.6,0.4,0.7c0.3,0.1,0.6-0.1,0.7-0.4
		c0.1-0.4,0.3-0.7,0.5-0.9c0.1-0.2,0.3-0.3,0.4-0.3c0.1,0,0.2,0,0.3,0.1c0.2,0.1,0.4,0.4,0.5,0.7c0.4,0.9,0.3,2.2,0.1,3.1
		c-0.2,1.1-0.5,2.4-1.3,3.1c-0.1,0.1-0.2,0.2-0.3,0.2c-0.1,0-0.2-0.2-0.3-0.3c-0.3-0.5-0.4-1.3-0.4-1.9c0-0.5,0.1-0.9,0.1-1.3
		c0-0.3-0.2-0.6-0.5-0.6c-0.3,0-0.6,0.2-0.6,0.5c-0.1,0.5-0.2,1-0.2,1.5c0,0.8,0.2,1.8,0.6,2.4c0.3,0.4,0.6,0.7,1,0.8
		c0.4,0.1,0.9,0,1.4-0.4c0.9-0.8,1.4-2.3,1.6-3.7c0.2-1.2,0.3-2.7-0.2-3.8C107.4,44.7,106.6,44.3,105.9,44.4z"/>
	<path class="st0" d="M114,52.1c-0.4,0.3-0.9,0.5-1.4,0.6c-0.4,0.1-0.8,0.2-1.2,0.1c-0.2,0-0.3,0-0.5,0c-0.1,0-0.1,0-0.2-0.1
		c0,0,0,0,0-0.1c0-0.1,0.1-0.2,0.1-0.2c0.2-0.3,0.4-0.7,0.6-0.9c0.4-0.6,0.9-1.2,1.3-1.9c0.5-0.8,0.8-1.6,0.8-2.6
		c0-1.6-0.8-2.4-1.7-2.5c-0.9-0.1-1.9,0.6-2.1,2c-0.1,0.3,0.1,0.6,0.4,0.6c0.3,0.1,0.6-0.1,0.6-0.4c0.1-0.7,0.5-1.1,1-1.1
		c0.4,0,0.7,0.5,0.7,1.3c0,0.8-0.3,1.4-0.7,2c-0.4,0.7-0.9,1.3-1.3,1.9c-0.2,0.4-0.6,0.9-0.8,1.4c-0.1,0.4-0.1,0.7,0,1
		c0.1,0.3,0.4,0.5,1,0.6c0.2,0,0.4,0,0.6,0c0.5,0,0.9-0.1,1.4-0.2c0.7-0.1,1.3-0.3,1.8-0.8c0.2-0.2,0.3-0.5,0.1-0.8
		S114.3,51.9,114,52.1z"/>
	<path class="st0" d="M117.9,48.7c-0.4-0.1-0.7-0.1-1,0c-0.1-0.9-0.3-1.8-0.2-2.8c0-0.1,0-0.3,0.1-0.5c0,0,0-0.1,0.1-0.2
		c0.1,0,0.3,0,0.5,0c0.5,0,1.1,0.1,1.3,0.1c0.3,0,0.5-0.2,0.5-0.6c0-0.3-0.2-0.5-0.6-0.5c-0.3,0-1-0.1-1.5-0.1c-0.3,0-0.6,0-0.8,0.1
		c-0.3,0.1-0.5,0.4-0.6,0.7c-0.1,0.3-0.1,0.7-0.2,0.9c-0.1,1.1,0.2,2.3,0.3,3.5c0,0.3,0.3,0.5,0.6,0.5c0,0,0,0,0,0
		c0.1,0.1,0.3,0.1,0.5,0c0.2-0.1,0.4-0.2,0.6-0.1c0.3,0.1,0.7,0.2,0.8,0.6c0.1,0.4,0.1,0.8,0,1.2c-0.1,0.4-0.3,0.8-0.6,1.1
		c-0.2,0.1-0.3,0.3-0.5,0.2c-0.3-0.1-0.6,0-0.7,0.2c-0.1,0.3,0,0.6,0.2,0.7c0.5,0.2,1,0.2,1.5-0.2c0.9-0.6,1.6-2.2,1.1-3.6
		C119.1,49.1,118.4,48.8,117.9,48.7z"/>
	<path class="st0" d="M132.5,37.3C98,37.2,63.4,38.2,28.9,38.2c-0.6,0-1,0.4-1,1s0.4,1,1,1c34.5,0,69.1-1,103.6-0.9c0.6,0,1-0.4,1-1
		C133.5,37.8,133.1,37.3,132.5,37.3z"/>
</g>
</svg>
