<?xml version="1.0" encoding="utf-8"?>
<!-- Generator: Adobe Illustrator 24.2.0, SVG Export Plug-In . SVG Version: 6.00 Build 0)  -->
<svg version="1.1" id="Calque_1" xmlns="http://www.w3.org/2000/svg" xmlns:xlink="http://www.w3.org/1999/xlink" x="0px" y="0px"
	 viewBox="0 0 35.7 13.3" style="enable-background:new 0 0 35.7 13.3;" xml:space="preserve">
<style type="text/css">
	.st0{fill-rule:evenodd;clip-rule:evenodd;}
</style>
<g>
	<path class="st0" d="M34.2,9.5c-0.1,0.1-0.2,0.1-0.3,0.2c0,0-0.1,0-0.1,0.1c-0.4,0.4-0.4,1,0,1.4c0.2,0.2,0.5,0.3,0.7,0.3
		c0.2,0,0.4-0.1,0.6-0.2c0.2-0.1,0.4-0.4,0.5-0.6c0.1-0.3,0.1-0.6-0.1-0.8C35.3,9.4,34.7,9.2,34.2,9.5z"/>
	<path class="st0" d="M35.3,5.9c-0.4-0.3-1-0.1-1.3,0.2c-0.4,0.4-0.4,1,0,1.4c0.2,0.2,0.5,0.3,0.7,0.3c0.2,0,0.5-0.1,0.7-0.3
		c0.1-0.1,0.2-0.2,0.3-0.4C35.8,6.7,35.7,6.1,35.3,5.9z"/>
	<path class="st0" d="M1.6,13.3c0.6,0,1-0.5,1-1C2.4,8.8,2.3,5.3,2,1.8c-0.1-0.5-0.5-1-1.1-0.9C0.4,1,0,1.5,0,2
		c0.3,3.5,0.4,6.9,0.5,10.4C0.6,12.9,1,13.3,1.6,13.3z"/>
	<path class="st0" d="M5.7,2C5.6,1.8,5.5,1.7,5.4,1.6C5.2,1.2,4.8,1,4.4,1C3.8,1.1,3.4,1.6,3.5,2.1c0.3,3.1,0.3,6.2,0.3,9.3
		c0,0.6,0.5,1,1,1c0.6,0,1-0.5,1-1c0-1.2,0-2.4-0.1-3.6c0.5,1.5,1.1,2.9,1.9,4.2c0.3,0.5,0.9,0.6,1.4,0.3c0.1,0,0.1-0.1,0.1-0.1
		c0.3-0.1,0.5-0.4,0.6-0.8c0.5-3.4,1.1-6.9,1.9-10.3c0.1-0.5-0.2-1.1-0.7-1.2c-0.5-0.1-1.1,0.2-1.2,0.7C9,3.3,8.5,5.9,8.1,8.5
		C7.3,6.4,6.6,4.1,5.7,2z"/>
	<path class="st0" d="M15.4,10.5c-0.2,0.1-0.4,0.2-0.6,0.2c-0.3,0-0.6-0.1-0.9-0.2c-0.5-0.1-0.9-0.4-1.2-0.7c-0.4-0.4-1-0.3-1.4,0.1
		c-0.4,0.4-0.3,1,0.1,1.4c0.6,0.5,1.2,0.9,2,1.2c0.6,0.2,1.2,0.3,1.8,0.2c0.6-0.1,1-0.2,1.5-0.6c0.7-0.5,1-1.1,1.1-1.6
		c0.1-0.5,0-1.1-0.3-1.6c-0.5-1-1.9-2-2.5-2.7c-0.3-0.3-0.4-0.8-0.4-1.1c0-0.2,0-0.4,0-0.6c0-0.1,0.1-0.3,0.1-0.4
		c0,0,0.1-0.1,0.1-0.1c0.1,0,0.2,0.1,0.3,0.3c0.4,0.4,1,0.4,1.4,0c0.4-0.4,0.4-1,0-1.4c-0.9-1-1.9-1-2.6-0.7
		c-0.9,0.4-1.6,1.7-1.4,3.3c0.1,0.7,0.4,1.5,0.9,2.1c0.4,0.5,1.4,1.2,2,2c0.2,0.2,0.4,0.4,0.3,0.7C15.7,10.3,15.6,10.4,15.4,10.5z"
		/>
	<path class="st0" d="M18.3,5.4c0.4-0.2,0.9-0.5,1.3-0.7c0.1,2.2,0.2,4.4-0.1,6.6c-0.1,0.5,0.3,1,0.9,1.1c0.5,0.1,1-0.3,1.1-0.9
		c0.3-2.7,0.3-5.2,0-7.9c0.9-0.5,1.8-1,2.7-1.6c0.5-0.3,0.6-0.9,0.3-1.4c-0.3-0.5-0.9-0.6-1.4-0.3c-1.9,1.2-4,2.3-5.9,3.4
		c-0.5,0.3-0.7,0.9-0.4,1.4C17.2,5.4,17.8,5.6,18.3,5.4z"/>
	<path class="st0" d="M30.8,6.8c-0.5,0.1-1.1,0.2-1.6,0.3c-0.4-1.7-0.8-3.4-1.3-5c-0.2-0.5-0.7-0.8-1.3-0.6c-0.1,0-0.2,0.1-0.3,0.2
		c-0.4,0.1-0.7,0.4-0.8,0.8c-0.4,1.9-0.9,3.8-1.5,5.7c-0.4,0.2-0.7,0.6-0.6,1c0,0.1,0.1,0.2,0.1,0.3c-0.2,0.5-0.4,0.9-0.6,1.4
		c-0.2,0.5,0,1.1,0.5,1.3c0.5,0.2,1.1,0,1.3-0.5c0.3-0.6,0.5-1.2,0.7-1.8c0.8-0.1,1.5-0.2,2.3-0.4c0.2,0.9,0.5,1.8,0.7,2.8
		c0.2,0.5,0.7,0.8,1.2,0.7c0.5-0.2,0.8-0.7,0.7-1.2c-0.3-0.9-0.5-1.7-0.7-2.6c0.5-0.1,1-0.2,1.5-0.3c0.5-0.1,0.9-0.6,0.8-1.2
		C31.9,7,31.4,6.7,30.8,6.8z M26.2,7.7c0.2-0.7,0.4-1.4,0.6-2.1c0.2,0.6,0.3,1.3,0.5,1.9C26.9,7.6,26.6,7.6,26.2,7.7z"/>
</g>
</svg>
