<?xml version="1.0" encoding="utf-8"?>
<!-- Generator: Adobe Illustrator 24.2.0, SVG Export Plug-In . SVG Version: 6.00 Build 0)  -->
<svg version="1.1" id="Calque_1" xmlns="http://www.w3.org/2000/svg" xmlns:xlink="http://www.w3.org/1999/xlink" x="0px" y="0px"
	 viewBox="0 0 189.8 21" style="enable-background:new 0 0 189.8 21;" xml:space="preserve">
<style type="text/css">
	.st0{fill-rule:evenodd;clip-rule:evenodd;}
</style>
<g>
	<path class="st0" d="M8.2,5.3c-0.3-3.4-3.8-5.9-7-5.1C0.8,0.2,0.6,0.4,0.5,0.7C0.2,0.9,0,1.2,0,1.6c0.2,3.5,0.4,7,0.7,10.5
		C0.8,13.5,1,14.9,1,16.3c0,0.6,0.4,1,0.9,1.1c0.6,0,1-0.4,1.1-0.9c0.1-1.5-0.2-3-0.3-4.5C2.4,8.6,2.2,5.3,2,2c2-0.2,4,1.3,4.2,3.4
		C6.3,6.1,6,7,5.6,7.7C5.2,8.5,4.6,9.1,4,9.5c-0.5,0.3-0.7,0.9-0.4,1.4c0.3,0.5,0.9,0.7,1.4,0.4c0.9-0.5,1.8-1.4,2.4-2.5
		C7.9,7.6,8.3,6.3,8.2,5.3z"/>
	<path class="st0" d="M7,14.6c0,0.1,0,0.2,0,0.3c0,0.6,0.5,1,1.1,0.9c1.8-0.2,3.5-0.6,5.3-0.8c0.5-0.1,0.9-0.6,0.8-1.1
		c-0.1-0.5-0.6-0.9-1.1-0.8c-1.3,0.2-2.5,0.4-3.8,0.6c1.1-4.1,2.5-8.1,3.1-12.2c0.1-0.5-0.3-1.1-0.8-1.1c-0.5-0.1-1.1,0.3-1.1,0.8
		C9.7,5.7,8.2,10,7.1,14.4C7,14.5,7,14.6,7,14.6z"/>
	<path class="st0" d="M18.5,11.6c0.2,1.5,0.4,2.9,0.4,4.5c0,0.6,0.5,1,1,1c0.6,0,1-0.5,1-1c0-2-0.3-4-0.5-5.9c0,0,0,0,0,0
		c0,0,0,0,0,0c0-0.3-0.1-0.6-0.1-0.9c-0.3-2.7-0.5-5.4-1-8.1c-0.1-0.5-0.6-0.9-1.2-0.8c-0.5,0.1-0.8,0.6-0.8,1.1c0,0,0,0,0,0
		c-1.6,3.3-2.7,6.8-4.2,10.2c-0.2,0.5,0,1.1,0.5,1.3c0.5,0.2,1.1,0,1.3-0.5c0.1-0.2,0.1-0.3,0.2-0.5C16.3,11.8,17.4,11.8,18.5,11.6z
		 M17.8,5.1c0.2,1.4,0.3,2.9,0.4,4.3c0,0.1,0,0.2,0,0.2c-0.8,0.2-1.6,0.2-2.3,0.2C16.6,8.2,17.2,6.7,17.8,5.1z"/>
	<path class="st0" d="M26.1,16.6c0.4-0.1,0.8-0.2,1.1-0.4c0.6-0.3,1.1-0.7,1.6-1.1c0.8-0.7,1.6-1.5,2.1-2.5c0.3-0.5,0.1-1.1-0.4-1.3
		c-0.5-0.3-1.1-0.1-1.3,0.4c-0.4,0.8-1,1.4-1.6,1.9c-0.4,0.3-0.8,0.6-1.2,0.9c-0.2,0.1-0.3,0.2-0.5,0.2c-0.6,0.1-1-0.2-1.3-0.6
		c-0.2-0.4-0.3-1-0.4-1.5c-0.2-2.1,0.6-4.6,1.8-6.2c0.4-0.5,0.9-1,1.5-1.3c0.4-0.2,0.9-0.2,1.3,0.1c0.4,0.3,1.1,0.2,1.4-0.2
		c0.3-0.4,0.2-1.1-0.2-1.4c-2-1.5-4.3-0.1-5.6,1.6c-1.5,2.1-2.5,5.1-2.2,7.7C22.3,15,23.5,17.1,26.1,16.6z"/>
	<path class="st0" d="M35.6,16.1c0.5-0.1,1-0.3,1.3-0.5c0.7-0.5,1.2-1.1,1.7-1.7c0.3-0.4,0.2-1.1-0.2-1.4c-0.4-0.3-1.1-0.2-1.4,0.2
		c-0.3,0.5-0.7,0.9-1.2,1.3c-0.2,0.1-0.5,0.2-0.7,0.2c-0.4,0.1-0.6,0.1-0.8,0c-0.1-0.1-0.2-0.3-0.2-0.4c-0.1-0.3-0.1-0.7,0-1.1
		c0-0.4,0.1-0.8,0.2-1.2c0.1,0,0.3,0,0.4,0c0.7-0.2,1.5-0.5,2.2-0.8c0.5-0.2,0.8-0.8,0.5-1.3s-0.8-0.8-1.3-0.5
		c-0.4,0.1-0.7,0.3-1.1,0.4c0.6-1.2,1.3-2.4,2-3.4c0.1,0,0.1,0,0.2,0c1.1-0.3,2.2-0.7,3.4-1c0.5-0.1,0.9-0.6,0.8-1.2
		c-0.1-0.5-0.6-0.9-1.2-0.8c-1.1,0.2-2.1,0.6-3.2,0.9c-0.4-0.2-1-0.1-1.3,0.3c-1.6,2.5-3.5,5.5-3.7,8.5C32,13.8,32.3,15,33,15.6
		C33.6,16.1,34.4,16.4,35.6,16.1z"/>
	<path class="st0" d="M49.6,16c0.6,0,1-0.4,1-1c0-1.5,0.1-3,0.2-4.6c0.9-0.4,1.9-0.7,2.8-1c0.5-0.2,0.8-0.8,0.6-1.3S53.5,7.4,53,7.6
		c-0.7,0.2-1.4,0.5-2,0.7C51,7.2,51,6.1,51,5c1.9-0.6,4-1,5.9-1.4c0.5-0.1,0.9-0.7,0.7-1.2c-0.1-0.5-0.7-0.9-1.2-0.7
		c-2.1,0.5-4.3,0.9-6.3,1.6c-0.1,0-0.1,0.1-0.2,0.1c0,0,0,0-0.1,0c-0.6,0-1,0.5-1,1c0.1,3.6-0.3,7.2-0.4,10.8
		C48.6,15.6,49,16,49.6,16z"/>
	<path class="st0" d="M57.6,8.6c0.5,0.2,1.1-0.1,1.3-0.7c0.2-0.5,0.7-1.2,1.3-1.5c0.2-0.1,0.5-0.2,0.7-0.2c0.1,0,0.2,0.2,0.3,0.3
		c0.8,1.2,0.7,2.7,0.3,4c-0.5,1.4-1.2,2.8-2.5,3.5c-0.5,0.3-0.9,0.3-1.2,0.2c-0.5-0.3-0.8-1-0.7-1.8c0.1-0.7,0.3-1.3,0.4-1.9
		c0.2-0.5-0.1-1.1-0.7-1.2c-0.5-0.2-1.1,0.1-1.2,0.7c-0.2,0.8-0.4,1.5-0.5,2.3c-0.2,1.7,0.6,3.2,1.8,3.8c0.8,0.4,1.9,0.5,3.1-0.2
		c1.8-1,2.8-2.8,3.4-4.6c0.6-1.9,0.6-4-0.5-5.7c-0.4-0.6-0.9-1-1.4-1.1c-0.7-0.2-1.5-0.1-2.3,0.3c-1,0.6-1.9,1.7-2.2,2.7
		C56.7,7.8,57,8.4,57.6,8.6z"/>
	<path class="st0" d="M66.1,16.2c0.7,0.4,1.7,0.5,3-0.4c0.4-0.3,0.8-0.7,1.1-1.1c1.3-1.9,2.1-5.5,1.5-7.7c-0.1-0.5-0.7-0.9-1.2-0.7
		c-0.5,0.1-0.9,0.7-0.7,1.2c0.5,1.8-0.2,4.6-1.2,6.1c-0.2,0.3-0.4,0.5-0.7,0.6c-0.3,0.2-0.6,0.4-0.8,0.4c0,0-0.1,0-0.1-0.1
		c-0.1-0.1-0.1-0.2-0.2-0.3c-0.2-0.4-0.2-1-0.2-1.5c0-0.8,0-1.5,0.1-2.3c0.1-1.3,0.6-2.6,1-3.8C68,6,67.7,5.5,67.1,5.3
		C66.6,5.2,66,5.5,65.9,6c-0.4,1.4-0.9,2.7-1,4.2c-0.1,0.8-0.1,1.6-0.1,2.4c0,0.8,0.1,1.7,0.4,2.3C65.3,15.5,65.7,15.9,66.1,16.2z"
		/>
	<path class="st0" d="M73.7,15.6c0.5,0.1,1.1-0.3,1.1-0.9c0.2-1.4,0.5-2.9,0.7-4.3c0.4,1.5,0.9,3.1,1.5,4.5c0,0,0,0.1,0.1,0.1
		c-0.2,0.5,0,1,0.5,1.3c0.5,0.3,1.1,0.1,1.3-0.4c1.1-2.2,1.8-4.5,2.7-6.8c0.8-1.9,1.9-3.9,2.3-6C84,2.6,83.6,2.1,83.1,2
		c-0.5-0.1-1.1,0.3-1.1,0.8c-0.3,1.9-1.4,3.7-2.1,5.6c-0.5,1.4-1,2.8-1.5,4.1c-0.8-2.2-1.2-4.5-2-6.7C76.1,5.3,75.5,5,75,5.2
		c-0.2,0.1-0.3,0.1-0.4,0.3c-0.2,0.2-0.4,0.4-0.4,0.7c-0.3,2.8-0.9,5.5-1.3,8.3C72.8,15,73.2,15.5,73.7,15.6z"/>
	<path class="st0" d="M85.3,16.6c0.5,0.1,1.1-0.3,1.1-0.8C87,12.4,87.4,9,87.8,5.6c1.7,0.6,2.7,2.3,3,4c0.3,1.9-0.3,4-2.1,4.9
		c-0.5,0.3-0.7,0.9-0.4,1.3c0.3,0.5,0.9,0.7,1.3,0.4c2.6-1.3,3.6-4.3,3.1-7c-0.4-2.8-2.3-5.3-5-5.8c-0.1,0-0.3,0-0.4,0
		c-0.1,0-0.2-0.1-0.3-0.1c-0.5-0.1-1,0.3-1.1,0.9C85.5,8,85,11.8,84.5,15.5C84.4,16,84.8,16.5,85.3,16.6z"/>
	<path class="st0" d="M101.1,21c0.2-0.1,0.3-0.5,0.1-0.7c-2.7-4.2-3.2-11.5,0.1-15.5c0.2-0.2,0.2-0.5-0.1-0.7
		c-0.2-0.2-0.5-0.2-0.7,0.1c-3.6,4.3-3.1,12.1-0.2,16.6C100.6,21,100.9,21.1,101.1,21z"/>
	<path class="st0" d="M103.8,17.2c0.3,0,0.5-0.2,0.5-0.5c-0.1-2.4,0.2-4.9,0.3-7.3c1.1,2.5,2,5.1,2.9,7.6c0.1,0.2,0.3,0.4,0.6,0.3
		c0.1,0,0.1,0.1,0.2,0.1c0.3,0,0.5-0.2,0.5-0.5c0.3-3.5,0.7-6.9,1.1-10.4c0-0.3-0.2-0.5-0.4-0.6c-0.3,0-0.5,0.2-0.6,0.4
		c-0.3,3-0.7,5.9-1,8.9c-0.9-2.6-1.9-5.3-3.1-7.8c-0.1-0.2-0.4-0.4-0.7-0.2c0,0,0,0,0,0c-0.3,0-0.5,0.2-0.5,0.5c-0.1,3-0.5,6-0.4,9
		C103.3,17,103.5,17.2,103.8,17.2z"/>
	<path class="st0" d="M112,17.1c0.5,0.3,1.2,0.3,1.8-0.2c0.9-0.6,1.5-1.6,1.7-2.6c0.4-1.4,0.4-3.2-0.1-4.7c-0.2-0.6-0.6-1-1-1.1
		c-0.4-0.1-0.8-0.1-1.2,0.1c-0.5,0.3-1,0.8-1.2,1.4c-0.2,0.5-0.4,1.1-0.5,1.7c0,0.3,0.1,0.5,0.4,0.6c0.3,0,0.5-0.1,0.6-0.4
		c0.1-0.5,0.2-1,0.4-1.4c0.2-0.4,0.5-0.7,0.8-0.9c0.1-0.1,0.3-0.1,0.4-0.1c0.2,0.1,0.3,0.2,0.4,0.5c0.4,1.2,0.4,2.8,0,4.1
		c-0.2,0.8-0.6,1.6-1.3,2c-0.3,0.2-0.6,0.2-0.8,0.1c-0.3-0.1-0.4-0.4-0.5-0.8c-0.1-0.3-0.1-0.6-0.1-0.9c0-0.4,0.1-0.7,0.3-1.1
		c0.1-0.3,0-0.5-0.3-0.6c-0.3-0.1-0.5,0-0.6,0.3c-0.2,0.4-0.3,0.9-0.3,1.4c0,0.4,0,0.7,0.1,1.1C111.1,16.3,111.5,16.8,112,17.1z"/>
	<path class="st0" d="M117.8,9.2c0.6-0.2,1.2-0.3,1.7-0.5c0,0.1-0.1,0.2-0.1,0.3c0,2.6-0.4,5.3-0.3,7.9c0,0.3,0.2,0.5,0.5,0.5
		s0.5-0.2,0.5-0.5c-0.1-2.6,0.3-5.3,0.3-7.9c0-0.2-0.1-0.4-0.3-0.5c1.5-0.5,3.1-0.9,4.7-1.1c0.3,0,0.5-0.3,0.4-0.6
		c0-0.3-0.3-0.5-0.6-0.4c-2.5,0.3-4.8,1.1-7.2,1.8c-0.3,0.1-0.4,0.3-0.4,0.6C117.2,9.1,117.5,9.3,117.8,9.2z"/>
	<path class="st0" d="M133.1,17c0.3,0,0.5-0.2,0.5-0.5c-0.1-3.2,0-6.3,0.1-9.5c1.6-0.1,3,1.5,2.3,3.1c-0.1,0.2-0.3,0.4-0.5,0.6
		c-0.4,0.3-1,0.6-1.3,0.8c-0.2,0.1-0.3,0.4-0.2,0.7c0.1,0.2,0.4,0.3,0.7,0.2c0.4-0.2,1-0.5,1.4-0.9c0.4-0.3,0.7-0.6,0.8-0.9
		c1.1-2.3-1-4.7-3.3-4.5c-0.1-0.1-0.2-0.2-0.4-0.2c-0.3,0-0.5,0.2-0.5,0.5c-0.1,3.4-0.2,6.8-0.1,10.3C132.6,16.8,132.8,17,133.1,17z
		"/>
	<path class="st0" d="M139.3,15.2c0.8,1.1,2.3,1,3.2,0.1c1-1,1.3-2.6,1.3-3.9c0-1.5-0.3-2.9-0.6-4.3c-0.1-0.3-0.3-0.4-0.6-0.4
		c-0.3,0.1-0.4,0.3-0.4,0.6c0.3,1.3,0.6,2.7,0.6,4.1c0,1.1-0.2,2.4-1,3.3c-0.5,0.5-1.2,0.6-1.7,0c-0.4-0.6-0.6-1.3-0.7-2
		c-0.1-1.2,0.1-2.6,0.2-3.6c0.1-0.3-0.1-0.5-0.4-0.6c-0.3-0.1-0.5,0.1-0.6,0.4c-0.2,1.1-0.4,2.6-0.3,3.9
		C138.5,13.7,138.7,14.5,139.3,15.2z"/>
	<path class="st0" d="M146.8,15.3c0.3,0,0.5-0.3,0.4-0.6c-0.3-2.4-0.1-4.8-0.1-7.2c0.5,0,1.1,0.1,1.5,0.4c0.5,0.3,0.8,0.9,0.9,1.6
		c0.1,0.5-0.1,1.1-0.5,1.4c-0.1,0.1-0.2,0.2-0.2,0.3c0,0,0,0.1,0,0.2c0,0.3,0.2,0.5,0.5,0.5c0.8,0,1.3,0.4,1.5,1
		c0.2,0.6,0.1,1.2-0.4,1.9c-0.2,0.2-0.5,0.4-0.8,0.5c-0.6,0.2-1.3,0.2-1.7,0.1c-0.3,0-0.5,0.2-0.6,0.4c0,0.3,0.2,0.5,0.4,0.6
		c0.6,0.1,1.4,0.1,2.1-0.1c0.5-0.2,1-0.4,1.3-0.8c0.8-0.9,0.9-2,0.5-2.9c-0.3-0.6-0.8-1.1-1.5-1.4c0.3-0.5,0.5-1.1,0.4-1.7
		c-0.1-0.9-0.6-1.7-1.3-2.2c-0.7-0.5-1.7-0.6-2.5-0.6c0,0,0,0-0.1,0c0,0,0,0,0,0c-0.3,0-0.5,0.2-0.5,0.5c0,2.6-0.2,5.2,0.1,7.8
		C146.2,15.1,146.5,15.3,146.8,15.3z"/>
	<path class="st0" d="M153.6,14.6c1.6,0.6,3.2,0.2,4.7-0.6c0.2-0.1,0.3-0.4,0.2-0.7c-0.1-0.2-0.4-0.3-0.7-0.2
		c-1.1,0.6-2.3,0.9-3.5,0.6c0.2-2.4,1-4.7,1.4-7c0-0.3-0.1-0.5-0.4-0.6c-0.3,0-0.5,0.1-0.6,0.4c-0.4,2.5-1.3,4.9-1.5,7.4
		c0,0,0,0,0,0.1C153.2,14.3,153.4,14.5,153.6,14.6z"/>
	<path class="st0" d="M159.6,13.6c0,0.3,0.3,0.5,0.6,0.4c0.3,0,0.5-0.3,0.4-0.6c-0.1-0.8,0.1-1.7,0.1-2.5c0.1-1.1,0-2.1,0-3.2
		c0-0.3-0.2-0.5-0.5-0.5c-0.3,0-0.5,0.2-0.5,0.5c0,1.1,0.1,2.1,0,3.1C159.6,11.8,159.4,12.7,159.6,13.6z"/>
	<path class="st0" d="M161.1,16.4c0.6,0.3,1.5,0.2,2.1,0.1c0.4-0.1,0.8-0.4,1.1-0.6c0.2-0.2,0.5-0.4,0.7-0.7
		c0.9-1.1,0.5-2.3-0.2-3.4c-0.3-0.5-0.6-0.9-0.8-1.4c-0.2-0.4-0.4-0.8-0.4-1.2c0-0.6,0.4-1.2,0.9-1.6c0.5-0.3,1.1-0.4,1.6,0
		c0.2,0.2,0.5,0.1,0.7-0.1c0.2-0.2,0.1-0.5-0.1-0.7c-0.9-0.7-1.9-0.6-2.8-0.1c-0.8,0.5-1.4,1.4-1.4,2.4c0,0.5,0.1,0.9,0.3,1.4
		c0.3,0.6,0.7,1.2,1,1.8c0.5,0.8,0.8,1.5,0.3,2.3c-0.1,0.2-0.3,0.3-0.5,0.5c-0.2,0.2-0.5,0.4-0.8,0.5c-0.4,0.1-1,0.2-1.3,0
		c-0.2-0.1-0.5,0-0.7,0.2C160.7,16,160.8,16.3,161.1,16.4z"/>
	<path class="st0" d="M167.7,15.3c0.3,0,0.5-0.3,0.4-0.6c-0.1-0.7-0.1-1.4-0.1-2.1c0.9,0,1.8-0.1,2.6-0.3c-0.1,1.6-0.2,3.2-0.4,4.8
		c0,0.3,0.2,0.5,0.4,0.6c0.3,0,0.5-0.2,0.6-0.4c0.2-1.8,0.3-3.5,0.4-5.3c0.1-0.1,0.1-0.3,0.1-0.4c0,0,0,0,0-0.1
		c0.1-1.9,0.1-3.9,0.3-5.8c0-0.3-0.2-0.5-0.5-0.5c-0.3,0-0.5,0.2-0.5,0.5c-0.1,1.9-0.2,3.8-0.3,5.7c-0.9,0.2-1.8,0.3-2.7,0.3
		c0.1-1.1,0.2-2.1,0.2-3.1c0-0.3-0.2-0.5-0.5-0.5c-0.3,0-0.5,0.2-0.5,0.5c-0.1,2.1-0.4,4.3-0.2,6.4
		C167.2,15.1,167.5,15.3,167.7,15.3z"/>
	<path class="st0" d="M175.3,15.6c0.9-0.3,1.5-0.9,2.1-1.6c0.2-0.2,0.2-0.5,0-0.7c-0.2-0.2-0.5-0.2-0.7,0c-0.5,0.5-1,1.1-1.7,1.3
		c-0.8,0.2-1.5-0.3-1.6-1.1c0-0.4,0-0.9,0.1-1.3c0.1,0,0.2,0,0.2,0c0.7-0.1,1.3-0.3,2-0.5c0.3-0.1,0.4-0.3,0.4-0.6
		c-0.1-0.3-0.3-0.4-0.6-0.4c-0.6,0.1-1.1,0.3-1.7,0.4c0.3-0.7,0.6-1.4,1-2.1c1-0.2,1.9-0.5,2.9-0.7c0.3-0.1,0.4-0.3,0.4-0.6
		c-0.1-0.3-0.3-0.4-0.6-0.4c-0.9,0.2-1.7,0.4-2.6,0.6c0,0-0.1-0.1-0.1-0.1c-0.2-0.1-0.5,0-0.7,0.2c-0.8,1.5-1.9,3.6-1.8,5.4
		C172.5,15.1,173.9,16,175.3,15.6z"/>
	<path class="st0" d="M179.7,14.5c0.3,0,0.5-0.2,0.5-0.4c0.2-2.3,0.7-4.5,0.8-6.8c1.1,0.4,2,1.1,2.4,2c0.4,1,0.4,2.1-0.4,3.3
		c-0.5,0.8-1.2,1.2-1.9,1.8c-0.2,0.2-0.3,0.5-0.1,0.7c0.2,0.2,0.5,0.3,0.7,0.1c0.8-0.6,1.6-1.2,2.2-2.1c0.9-1.5,1-3,0.4-4.2
		c-0.5-1.2-1.7-2.2-3.2-2.7c-0.2-0.1-0.3,0-0.5,0.1c0,0,0,0,0,0c-0.3,0-0.5,0.2-0.5,0.5c-0.1,2.4-0.6,4.8-0.8,7.1
		C179.2,14.2,179.4,14.5,179.7,14.5z"/>
	<path class="st0" d="M186.8,3.9c-0.2,0.2-0.3,0.5-0.1,0.7c3.2,4.1,2.6,10.2-0.6,14.1c-0.2,0.2-0.1,0.5,0.1,0.7
		c0.2,0.2,0.5,0.1,0.7-0.1c3.5-4.2,4.1-10.9,0.6-15.4C187.3,3.8,187,3.7,186.8,3.9z"/>
</g>
</svg>
