<?xml version="1.0" encoding="utf-8"?>
<!-- Generator: Adobe Illustrator 24.2.0, SVG Export Plug-In . SVG Version: 6.00 Build 0)  -->
<svg version="1.1" id="Calque_1" xmlns="http://www.w3.org/2000/svg" xmlns:xlink="http://www.w3.org/1999/xlink" x="0px" y="0px"
	 viewBox="0 0 218 18.4" style="enable-background:new 0 0 218 18.4;" xml:space="preserve">
<style type="text/css">
	.st0{fill-rule:evenodd;clip-rule:evenodd;}
</style>
<g>
	<path class="st0" d="M8.5,11.7c-0.9,0.8-1.9,1.5-3,2.1c-0.6,0.4-1.2,0.8-1.9,1.1c-0.4,0.2-0.7,0.3-1.1,0.3c-0.2,0-0.3,0-0.4,0
		c0,0,0,0-0.1,0c0-0.1,0-0.3,0-0.5C2.2,13.8,2.8,12.7,3,12C4.1,8.4,5.4,4.9,6.4,1.3C6.6,0.7,6.2,0.2,5.7,0C5.2-0.1,4.6,0.2,4.5,0.7
		c-1,3.6-2.3,7.1-3.4,10.7C0.8,12.3,0,14,0,15.2c0,0.7,0.3,1.2,0.8,1.6c0.4,0.3,1,0.5,1.9,0.4c0.6-0.1,1.2-0.2,1.8-0.5
		c0.7-0.3,1.4-0.8,2.1-1.2c1.1-0.7,2.2-1.5,3.2-2.3c0.4-0.4,0.5-1,0.1-1.4C9.5,11.4,8.9,11.4,8.5,11.7z"/>
	<path class="st0" d="M12.7,1.7c-0.6,0-1,0.4-1,1c0,3.7-0.5,7.3-0.5,11c0,0.6,0.4,1,1,1c0.6,0,1-0.4,1-1c0-3.7,0.5-7.3,0.5-11
		C13.7,2.1,13.3,1.7,12.7,1.7z"/>
	<path class="st0" d="M24.1,13.9c0.4-0.3,0.5-1,0.2-1.4c-0.3-0.4-1-0.5-1.4-0.2c-0.8,0.6-1.6,1.1-2.4,1.5c-0.7,0.4-1.5,0.9-2.4,0.9
		c-1.1,0-1.6-1.2-1.5-2.2c0-0.5,0.2-1,0.3-1.5c0.2,0.1,0.4,0.2,0.7,0.1c1.1-0.2,2.1-0.5,3.1-0.8c0.5-0.2,0.8-0.8,0.6-1.3
		c-0.2-0.5-0.8-0.8-1.3-0.6c-0.8,0.3-1.7,0.5-2.5,0.7c0.6-1.5,1.4-3,2.2-4.3c1.9-0.3,3.8-0.9,5.8-1.3C26,3.5,26.4,3,26.3,2.5
		c-0.1-0.5-0.6-0.9-1.2-0.8c-1.7,0.3-3.4,0.8-5.1,1.1c0,0,0,0,0,0c-0.5-0.3-1.1-0.2-1.4,0.3c-1.7,2.5-3.6,6.3-3.9,9.4
		c-0.2,2.1,1.1,4.4,3.4,4.4c1.2,0,2.4-0.6,3.4-1.2C22.4,15.1,23.3,14.6,24.1,13.9z"/>
	<path class="st0" d="M33.8,2c-0.1-0.5-0.6-0.9-1.1-0.8c-0.5,0.1-0.9,0.6-0.8,1.1c0.4,2.8,0.9,6.4-0.5,9c-0.4,0.7-1.1,1.5-1.9,1.9
		c-0.3,0.1-0.5,0.2-0.8,0.1c-0.3-0.1-0.5-0.3-0.6-0.6c-0.8-1.4-0.5-3.5-0.1-5.1c0.1-0.5-0.2-1.1-0.7-1.2S26.1,6.5,26,7.1
		c-0.5,1.9-0.7,4.6,0.2,6.5c0.5,1,1.2,1.5,1.9,1.6c0.7,0.2,1.4,0.1,2.2-0.2c1.2-0.5,2.3-1.7,2.8-2.8C34.7,9.2,34.3,5.2,33.8,2z"/>
	<path class="st0" d="M40.5,13.8c0.5,0,1-0.4,1.1-0.9c0.2-2.9,0.4-5.8,0.4-8.7c1.8,0.9,3.2,2.2,3.6,3.9c0.3,1.3,0,2.7-0.9,4.1
		c-0.7,1-1.6,1.9-2.6,2.7c-0.4,0.3-0.5,1-0.2,1.4c0.3,0.4,1,0.5,1.4,0.2c1.2-0.9,2.3-2,3.1-3.2c1.2-2,1.5-3.9,1.1-5.6
		c-0.6-2.5-2.7-4.6-5.7-5.7c-0.3-0.1-0.6-0.1-0.8,0.1c-0.5,0-1,0.5-1,1c0,3.3-0.1,6.5-0.4,9.7C39.5,13.3,39.9,13.8,40.5,13.8z"/>
	<path class="st0" d="M50.6,15.2c1.2,0.2,2.7-0.1,3.7-0.7c0.9-0.6,1.8-1.3,2.6-2.1c0.4-0.4,0.4-1,0-1.4c-0.4-0.4-1-0.4-1.4,0
		c-0.7,0.7-1.4,1.3-2.2,1.9c-0.6,0.4-1.5,0.6-2.3,0.5c-0.3,0-0.5-0.1-0.7-0.3c-0.2-0.2-0.2-0.4-0.2-0.7c0-0.6,0.1-1.3,0.3-1.9
		c0.2,0.3,0.6,0.4,1,0.3c0.9-0.2,1.7-0.5,2.5-0.8c0.5-0.2,0.7-0.8,0.5-1.3C54.1,8,53.6,7.7,53,8c-0.7,0.3-1.4,0.5-2.2,0.7
		c0.4-1,0.9-2,1.4-2.9c0,0,0,0,0,0c1.7-0.5,3.4-0.8,5.1-1.3c0.5-0.2,0.8-0.7,0.7-1.2s-0.7-0.8-1.2-0.7c-1.7,0.5-3.4,0.9-5.1,1.3
		c-0.1,0-0.3,0.1-0.4,0.2c-0.3,0-0.6,0.2-0.7,0.5c-1.3,2.2-2.6,5.1-2.6,7.6c0,0.9,0.3,1.6,0.8,2.1C49.3,14.8,49.9,15.1,50.6,15.2z"
		/>
	<path class="st0" d="M64.5,15.3c0.4,0.1,0.8,0.1,1.2,0.1c0.6,0,1.2-0.1,1.8-0.2c1-0.2,1.9-0.6,2.8-1.1c0.5-0.2,0.7-0.8,0.5-1.3
		c-0.2-0.5-0.8-0.7-1.3-0.5c-0.8,0.4-1.6,0.7-2.5,0.9c-0.4,0.1-0.9,0.2-1.3,0.2c-0.3,0-0.5,0-0.8-0.1c-0.3-0.1-0.5-0.2-0.6-0.3
		c-0.2-0.3-0.1-0.7-0.1-1.2c0.2-1.2,0.9-2.4,1.2-3.2c0.2-0.5,0.3-0.9,0.5-1.4c0.2-0.6,0.5-1.2,0.8-1.9c0.3-0.7,0.6-1.4,1-2
		C68,3,67.9,2.4,67.4,2.1C66.9,1.8,66.3,2,66,2.5c-0.4,0.7-0.8,1.4-1.1,2.2c-0.3,0.7-0.6,1.3-0.8,2c-0.2,0.4-0.3,0.9-0.5,1.3
		c-0.4,1-1.3,2.9-1.4,4.4c0,0.7,0.1,1.3,0.5,1.8C63.1,14.7,63.6,15.1,64.5,15.3z"/>
	<path class="st0" d="M69.2,11.4c0.1,0.3,0.3,0.5,0.5,0.6c0.5,0.2,1.1,0,1.3-0.5c0,0,0,0,0-0.1c1.2,0,2.4-0.1,3.6-0.3
		c0.2,1.7,0.5,3.4,0.9,5.1c0.1,0.5,0.6,0.9,1.2,0.8c0.5-0.1,0.9-0.6,0.8-1.2c-0.4-1.6-0.6-3.3-0.9-5c0.3-0.1,0.7-0.1,1-0.2
		c0.5-0.1,0.9-0.7,0.7-1.2c-0.1-0.5-0.7-0.9-1.2-0.7c-0.2,0.1-0.5,0.1-0.8,0.2c-0.3-2.2-0.6-4.5-1-6.7c-0.1-0.5-0.6-0.9-1.2-0.8
		c-0.5,0.1-0.9,0.6-0.8,1.1c-0.1,0.1-0.2,0.2-0.2,0.3C72,5,70.9,7.2,69.8,9.5c-0.1,0-0.2,0-0.2,0c-0.6,0-1,0.4-1,1
		C68.6,10.9,68.8,11.2,69.2,11.4z M73.9,5.8c0.2,1.1,0.3,2.3,0.5,3.4c-0.8,0.1-1.5,0.2-2.3,0.2C72.7,8.2,73.3,7,73.9,5.8z"/>
	<path class="st0" d="M80.3,5.4c1.4-0.1,2.9-0.4,4.3-0.7c0.2,3.2-0.2,6.5,0.1,9.7c0.1,0.5,0.5,0.9,1.1,0.9s0.9-0.5,0.9-1.1
		c-0.3-3.3,0.1-6.7-0.2-10c2-0.6,4-1.2,6-1.7c0.5-0.1,0.9-0.7,0.7-1.2c-0.1-0.5-0.7-0.9-1.2-0.7c-3.9,0.9-7.9,2.6-12,2.9
		c-0.5,0-1,0.5-0.9,1.1C79.3,5,79.8,5.4,80.3,5.4z"/>
	<path class="st0" d="M96.5,16.6c-0.9-1.1-1.6-2.4-2.4-3.6c1-0.7,1.6-1.8,1.7-3c0.1-1.4-0.3-2.9-1.2-3.8C94,5.5,93.1,5,92.2,4.9
		c-0.3-0.1-0.7-0.1-1,0c-0.1-0.1-0.3-0.1-0.4-0.1c-0.6,0-1,0.4-1,0.9c-0.2,3.5-0.6,7.2-0.4,10.7c0,0.6,0.5,1,1,0.9
		c0.6,0,1-0.5,0.9-1c-0.2-3.1,0.2-6.3,0.4-9.4c0.1,0,0.2,0,0.2,0c0.5,0.1,1,0.3,1.3,0.6c0.5,0.5,0.7,1.4,0.6,2.2
		c-0.1,0.7-0.4,1.5-1.1,1.7c0,0-0.1,0-0.1,0.1c-0.2,0-0.5,0-0.7,0.2c-0.4,0.3-0.5,1-0.2,1.4c1.2,1.5,2,3.3,3.2,4.8
		c0.3,0.4,1,0.5,1.4,0.1C96.8,17.7,96.8,17,96.5,16.6z"/>
	<path class="st0" d="M98.8,15.2c0.7,0.3,1.6,0.2,2.4-0.1c1.4-0.6,2.8-2,3.3-3.1c0.7-1.6,1.1-4,0.3-5.7c-1.5-3-5.1-1.7-6.4,0.5
		c-0.3,0.5-0.1,1.1,0.3,1.4c0.5,0.3,1.1,0.1,1.4-0.3c0.4-0.6,1-1.1,1.7-1.3c0.5-0.1,0.9,0,1.2,0.6c0.6,1.2,0.2,2.9-0.3,4
		c-0.2,0.6-0.9,1.3-1.7,1.7c-0.5,0.3-1.1,0.6-1.5,0.4c-0.2-0.1-0.4-0.4-0.5-0.8c-0.1-0.5-0.1-1-0.1-1.5c0-0.5-0.4-1-0.9-1.1
		c-0.5-0.1-1,0.4-1.1,0.9c-0.1,0.7-0.1,1.4,0.1,2.2C97.4,14.3,98.1,14.9,98.8,15.2z"/>
	<path class="st0" d="M107.8,13.2c0.5,0.7,1.1,1.1,1.7,1.2c0.7,0.1,1.5,0,2.3-0.8c0.4-0.3,0.7-0.7,0.9-1.1c1.3-2,1.3-5.1,0.8-7.4
		c-0.1-0.5-0.7-0.9-1.2-0.8c-0.5,0.1-0.9,0.7-0.8,1.2c0.4,1.8,0.5,4.2-0.6,5.9c-0.2,0.3-0.4,0.5-0.6,0.7c-0.3,0.2-0.4,0.4-0.6,0.4
		c-0.2,0-0.3-0.2-0.4-0.4c-0.5-0.7-0.7-1.8-0.8-2.5c0-1.1,0.1-2.2,0.2-3.2c0.1-0.5-0.3-1-0.9-1.1c-0.5-0.1-1,0.3-1.1,0.9
		c-0.1,1.2-0.3,2.4-0.2,3.5C106.8,10.7,107.1,12.2,107.8,13.2z"/>
	<path class="st0" d="M117.1,13.4c0,0.1,0,0.1,0.1,0.1c-0.1,0.4,0.1,0.8,0.5,1c0.5,0.3,1.1,0.1,1.4-0.4c1.6-3.1,3.1-6.4,4.7-9.6
		c0.2-0.5,0-1.1-0.5-1.3c-0.5-0.2-1.1,0-1.3,0.5c-1.1,2.3-2.2,4.7-3.4,7.1c-0.5-2.1-1-4.3-1.6-6.4c-0.1-0.5-0.7-0.8-1.2-0.7
		c-0.5,0.1-0.8,0.7-0.7,1.2C115.8,7.7,116.4,10.6,117.1,13.4z"/>
	<path class="st0" d="M121.8,12.1c0,0.3,0.1,0.5,0.2,0.7c-0.1,0.3-0.3,0.6-0.4,0.9c-0.2,0.5,0.1,1.1,0.6,1.3
		c0.5,0.2,1.1-0.1,1.3-0.6c0.2-0.4,0.3-0.9,0.5-1.3c1.2,0,2.5-0.1,3.7-0.3c0.1,0.8,0.3,1.6,0.4,2.4c0.1,0.5,0.6,0.9,1.2,0.8
		c0.5-0.1,0.9-0.6,0.8-1.2c-0.2-1.1-0.4-2.1-0.5-3.2c0-0.1,0-0.2,0-0.3c0,0,0-0.1-0.1-0.1c-0.4-2.6-0.8-5.3-1.1-7.9
		c-0.1-0.5-0.6-0.9-1.1-0.9c-0.4,0.1-0.7,0.3-0.8,0.6c-0.1,0.1-0.3,0.2-0.3,0.4c-0.9,2.6-2.3,5-3.4,7.6
		C122.2,11.2,121.8,11.6,121.8,12.1z M126.8,7.1c0.2,1.3,0.4,2.5,0.5,3.8c-0.8,0.1-1.6,0.2-2.5,0.2C125.5,9.8,126.2,8.4,126.8,7.1z"
		/>
	<path class="st0" d="M131.6,12.4c0.6,0,1-0.5,0.9-1.1c-0.1-1.6,0.1-3.3,0.2-5c0-0.6-0.4-1-1-1c-0.6,0-1,0.4-1,1
		c-0.1,1.7-0.3,3.5-0.2,5.2C130.5,12,131,12.4,131.6,12.4z"/>
	<path class="st0" d="M135.4,16c0.9-0.1,2.1-0.7,2.7-0.9c0.5-0.2,0.7-0.8,0.5-1.3c-0.2-0.5-0.8-0.7-1.3-0.5
		c-0.4,0.2-0.9,0.5-1.5,0.7c-0.2,0.1-0.3,0.1-0.5,0.1h0c0-0.1,0-0.3,0-0.4c0.1-0.5,0.2-1,0.3-1.3c0.5-2.8,1.2-5.5,2.1-8.3
		c0.2-0.5-0.1-1.1-0.7-1.3c-0.5-0.2-1.1,0.1-1.3,0.7c-0.9,2.8-1.6,5.6-2.2,8.5c-0.1,0.4-0.4,1.4-0.4,2.1c0,0.6,0.2,1.1,0.5,1.4
		C134.1,15.9,134.7,16.1,135.4,16z"/>
	<path class="st0" d="M142.5,16c0.5-0.1,0.9-0.2,1.4-0.4c0.7-0.2,1.3-0.5,1.9-0.8c0.5-0.2,0.7-0.8,0.5-1.3c-0.2-0.5-0.8-0.7-1.3-0.5
		c-0.5,0.3-1.1,0.5-1.7,0.7c-0.4,0.1-0.7,0.2-1.1,0.3c-0.2,0-0.3,0-0.4,0c0-0.1,0-0.4,0-0.5c0.1-0.4,0.2-0.9,0.2-1.3
		c0.4-2.1,1.1-4,1.7-6.1c0.3-0.8,0.5-1.5,0.7-2.3c0.2-0.5-0.1-1.1-0.7-1.2c-0.5-0.2-1.1,0.1-1.2,0.7c-0.2,0.7-0.4,1.5-0.7,2.2
		c-0.7,2.1-1.4,4.1-1.8,6.3c-0.1,0.6-0.3,1.4-0.3,2c0,0.7,0.2,1.3,0.6,1.6C140.8,15.9,141.4,16.2,142.5,16z"/>
	<path class="st0" d="M147.7,14.7c0.3,0.3,0.8,0.5,1.4,0.6c0.5,0,1,0,1.4-0.1c0.5-0.1,1.1-0.3,1.6-0.5c0.9-0.4,1.7-1,2.5-1.7
		c0.4-0.4,0.5-1,0.1-1.4c-0.4-0.4-1-0.5-1.4-0.1c-0.7,0.5-1.3,1.1-2.1,1.4c-0.4,0.2-0.7,0.3-1.1,0.4c-0.3,0.1-0.6,0.1-0.8,0.1
		c-0.5,0-0.5-0.5-0.5-1c0-0.7,0.2-1.4,0.4-2c0.2,0.1,0.4,0.1,0.6,0.1c0.4-0.1,0.8-0.2,1.2-0.3c0.5-0.1,0.8-0.7,0.7-1.2
		c-0.1-0.5-0.7-0.8-1.2-0.7c-0.2,0.1-0.4,0.1-0.6,0.1c0.2-0.4,0.3-0.8,0.5-1.2c0.2-0.4,0.4-0.9,0.7-1.3c0,0,0.1,0,0.1,0
		c1.4,0,2.7-0.3,4-0.7c0.5-0.1,0.9-0.7,0.7-1.2c-0.1-0.5-0.7-0.9-1.2-0.7c-1.2,0.3-2.3,0.6-3.6,0.6c-0.1,0-0.1,0-0.2,0c0,0,0,0,0,0
		c-0.5-0.3-1.1-0.1-1.4,0.4c-0.4,0.6-0.7,1.3-1,1.9c-0.3,0.5-0.5,1-0.7,1.6c-0.2,0.4-0.3,0.9-0.4,1.3c-0.2,0.8-0.8,2.6-0.7,3.8
		C146.9,13.7,147.1,14.3,147.7,14.7z"/>
	<path class="st0" d="M159.6,18.2c0.2,0.2,0.5,0.2,0.7,0c0.2-0.2,0.2-0.5,0-0.7c-0.6-0.7-1-1.7-1.3-2.6c-1.2-3.1-0.5-7.9,2-10.3
		c0.2-0.2,0.2-0.5,0-0.7c-0.2-0.2-0.5-0.2-0.7,0c-2.7,2.6-3.5,8-2.2,11.4C158.4,16.3,158.9,17.4,159.6,18.2z"/>
	<path class="st0" d="M160.9,14.9c0,0.3,0.1,0.5,0.4,0.6c0.3,0,0.5-0.1,0.6-0.4c0.2-1.3,0.4-2.7,0.6-4c0.4,1.6,0.9,3.2,1.3,4.8
		c0.1,0.3,0.3,0.4,0.6,0.3c0.2-0.1,0.3-0.2,0.4-0.4c0.1-0.1,0.1-0.1,0.1-0.2c0.8-2.8,1.6-5.6,2.6-8.4c0.1-0.3,0-0.5-0.3-0.6
		c-0.3-0.1-0.5,0-0.6,0.3c-0.9,2.3-1.6,4.8-2.3,7.2c-0.5-1.8-1-3.7-1.4-5.6c0-0.3-0.3-0.5-0.6-0.4c-0.3,0-0.5,0.3-0.4,0.6
		c0,0,0,0.1,0,0.1c-0.1,0.1-0.2,0.2-0.2,0.3C161.5,11,161.2,13,160.9,14.9z"/>
	<path class="st0" d="M167.3,11.3c-0.4,1.3-0.7,2.9,0,4.1c0.3,0.5,0.6,0.7,1,0.8c0.4,0.1,0.7,0.1,1.1-0.1c0.9-0.4,1.9-1.5,2.2-2.2
		c0.5-1.1,0.7-2.6,0.3-3.8c-0.2-0.6-0.7-1-1.2-1.2c-0.5-0.1-1.1,0-1.6,0.4c-0.2,0.2-0.2,0.5-0.1,0.7c0.2,0.2,0.5,0.3,0.7,0.1
		c0.2-0.2,0.5-0.3,0.8-0.2c0.2,0.1,0.4,0.3,0.5,0.5c0.3,0.9,0.2,2.1-0.2,3.1c-0.2,0.5-0.7,1.1-1.3,1.5c-0.3,0.2-0.5,0.3-0.8,0.2
		c-0.2,0-0.3-0.2-0.4-0.4c-0.6-1-0.3-2.3,0.1-3.3c0.1-0.3,0-0.5-0.3-0.6C167.6,10.9,167.4,11,167.3,11.3z"/>
	<path class="st0" d="M173.1,15.8c0.3,0.1,0.5-0.1,0.6-0.4c0.3-1.1,0.6-2.3,0.8-3.4c0.4,1.1,0.8,2.3,1.2,3.4c-0.1,0.3,0,0.5,0.3,0.6
		c0.3,0.1,0.5,0,0.6-0.3c0,0,0-0.1,0-0.1c0,0,0,0,0,0c1.1-2.9,2-5.8,3.2-8.6c0.1-0.3,0-0.5-0.3-0.7c-0.3-0.1-0.5,0-0.7,0.3
		c-1,2.4-1.8,4.9-2.7,7.4c-0.4-1.3-0.9-2.5-1.4-3.8c-0.1-0.3-0.4-0.4-0.7-0.3c-0.1,0.1-0.2,0.2-0.3,0.3c-0.1,0.1-0.1,0.1-0.1,0.2
		c-0.4,1.6-0.7,3.2-1.1,4.8C172.7,15.5,172.8,15.7,173.1,15.8z"/>
	<path class="st0" d="M183.4,15.9c0.3,0,0.5-0.2,0.5-0.5c0.1-2.3,0.3-4.6,0.4-7c0.8,0,1.5,0.5,1.8,1.3c0.3,0.8,0.3,1.7-0.4,2.3
		c-0.1,0.1-0.3,0.3-0.5,0.3c-0.3,0.1-0.4,0.3-0.4,0.6c0.1,0.3,0.3,0.4,0.6,0.4c0.3-0.1,0.7-0.3,0.9-0.6c1.1-0.9,1.2-2.3,0.7-3.5
		c-0.5-1.2-1.6-2-3-1.9c-0.1,0-0.2-0.1-0.2-0.1c-0.3,0-0.5,0.2-0.5,0.5c0,2.5-0.3,5-0.4,7.5C182.9,15.7,183.1,15.9,183.4,15.9z"/>
	<path class="st0" d="M189.9,15.6c0.3,0.1,0.8,0,1.2-0.3c0.2-0.2,0.5-0.4,0.6-0.6c0.2-0.3,0.4-0.6,0.6-0.9c0.9-1.9,0.8-4,0.3-6
		c-0.1-0.3-0.3-0.4-0.6-0.4s-0.4,0.3-0.4,0.6c0.4,1.8,0.5,3.7-0.3,5.4c-0.1,0.3-0.3,0.5-0.5,0.7c-0.1,0.2-0.3,0.3-0.5,0.4
		c-0.2,0.1-0.3,0.2-0.4,0.2c-0.2,0-0.4-0.3-0.5-0.5c-0.3-0.6-0.4-1.5-0.5-1.9c0-0.8,0.1-1.7,0.2-2.5c0-0.3-0.2-0.5-0.5-0.5
		c-0.3,0-0.5,0.2-0.5,0.5c-0.1,0.9-0.2,1.8-0.2,2.6c0,0.6,0.3,2,0.8,2.7C189.2,15.3,189.5,15.5,189.9,15.6z"/>
	<path class="st0" d="M197.9,11.9c-0.1,0-0.2,0-0.2-0.1c0.2-0.3,0.4-0.6,0.4-0.9c0.1-0.6-0.1-1.2-0.4-1.7c-0.5-0.7-1.4-1.2-2.5-1.1
		c0,0,0,0-0.1,0c-0.1,0-0.1,0-0.2,0c-0.3,0-0.5,0.2-0.5,0.5c0.1,2.1-0.2,4.2-0.1,6.3c0,0.3,0.2,0.5,0.5,0.5c0.3,0,0.5-0.2,0.5-0.5
		c-0.1-1.9,0.1-3.9,0.1-5.8c0.6,0,1.1,0.3,1.4,0.7c0.2,0.3,0.3,0.6,0.3,0.9c-0.1,0.3-0.3,0.6-0.8,0.8c0,0-0.1,0-0.1,0.1
		c-0.2,0.1-0.3,0.2-0.3,0.4c0,0.3,0.2,0.5,0.5,0.5c0.3,0,0.7,0,1,0.2c0.8,0.4,0.9,1.2,0.7,1.9c-0.3,0.7-1,1.3-1.8,1.4
		c-0.3,0-0.5,0.2-0.5,0.5s0.2,0.5,0.5,0.5c1.2,0,2.3-0.9,2.8-2C199.5,13.9,199.3,12.6,197.9,11.9z"/>
	<path class="st0" d="M204.7,14.2c-0.5,0.2-1,0.4-1.5,0.6c-0.4,0.1-0.9,0.3-1.4,0.2c-0.2,0-0.4,0-0.6-0.2c0,0,0-0.1,0-0.1
		c0-0.1,0-0.2,0-0.2c0.1-0.3,0.2-0.6,0.2-0.8c0.4-1.5,1-3,1.6-4.4c0.1-0.3,0-0.5-0.3-0.7s-0.5,0-0.7,0.3c-0.7,1.5-1.2,3-1.6,4.5
		c-0.1,0.3-0.2,0.7-0.3,1.1c0,0.4,0,0.7,0.3,1c0.3,0.3,0.8,0.5,1.3,0.5c0.6,0,1.3-0.2,1.7-0.3c0.6-0.2,1.1-0.4,1.7-0.6
		c0.3-0.1,0.4-0.4,0.3-0.6C205.3,14.2,205,14.1,204.7,14.2z"/>
	<path class="st0" d="M207,9.3c-0.3,0-0.5,0.2-0.6,0.4c-0.3,1.9-0.5,3.8-0.4,5.7c0,0.3,0.3,0.5,0.5,0.5c0.3,0,0.5-0.3,0.5-0.5
		c-0.1-1.8,0.1-3.7,0.3-5.5C207.5,9.6,207.3,9.3,207,9.3z"/>
	<path class="st0" d="M212.4,8.7c-0.7,0.2-1.5,0.3-2.3,0.3c-0.1,0-0.1,0-0.2,0c0,0,0,0,0,0c-0.2-0.1-0.5,0-0.7,0.2
		c-0.7,1.5-1.4,3.1-1.4,4.8c0,1.7,1.7,2.4,3.2,1.7c0.5-0.2,0.9-0.6,1.4-0.9c0.2-0.2,0.3-0.5,0.1-0.7c-0.2-0.2-0.5-0.3-0.7-0.1
		c-0.4,0.3-0.7,0.6-1.1,0.8c-0.8,0.3-1.8,0.1-1.8-0.8c0-0.3,0-0.6,0.1-0.9c0.1,0.1,0.3,0.1,0.4,0.1c0.4-0.1,0.9-0.2,1.4-0.4
		c0.3-0.1,0.4-0.3,0.4-0.6c-0.1-0.3-0.3-0.4-0.6-0.4c-0.4,0.1-0.9,0.2-1.3,0.4c0.2-0.8,0.5-1.6,0.9-2.3c0,0,0.1,0,0.1,0
		c0.9,0,1.7-0.1,2.5-0.4c0.3-0.1,0.4-0.4,0.3-0.6C213,8.8,212.7,8.6,212.4,8.7z"/>
	<path class="st0" d="M212.8,5.2c-0.8,0.5-1.6,1.2-2.4,1.7c-0.2,0.1-0.3,0.5-0.2,0.7c0.1,0.2,0.5,0.3,0.7,0.2
		c0.9-0.5,1.6-1.2,2.4-1.7c0.2-0.2,0.3-0.5,0.1-0.7C213.3,5.1,213,5,212.8,5.2z"/>
	<path class="st0" d="M216.5,3c-0.1-0.3-0.4-0.4-0.6-0.3c-0.3,0.1-0.4,0.4-0.3,0.6c1.3,3.4,1.9,7,0.7,10.5c-0.4,1.1-0.9,2.2-1.5,3.3
		c-0.1,0.2-0.1,0.5,0.2,0.7c0.2,0.1,0.5,0.1,0.7-0.2c0.6-1.1,1.2-2.2,1.6-3.4C218.5,10.5,217.9,6.6,216.5,3z"/>
</g>
</svg>
