<?xml version="1.0" encoding="utf-8"?>
<!-- Generator: Adobe Illustrator 24.2.0, SVG Export Plug-In . SVG Version: 6.00 Build 0)  -->
<svg version="1.1" id="Calque_1" xmlns="http://www.w3.org/2000/svg" xmlns:xlink="http://www.w3.org/1999/xlink" x="0px" y="0px"
	 viewBox="0 0 12 7.9" style="enable-background:new 0 0 12 7.9;" xml:space="preserve">
<style type="text/css">
	.st0{fill-rule:evenodd;clip-rule:evenodd;}
</style>
<g>
	<path class="st0" d="M5.5,0c-0.3-0.1-0.5,0-0.6,0.3C4.2,2.1,3.8,4,3.5,5.9C2.6,4.4,2.1,2.5,1.4,1.1C1.3,0.9,1.2,0.8,1,0.8
		C1,0.6,0.8,0.4,0.6,0.4c-0.3,0-0.5,0.2-0.5,0.5c0,1.9,0.2,3.8-0.1,5.7c0,0.3,0.2,0.5,0.4,0.6C0.7,7.2,1,7,1,6.7
		c0.2-1.3,0.1-2.6,0.1-3.8c0.6,1.5,1.2,3.1,2,4.3c0.1,0.1,0.1,0.1,0.2,0.2c0.1,0.1,0.2,0.2,0.3,0.2c0.3,0,0.5-0.1,0.6-0.4
		C4.6,5,5,2.7,5.8,0.7C5.9,0.4,5.7,0.1,5.5,0z"/>
	<path class="st0" d="M12,1.9c-0.1-0.7-0.4-1.2-0.8-1.4c-0.4-0.2-1.1-0.2-1.9,0.2C8.8,0.9,8.7,1.1,8.4,1.3C8.2,1.5,8.1,1.8,8.3,2
		C8.5,2.3,8.8,2.3,9,2.1c0.3-0.2,0.4-0.3,0.7-0.5c0.3-0.1,0.5-0.2,0.7-0.3c0.1,0,0.2,0,0.3,0C10.9,1.5,10.9,1.7,11,2
		c0.1,0.8-0.1,2-0.4,2.9C10.3,5.5,10.1,6,9.9,6.2C9.5,6.8,9.1,7,8.7,6.9C8.3,6.8,8.1,6.3,8,5.7C8,5.1,8,4.5,8.2,3.9
		C8.2,3.7,8,3.4,7.8,3.4C7.5,3.3,7.2,3.5,7.2,3.7C7,4.4,7,5.1,7,5.8c0.1,1.2,0.7,1.9,1.3,2.1c0.7,0.2,1.5,0,2.3-1
		c0.2-0.3,0.5-0.9,0.8-1.6C11.8,4.2,12.1,2.9,12,1.9z"/>
</g>
</svg>
