<?xml version="1.0" encoding="utf-8"?>
<!-- Generator: Adobe Illustrator 24.2.0, SVG Export Plug-In . SVG Version: 6.00 Build 0)  -->
<svg version="1.1" id="Calque_1" xmlns="http://www.w3.org/2000/svg" xmlns:xlink="http://www.w3.org/1999/xlink" x="0px" y="0px"
	 viewBox="0 0 175.2 36.4" style="enable-background:new 0 0 175.2 36.4;" xml:space="preserve">
<style type="text/css">
	.st0{fill-rule:evenodd;clip-rule:evenodd;}
</style>
<g>
	<path class="st0" d="M10.1,10.3C9.6,10,9,10.2,8.7,10.7c-0.5,0.8-1,1.7-1.8,2.2c-0.5,0.4-1.2,0.6-1.8,0.6c-1.7,0-2.6-1.2-3-2.7
		c-0.4-1.6,0-3.5,0.9-4.7c1.2-1.5,3.4-1.2,4.4,0.5C7.7,7,8.3,7.2,8.8,6.9C9.3,6.6,9.4,6,9.2,5.5C7.5,2.7,3.7,2.1,1.5,4.8
		C0.2,6.5-0.3,9,0.2,11.2c0.5,2.3,2.1,4.2,4.9,4.2c1.1,0,2.1-0.3,2.9-0.9c1.1-0.7,1.7-1.7,2.4-2.8C10.7,11.2,10.6,10.6,10.1,10.3z"
		/>
	<path class="st0" d="M18.4,5.2c-1.2-2.2-4.3-2.1-5.6,0.1c-0.3,0.5-0.1,1.1,0.4,1.4s1.1,0.1,1.4-0.4c0.5-0.8,1.6-0.9,2.1-0.1
		c0.8,1.5,0.8,3.4,0.3,5c-0.2,0.5-0.4,0.9-0.7,1.3c-0.3,0.3-0.6,0.6-0.9,0.9c-0.7,0.5-1.5-0.1-1.8-0.9c-0.3-0.9-0.1-2,0.2-2.9
		c0.2-0.5-0.1-1.1-0.6-1.3C12.6,8.2,12,8.4,11.8,9c-0.4,1.3-0.7,2.9-0.2,4.2c0.7,2,2.9,3.2,4.9,1.8c0.5-0.3,0.9-0.8,1.3-1.2
		c0.5-0.6,0.8-1.3,1.1-2C19.6,9.7,19.5,7.1,18.4,5.2z"/>
	<path class="st0" d="M29.7,0.9c-0.5-0.2-1.1,0.2-1.2,0.7c-0.9,3-1.6,6.1-2.5,9c-0.7-2.1-1.4-4.3-2.2-6.4c-0.2-0.5-0.8-0.8-1.3-0.6
		C22.3,3.7,22.1,3.9,22,4c-0.2,0.1-0.4,0.4-0.5,0.6c-0.6,2.8-0.9,5.8-1.4,8.7c-0.1,0.5,0.3,1.1,0.8,1.2c0.5,0.1,1.1-0.3,1.2-0.8
		c0.3-1.9,0.6-3.8,0.9-5.6c0.7,2,1.4,4,2,6c0.2,0.5,0.7,0.8,1.3,0.6c0.3-0.1,0.5-0.3,0.6-0.6c0.1-0.1,0.1-0.1,0.1-0.2
		C28.4,10,29.3,6,30.4,2.1C30.6,1.6,30.3,1,29.7,0.9z"/>
	<path class="st0" d="M32.1,14.9c0,0.6,0.4,1,0.9,1.1c0.6,0,1-0.4,1.1-0.9c0.2-3,0.2-6,0.4-9c0-0.2-0.1-0.4-0.2-0.6
		c1.5-0.8,3.1-1.7,4.6-2.6c0.5-0.3,0.7-0.9,0.4-1.4C39,1,38.4,0.8,38,1.1c-2.7,1.5-5.2,3.1-8,4.3c-0.5,0.2-0.7,0.8-0.5,1.3
		c0.2,0.5,0.8,0.7,1.3,0.5c0.6-0.3,1.1-0.5,1.7-0.8C32.3,9.2,32.3,12,32.1,14.9z"/>
	<path class="st0" d="M42.2,6.4c0.5-0.1,0.9-0.6,0.8-1.2c-0.1-0.5-0.6-0.9-1.2-0.8c-1.1,0.2-2.1,0.5-3.1,0.8c-0.4-0.1-0.8,0.1-1,0.5
		c-1.2,2-2.1,4.3-2.4,6.6c-0.1,1.1,0.2,2,0.8,2.6c0.6,0.6,1.6,0.9,2.8,0.5c0.6-0.2,1.2-0.5,1.7-0.8c0.8-0.5,1.5-1.1,2.1-1.8
		c0.4-0.4,0.3-1.1-0.1-1.4c-0.4-0.4-1.1-0.3-1.4,0.1c-0.5,0.6-1,1-1.6,1.4c-0.4,0.3-0.8,0.4-1.3,0.6c-0.4,0.1-0.7,0.1-0.8,0
		c-0.2-0.2-0.2-0.5-0.2-0.9c0-0.4,0.1-0.9,0.2-1.3c0.3,0.2,0.6,0.3,0.9,0.2c0.6-0.2,1.1-0.4,1.7-0.6c0.5-0.2,0.8-0.8,0.5-1.3
		c-0.2-0.5-0.8-0.8-1.3-0.5c-0.4,0.2-0.8,0.3-1.2,0.5c0.3-0.8,0.7-1.5,1-2.2C40.1,6.9,41.2,6.6,42.2,6.4z"/>
	<path class="st0" d="M51.5,6.1c-0.4-0.3-1.1-0.3-1.4,0.2C49.6,7,49,7.6,48.4,8.3c-0.6-1.3-1.3-2.6-2-3.9c-0.3-0.5-0.9-0.7-1.4-0.4
		c-0.5,0.3-0.7,0.9-0.4,1.4c0.8,1.5,1.5,3,2.3,4.5c-0.9,1-1.8,2-2.7,2.9c-0.4,0.4-0.4,1,0,1.4c0.4,0.4,1,0.4,1.4,0
		c0.7-0.8,1.5-1.6,2.2-2.4c0.6,1.1,1.1,2.3,1.8,3.4c0.3,0.5,0.9,0.6,1.4,0.4c0.5-0.3,0.6-0.9,0.4-1.4c-0.7-1.3-1.4-2.6-2.1-3.9
		c0.8-0.9,1.6-1.8,2.3-2.8C52,7.1,52,6.4,51.5,6.1z"/>
	<path class="st0" d="M62.8,1.8c-0.1-0.5-0.6-0.9-1.2-0.8C57.9,1.9,54,2.7,50.2,3c-0.5,0-1,0.5-0.9,1.1c0,0.6,0.5,1,1.1,0.9
		c1.5-0.1,2.9-0.3,4.4-0.6c0.3,3-0.1,6,0.3,9c0.1,0.5,0.6,0.9,1.1,0.8c0.5-0.1,0.9-0.6,0.8-1.1c-0.4-3,0-6.1-0.3-9.1
		C58.5,3.8,60.3,3.4,62,3C62.6,2.9,62.9,2.4,62.8,1.8z"/>
	<path class="st0" d="M61.6,6.7c1.8-0.4,3.5-0.8,5.2-1.2c0.5-0.1,0.9-0.6,0.8-1.2c-0.1-0.5-0.6-0.9-1.2-0.8c-1.7,0.4-3.3,0.7-5,1.1
		c0,0,0,0,0,0c-0.5-0.2-1.1,0-1.3,0.5c-0.3,0.6-0.6,1.2-0.8,1.9c-0.2,0.5-0.3,1-0.5,1.5c-0.3,1.1-0.4,2.9-0.1,4.2
		c0.2,0.8,0.7,1.5,1.3,1.9c0.6,0.4,1.5,0.6,2.7,0.2c0.7-0.2,1.3-0.5,1.8-0.9c0.7-0.5,1.3-1,1.9-1.6c0.4-0.4,0.4-1,0-1.4
		c-0.4-0.4-1-0.4-1.4,0c-0.5,0.5-1,0.9-1.5,1.3c-0.4,0.3-0.9,0.5-1.3,0.7c-0.4,0.1-0.8,0.2-1,0c-0.3-0.2-0.4-0.5-0.5-0.8
		c-0.1-0.5-0.2-1-0.2-1.5c0.8,0,1.5-0.2,2.3-0.4c0.5-0.1,0.9-0.7,0.7-1.2c-0.1-0.5-0.7-0.9-1.2-0.7c-0.5,0.1-1,0.2-1.5,0.3
		c0.1-0.3,0.2-0.6,0.3-0.9C61.3,7.4,61.5,7.1,61.6,6.7z"/>
	<path class="st0" d="M68.2,17c0.4,0.4,1,0.5,1.4,0.1c1.1-1,1.5-2.8,1.4-4c-0.1-0.5-0.5-0.9-1.1-0.9c-0.5,0.1-1,0.5-0.9,1.1
		c0.1,0.7-0.1,1.7-0.7,2.2C67.9,16,67.9,16.6,68.2,17z"/>
	<path class="st0" d="M81.2,10.4c0.2,0.4,0.6,0.6,1,0.5c0.4,0.2,1,0,1.2-0.4c0.7-1.2,1.4-2.3,2.1-3.5c0.6,3.1,0.8,6.5,1.1,9.6
		c0,0.5,0.5,1,1.1,0.9c0.5,0,1-0.5,0.9-1.1c-0.3-3.9-0.5-8.4-1.7-12.1c-0.2-0.5-0.7-0.8-1.3-0.7C85.3,3.8,85.1,4,85,4.3
		c-1,1.3-1.8,2.7-2.7,4.1c-0.8-1.6-1.7-3.2-2.6-4.8c-0.3-0.5-0.9-0.6-1.4-0.4c-0.3,0.2-0.5,0.5-0.5,0.8c-0.2,0.2-0.3,0.4-0.3,0.7
		c0.1,3.6-0.2,7.3,0,11c0,0.6,0.5,1,1.1,0.9c0.6,0,1-0.5,0.9-1.1c-0.1-2.7,0-5.4,0-8.1C80.2,8.5,80.6,9.5,81.2,10.4z"/>
	<path class="st0" d="M90.9,15.3c0.6,0,1-0.4,1-1c0-2.7,0-5.3-0.1-8c0-0.6-0.5-1-1-1c-0.6,0-1,0.5-1,1c0.1,2.6,0.1,5.3,0.1,8
		C89.9,14.9,90.3,15.3,90.9,15.3z"/>
	<path class="st0" d="M96.6,9.6c-0.2-0.3-0.4-0.6-0.4-1c0-0.4,0.2-0.6,0.5-0.7c0.4-0.2,1-0.1,1.3,0.1c0.5,0.3,1.1,0.2,1.4-0.3
		c0.3-0.5,0.2-1.1-0.3-1.4C98.2,5.8,97,5.6,96,6c-1.1,0.4-2,1.4-1.8,2.8c0.1,1,0.7,1.8,1.3,2.6c0.1,0.2,0.3,0.4,0.4,0.6
		c0.1,0.1,0.2,0.3,0.1,0.4c0,0.2-0.2,0.4-0.5,0.7c-0.3,0.3-0.6,0.6-1,0.7c-0.4,0.2-0.8,0.3-1.3,0.3c-0.6,0-1,0.4-1,1
		c0,0.6,0.4,1,1,1c0.8,0,1.6-0.2,2.3-0.5c0.5-0.3,1-0.7,1.4-1c0.8-0.7,1.1-1.4,1.1-2c0-0.6-0.2-1.2-0.6-1.8
		C97.2,10.4,96.8,10,96.6,9.6z"/>
	<path class="st0" d="M105.3,12.4c-0.5,0.4-1,0.8-1.6,1c-0.5,0.2-0.8,0.3-1.3,0.4c-0.4,0.1-0.7,0.1-0.9,0c-0.1-0.1-0.1-0.2-0.1-0.3
		c-0.1-0.3,0-0.6,0-1c0-0.3,0.1-0.6,0.2-0.9c0.2,0.1,0.4,0.1,0.5,0.1c0.5-0.1,1-0.2,1.5-0.4c0.5-0.2,0.8-0.8,0.6-1.3
		c-0.2-0.5-0.8-0.8-1.3-0.6c-0.2,0.1-0.4,0.1-0.6,0.2c0.2-0.3,0.3-0.6,0.4-0.8c0.2-0.4,0.5-0.7,0.8-1.1c0,0,0.1,0,0.1,0
		c1.6-0.1,3-0.4,4.5-0.9c0.5-0.2,0.8-0.7,0.7-1.2c-0.2-0.5-0.7-0.8-1.2-0.7c-1.4,0.4-2.7,0.7-4.1,0.8c-0.1,0-0.1,0-0.2,0.1
		c-0.4-0.1-0.8,0-1.1,0.3c-0.4,0.5-0.8,1-1.1,1.6c-0.5,0.8-1.4,2.8-1.7,4.5c-0.2,1.3,0.1,2.5,0.8,3.1c0.5,0.4,1.3,0.7,2.5,0.5
		c0.6-0.1,1-0.3,1.6-0.5c0.8-0.3,1.5-0.8,2.2-1.4c0.4-0.4,0.5-1,0.1-1.4C106.3,12.1,105.7,12,105.3,12.4z"/>
	<path class="st0" d="M121.6,13.9c0.4-0.4,0.5-1,0.1-1.4s-1-0.5-1.4-0.1c-0.6,0.5-1.2,1-1.9,1.4c-0.7,0.3-1.3,0.4-1.7,0.1
		c-0.4-0.2-0.7-0.7-0.7-1.4c0-0.3,0-0.7,0.1-1c0.1,0,0.2,0,0.3,0c0.8-0.1,1.6-0.3,2.4-0.5c0.5-0.2,0.8-0.7,0.7-1.2
		c-0.2-0.5-0.7-0.8-1.2-0.7c-0.5,0.2-1,0.3-1.5,0.4c0.3-0.8,0.7-1.6,1.1-2.4c0.1,0,0.2,0,0.3,0c1.2-0.2,2.5-0.3,3.7-0.6
		c0.5-0.1,0.9-0.6,0.8-1.2c-0.1-0.5-0.6-0.9-1.2-0.8c-1,0.2-2.1,0.3-3.1,0.5c-0.1-0.1-0.2-0.2-0.3-0.3c-0.5-0.3-1.1-0.1-1.4,0.4
		c-1.3,2.2-2.6,4.9-2.5,7.5c0.1,1.5,0.7,2.5,1.7,3.1c1,0.5,2.2,0.6,3.6-0.1C120.1,15.1,120.9,14.5,121.6,13.9z"/>
	<path class="st0" d="M124.8,13.8c0.2-1.4,0.5-2.8,0.7-4.2c0.5,1.8,0.9,3.6,1.5,5.3c-0.1,0.4,0.1,0.9,0.5,1.1
		c0.5,0.3,1.1,0.1,1.4-0.4c1.9-3.5,3.1-7.4,4.7-11c0.2-0.5,0-1.1-0.5-1.3c-0.5-0.2-1.1,0-1.3,0.5c-1.2,2.8-2.2,5.7-3.5,8.5
		c-0.6-2.2-1.1-4.4-1.9-6.6c-0.1-0.4-0.5-0.7-0.9-0.7c0,0-0.1,0-0.1-0.1c-0.5-0.1-1.1,0.3-1.2,0.8c-0.5,2.6-1,5.2-1.4,7.8
		c-0.1,0.5,0.3,1.1,0.8,1.1C124.2,14.7,124.7,14.3,124.8,13.8z"/>
	<path class="st0" d="M138.7,7.4c0.4-0.2,1-0.2,1.4-0.1c0.5,0.2,1.1-0.1,1.3-0.6c0.2-0.5-0.1-1.1-0.6-1.3c-0.9-0.3-2.1-0.3-3,0.1
		c-1.1,0.5-1.8,1.5-1.4,3c0.3,0.9,1.1,2.1,1.6,3.3c0.2,0.4,0.3,0.8,0.1,1.1c-0.1,0.2-0.3,0.4-0.6,0.5c-0.3,0.2-0.7,0.4-1.1,0.4
		c-0.7,0.1-1.2,0-1.8-0.1c-0.5-0.1-1.1,0.2-1.2,0.7s0.2,1.1,0.7,1.2c0.9,0.2,1.7,0.3,2.6,0.2c0.6-0.1,1.2-0.4,1.8-0.7
		c0.8-0.4,1.2-1,1.5-1.5c0.3-0.8,0.2-1.7-0.1-2.7c-0.4-1.1-1.2-2.2-1.5-3.1c0-0.2-0.1-0.3,0-0.4C138.5,7.5,138.6,7.4,138.7,7.4z"/>
	<path class="st0" d="M145.7,12.5c-0.5,0.3-1.2,0.5-1.8,0.4c-0.4-0.1-0.7-0.3-0.8-0.8c-0.1-2.1,1.6-4.2,3.7-4.3c0.6,0,1-0.5,1-1
		c0-0.6-0.5-1-1-1c-3.1,0.1-5.8,3.3-5.6,6.4c0.1,1.6,1.1,2.4,2.4,2.7c1.1,0.2,2.4-0.1,3.2-0.6c0.5-0.3,0.6-0.9,0.3-1.4
		C146.8,12.3,146.2,12.2,145.7,12.5z"/>
	<path class="st0" d="M149.2,7.6c-0.7,1-1.9,3.2-1.9,4.9c0,0.8,0.2,1.5,0.7,1.9c0.4,0.5,1.1,0.8,2.2,0.8c0.6,0,1.1-0.1,1.6-0.3
		c0.7-0.2,1.3-0.6,2-1c0.5-0.3,0.6-0.9,0.3-1.4c-0.3-0.5-0.9-0.6-1.4-0.3c-0.5,0.3-0.9,0.6-1.4,0.7c-0.3,0.1-0.7,0.2-1,0.2
		c-0.4,0-0.7,0-0.8-0.2c-0.1-0.1-0.1-0.3-0.1-0.4c0-0.2,0-0.4,0.1-0.7c0-0.2,0.1-0.4,0.2-0.6c0.1,0.1,0.3,0.1,0.5,0.1
		c0.5,0,0.4,0,0.9-0.1c0.5-0.1,0.9-0.6,0.8-1.2c-0.1-0.5-0.6-0.9-1.2-0.8c0,0,0,0,0,0c0.1-0.2,0.3-0.4,0.4-0.6
		c0.1-0.2,0.3-0.4,0.5-0.6c0.1,0,0.2,0,0.3,0c0.9-0.1,1.7-0.3,2.5-0.5c0.5-0.1,0.8-0.7,0.7-1.2c-0.1-0.5-0.7-0.8-1.2-0.7
		c-0.7,0.2-1.4,0.4-2.2,0.4c-0.4-0.2-1-0.2-1.3,0.2C149.8,6.7,149.4,7.1,149.2,7.6z"/>
	<path class="st0" d="M152,2.7c0.3,0.4,1,0.5,1.4,0.2c0.4-0.3,0.5-1,0.2-1.4c-0.2-0.3-0.4-0.6-0.6-0.9c-0.3-0.5-0.9-0.7-1.3-0.4
		c-0.5,0.3-0.7,0.9-0.4,1.3C151.5,1.9,151.8,2.3,152,2.7z"/>
	<path class="st0" d="M164,6.5c0.3-0.5,0.1-1.1-0.4-1.4c-0.5-0.3-1.1-0.1-1.4,0.4c-1.1,1.9-1.9,3.9-2.8,5.9c-0.5-1.5-0.9-3-1.5-4.5
		c-0.1-0.2-0.2-0.3-0.3-0.4c-0.1-0.3-0.5-0.6-0.9-0.6c-0.5,0-1,0.4-1.1,0.9c-0.2,2.2-0.4,4.3-0.7,6.5c-0.1,0.5,0.3,1,0.9,1.1
		c0.5,0.1,1-0.3,1.1-0.9c0.1-0.8,0.2-1.5,0.3-2.3c0.3,1,0.7,2.1,1.1,3c0,0.2,0.1,0.5,0.3,0.6c0.3,0.3,0.8,0.5,1.2,0.3
		c0.4-0.2,0.6-0.6,0.6-1C161.6,11.6,162.7,9,164,6.5z"/>
	<path class="st0" d="M169.3,12.5c-0.5,0.4-1,0.7-1.6,0.9c-0.4,0.2-0.9,0.3-1.3,0.3c-0.2,0-0.5,0-0.7-0.1c-0.3-0.1-0.5-0.2-0.7-0.4
		c-0.2-0.4-0.1-0.8,0-1.3c0,0,0,0,0-0.1c0.2,0.2,0.5,0.2,0.7,0.2c0.5-0.1,1.1-0.1,1.6-0.2c0.5-0.1,0.9-0.6,0.8-1.2
		c-0.1-0.5-0.6-0.9-1.2-0.8c-0.4,0.1-0.8,0.1-1.2,0.2c0.3-0.5,0.5-0.9,0.8-1.3c0.2-0.3,0.4-0.6,0.6-0.9c0.2,0.1,0.3,0.1,0.5,0.1
		c1.5-0.2,2.9-0.5,4.4-0.7c0.5-0.1,0.9-0.6,0.8-1.2c-0.1-0.5-0.6-0.9-1.2-0.8c-1.5,0.2-2.9,0.5-4.4,0.7c-0.1,0-0.2,0.1-0.3,0.1
		c0,0,0,0,0,0c-0.5-0.3-1.1-0.1-1.4,0.4c-0.2,0.4-0.5,0.9-0.8,1.3c-0.7,1.1-1.8,3-2,4.7c-0.1,0.7,0.1,1.4,0.4,1.9
		c0.3,0.6,0.9,1,1.8,1.3c0.5,0.2,1,0.2,1.5,0.1c0.6-0.1,1.2-0.2,1.8-0.5c0.7-0.3,1.4-0.7,2.1-1.2c0.4-0.3,0.5-1,0.2-1.4
		C170.4,12.3,169.7,12.2,169.3,12.5z"/>
	<path class="st0" d="M174.4,12.5c-0.5-0.1-1.1,0.3-1.1,0.8c-0.2,1.4-0.8,2.6-1.9,3.6c-0.4,0.4-0.4,1,0,1.4c0.4,0.4,1,0.4,1.4,0
		c1.3-1.3,2.1-2.8,2.4-4.7C175.3,13.1,174.9,12.6,174.4,12.5z"/>
	<path class="st0" d="M29.2,26.1c-0.4,0.1-0.8,0.2-1.1,0.3c-0.5-2.1-1.1-4.1-1.6-6.2c-0.2-0.5-0.7-0.8-1.2-0.7
		c-0.4,0.1-0.6,0.4-0.7,0.7c-0.1,0.1-0.2,0.2-0.3,0.4c-1,2.4-1.9,4.9-2.7,7.4c-0.6,0.1-1.2,0.3-1.8,0.4c-0.5,0.1-0.9,0.6-0.8,1.1
		c0.1,0.5,0.6,0.9,1.1,0.8c0.3,0,0.5-0.1,0.8-0.2c-0.3,0.9-0.6,1.7-0.9,2.6c-0.2,0.5,0.1,1.1,0.6,1.3c0.5,0.2,1.1-0.1,1.3-0.6
		c0.4-1.2,0.9-2.5,1.3-3.7c1.2-0.3,2.4-0.6,3.6-1c0.4,1.8,0.8,3.6,1.1,5.4c0.1,0.5,0.6,0.9,1.2,0.8c0.5-0.1,0.9-0.6,0.8-1.2
		c-0.3-1.9-0.7-3.7-1.1-5.6c0.4-0.1,0.8-0.2,1.2-0.3c0.5-0.1,0.9-0.7,0.7-1.2C30.3,26.2,29.7,25.9,29.2,26.1z M23.8,27.5
		c0.5-1.4,1-2.7,1.5-4.1c0.3,1.1,0.6,2.3,0.9,3.4C25.3,27.1,24.6,27.3,23.8,27.5z"/>
	<path class="st0" d="M39.7,20.8c-0.5-0.1-1.1,0.3-1.2,0.8c-0.5,3-1.2,5.9-1.9,8.9c-0.7-2.6-1.3-5.3-2.2-7.9
		c-0.2-0.5-0.7-0.8-1.2-0.6C33.2,22,33.1,22,33,22c-0.6,0-1,0.4-1,1c-0.2,3.7-1.1,7.2-1.2,10.9c0,0.6,0.4,1,1,1c0.6,0,1-0.4,1-1
		c0-2.5,0.5-4.9,0.8-7.3c0.7,2.5,1.3,5.1,2.2,7.6c0.1,0.2,0.2,0.3,0.3,0.4c0.1,0.4,0.4,0.7,0.8,0.8c0.5,0.1,1.1-0.3,1.2-0.8
		c0.7-4.2,1.8-8.3,2.6-12.6C40.6,21.5,40.2,20.9,39.7,20.8z"/>
	<path class="st0" d="M48,21.9c-1.1,0.2-2.2,0.5-3.3,0.8c-0.5-0.3-1.1-0.1-1.4,0.3c-1.5,2.4-2.7,4.9-3.1,7.7
		c-0.1,1.2,0.2,2.4,0.9,3.2c0.6,0.5,1.4,0.8,2.5,0.7c0.9-0.1,1.7-0.7,2.5-1.1c0.8-0.5,1.6-1,2.3-1.6c0.4-0.3,0.5-1,0.1-1.4
		c-0.3-0.4-1-0.5-1.4-0.1c-0.7,0.5-1.4,1-2.1,1.4c-0.5,0.3-1.1,0.8-1.7,0.9c-0.3,0-0.5,0-0.7-0.1c-0.2-0.1-0.3-0.3-0.3-0.5
		c-0.1-0.3-0.1-0.7-0.1-1.1c0.1-0.5,0.1-0.9,0.3-1.4c0.1,0,0.3,0.1,0.4,0.1c0.8-0.1,1.6-0.2,2.4-0.5c0.5-0.2,0.8-0.8,0.6-1.3
		c-0.2-0.5-0.8-0.8-1.3-0.6c-0.5,0.2-1,0.3-1.5,0.4c0.4-1,0.9-1.9,1.4-2.9c0.1,0,0.1,0,0.2,0c1.2-0.4,2.4-0.7,3.7-0.9
		c0.5-0.1,0.9-0.7,0.8-1.2C49.1,22.1,48.5,21.7,48,21.9z"/>
	<path class="st0" d="M57.3,23.2c-2-0.4-4.1,0.4-5.6,1.9c-1.5,1.5-2.4,3.6-2.2,5.6c0.4,3.1,3.8,3.2,5.8,1.6c0.6-0.5,1.2-1.1,1.8-1.7
		c0.4-0.4,0.3-1-0.1-1.4c-0.4-0.4-1-0.3-1.4,0.1c-0.5,0.5-1,1-1.5,1.5c-0.4,0.3-1,0.5-1.5,0.6c-0.3,0-0.7,0-0.9-0.2
		c-0.1-0.1-0.2-0.4-0.2-0.6c-0.2-1.4,0.5-2.9,1.6-3.9c1-1,2.5-1.7,3.8-1.4c0.5,0.1,1.1-0.2,1.2-0.8S57.8,23.3,57.3,23.2z"/>
	<path class="st0" d="M62,21.7c-0.4-0.3-1.1-0.3-1.4,0.2c0,0,0,0,0,0c-0.4,0.1-0.8,0.4-0.9,0.8c-0.4,3.1-0.7,6.2-1.2,9.3
		c-0.1,0.5,0.3,1.1,0.8,1.1c0.5,0.1,1.1-0.3,1.1-0.8c0.4-2.7,0.7-5.5,1-8.3c2,2.1,3.3,5.1,1.4,7.7c-0.4,0.5-0.8,0.9-1.3,1.3
		c-0.5,0.3-0.6,0.9-0.3,1.4c0.3,0.5,0.9,0.6,1.4,0.3c0.7-0.5,1.3-1.1,1.8-1.7C67.5,29,65.3,24.3,62,21.7z"/>
	<path class="st0" d="M71.5,22.6c-1.4,0.1-2.8,1.4-3.4,3.2c-0.2,0.5,0.1,1.1,0.6,1.3c0.5,0.2,1.1-0.1,1.3-0.6
		c0.2-0.6,0.5-1.1,0.9-1.4c0.3-0.2,0.6-0.4,0.9-0.3c0.3,0.1,0.5,0.3,0.7,0.7c0.5,1,0.3,2.4,0,3.5c-0.3,1.2-1,2.6-2.2,3
		c-0.2,0.1-0.4,0.1-0.6,0.1c-0.2-0.1-0.3-0.3-0.4-0.6c-0.3-0.8-0.2-1.7-0.1-2.3c0.1-0.5-0.2-1.1-0.7-1.2c-0.5-0.1-1.1,0.2-1.2,0.7
		c-0.2,0.9-0.3,2.4,0.1,3.5c0.3,0.9,0.8,1.5,1.6,1.8c0.5,0.2,1.1,0.2,1.9,0c1.8-0.6,3-2.6,3.5-4.4c0.5-1.5,0.6-3.4-0.1-4.9
		C73.6,23,72.5,22.6,71.5,22.6z"/>
	<path class="st0" d="M83.5,22.3c0.5-0.2,0.7-0.8,0.5-1.3s-0.8-0.7-1.3-0.5c-2.4,1.1-4.9,2-7.2,3.3c-0.5,0.3-0.7,0.9-0.4,1.4
		c0.3,0.5,0.9,0.7,1.4,0.4c0.4-0.2,0.8-0.4,1.2-0.6c-0.2,2.5-0.5,5-0.5,7.6c0,0.6,0.5,1,1,1c0.6,0,1-0.5,1-1c0-2.9,0.4-5.7,0.6-8.5
		C81,23.4,82.3,22.9,83.5,22.3z"/>
	<path class="st0" d="M89,30.1c-0.3-0.4-1-0.5-1.4-0.2c-0.7,0.5-1.5,1.1-2.3,1.6c-0.8,0.4-1.6,0.6-2.1,0.2c-0.3-0.2-0.4-0.6-0.3-1.1
		c0-0.3,0.1-0.7,0.2-1c0.2,0.1,0.3,0.1,0.5,0.1c0.9-0.2,1.8-0.4,2.7-0.6c0.5-0.2,0.8-0.7,0.7-1.2c-0.2-0.5-0.7-0.8-1.2-0.7
		c-0.6,0.2-1.2,0.3-1.8,0.4c0.4-0.7,0.9-1.4,1.3-2.1c0,0,0,0,0,0c1.8-0.3,3.5-0.7,5.3-1c0.5-0.1,0.9-0.6,0.8-1.1
		c-0.1-0.5-0.6-0.9-1.1-0.8c-1.7,0.3-3.3,0.7-5,0.9c-0.4-0.2-0.9-0.1-1.2,0.3c-1.4,1.9-2.9,4.3-3.1,6.7c-0.1,1.4,0.4,2.4,1.1,2.9
		c1,0.8,2.7,0.8,4.2-0.1c0.9-0.5,1.7-1.1,2.5-1.7C89.2,31.2,89.3,30.6,89,30.1z"/>
	<path class="st0" d="M92.5,31.2c-0.5-0.2-1.1,0.1-1.3,0.6c-0.4,1-0.9,1.9-1.8,2.6c-0.4,0.4-0.5,1-0.1,1.4c0.4,0.4,1,0.5,1.4,0.1
		c1.1-0.9,1.9-2.1,2.4-3.4C93.3,31.9,93,31.4,92.5,31.2z"/>
	<path class="st0" d="M95.9,31.4c-0.5,0-0.9,0.5-0.9,1c0,0.5,0.4,0.9,0.8,1c0,0,0,0,0,0c0.1,0,0.1,0,0.2,0c0.5,0,0.9-0.3,1-0.8
		c0.1-0.3,0-0.7-0.3-0.9C96.6,31.5,96.2,31.4,95.9,31.4z"/>
	<polygon class="st0" points="99.7,32.3 100.6,32.7 100.6,32.7 	"/>
	<path class="st0" d="M99.8,31.4c-0.1,0-0.2,0-0.2,0c-0.6,0-1,0.4-1,1c0,0.5,0.4,1,1,1c0,0,0.1,0,0.1,0c0.4,0,0.8-0.3,1-0.6
		l-0.9-0.4L99.8,31.4z"/>
	<polygon class="st0" points="100.6,32.7 100.6,32.7 100.6,32.7 	"/>
	<path class="st0" d="M102,31.7c-0.4,0.4-0.3,1,0,1.4l0.7-0.7l0.6-0.8C103,31.2,102.4,31.3,102,31.7z"/>
	<path class="st0" d="M110.2,23.9c-1.6,1.9-2.5,4.7-2.3,7.3c0.1,1.8,0.8,3.5,2.2,4.7c0.2,0.2,0.5,0.2,0.7,0c0.2-0.2,0.2-0.5,0-0.7
		c-1.5-1.3-2-3.2-1.9-5.2c0.1-2,0.9-4,2.1-5.4c0.2-0.2,0.1-0.5-0.1-0.7C110.7,23.6,110.3,23.6,110.2,23.9z"/>
	<path class="st0" d="M112.7,28c-0.2,0.2-0.2,0.5,0,0.7c0.2,0.2,0.5,0.2,0.7,0c0.6-0.7,2-0.8,2.4,0.2c0.4,0.8,0,2-0.5,2.7
		c-0.4,0.6-1,1.3-1.8,1.5c-0.3,0-0.6,0-0.8-0.1c-0.3-0.2-0.5-0.5-0.5-0.9c-0.1-0.7,0-1.6,0.4-2.1c0.2-0.2,0.1-0.5-0.1-0.7
		c-0.2-0.2-0.5-0.1-0.7,0.1c-0.5,0.7-0.8,1.9-0.6,2.9c0.1,0.7,0.5,1.2,1,1.5c0.4,0.2,0.8,0.3,1.4,0.2c1-0.2,1.9-1.1,2.5-1.9
		c0.7-0.9,1.1-2.6,0.6-3.7C116,26.8,113.8,26.7,112.7,28z"/>
	<path class="st0" d="M119,27.1c-0.2,0-0.3,0.1-0.4,0.2c-0.2,0.1-0.3,0.3-0.3,0.5c0.1,2-0.1,4,0.1,6c0,0.3,0.3,0.5,0.6,0.4
		c0.3,0,0.5-0.3,0.4-0.6c-0.2-1.8,0-3.7-0.1-5.6c0.8,0,1.6,0,2.2,0.7c0.7,0.9,0,2.2-1,2.2c-0.3,0-0.5,0.2-0.5,0.5
		c0,0.3,0.2,0.5,0.5,0.5c1.9-0.1,3-2.3,1.8-3.9C121.5,27.1,120.2,27,119,27.1z"/>
	<path class="st0" d="M130.1,26.7c-0.1-0.3-0.4-0.4-0.6-0.3c-0.8,0.3-1.5,0.5-2.3,0.8c-1.2,0.5-2.2,1.1-3.5,1.4
		c-0.3,0.1-0.4,0.3-0.4,0.6c0.1,0.3,0.3,0.4,0.6,0.4c0.4-0.1,0.9-0.2,1.3-0.4c0.2,1.8,0,3.6,0,5.4c0,0.3,0.2,0.5,0.5,0.5
		c0.3,0,0.5-0.2,0.5-0.5c-0.1-1.9,0.1-3.9-0.1-5.8c0,0,0,0,0,0c0.5-0.2,0.9-0.4,1.4-0.6c0.7-0.3,1.5-0.5,2.2-0.8
		C130,27.3,130.2,27,130.1,26.7z"/>
	<path class="st0" d="M128.2,29.3c-0.3,0-0.5,0.3-0.4,0.6c0.1,0.9,0.1,1.8,0.1,2.7c0,0.3,0.2,0.5,0.5,0.5s0.5-0.2,0.5-0.5
		c0-1,0-1.9-0.1-2.9C128.7,29.5,128.5,29.3,128.2,29.3z"/>
	<path class="st0" d="M132.6,27.9c-0.3,0-0.5,0.3-0.4,0.6c0,0.3,0.3,0.5,0.6,0.4c0.2,0,0.4,0.1,0.5,0.2c0.2,0.2,0.3,0.5,0.3,0.8
		c0.1,1.1-0.3,2.5-1.2,3.2c-0.4,0.3-0.7,0.4-1,0.3c-0.3-0.1-0.5-0.4-0.5-0.9c-0.1-0.8,0.1-1.7,0.6-2.3c0.2-0.2,0.2-0.5-0.1-0.7
		c-0.2-0.2-0.5-0.2-0.7,0.1c-0.7,0.8-1,2.1-0.8,3.1c0.1,0.8,0.6,1.4,1.1,1.6c0.5,0.2,1.2,0.2,2-0.4c1.2-0.9,1.8-2.7,1.6-4.1
		C134.5,28.8,133.8,27.7,132.6,27.9z"/>
	<path class="st0" d="M142.2,25.8c-0.3-0.1-0.5,0-0.6,0.3c-0.7,2.1-1.5,4.2-2.3,6.3c-0.4-1.3-0.8-2.7-1.4-3.9
		c-0.1-0.2-0.4-0.3-0.7-0.2c-0.2,0.1-0.3,0.3-0.3,0.5c0,0,0,0,0,0c-0.4,1.6-0.6,3.2-1.1,4.7c-0.1,0.3,0.1,0.5,0.3,0.6
		c0.3,0.1,0.5-0.1,0.6-0.3c0.3-1.2,0.5-2.4,0.8-3.5c0.4,1.2,0.7,2.5,1.2,3.6c0.1,0.3,0.4,0.4,0.6,0.3c0.1,0,0.2-0.1,0.3-0.3
		c0.1-0.1,0.2-0.1,0.2-0.2c0.9-2.4,1.8-4.9,2.6-7.3C142.6,26.1,142.4,25.8,142.2,25.8z"/>
	<path class="st0" d="M146.2,33c-0.6,0.3-1.2,0.6-1.9,0.8c-0.3,0.1-0.6,0.2-0.9,0.2c-0.4,0-0.6,0-0.8-0.2c-0.3-0.2-0.2-0.6-0.2-1.1
		c0.1-0.3,0.2-0.6,0.3-1c0.1,0,0.1,0,0.2,0c0.7-0.1,1.3-0.2,2-0.4c0.3-0.1,0.4-0.4,0.3-0.6c-0.1-0.3-0.4-0.4-0.6-0.3
		c-0.4,0.2-0.9,0.3-1.3,0.3c0.4-0.6,0.8-1.1,1.3-1.6c0.6-0.1,1.2-0.3,1.8-0.3c0.3,0,0.5-0.3,0.4-0.6c0-0.3-0.3-0.5-0.6-0.4
		c-0.7,0.1-1.4,0.3-2.1,0.4c-0.2,0-0.3,0.1-0.4,0.3c-1.1,1-2.1,2.6-2.3,4c-0.2,0.9,0,1.6,0.5,2.1c0.3,0.3,0.8,0.5,1.5,0.4
		c0.4,0,0.8-0.1,1.2-0.2c0.7-0.3,1.3-0.6,2-0.9c0.2-0.1,0.3-0.4,0.2-0.7C146.7,33,146.4,32.9,146.2,33z"/>
	<path class="st0" d="M152.6,32.8c-0.2-0.2-0.5-0.3-0.7-0.1c-0.4,0.3-0.9,0.5-1.3,0.6c-0.4,0.1-0.8,0.2-1.2,0.2
		c-0.3,0-0.5,0-0.6-0.2c-0.1-0.1-0.1-0.2-0.1-0.3c0-0.2,0-0.4,0-0.6c0.2-0.9,0.7-1.9,0.9-2.4c0.1-0.3,0.3-0.6,0.4-0.9
		c0.2-0.4,0.4-0.8,0.6-1.2c0.1-0.2,0-0.5-0.2-0.7c-0.2-0.1-0.5-0.1-0.7,0.2c-0.2,0.4-0.5,0.8-0.7,1.3c-0.2,0.3-0.3,0.6-0.5,1
		c-0.3,0.7-1,2.2-1,3.2c0,0.5,0.1,0.9,0.4,1.2c0.3,0.3,0.7,0.5,1.4,0.5c0.5,0,0.9-0.1,1.4-0.2c0.6-0.1,1.1-0.4,1.7-0.7
		C152.6,33.4,152.7,33.1,152.6,32.8z"/>
	<path class="st0" d="M154.4,23.1c-0.1-0.3-0.4-0.4-0.6-0.3c-0.3,0.1-0.4,0.4-0.3,0.6c0.3,1,0.8,1.9,1.1,2.9
		c0.8,3.3,0.3,6.6-1.9,9.2c-0.2,0.2-0.2,0.5,0.1,0.7c0.2,0.2,0.5,0.2,0.7-0.1c2.4-2.9,3-6.5,2.1-10.1
		C155.3,25.1,154.8,24.1,154.4,23.1z"/>
</g>
</svg>
