<?xml version="1.0" encoding="utf-8"?>
<!-- Generator: Adobe Illustrator 24.2.0, SVG Export Plug-In . SVG Version: 6.00 Build 0)  -->
<svg version="1.1" id="Calque_1" xmlns="http://www.w3.org/2000/svg" xmlns:xlink="http://www.w3.org/1999/xlink" x="0px" y="0px"
	 viewBox="0 0 199.5 37.1" style="enable-background:new 0 0 199.5 37.1;" xml:space="preserve">
<style type="text/css">
	.st0{fill-rule:evenodd;clip-rule:evenodd;}
</style>
<g>
	<path class="st0" d="M130,6.1c-0.3,0.1-0.7,0.2-1,0.3c-0.5-1.9-1-3.8-1.5-5.7c-0.2-0.5-0.7-0.8-1.2-0.7c-0.3,0.1-0.6,0.4-0.7,0.7
		c-0.1,0.1-0.2,0.2-0.3,0.4c-0.9,2.3-1.7,4.6-2.5,6.9c-0.6,0.1-1.1,0.2-1.7,0.3c-0.5,0.1-0.9,0.6-0.8,1.1c0.1,0.5,0.6,0.9,1.1,0.8
		c0.2,0,0.4-0.1,0.6-0.1c-0.3,0.8-0.5,1.5-0.8,2.3c-0.2,0.5,0.1,1.1,0.6,1.3c0.5,0.2,1.1-0.1,1.3-0.6c0.4-1.1,0.8-2.3,1.2-3.4
		c1.1-0.3,2.2-0.6,3.3-0.9c0.4,1.7,0.7,3.3,1,5c0.1,0.5,0.6,0.9,1.2,0.8c0.5-0.1,0.9-0.6,0.8-1.2c-0.3-1.7-0.7-3.4-1-5.2
		c0.3-0.1,0.7-0.2,1-0.3c0.5-0.1,0.9-0.7,0.7-1.2C131,6.3,130.5,6,130,6.1z M125,7.5c0.4-1.2,0.8-2.3,1.3-3.5c0.3,1,0.5,1.9,0.7,2.9
		C126.4,7.1,125.7,7.3,125,7.5z"/>
	<path class="st0" d="M139.8,1.3c-0.5-0.1-1.1,0.3-1.2,0.8c-0.5,2.7-1.1,5.4-1.7,8c-0.7-2.4-1.2-4.8-2-7.1c-0.2-0.5-0.7-0.7-1.2-0.6
		c-0.1,0-0.2-0.1-0.3-0.1c-0.6,0-1,0.4-1,1c-0.2,3.4-1,6.7-1.1,10.2c0,0.6,0.4,1,1,1s1-0.4,1-1c0-2.2,0.4-4.3,0.7-6.5
		c0.6,2.3,1.1,4.6,1.9,6.8c0.1,0.1,0.1,0.3,0.2,0.4c0.1,0.4,0.4,0.7,0.8,0.8c0.5,0.1,1.1-0.3,1.2-0.8c0.7-3.9,1.7-7.8,2.4-11.7
		C140.7,1.9,140.3,1.4,139.8,1.3z"/>
	<path class="st0" d="M144.5,5c1.1-0.3,2.3-0.6,3.4-0.9c0.5-0.1,0.9-0.7,0.8-1.2c-0.1-0.5-0.7-0.9-1.2-0.8c-1,0.2-2.1,0.5-3.1,0.8
		c-0.5-0.3-1-0.1-1.3,0.3c-1.4,2.2-2.5,4.6-2.9,7.2c-0.1,1.2,0.2,2.3,0.9,3c0.5,0.5,1.3,0.8,2.3,0.6c0.9-0.1,1.6-0.6,2.3-1.1
		c0.7-0.5,1.5-0.9,2.1-1.5c0.4-0.4,0.5-1,0.1-1.4s-1-0.5-1.4-0.1c-0.6,0.5-1.3,0.9-1.9,1.3c-0.5,0.3-1,0.7-1.6,0.8
		c-0.2,0-0.4,0-0.6-0.1c-0.2-0.1-0.2-0.2-0.3-0.4c-0.1-0.3-0.1-0.6-0.1-1c0-0.4,0.1-0.8,0.2-1.2c0.1,0,0.2,0.1,0.3,0
		c0.8-0.1,1.5-0.2,2.3-0.5c0.5-0.2,0.8-0.8,0.6-1.3c-0.2-0.5-0.8-0.8-1.3-0.6c-0.4,0.2-0.8,0.3-1.2,0.3c0.4-0.9,0.8-1.7,1.3-2.5
		C144.4,5,144.5,5,144.5,5z"/>
	<path class="st0" d="M156.2,3.5c-1.9-0.4-3.9,0.4-5.3,1.8c-1.4,1.4-2.3,3.4-2.1,5.2c0.4,3,3.6,3,5.5,1.6c0.6-0.5,1.2-1,1.7-1.6
		c0.4-0.4,0.3-1-0.1-1.4c-0.4-0.4-1-0.3-1.4,0.1c-0.4,0.5-0.9,1-1.4,1.3c-0.4,0.3-0.9,0.5-1.3,0.5c-0.3,0-0.6,0-0.8-0.2
		c-0.1-0.1-0.2-0.3-0.2-0.5c-0.2-1.3,0.5-2.6,1.5-3.6c1-0.9,2.3-1.5,3.5-1.3c0.5,0.1,1.1-0.2,1.2-0.8C157,4.1,156.7,3.6,156.2,3.5z"
		/>
	<path class="st0" d="M160.6,2c-0.4-0.3-1.1-0.3-1.4,0.2c0,0,0,0,0,0c-0.4,0.1-0.8,0.4-0.8,0.8c-0.4,2.9-0.7,5.8-1.1,8.6
		c-0.1,0.5,0.3,1.1,0.8,1.1c0.5,0.1,1.1-0.3,1.1-0.8c0.4-2.5,0.6-5,0.9-7.6c1.8,1.9,2.9,4.6,1.2,7c-0.3,0.4-0.7,0.8-1.2,1.2
		c-0.5,0.3-0.6,0.9-0.3,1.4c0.3,0.5,0.9,0.6,1.4,0.3c0.7-0.4,1.2-1,1.7-1.6C165.7,9,163.6,4.5,160.6,2z"/>
	<path class="st0" d="M169.4,2.9c-1.3,0.1-2.7,1.3-3.2,3c-0.2,0.5,0.1,1.1,0.6,1.3c0.5,0.2,1.1-0.1,1.3-0.6c0.2-0.5,0.5-1,0.9-1.3
		c0.2-0.2,0.5-0.3,0.8-0.3c0.2,0.1,0.4,0.3,0.6,0.6c0.5,1,0.3,2.2,0,3.2c-0.3,1.1-0.9,2.4-2,2.8c-0.2,0.1-0.4,0.1-0.5,0
		c-0.2-0.1-0.3-0.3-0.4-0.5c-0.2-0.7-0.2-1.6-0.1-2.1c0.1-0.5-0.2-1.1-0.7-1.2c-0.5-0.1-1.1,0.2-1.2,0.7c-0.2,0.8-0.3,2.2,0.1,3.3
		c0.3,0.8,0.8,1.5,1.5,1.7c0.5,0.2,1.1,0.2,1.8,0c1.7-0.6,2.8-2.5,3.3-4.1c0.4-1.4,0.6-3.2-0.1-4.6C171.4,3.3,170.3,2.9,169.4,2.9z"
		/>
	<path class="st0" d="M180.6,2.7c0.5-0.2,0.7-0.8,0.5-1.3c-0.2-0.5-0.8-0.7-1.3-0.5c-2.2,1.1-4.5,1.9-6.7,3.1
		c-0.5,0.3-0.7,0.9-0.4,1.4c0.3,0.5,0.9,0.7,1.4,0.4c0.3-0.2,0.6-0.3,1-0.5c-0.2,2.3-0.5,4.6-0.5,6.9c0,0.6,0.5,1,1,1
		c0.6,0,1-0.5,1-1c0-2.6,0.4-5.3,0.5-7.9C178.3,3.8,179.5,3.3,180.6,2.7z"/>
	<path class="st0" d="M185.7,10c-0.3-0.4-1-0.5-1.4-0.2c-0.7,0.5-1.4,1-2.1,1.4c-0.7,0.4-1.4,0.5-1.9,0.2c-0.2-0.2-0.3-0.5-0.3-1
		c0-0.3,0.1-0.6,0.2-0.9c0.1,0,0.3,0.1,0.5,0c0.8-0.2,1.7-0.3,2.5-0.6c0.5-0.2,0.8-0.7,0.7-1.2c-0.2-0.5-0.7-0.8-1.2-0.7
		c-0.5,0.1-1,0.3-1.5,0.4c0.3-0.6,0.7-1.2,1.1-1.8c1.6-0.3,3.3-0.7,4.9-0.9c0.5-0.1,0.9-0.6,0.8-1.1c-0.1-0.5-0.6-0.9-1.1-0.8
		c-1.6,0.2-3.1,0.6-4.7,0.9c-0.4-0.2-0.9,0-1.2,0.3c-1.3,1.8-2.7,4-2.9,6.2c-0.1,1.4,0.4,2.3,1.1,2.8c1,0.7,2.6,0.7,4-0.1
		c0.8-0.4,1.6-1,2.3-1.6C185.9,11,186,10.4,185.7,10z"/>
	<path class="st0" d="M189,10.9c-0.5-0.2-1.1,0.1-1.3,0.6c-0.4,0.9-0.9,1.7-1.6,2.4c-0.4,0.4-0.5,1-0.1,1.4c0.4,0.4,1,0.5,1.4,0.1
		c1.1-0.9,1.8-2,2.2-3.2C189.7,11.7,189.5,11.1,189,10.9z"/>
	<path class="st0" d="M192.1,11.1c-0.5,0-0.9,0.5-0.9,1c0,0.5,0.4,0.9,0.8,1c0,0,0,0,0,0c0.1,0,0.1,0,0.2,0c0.5,0,0.9-0.3,1-0.8
		c0.1-0.3,0-0.7-0.3-0.9C192.7,11.2,192.4,11.1,192.1,11.1z"/>
	<polygon class="st0" points="196.5,12.4 196.5,12.4 196.5,12.4 	"/>
	<polygon class="st0" points="195.6,12 196.5,12.4 196.5,12.4 	"/>
	<path class="st0" d="M195.7,11.1c-0.1,0-0.2,0-0.2,0c-0.6,0-1,0.4-1,1c0,0.5,0.4,1,0.9,1c0,0,0.1,0,0.1,0c0.4,0,0.8-0.3,1-0.6
		l-0.9-0.4L195.7,11.1z"/>
	<path class="st0" d="M199.2,11.3c-0.4-0.4-1-0.4-1.4,0s-0.4,1,0,1.4c0,0,0.1,0.1,0.1,0.1c0.2,0.2,0.4,0.2,0.6,0.2
		c0.3,0,0.5-0.1,0.7-0.3C199.6,12.3,199.6,11.7,199.2,11.3z"/>
	<path class="st0" d="M78,24.7c-1.6,1.9-2.5,4.7-2.3,7.3c0.1,1.8,0.8,3.5,2.2,4.7c0.2,0.2,0.5,0.2,0.7,0c0.2-0.2,0.2-0.5,0-0.7
		c-1.5-1.3-2-3.2-1.9-5.2c0.1-2,0.9-4,2.1-5.4c0.2-0.2,0.1-0.5-0.1-0.7C78.5,24.4,78.2,24.4,78,24.7z"/>
	<path class="st0" d="M80.6,28.7c-0.2,0.2-0.2,0.5,0,0.7c0.2,0.2,0.5,0.2,0.7,0c0.6-0.7,2-0.8,2.4,0.2c0.4,0.8,0,2-0.5,2.7
		c-0.4,0.6-1,1.3-1.8,1.5c-0.3,0-0.6,0-0.8-0.1c-0.3-0.2-0.5-0.5-0.5-0.9c-0.1-0.7,0-1.6,0.4-2.1c0.2-0.2,0.1-0.5-0.1-0.7
		c-0.2-0.2-0.5-0.1-0.7,0.1c-0.5,0.7-0.8,1.9-0.6,2.9c0.1,0.7,0.5,1.2,1,1.5c0.4,0.2,0.8,0.3,1.4,0.2c1-0.2,1.9-1.1,2.5-1.9
		c0.7-0.9,1.1-2.6,0.6-3.7C83.9,27.6,81.7,27.5,80.6,28.7z"/>
	<path class="st0" d="M86.9,27.8c-0.2,0-0.3,0.1-0.4,0.2c-0.2,0.1-0.3,0.3-0.3,0.5c0.1,2-0.1,4,0.1,6c0,0.3,0.3,0.5,0.6,0.4
		c0.3,0,0.5-0.3,0.4-0.6c-0.2-1.8,0-3.7-0.1-5.6c0.8,0,1.6,0,2.2,0.7c0.7,0.9,0,2.2-1,2.2c-0.3,0-0.5,0.2-0.5,0.5
		c0,0.3,0.2,0.5,0.5,0.5c1.9-0.1,3-2.3,1.8-3.9C89.4,27.9,88.1,27.8,86.9,27.8z"/>
	<path class="st0" d="M97.9,27.5c-0.1-0.3-0.4-0.4-0.6-0.3c-0.8,0.3-1.5,0.5-2.3,0.8c-1.2,0.5-2.2,1.1-3.5,1.4
		c-0.3,0.1-0.4,0.3-0.4,0.6c0.1,0.3,0.3,0.4,0.6,0.4c0.4-0.1,0.9-0.2,1.3-0.4c0.2,1.8,0,3.6,0,5.4c0,0.3,0.2,0.5,0.5,0.5
		c0.3,0,0.5-0.2,0.5-0.5c-0.1-1.9,0.1-3.9-0.1-5.8c0,0,0,0,0,0c0.5-0.2,0.9-0.4,1.4-0.6c0.7-0.3,1.5-0.5,2.2-0.8
		C97.9,28,98,27.8,97.9,27.5z"/>
	<path class="st0" d="M96.1,30.1c-0.3,0-0.5,0.3-0.4,0.6c0.1,0.9,0.1,1.8,0.1,2.7c0,0.3,0.2,0.5,0.5,0.5c0.3,0,0.5-0.2,0.5-0.5
		c0-1,0-1.9-0.1-2.9C96.6,30.3,96.4,30.1,96.1,30.1z"/>
	<path class="st0" d="M100.5,28.7c-0.3,0-0.5,0.3-0.4,0.6c0,0.3,0.3,0.5,0.6,0.4c0.2,0,0.4,0.1,0.5,0.2c0.2,0.2,0.3,0.5,0.3,0.8
		c0.1,1.1-0.3,2.5-1.2,3.2c-0.4,0.3-0.7,0.4-1,0.3c-0.3-0.1-0.5-0.4-0.5-0.9c-0.1-0.8,0.1-1.7,0.6-2.3c0.2-0.2,0.2-0.5-0.1-0.7
		c-0.2-0.2-0.5-0.2-0.7,0.1c-0.7,0.8-1,2.1-0.8,3.1c0.1,0.8,0.6,1.4,1.1,1.6c0.5,0.2,1.2,0.2,2-0.4c1.2-0.9,1.8-2.7,1.6-4.1
		C102.4,29.6,101.7,28.5,100.5,28.7z"/>
	<path class="st0" d="M110.1,26.5c-0.3-0.1-0.5,0.1-0.6,0.3c-0.7,2.1-1.5,4.2-2.3,6.3c-0.4-1.3-0.8-2.7-1.4-3.9
		c-0.1-0.2-0.4-0.3-0.7-0.2c-0.2,0.1-0.3,0.3-0.3,0.5c0,0,0,0,0,0c-0.4,1.6-0.6,3.2-1.1,4.7c-0.1,0.3,0.1,0.5,0.3,0.6
		c0.3,0.1,0.5-0.1,0.6-0.3c0.3-1.2,0.5-2.4,0.8-3.5c0.4,1.2,0.7,2.5,1.2,3.6c0.1,0.3,0.4,0.4,0.6,0.3c0.1,0,0.2-0.1,0.3-0.3
		c0.1-0.1,0.2-0.1,0.2-0.2c0.9-2.4,1.8-4.9,2.6-7.3C110.5,26.9,110.3,26.6,110.1,26.5z"/>
	<path class="st0" d="M113.3,27.6c0-0.2-0.1-0.3-0.3-0.4c-0.2-0.1-0.5,0-0.7,0.2c-0.7,1.4-1.3,2.8-1.9,4.2c-0.2,0-0.4,0-0.5,0
		c-0.3,0-0.5,0.2-0.5,0.5c0,0.3,0.2,0.5,0.5,0.5c0,0,0.1,0,0.1,0c-0.1,0.2-0.2,0.5-0.2,0.7c-0.1,0.3,0.1,0.5,0.3,0.6
		c0.3,0.1,0.5-0.1,0.6-0.3c0.1-0.4,0.2-0.7,0.4-1.1c0.5,0,1.1-0.1,1.6-0.2c0.1,1,0.2,1.9,0.3,2.8c0,0.3,0.3,0.5,0.6,0.4
		c0.3,0,0.5-0.3,0.4-0.6c-0.3-2.4-0.4-4.8-0.6-7.2C113.6,27.8,113.5,27.7,113.3,27.6z M112.7,29.3c0,0.7,0.1,1.4,0.1,2.1
		c-0.4,0.1-0.8,0.2-1.2,0.2C112,30.9,112.3,30.1,112.7,29.3z"/>
	<path class="st0" d="M120.4,33.6c-0.1-0.2-0.5-0.3-0.7-0.1c-0.4,0.3-0.9,0.5-1.3,0.6c-0.4,0.1-0.8,0.2-1.2,0.2
		c-0.3,0-0.5,0-0.6-0.2c-0.1-0.1-0.1-0.2-0.1-0.3c0-0.2,0-0.4,0-0.6c0.2-0.9,0.7-1.9,0.9-2.4c0.1-0.3,0.3-0.6,0.4-0.9
		c0.2-0.4,0.4-0.8,0.6-1.2c0.1-0.2,0-0.5-0.2-0.7c-0.2-0.1-0.5-0.1-0.7,0.2c-0.2,0.4-0.5,0.8-0.7,1.3c-0.2,0.3-0.3,0.6-0.5,1
		c-0.3,0.7-1,2.2-1,3.2c0,0.5,0.1,0.9,0.4,1.2c0.3,0.3,0.7,0.5,1.4,0.5c0.5,0,0.9-0.1,1.4-0.2c0.6-0.1,1.1-0.4,1.7-0.7
		C120.5,34.2,120.6,33.8,120.4,33.6z"/>
	<path class="st0" d="M122.3,23.9c-0.1-0.3-0.4-0.4-0.6-0.3c-0.3,0.1-0.4,0.4-0.3,0.6c0.3,1,0.8,1.9,1.1,2.9
		c0.8,3.3,0.3,6.6-1.9,9.2c-0.2,0.2-0.2,0.5,0.1,0.7c0.2,0.2,0.5,0.2,0.7-0.1c2.4-2.9,3-6.5,2.1-10.1
		C123.2,25.8,122.6,24.9,122.3,23.9z"/>
	<path class="st0" d="M10.1,10.8c-0.5-0.3-1.1-0.1-1.4,0.3c-0.5,0.8-1,1.7-1.8,2.2c-0.5,0.4-1.2,0.6-1.8,0.6c-1.7,0-2.6-1.2-3-2.7
		c-0.4-1.6,0-3.5,0.9-4.7C4.3,5,6.5,5.4,7.4,7c0.3,0.5,0.9,0.6,1.4,0.4C9.3,7.1,9.4,6.5,9.2,6C7.5,3.1,3.7,2.6,1.5,5.3
		c-1.3,1.7-1.8,4.2-1.3,6.4c0.5,2.3,2.1,4.2,4.9,4.2c1.1,0,2.1-0.3,2.9-0.9c1.1-0.7,1.7-1.7,2.4-2.8C10.7,11.7,10.6,11.1,10.1,10.8z
		"/>
	<path class="st0" d="M12.9,5.7c-0.3,0.5-0.1,1.1,0.4,1.4c0.5,0.3,1.1,0.1,1.4-0.4c0.5-0.8,1.6-0.9,2.1-0.1c0.8,1.5,0.8,3.4,0.3,5
		c-0.2,0.5-0.4,0.9-0.7,1.3c-0.3,0.3-0.6,0.6-0.9,0.9c-0.7,0.5-1.5-0.1-1.8-0.9c-0.3-0.9-0.1-2,0.2-2.9c0.2-0.5-0.1-1.1-0.6-1.3
		c-0.5-0.2-1.1,0.1-1.3,0.6c-0.4,1.3-0.7,2.9-0.2,4.2c0.7,2,2.9,3.2,4.9,1.8c0.5-0.3,0.9-0.8,1.3-1.2c0.5-0.6,0.8-1.3,1.1-2
		c0.7-2.1,0.7-4.7-0.4-6.6C17.2,3.4,14.1,3.5,12.9,5.7z"/>
	<path class="st0" d="M30.4,2.6c0.2-0.5-0.2-1.1-0.7-1.2c-0.5-0.2-1.1,0.2-1.2,0.7c-0.9,3-1.6,6.1-2.5,9c-0.7-2.1-1.4-4.3-2.2-6.4
		c-0.2-0.5-0.8-0.8-1.3-0.6c-0.2,0.1-0.4,0.2-0.5,0.4c-0.2,0.1-0.4,0.4-0.4,0.6c-0.6,2.8-0.9,5.8-1.4,8.7c-0.1,0.5,0.3,1.1,0.8,1.2
		c0.5,0.1,1.1-0.3,1.2-0.8c0.3-1.9,0.6-3.8,0.9-5.6c0.7,2,1.4,4,2,6c0.2,0.5,0.7,0.8,1.3,0.6c0.3-0.1,0.5-0.3,0.6-0.6
		c0.1-0.1,0.1-0.1,0.1-0.2C28.4,10.5,29.3,6.5,30.4,2.6z"/>
	<path class="st0" d="M38.9,3.3c0.5-0.3,0.7-0.9,0.4-1.4C39,1.4,38.4,1.3,38,1.5c-2.7,1.5-5.2,3.1-8,4.3c-0.5,0.2-0.7,0.8-0.5,1.3
		c0.2,0.5,0.8,0.7,1.3,0.5c0.6-0.3,1.1-0.5,1.7-0.8c-0.2,2.8-0.2,5.7-0.3,8.5c0,0.6,0.4,1,0.9,1.1c0.6,0,1-0.4,1.1-0.9
		c0.2-3,0.2-6,0.4-9c0-0.2-0.1-0.4-0.2-0.6C35.9,5,37.4,4.1,38.9,3.3z"/>
	<path class="st0" d="M41.2,11.9c-0.5,0.6-1,1-1.6,1.4c-0.4,0.3-0.8,0.4-1.3,0.6c-0.4,0.1-0.7,0.1-0.8,0c-0.2-0.2-0.2-0.5-0.2-0.9
		c0-0.4,0.1-0.9,0.2-1.3c0.3,0.2,0.6,0.3,0.9,0.2c0.6-0.2,1.1-0.4,1.7-0.6c0.5-0.2,0.8-0.8,0.5-1.3c-0.2-0.5-0.8-0.8-1.3-0.5
		c-0.4,0.2-0.8,0.3-1.2,0.5c0.3-0.8,0.7-1.5,1-2.2c1-0.2,2-0.5,3.1-0.7c0.5-0.1,0.9-0.6,0.8-1.2c-0.1-0.5-0.6-0.9-1.2-0.8
		c-1.1,0.2-2.1,0.5-3.1,0.8c-0.4-0.1-0.8,0.1-1,0.5c-1.2,2-2.1,4.3-2.4,6.6c-0.1,1.1,0.2,2,0.8,2.6c0.6,0.6,1.6,0.9,2.8,0.5
		c0.6-0.2,1.2-0.5,1.7-0.8c0.8-0.5,1.5-1.1,2.1-1.8c0.4-0.4,0.3-1.1-0.1-1.4C42.2,11.4,41.6,11.5,41.2,11.9z"/>
	<path class="st0" d="M50.1,6.7c-0.5,0.7-1.1,1.4-1.7,2.1c-0.6-1.3-1.3-2.6-2-3.9c-0.3-0.5-0.9-0.7-1.4-0.4
		c-0.5,0.3-0.7,0.9-0.4,1.4c0.8,1.5,1.5,3,2.3,4.5c-0.9,1-1.8,2-2.7,2.9c-0.4,0.4-0.4,1,0,1.4c0.4,0.4,1,0.4,1.4,0
		c0.7-0.8,1.5-1.6,2.2-2.4c0.6,1.1,1.1,2.3,1.8,3.4c0.3,0.5,0.9,0.6,1.4,0.4c0.5-0.3,0.6-0.9,0.4-1.4c-0.7-1.3-1.4-2.6-2.1-3.9
		C50.2,9.8,51,8.9,51.7,8C52,7.5,52,6.9,51.5,6.6C51.1,6.2,50.5,6.3,50.1,6.7z"/>
	<path class="st0" d="M56.7,4.6c1.8-0.3,3.6-0.7,5.3-1.1c0.5-0.1,0.9-0.6,0.8-1.2c-0.1-0.5-0.6-0.9-1.2-0.8
		C57.9,2.3,54,3.2,50.2,3.5c-0.5,0-1,0.5-0.9,1.1c0,0.6,0.5,1,1.1,0.9c1.4-0.1,2.9-0.3,4.4-0.6c0.3,3-0.1,6,0.3,9
		c0.1,0.5,0.6,0.9,1.1,0.8c0.5-0.1,0.9-0.6,0.8-1.1C56.6,10.6,57,7.6,56.7,4.6z"/>
	<path class="st0" d="M63.1,12.5c-0.5,0-1,0.4-1.1,0.9c-0.1,1.1-0.3,2-1.1,2.9c-0.4,0.4-0.3,1,0.1,1.4c0.4,0.4,1,0.3,1.4-0.1
		c1.1-1.2,1.4-2.5,1.6-4C64.1,13.1,63.6,12.6,63.1,12.5z"/>
	<path class="st0" d="M76.1,10.2c-0.2-1.1-0.9-2.2-1.6-2.9C74,6.8,73.4,6.5,73,5.9c-0.2-0.3-0.4-0.7-0.3-1.1c0-0.4,0.2-0.7,0.4-0.8
		c0.2-0.1,0.5-0.1,0.8-0.1c0.5,0.1,1,0.4,1.2,1c0.2,0.5,0.8,0.7,1.3,0.5s0.7-0.8,0.5-1.3c-0.5-1.1-1.5-1.9-2.6-2.1
		c-0.8-0.2-1.6-0.1-2.2,0.3c-0.7,0.4-1.2,1.2-1.4,2.4c-0.1,0.8,0.2,1.8,0.7,2.4c0.4,0.6,1.1,1,1.6,1.6c0.5,0.5,0.9,1.3,1.1,2
		c0.1,0.6,0.1,1.2-0.4,1.6c-1,1-2.5,1.6-3.8,0.6c-0.2-0.2-0.5-0.4-0.5-0.6c-0.1-0.9,0.1-1.6,0.5-2.4c0.2-0.5,0-1.1-0.5-1.3
		c-0.5-0.2-1.1,0-1.3,0.5c-0.5,1.1-0.8,2.1-0.6,3.3c0.1,0.8,0.7,1.6,1.3,2c2,1.6,4.6,0.8,6.3-0.8C76.1,12.8,76.4,11.5,76.1,10.2z"/>
	<path class="st0" d="M86,3.7c0.5-0.1,0.9-0.7,0.7-1.2c-0.1-0.5-0.7-0.9-1.2-0.7c-1.4,0.4-2.8,0.9-4.1,1.3c0,0,0,0,0,0
		c-0.5-0.1-0.9,0.1-1.2,0.5c-0.3,0.2-0.5,0.6-0.4,1c-0.8,2.5-2,5.4-1.9,8c0.1,1.4,0.7,2.2,1.5,2.7c1.1,0.6,2.8,0.5,4.1-0.5
		c0.7-0.5,1.4-1.1,2-1.8c0.4-0.4,0.3-1-0.1-1.4c-0.4-0.4-1-0.3-1.4,0.1c-0.5,0.6-1.1,1.1-1.7,1.5c-0.6,0.5-1.4,0.7-1.9,0.4
		C80.2,13.4,80,13,80,12.5c0-0.7,0.1-1.5,0.2-2.2c0.1,0,0.1,0,0.2,0c1-0.1,1.7-0.2,2.7-0.5c0.5-0.2,0.8-0.8,0.6-1.3
		c-0.2-0.5-0.8-0.8-1.3-0.6c-0.6,0.2-1.1,0.3-1.6,0.4c0.3-1.1,0.8-2.2,1.1-3.2C83.2,4.6,84.6,4.1,86,3.7z"/>
	<path class="st0" d="M97.5,1.6c-0.2-0.5-0.8-0.7-1.3-0.5c-2.7,1.3-5.7,2.2-8.5,3.3c-0.5,0.2-0.8,0.8-0.6,1.3
		c0.2,0.5,0.8,0.8,1.3,0.6c0.5-0.2,1.1-0.4,1.6-0.6c0.1,2.5-0.3,5.2,0.4,7.6c0.2,0.5,0.7,0.8,1.2,0.7c0.5-0.2,0.8-0.7,0.7-1.2
		c-0.7-2.4-0.2-5.2-0.4-7.7c1.7-0.6,3.4-1.2,5.1-2C97.5,2.7,97.7,2.1,97.5,1.6z"/>
	<path class="st0" d="M99.9,5.2c0.1,1.8,0.5,3.4-0.4,5c-0.4,0.8-1.1,1.4-1.8,1.4c-0.4,0-0.8-0.3-1.1-0.7c-0.8-1.3-0.6-3-0.4-4.4
		c0.1-0.5-0.3-1-0.9-1.1c-0.5-0.1-1.1,0.3-1.1,0.9c-0.2,1.8-0.3,4,0.7,5.7c0.7,1.2,1.8,1.7,2.8,1.7c1.4,0,2.8-1,3.6-2.5
		c1-2,0.7-3.9,0.6-6.1c0-0.6-0.5-1-1.1-0.9C100.3,4.2,99.8,4.6,99.9,5.2z"/>
	<path class="st0" d="M105.4,3.7c-0.3,0.1-0.5,0.4-0.6,0.7c-0.2,1.8-0.4,3.6-0.7,5.4c-0.2,1.3-0.5,2.6-0.4,3.9c0,0.5,0.5,1,1.1,0.9
		c0.6,0,1-0.5,0.9-1.1c-0.1-1.2,0.2-2.3,0.4-3.5c0.2-1.6,0.4-3.3,0.6-4.9c0.3-0.1,0.7,0,0.9,0.2c0.5,0.3,0.8,0.8,1.1,1.3
		c0.7,1.3,0,3-1.5,3.4c-0.5,0.1-0.8,0.7-0.7,1.2c0.1,0.5,0.7,0.8,1.2,0.7c2.8-0.7,4-3.8,2.8-6.2c-0.9-1.7-2.6-3.3-4.7-2.5
		C105.6,3.5,105.5,3.6,105.4,3.7z"/>
	<path class="st0" d="M114.4,12.4c-0.5-0.1-1.1,0.2-1.2,0.8c-0.3,1.3-0.6,2.6-1.6,3.6c-0.4,0.4-0.3,1,0.1,1.4c0.4,0.4,1,0.3,1.4-0.1
		c1.2-1.3,1.7-2.9,2-4.5C115.3,13.1,114.9,12.6,114.4,12.4z"/>
</g>
</svg>
