<?xml version="1.0" encoding="utf-8"?>
<!-- Generator: Adobe Illustrator 24.2.0, SVG Export Plug-In . SVG Version: 6.00 Build 0)  -->
<svg version="1.1" id="Calque_1" xmlns="http://www.w3.org/2000/svg" xmlns:xlink="http://www.w3.org/1999/xlink" x="0px" y="0px"
	 viewBox="0 0 14.1 7.6" style="enable-background:new 0 0 14.1 7.6;" xml:space="preserve">
<style type="text/css">
	.st0{fill-rule:evenodd;clip-rule:evenodd;}
</style>
<g>
	<path class="st0" d="M0.5,3.6C0.3,3.6,0,3.8,0,4c0,0.6,0,1.1,0.1,1.7c0.2,0.8,0.7,1.6,1.4,1.8c0.5,0.2,1.1,0.1,1.7-0.4
		c0.9-0.8,1.4-2,1.6-3.1C5,3,4.8,1.8,4.2,0.9C3.8,0.2,3.1,0,2.5,0C1.9,0.1,1.3,0.4,0.9,1.1C0.7,1.5,0.7,1.6,0.6,2
		C0.5,2.3,0.6,2.6,0.9,2.7c0.3,0.1,0.5-0.1,0.6-0.3C1.6,2,1.7,1.9,1.8,1.6C2,1.2,2.3,1,2.6,1c0.3,0,0.6,0.1,0.8,0.4
		c0.5,0.7,0.6,1.7,0.5,2.5C3.7,4.9,3.3,5.8,2.6,6.4C2.4,6.6,2.2,6.7,2,6.6c-0.2,0-0.4-0.1-0.5-0.3C1.3,6.1,1.2,5.9,1.1,5.6
		C1,5.1,1,4.6,1,4.1C1,3.8,0.8,3.6,0.5,3.6z"/>
	<path class="st0" d="M7.7,6.5c0.5,0.1,1,0,1.7-0.5c0.2-0.2,0.5-0.5,0.6-0.7c0.7-1.1,1-3,0.8-4.4c0-0.3-0.3-0.5-0.6-0.4
		c-0.3,0-0.5,0.3-0.4,0.6c0.2,1.1,0,2.7-0.6,3.7C9.1,4.9,9,5.1,8.8,5.3C8.5,5.5,8.2,5.6,8,5.6C7.8,5.5,7.6,5.3,7.5,5
		C7.3,4.6,7.1,4,7.1,3.5c0-0.7,0.1-1.3,0.2-2c0-0.3-0.1-0.5-0.4-0.6c-0.3,0-0.5,0.1-0.6,0.4C6.2,2.1,6.1,2.8,6.1,3.5
		c0,0.7,0.2,1.5,0.5,2C6.9,6.1,7.3,6.4,7.7,6.5z"/>
	<path class="st0" d="M13.7,6.4c0.3,0,0.5-0.3,0.4-0.6c-0.2-1.7-0.1-3.5,0-5.1c0-0.3-0.2-0.5-0.5-0.5c-0.3,0-0.5,0.2-0.5,0.5
		c0,1.7-0.2,3.6,0,5.3C13.2,6.3,13.4,6.5,13.7,6.4z"/>
</g>
</svg>
