<?xml version="1.0" encoding="utf-8"?>
<!-- Generator: Adobe Illustrator 24.2.0, SVG Export Plug-In . SVG Version: 6.00 Build 0)  -->
<svg version="1.1" id="Calque_1" xmlns="http://www.w3.org/2000/svg" xmlns:xlink="http://www.w3.org/1999/xlink" x="0px" y="0px"
	 viewBox="0 0 121.5 17" style="enable-background:new 0 0 121.5 17;" xml:space="preserve">
<style type="text/css">
	.st0{fill-rule:evenodd;clip-rule:evenodd;}
</style>
<g>
	<path class="st0" d="M8.7,4.1C7,0.9,3.3,2.5,1.8,4.8c-1.1,1.8-1.6,3.8-1.8,5.9c-0.1,0.9-0.1,1.9,0.1,2.8c0.7,2.1,2.3,2.8,4.1,2.5
		c1.5-0.2,3.2-1.2,4-2.3c0.3-0.4,0.2-1.1-0.2-1.4c-0.4-0.3-1.1-0.2-1.4,0.2C6.1,13.3,5.1,14,4,14.1c-0.8,0.1-1.6-0.2-1.9-1.2
		c-0.2-0.6-0.1-1.3-0.1-2c0.2-1.8,0.6-3.5,1.5-5C3.9,5.3,4.4,4.8,5,4.5c0.4-0.2,0.8-0.3,1.2-0.2C6.5,4.5,6.7,4.7,6.9,5
		c0.3,0.5,0.9,0.7,1.4,0.4C8.7,5.2,8.9,4.6,8.7,4.1z"/>
	<path class="st0" d="M9.6,11.7c1.2-2.4,2.2-5,3.2-7.5c0.2-0.5-0.1-1.1-0.6-1.3C11.8,2.7,11.2,3,11,3.5C10,6,9,8.5,7.8,10.8
		c-0.2,0.5,0,1.1,0.5,1.3C8.8,12.4,9.4,12.2,9.6,11.7z"/>
	<path class="st0" d="M11.6,3.5c0.7,4,1.3,7.9,1.7,11.9c0.1,0.5,0.6,0.9,1.1,0.9c0.5-0.1,0.9-0.6,0.9-1.1c-0.4-4-1-8.1-1.7-12.1
		c-0.1-0.5-0.6-0.9-1.2-0.8C11.9,2.4,11.5,3,11.6,3.5z"/>
	<path class="st0" d="M7.2,10.5c2.6,0,5.2,0.2,7.7,0.1c0.6,0,1-0.5,0.9-1.1c0-0.6-0.5-1-1.1-0.9c-2.5,0.2-5.1-0.1-7.6-0.1
		c-0.6,0-1,0.4-1,1S6.6,10.5,7.2,10.5z"/>
	<path class="st0" d="M18.5,14.6c0-1.1,0.2-2.3,0.2-3.4c0.1-2.2,0.1-4.4,0.4-6.6c0.1-0.5-0.3-1-0.9-1.1c-0.5-0.1-1,0.3-1.1,0.9
		c-0.3,2.2-0.3,4.5-0.4,6.7c0,1.2-0.2,2.3-0.2,3.5c0,0.6,0.4,1,1,1C18,15.6,18.4,15.1,18.5,14.6z"/>
	<path class="st0" d="M17.4,4.6c1,3.6,2.4,7.1,3.4,10.7c0.2,0.5,0.7,0.8,1.2,0.7c0.5-0.2,0.8-0.7,0.7-1.2c-1.1-3.6-2.5-7-3.4-10.6
		c-0.1-0.5-0.7-0.9-1.2-0.7C17.5,3.5,17.2,4,17.4,4.6z"/>
	<path class="st0" d="M22.7,15.1c0.7-4.1,1.2-8.3,1.8-12.5c0.1-0.5-0.3-1.1-0.8-1.1c-0.5-0.1-1.1,0.3-1.1,0.8
		c-0.6,4.1-1.1,8.3-1.8,12.4c-0.1,0.5,0.3,1.1,0.8,1.2C22.1,16.1,22.6,15.7,22.7,15.1z"/>
	<path class="st0" d="M25.5,4c0,3.3-0.2,6.8-0.5,10.1c-0.1,0.6,0.4,1,0.9,1.1c0.5,0.1,1-0.4,1.1-0.9c0.3-3.4,0.5-6.9,0.5-10.2
		c0-0.6-0.4-1-1-1C26,3,25.5,3.4,25.5,4z"/>
	<path class="st0" d="M27.1,4.8c0.6-0.2,1.2,0,1.7,0.4c1,0.8,1.7,2.1,2,3c0.7,2.4-0.8,4.5-2.7,5.8c-0.5,0.3-0.6,0.9-0.3,1.4
		c0.3,0.5,0.9,0.6,1.4,0.3c2.7-1.8,4.5-4.8,3.5-8c-0.4-1.3-1.4-3.1-2.7-4.1c-1-0.8-2.3-1.1-3.5-0.7c-0.5,0.2-0.8,0.8-0.6,1.3
		C26,4.7,26.6,5,27.1,4.8z"/>
	<path class="st0" d="M33.7,4.5c-0.2,3.3,0.1,6.6-0.4,9.9c-0.1,0.5,0.3,1.1,0.9,1.1c0.5,0.1,1.1-0.3,1.1-0.9c0.4-3.3,0.2-6.7,0.4-10
		c0-0.6-0.4-1-1-1C34.2,3.5,33.8,3.9,33.7,4.5z"/>
	<path class="st0" d="M37.5,4.1c0,3.3-0.2,6.5-0.4,9.8c0,0.6,0.4,1,1,1c0.6,0,1-0.4,1-1c0.1-3.3,0.3-6.6,0.4-9.9c0-0.6-0.4-1-1-1
		C37.9,3.1,37.5,3.5,37.5,4.1z"/>
	<path class="st0" d="M38.8,4.4c1.5,0.3,2.5,1.4,3.1,2.8c0.6,1.5,0.7,3.2,0.1,4.5c-0.4,1-1.4,1.7-2.3,2.3c-0.5,0.3-0.6,0.9-0.3,1.4
		c0.3,0.5,0.9,0.6,1.4,0.3c1.2-0.8,2.4-1.8,3-3.2c0.8-1.8,0.7-4.1-0.1-6.1c-0.8-2-2.4-3.7-4.6-4c-0.5-0.1-1.1,0.3-1.2,0.8
		C37.9,3.7,38.2,4.3,38.8,4.4z"/>
	<path class="st0" d="M45.9,13.5c1-3.2,1.9-6.4,3-9.7c0.2-0.5-0.1-1.1-0.7-1.3c-0.5-0.2-1.1,0.1-1.3,0.7c-1,3.2-2,6.5-3,9.7
		c-0.2,0.5,0.1,1.1,0.7,1.2C45.2,14.4,45.8,14.1,45.9,13.5z"/>
	<path class="st0" d="M47.2,3.1c0.8,4.3,1.4,8.7,2,13.1c0.1,0.5,0.6,0.9,1.1,0.9s0.9-0.6,0.9-1.1c-0.6-4.4-1.2-8.8-2-13.1
		C49,2.2,48.5,1.8,48,1.9C47.4,2,47.1,2.5,47.2,3.1z"/>
	<path class="st0" d="M45,12.8c2,0.2,3.9-0.3,5.9-0.3c0.6,0,1-0.5,1-1c0-0.6-0.5-1-1-1c-1.9,0-3.8,0.6-5.7,0.3
		c-0.5-0.1-1,0.3-1.1,0.9C44.1,12.2,44.5,12.7,45,12.8z"/>
	<path class="st0" d="M53.6,4.9c-0.2,3.6-0.1,7.1,0.2,10.7c0,0.6,0.5,1,1.1,0.9c0.6,0,1-0.5,0.9-1.1c-0.2-3.5-0.3-7-0.2-10.5
		c0-0.6-0.4-1-1-1C54.1,3.9,53.6,4.3,53.6,4.9z"/>
	<path class="st0" d="M51.4,6.9c2.9-1.7,5.9-3.3,8.9-4.9c0.5-0.3,0.7-0.9,0.4-1.4c-0.3-0.5-0.9-0.7-1.4-0.4c-3,1.6-6,3.2-8.9,4.9
		C49.9,5.4,49.7,6,50,6.5C50.3,7,50.9,7.1,51.4,6.9z"/>
	<path class="st0" d="M58.8,4.2c-1.2,2.6-2.5,5.6-2.2,8.6c0.1,0.9,0.5,1.6,1.2,2.1c0.7,0.4,1.5,0.6,2.4,0.2c1.4-0.5,2.4-1.7,3.3-2.9
		c0.3-0.4,0.2-1.1-0.2-1.4s-1.1-0.2-1.4,0.2c-0.6,0.9-1.4,1.8-2.4,2.2c-0.2,0.1-0.4,0.1-0.6,0c-0.2-0.1-0.3-0.3-0.3-0.6
		c-0.2-2.6,1-5.3,2.1-7.6c0.2-0.5,0-1.1-0.5-1.3C59.6,3.5,59,3.7,58.8,4.2z"/>
	<path class="st0" d="M59.2,10.7c0.7-0.2,1.5-0.3,2.2-0.6c0.5-0.2,0.7-0.8,0.5-1.3c-0.2-0.5-0.8-0.7-1.3-0.5
		c-0.6,0.3-1.2,0.3-1.9,0.5c-0.5,0.1-0.9,0.7-0.7,1.2C58.1,10.5,58.6,10.8,59.2,10.7z"/>
	<path class="st0" d="M60.6,6.1c0.6-0.3,1.3-0.5,2-0.7c0.5-0.1,0.9-0.6,0.8-1.2c-0.1-0.5-0.6-0.9-1.2-0.8c-0.8,0.2-1.6,0.5-2.4,0.8
		C59.3,4.5,59,5,59.3,5.6C59.5,6.1,60.1,6.3,60.6,6.1z"/>
	<path class="st0" d="M66.3,0.7c-0.4,1.2-0.9,2.4-1.5,3.5c-0.3,0.5-0.1,1.1,0.4,1.4s1.1,0.1,1.4-0.4c0.7-1.3,1.2-2.5,1.7-3.9
		c0.2-0.5-0.1-1.1-0.6-1.3C67.1-0.1,66.5,0.2,66.3,0.7z"/>
	<path class="st0" d="M72.9,3.9c-3-1.3-5.7,1.8-4.6,4.7c0.2,0.4,0.4,0.8,0.8,1.3c0.4,0.5,0.9,0.9,1.4,1.4c0.3,0.3,0.5,0.5,0.5,0.9
		c0,0.2-0.1,0.3-0.2,0.5c-0.2,0.3-0.3,0.3-0.6,0.5c-0.3,0.2-0.6,0.3-0.9,0.4c-0.5,0.2-1,0.2-1.6,0.3c-0.5,0.1-0.9,0.6-0.9,1.1
		c0.1,0.5,0.6,0.9,1.1,0.9c0.7-0.1,1.3-0.2,2-0.4c0.5-0.2,1-0.3,1.5-0.7c0.5-0.4,0.6-0.4,0.9-0.8c0.5-0.6,0.7-1.2,0.7-1.8
		c0-0.5-0.2-1.1-0.6-1.6c-0.4-0.5-0.9-1-1.4-1.6c-0.3-0.3-0.7-0.7-0.8-1c-0.5-1.3,0.6-2.8,2-2.2c0.5,0.2,1.1,0,1.3-0.5
		C73.7,4.7,73.4,4.1,72.9,3.9z"/>
	<path class="st0" d="M79.1,4.1c0,3.4,0,6.9-0.2,10.3c0,0.6,0.4,1,0.9,1.1c0.6,0,1-0.4,1.1-0.9c0.2-3.5,0.2-7,0.2-10.4
		c0-0.6-0.5-1-1-1C79.5,3.1,79.1,3.6,79.1,4.1z"/>
	<path class="st0" d="M80.6,4.8c0.7,0,1.3,0.3,1.7,0.7C83,6.1,83.2,7.1,83,8.2c-0.1,0.4-0.2,0.8-0.4,1.2C82.5,9.7,82.3,9.9,82,10
		c-0.5,0.2-0.7,0.8-0.5,1.3c0.2,0.5,0.8,0.7,1.3,0.5c1.3-0.5,1.9-2,2.1-3.3c0.4-1.8-0.1-3.5-1.1-4.5c-0.7-0.7-1.8-1.2-3.1-1.3
		c-0.6,0-1,0.4-1,1C79.7,4.3,80.1,4.8,80.6,4.8z"/>
	<path class="st0" d="M85.5,4.3c0.3,3.4,0,6.8,0.2,10.2c0,0.6,0.5,1,1,1c0.6,0,1-0.5,0.9-1c-0.2-3.4,0.2-6.9-0.2-10.3
		c-0.1-0.5-0.5-1-1.1-0.9C85.9,3.2,85.5,3.7,85.5,4.3z"/>
	<path class="st0" d="M86.6,11.2c1.6-0.4,3.2-0.8,4.8-0.9c0.6,0,1-0.5,0.9-1.1c0-0.6-0.5-1-1.1-0.9c-1.7,0.1-3.5,0.5-5.2,0.9
		c-0.5,0.1-0.9,0.7-0.7,1.2C85.5,11,86,11.3,86.6,11.2z"/>
	<path class="st0" d="M89.9,4.8c0.6,3.3,0,6.4,0.1,9.7c0,0.6,0.5,1,1,1c0.6,0,1-0.5,1-1c-0.1-3.4,0.5-6.7-0.1-10
		c-0.1-0.5-0.6-0.9-1.2-0.8C90.2,3.7,89.8,4.2,89.9,4.8z"/>
	<path class="st0" d="M93.3,9.4c-0.2,1-0.4,2.2-0.1,3.2c0.4,1.4,1.4,2.4,2.4,2.5c0.7,0.1,1.6-0.1,2.5-0.9c0.4-0.4,0.7-0.8,1-1.2
		c0.4-0.6,0.7-1.3,0.9-2c0.5-1.6,0.9-3.8,0.3-5.4c-0.5-1.4-1.5-2.3-2.5-2.5c-0.8-0.1-1.7,0.2-2.5,1.2c-0.3,0.4-0.6,0.9-0.8,1.4
		c-0.2,0.5,0,1.1,0.5,1.3c0.5,0.2,1.1,0,1.3-0.5c0.1-0.4,0.3-0.7,0.5-1c0.2-0.3,0.4-0.5,0.6-0.5c0.2,0,0.3,0.1,0.4,0.3
		c0.2,0.2,0.4,0.5,0.5,0.9c0.5,1.3,0,2.9-0.4,4.1c-0.2,0.5-0.4,1.1-0.7,1.5c-0.2,0.3-0.4,0.6-0.6,0.8c-0.3,0.3-0.5,0.4-0.8,0.4
		c-0.4-0.1-0.7-0.6-0.8-1.1c-0.2-0.7,0-1.5,0.2-2.2c0.1-0.5-0.2-1.1-0.8-1.2C93.9,8.5,93.4,8.9,93.3,9.4z"/>
	<path class="st0" d="M103.2,5.4c-0.2,2.6-0.4,5.3-0.3,7.9c0,0.6,0.5,1,1,1c0.6,0,1-0.5,1-1c-0.1-2.5,0.1-5.1,0.3-7.6
		c0.1-0.5-0.4-1-0.9-1.1C103.7,4.5,103.2,4.9,103.2,5.4z"/>
	<path class="st0" d="M101.8,6.2c2.3-0.4,4.6-1.4,6.9-1.6c0.5,0,1-0.5,0.9-1.1c0-0.5-0.5-1-1.1-0.9c-2.4,0.2-4.7,1.3-7,1.7
		c-0.5,0.1-0.9,0.6-0.8,1.2C100.8,5.9,101.3,6.3,101.8,6.2z"/>
	<path class="st0" d="M107.3,8.9c-0.3,0.9-0.5,1.8-0.5,2.7c0,0.9,0.5,2.2,1.2,3c0.5,0.5,1,0.8,1.6,0.9c0.6,0.1,1.3-0.1,2-0.6
		c1.8-1.4,3-4.6,2.2-6.8c-0.3-0.7-0.6-1.5-1-2c-0.4-0.5-0.9-0.8-1.5-0.9c-0.6-0.1-1.2,0-2.1,0.4c-0.5,0.3-0.7,0.9-0.4,1.4
		c0.3,0.5,0.9,0.7,1.4,0.4c0.3-0.2,0.5-0.3,0.7-0.2c0.2,0,0.3,0.2,0.4,0.4c0.2,0.3,0.4,0.8,0.6,1.2c0.2,0.6,0.2,1.2,0,1.9
		c-0.3,1.1-0.9,2.1-1.6,2.7c-0.2,0.1-0.3,0.2-0.5,0.2c-0.2,0-0.3-0.1-0.4-0.3c-0.4-0.4-0.7-1.1-0.7-1.7c0-0.7,0.2-1.4,0.4-2
		c0.2-0.5-0.1-1.1-0.7-1.2C108,8.1,107.4,8.4,107.3,8.9z"/>
	<path class="st0" d="M120.1,3.2c-1.1-0.8-2-0.9-2.8-0.7c-0.8,0.2-1.4,0.8-1.8,1.6c-0.5,1-0.7,2.4-0.3,3.6c0.3,0.9,0.8,1.3,1.6,1.7
		c0.5,0.2,1,0.3,1.5,0.5c0.6,0.2,1.1,0.9,1.3,1.5c0.1,0.5-0.3,0.7-0.7,0.9c-0.6,0.3-1.4,0.4-1.9,0.2c-0.5-0.1-1.1,0.2-1.2,0.7
		c-0.1,0.5,0.2,1.1,0.7,1.2c1,0.3,2.7,0.1,3.8-0.7c0.9-0.6,1.4-1.5,1.2-2.8c-0.3-1.2-1.3-2.5-2.5-2.9c-0.4-0.2-0.8-0.3-1.2-0.4
		c-0.3-0.1-0.6-0.2-0.7-0.5c-0.2-0.7-0.1-1.4,0.1-2c0.1-0.3,0.4-0.6,0.6-0.7c0.3-0.1,0.6,0,1,0.3c0.4,0.3,1.1,0.3,1.4-0.2
		C120.6,4.2,120.6,3.6,120.1,3.2z"/>
</g>
</svg>
