<?xml version="1.0" encoding="utf-8"?>
<!-- Generator: Adobe Illustrator 24.2.0, SVG Export Plug-In . SVG Version: 6.00 Build 0)  -->
<svg version="1.1" id="Calque_1" xmlns="http://www.w3.org/2000/svg" xmlns:xlink="http://www.w3.org/1999/xlink" x="0px" y="0px"
	 viewBox="0 0 152.5 14.3" style="enable-background:new 0 0 152.5 14.3;" xml:space="preserve">
<style type="text/css">
	.st0{fill-rule:evenodd;clip-rule:evenodd;}
</style>
<g>
	<path class="st0" d="M151.4,10.1c-0.6,0-0.9,0.5-1,0.7c-0.4,0.4-0.4,1,0,1.4c0.2,0.2,0.5,0.3,0.7,0.3s0.5-0.1,0.7-0.3
		c0.1-0.1,0.2-0.2,0.2-0.3c0.3-0.2,0.5-0.5,0.4-0.9C152.4,10.5,151.9,10.1,151.4,10.1z"/>
	<path class="st0" d="M151.6,7.3c0,0-0.2,0-0.2,0c-0.5,0-0.9,0.4-0.9,1s0.5,1,1,1c0,0,0,0,0,0c0,0,0,0,0.1,0c0.5,0,1-0.4,1-0.9
		C152.5,7.8,152.1,7.3,151.6,7.3z"/>
	<path class="st0" d="M5.6,1.3C4.1,0.2,2.6,0.3,1,1C0.4,1.2,0.2,1.8,0.4,2.3c0,0,0,0,0,0C0.1,2.5,0,2.8,0,3.2
		C0.4,6.6,0.4,10,0.6,13.4c0,0.6,0.5,1,1,0.9c0.6,0,1-0.5,0.9-1C2.4,9.8,2.4,6.4,2,3c0-0.1,0-0.1-0.1-0.2c0.8-0.3,1.7-0.4,2.5,0.1
		c1.4,1,1.2,3.3-0.5,3.8C3.3,6.8,3,7.4,3.2,7.9c0.2,0.5,0.7,0.8,1.2,0.7C7.8,7.6,8.2,3.3,5.6,1.3z"/>
	<path class="st0" d="M13.7,0.7c-0.6,0-1,0.4-1.1,0.9c-0.1,1.7-0.3,3.4-0.4,5.2c-0.3-0.2-0.6-0.2-0.9-0.1c-0.5,0.2-1.1,0.4-1.7,0.6
		c0.1-1.7,0.1-3.4,0.1-5.1c0-0.6-0.5-1-1-1c-0.6,0-1,0.5-1,1C7.9,4,7.8,6,7.7,7.9c-0.3,0.2-0.4,0.6-0.3,1c0,0.2,0.2,0.3,0.3,0.5
		c0,1.2,0,2.5,0.1,3.7c0.1,0.5,0.5,1,1.1,0.9c0.5-0.1,0.9-0.5,0.9-1.1c-0.1-1.2-0.1-2.3-0.1-3.5c0.8-0.2,1.6-0.5,2.4-0.8
		c0,0,0,0,0.1,0c-0.1,1.3-0.2,2.6-0.2,3.9c0,0.6,0.4,1,1,1s1-0.4,1-1c0-3.6,0.6-7.1,0.7-10.7C14.7,1.2,14.3,0.7,13.7,0.7z"/>
	<path class="st0" d="M20.3,2.3c-0.5-0.2-1.1-0.1-1.7,0.1c-0.9,0.4-1.7,1.2-2.1,1.8c-0.3,0.5-0.2,1.1,0.3,1.4
		c0.5,0.3,1.1,0.2,1.4-0.3c0.1-0.2,0.4-0.5,0.7-0.7c0.2-0.2,0.4-0.3,0.6-0.4c0.1,0,0.2-0.1,0.2-0.1c0,0,0.1,0.1,0.1,0.2
		c0.6,1.8,0.6,4.3,0.1,6.1c-0.2,0.5-0.6,1.1-1.1,1.4c-0.1,0.1-0.3,0.2-0.5,0.1c-0.1,0-0.3-0.1-0.4-0.3c-0.7-1-0.6-2.6-0.5-3.7
		c0.1-0.5-0.3-1-0.9-1.1c-0.5-0.1-1,0.3-1.1,0.9c-0.2,1.6-0.1,3.8,0.9,5.1c0.5,0.7,1.1,1,1.7,1.1c0.6,0.1,1.2-0.1,1.7-0.4
		c0.9-0.5,1.7-1.6,2-2.5C22.4,9,22.4,6,21.7,3.8C21.4,3,20.9,2.5,20.3,2.3z"/>
	<path class="st0" d="M31.2,2c0.5-0.1,0.9-0.6,0.9-1.1C32,0.3,31.5-0.1,30.9,0c-2.6,0.3-5.1,1.3-7.6,1.9c-0.5,0.1-0.9,0.7-0.7,1.2
		c0.1,0.5,0.7,0.9,1.2,0.7c0.6-0.1,1.2-0.3,1.8-0.5c-0.1,2.9-0.1,5.8-0.2,8.8c0,0.6,0.4,1,1,1c0.6,0,1-0.4,1-1c0.1-3,0.2-6,0.2-9.1
		c0-0.1,0-0.2-0.1-0.4C28.7,2.4,29.9,2.1,31.2,2z"/>
	<path class="st0" d="M35.2,2.4C34.2,2,33.1,2,32,2.8c-0.5,0.3-0.6,0.9-0.3,1.4s0.9,0.6,1.4,0.3c0.4-0.3,0.9-0.4,1.3-0.2
		c0.4,0.2,0.7,0.6,0.8,1.2c0.4,1.7-0.1,4.1-1.1,5.4c-0.4,0.5-0.7,0.7-1.1,0.7c-0.7-0.1-1.1-0.8-1.2-1.8c-0.1-0.9-0.1-1.7-0.1-2.6
		c0-0.6-0.4-1-1-1c-0.6,0-1,0.4-1,1c0,1-0.1,2,0.1,2.9c0.3,2.1,1.6,3.4,3,3.5c1,0.1,2.1-0.3,3-1.4c1.3-1.7,1.9-4.8,1.5-7
		C36.9,3.7,36.1,2.8,35.2,2.4z"/>
	<path class="st0" d="M45.6,1.6c-0.8,0-1.6,0.2-2.3,0.5c-0.5,0.2-0.8,0.8-0.5,1.3c0,0.1,0.1,0.1,0.1,0.1c0,0,0,0,0,0
		c0,2.8,0.1,5.5-0.1,8.2c0,0.5,0.4,1,0.9,1.1c0.6,0,1-0.4,1.1-0.9c0.2-2.8,0.1-5.5,0.1-8.3c0.2-0.1,0.5-0.1,0.8-0.1
		c3.5,0,3.7,4.5,1.2,6.2c-0.5,0.3-0.6,0.9-0.2,1.4c0.3,0.4,0.9,0.6,1.4,0.2C51.9,8.7,51.3,1.6,45.6,1.6z"/>
	<path class="st0" d="M57,1.2c-1,0.1-1.9,0.2-2.8,0.1c-0.6-0.1-1,0.4-1.1,0.9c0,0.1,0,0.1,0,0.1c-0.1,0.1-0.2,0.2-0.3,0.4
		c-0.8,2-2.2,4.6-2.1,6.8c0,0.8,0.3,1.3,0.6,1.7c0.4,0.4,0.9,0.6,1.4,0.7c1.3,0.1,3-0.6,3.7-1.3c0.4-0.4,0.4-1,0-1.4
		c-0.4-0.4-1-0.4-1.4,0c-0.2,0.2-0.6,0.4-1,0.6c-0.3,0.1-0.6,0.2-0.9,0.2c-0.2,0-0.4,0-0.5-0.1c-0.1-0.1-0.1-0.2-0.1-0.3
		c0-0.6,0.1-1.3,0.3-2c0.2,0.4,0.7,0.6,1.1,0.5c0.4-0.1,0.8-0.2,1.2-0.2c0.5-0.1,0.9-0.6,0.8-1.1C56,6.2,55.5,5.8,55,5.9
		C54.5,6,54.1,6,53.6,6.2c0,0-0.1,0-0.1,0c0.4-0.9,0.8-1.9,1.2-2.7c0-0.1,0-0.1,0-0.2c0.8,0,1.6-0.1,2.5-0.2c0.5,0,1-0.5,0.9-1.1
		S57.6,1.2,57,1.2z"/>
	<path class="st0" d="M64.7,9.9c-0.6,0.2-1.3,0.7-2,1c-0.3,0.1-0.6,0.2-0.9,0.2c0,0,0-0.1,0-0.1c0.1-0.4,0.2-0.8,0.3-1
		c0.8-2.5,2-4.9,2.8-7.4c0.2-0.5-0.1-1.1-0.6-1.3c-0.5-0.2-1.1,0.1-1.3,0.6c-0.8,2.5-2.1,4.9-2.8,7.4c-0.1,0.3-0.4,1.2-0.4,1.9
		c0,0.7,0.3,1.2,0.7,1.4c0.7,0.4,1.6,0.4,2.4,0.1c0.9-0.3,1.8-0.8,2.5-1.1c0.5-0.2,0.8-0.8,0.6-1.3S65.3,9.7,64.7,9.9z"/>
	<path class="st0" d="M73.5,12.8c-0.4-1.1-0.6-2.2-0.8-3.3c0.5-0.1,0.9-0.6,0.8-1.2c-0.1-0.5-0.6-0.8-1.1-0.8
		c-0.3-2.1-0.6-4.2-1.1-6.2c-0.1-0.5-0.7-0.8-1.2-0.7c-0.4,0.1-0.7,0.5-0.7,0.9c-0.1,0.1-0.3,0.2-0.3,0.4c-0.8,2-1.8,4-2.5,6.1
		c-0.1,0.2-0.2,0.4-0.2,0.6c0,0,0,0.1,0,0.1c-0.1,0.5,0.2,1,0.7,1.1c0.3,0.1,0.6,0,0.9-0.2c0.9,0,1.9,0,2.8,0
		c0.2,1.3,0.5,2.6,0.9,3.8c0.2,0.5,0.7,0.8,1.3,0.6C73.4,13.9,73.6,13.3,73.5,12.8z M68.6,7.6c0.4-1,0.8-2,1.2-3c0.2,1,0.3,2,0.5,3
		C69.7,7.7,69.2,7.7,68.6,7.6z"/>
	<path class="st0" d="M84.1,11.1c-0.6,0.2-1.2,0.4-1.9,0.3c-0.6-0.1-1-0.3-1.3-0.6c-0.5-0.5-0.6-1.2-0.6-1.9c0-1.5,0.7-3.1,1.4-4.1
		c0.3-0.4,0.7-0.8,1.2-1c0.3-0.2,0.7-0.3,1.1-0.1c0.5,0.2,1.1,0,1.3-0.5s0-1.1-0.5-1.3c-0.8-0.3-1.6-0.3-2.3,0
		c-0.9,0.3-1.8,1.1-2.3,1.8c-0.9,1.3-1.8,3.4-1.8,5.3c0,1.3,0.3,2.5,1.1,3.3c0.6,0.6,1.3,1,2.4,1.2c1,0.2,1.9-0.1,2.8-0.3
		c0.5-0.2,0.8-0.7,0.7-1.2C85.2,11.2,84.6,10.9,84.1,11.1z"/>
	<path class="st0" d="M92.3,7.6c-0.3,0-0.7,0-1,0.1c-0.2-1.7-0.5-3.5-1-5.2c-0.1-0.5-0.7-0.8-1.2-0.7c-0.4,0.1-0.7,0.5-0.7,0.9
		C88.2,2.8,88,2.9,88,3.1c-0.8,1.8-1.5,3.6-2.3,5.3c-0.3,0.2-0.6,0.5-0.5,0.9c0,0.1,0,0.1,0.1,0.2c0,0.4,0.2,0.8,0.5,1
		c0.5,0.2,1,0.1,1.3-0.3c0.9-0.1,1.7-0.2,2.6-0.3c0.2,1.3,0.3,2.6,0.9,3.7c0.2,0.5,0.8,0.7,1.3,0.5c0.5-0.2,0.7-0.8,0.5-1.3
		c-0.4-0.9-0.6-2-0.7-3.1c0.3,0,0.6-0.1,0.9-0.1c0.6,0,1-0.5,1-1C93.3,8,92.9,7.6,92.3,7.6z M89,5.8c0.1,0.7,0.2,1.4,0.3,2.1
		C88.9,8,88.4,8,88,8.1C88.3,7.3,88.7,6.6,89,5.8z"/>
	<path class="st0" d="M103.2,1.6c-0.5-0.2-1.1,0.1-1.2,0.7c-0.8,2.5-1.6,5-2.3,7.5c-0.7-2.1-1.3-4.3-2-6.4c-0.2-0.5-0.8-0.8-1.3-0.6
		c0,0-0.1,0.1-0.1,0.1c-0.4,0-0.8,0.3-0.9,0.8c-0.6,2.8-0.8,5.7-0.9,8.6c0,0.6,0.4,1,0.9,1c0.6,0,1-0.4,1-0.9
		c0.1-1.7,0.2-3.4,0.4-5.1c0.5,1.5,0.9,3,1.4,4.5c0.1,0.4,0.4,0.6,0.8,0.7c0,0.1-0.1,0.2-0.1,0.3c-0.1,0.5,0.2,1.1,0.7,1.2
		c0.5,0.1,1.1-0.2,1.2-0.7c0.9-3.5,2.1-6.9,3.1-10.3C104,2.3,103.7,1.7,103.2,1.6z"/>
	<path class="st0" d="M106,2.3c-0.5,0.1-0.9,0.5-0.9,1c-0.2,0.2-0.3,0.4-0.2,0.7c0.1,2.2,0.2,4.4,0.2,6.7c0,0.6,0.5,1,1,1
		c0.6,0,1-0.5,1-1c0-2.1-0.1-4.2-0.2-6.3c1.7,0.1,3.1,1.8,3,3.6c-0.1,1.5-1,2.6-1.9,3.7c-0.4,0.4-0.3,1,0.1,1.4
		c0.4,0.4,1,0.3,1.4-0.1c1.2-1.4,2.3-2.9,2.4-4.9C112.1,4.7,109.3,1.8,106,2.3z"/>
	<path class="st0" d="M114.8,2.5c-0.6-0.1-1,0.4-1.1,0.9c-0.2,2.5-0.3,5-0.3,7.5c0,0.6,0.4,1,1,1s1-0.4,1-1c0-2.4,0-4.9,0.3-7.3
		C115.8,3,115.4,2.6,114.8,2.5z"/>
	<path class="st0" d="M122.6,2.9c-1.1-0.8-2.4-1.2-3.5-1.1c-0.3,0-0.5,0.2-0.7,0.4c-0.3,0.2-0.5,0.5-0.5,0.9c0.1,2.6,0,5.1-0.2,7.6
		c0,0.6,0.4,1,0.9,1.1c0.5,0,1-0.4,1.1-0.9c0.2-2.4,0.3-4.6,0.3-7c0.5,0.1,1.1,0.3,1.6,0.7c1.1,0.7,1.9,2,1.6,3.5
		c-0.1,0.8-0.4,1.4-0.8,2c-0.3,0.4-0.5,1-0.9,1.3c-0.5,0.3-0.6,0.9-0.3,1.4c0.3,0.5,0.9,0.6,1.4,0.3c0.7-0.4,1.2-1.3,1.6-2
		c0.5-0.8,0.8-1.6,1-2.6C125.5,6.1,124.3,4.1,122.6,2.9z"/>
	<path class="st0" d="M133.4,10.1c-0.1-0.5-0.6-0.9-1.1-0.9c-0.1,0-0.1,0-0.2,0c-0.1-0.4-0.2-0.7-0.3-1.1c-0.4-1.6-0.8-3.1-1.5-4.6
		c-0.3-0.5-0.9-0.7-1.4-0.4c-0.2,0.1-0.3,0.2-0.4,0.3c-0.3,0.2-0.4,0.4-0.5,0.7c-0.2,1.9-0.6,3.7-1.1,5.5c-0.1,0-0.2,0-0.2,0
		c-0.6,0-1,0.5-0.9,1.1c0,0.4,0.3,0.7,0.6,0.8c-0.1,0.3-0.2,0.5-0.3,0.8c-0.2,0.5,0.1,1.1,0.6,1.3c0.5,0.2,1.1-0.1,1.3-0.6
		c0.2-0.5,0.3-1,0.5-1.5c0.7-0.1,1.4-0.1,2.1-0.2c0.2,0.6,0.5,1.3,0.9,1.9c0.3,0.5,0.9,0.6,1.4,0.4c0.5-0.3,0.6-0.9,0.4-1.4
		c-0.2-0.4-0.4-0.7-0.5-1.1C133.1,11,133.4,10.6,133.4,10.1z M129.1,9.6c0.2-0.7,0.3-1.3,0.5-2c0.1,0.4,0.2,0.7,0.3,1.1
		c0.1,0.3,0.1,0.5,0.2,0.8C129.7,9.5,129.4,9.6,129.1,9.6z"/>
	<path class="st0" d="M137.6,3.9c1.5,0,3.1,0,4.6-0.2c0.5,0,1-0.5,0.9-1.1c0-0.5-0.5-1-1.1-0.9c-3.1,0.3-6.3,0-9.3,0.7
		c-0.5,0.1-0.9,0.7-0.8,1.2c0.1,0.5,0.7,0.9,1.2,0.8c0.8-0.2,1.6-0.3,2.5-0.4c0.2,2.6-0.1,5.2,0,7.8c0,0.6,0.5,1,1,1
		c0.6,0,1-0.5,1-1C137.4,9.1,137.8,6.6,137.6,3.9z"/>
	<path class="st0" d="M148.1,3c-1.2,0.3-2.3,0.5-3.5,0.7c0,0,0,0-0.1,0c-0.4-0.1-0.8,0-1,0.3c-0.6,0.7-0.6,0.7-1.1,1.4
		c-0.7,1.1-2,3.4-2.1,5.1c0,0.8,0.1,1.5,0.6,2c0.4,0.5,1.1,1,2.2,1.1c0.5,0.1,1.1,0,1.5-0.1c0.6-0.1,1.1-0.3,1.7-0.6
		c0.7-0.4,1.4-0.8,2-1.3c0.4-0.3,0.5-1,0.2-1.4c-0.3-0.4-1-0.5-1.4-0.2c-0.5,0.4-1.1,0.8-1.7,1.1c-0.4,0.2-0.7,0.3-1.2,0.4
		c-0.3,0.1-0.6,0.1-0.9,0c-0.4,0-0.7-0.1-0.8-0.3c-0.3-0.3-0.2-0.8,0-1.3c0.1-0.5,0.3-1.1,0.6-1.6c0.2,0.3,0.5,0.5,0.9,0.5
		c0.8,0,1.5-0.1,2.2-0.3c0.5-0.1,0.9-0.7,0.7-1.2c-0.1-0.5-0.7-0.9-1.2-0.7C145,6.9,144.4,7,143.8,7c0.1-0.1,0.2-0.3,0.2-0.4
		c0.3-0.5,0.4-0.6,0.7-0.9c0.1,0,0.1,0,0.2,0c1.2-0.2,2.4-0.4,3.6-0.7c0.5-0.1,0.9-0.7,0.7-1.2C149.2,3.3,148.6,2.9,148.1,3z"/>
</g>
</svg>
