<?xml version="1.0" encoding="utf-8"?>
<!-- Generator: Adobe Illustrator 24.2.0, SVG Export Plug-In . SVG Version: 6.00 Build 0)  -->
<svg version="1.1" id="Calque_1" xmlns="http://www.w3.org/2000/svg" xmlns:xlink="http://www.w3.org/1999/xlink" x="0px" y="0px"
	 viewBox="0 0 31.3 13.6" style="enable-background:new 0 0 31.3 13.6;" xml:space="preserve">
<style type="text/css">
	.st0{fill-rule:evenodd;clip-rule:evenodd;}
</style>
<g>
	<path class="st0" d="M7.2,4.2c1.3-0.7,2.6-1.4,3.9-2c0.5-0.2,0.7-0.9,0.4-1.3c-0.2-0.5-0.8-0.7-1.3-0.4C6.8,2.1,3.4,3.8,0.4,6.1
		C0,6.5-0.1,7.1,0.2,7.5C0.5,8,1.2,8,1.6,7.7C2.8,6.8,4,6,5.3,5.3c0,2.4,0,4.8,0.2,7.1c0,0.6,0.5,1,1.1,0.9c0.5,0,1-0.5,0.9-1.1
		C7.3,9.7,7.3,7.1,7.3,4.5C7.3,4.4,7.3,4.3,7.2,4.2z"/>
	<path class="st0" d="M10.4,5.3c-0.5-0.1-1,0.3-1.1,0.9C9,7.8,9,9.7,9.2,11.3c0,0.6,0.5,1,1.1,0.9c0.5,0,1-0.5,0.9-1.1
		C11,9.6,11,8,11.2,6.5C11.3,5.9,10.9,5.4,10.4,5.3z"/>
	<path class="st0" d="M16.9,3.5c0-0.1,0-0.1,0-0.2c1-0.5,2.1-1,3.1-1.4c0.5-0.2,0.7-0.8,0.5-1.3c-0.2-0.5-0.8-0.7-1.3-0.5
		c-2.5,1-4.8,2.3-7.3,3.4c-0.5,0.2-0.7,0.8-0.5,1.3c0.2,0.5,0.8,0.7,1.3,0.5c0.7-0.3,1.4-0.6,2.1-1c-0.3,2.8-0.2,5.7,0.2,8.4
		c0.1,0.5,0.6,0.9,1.1,0.8c0.5-0.1,0.9-0.6,0.8-1.1C16.5,9.6,16.5,6.4,16.9,3.5z"/>
	<path class="st0" d="M30.4,4.4c0.6,0,1-0.5,1-1c0-0.6-0.5-1-1-0.9c-1.1,0.1-2.1,0.2-3.1,0.4c-0.5-0.1-1,0-1.2,0.5
		C25.1,5,24,6.9,23.8,8.7c-0.1,1,0.2,1.9,0.8,2.5c0.6,0.6,1.4,0.9,2.5,0.8c0.6-0.1,1.1-0.2,1.7-0.5c0.6-0.3,1.2-0.7,1.7-1.2
		c0.4-0.4,0.4-1,0.1-1.4c-0.4-0.4-1-0.4-1.4-0.1C28.8,9,28.4,9.3,28,9.6c-0.4,0.2-0.7,0.3-1.1,0.3c-0.3,0-0.6,0-0.8-0.2
		c-0.2-0.2-0.3-0.5-0.2-0.8c0,0,0,0,0,0c0.2,0.1,0.4,0.1,0.6,0c0.5-0.2,1.1-0.3,1.6-0.4c0.5-0.1,0.9-0.7,0.7-1.2
		c-0.1-0.5-0.7-0.9-1.2-0.7c-0.4,0.1-0.8,0.2-1.1,0.3c0.3-0.6,0.6-1.3,1-1.9C28.4,4.7,29.4,4.5,30.4,4.4z"/>
	<path class="st0" d="M21.9,9.6c-0.3,0.1-0.6,0.2-1,0.3c-0.2,0-0.4,0.1-0.6,0.2c0,0-0.1,0-0.1,0c0-0.1,0-0.1,0-0.2
		c0-0.3,0.1-0.6,0.1-0.8c0.1-0.8,0.5-1.5,0.8-2.3c0.4-1,0.8-2,1.2-2.9c0.2-0.5,0-1.1-0.5-1.3s-1.1,0-1.3,0.5c-0.4,1-0.8,2-1.2,3
		c-0.4,0.9-0.8,1.8-0.9,2.7c-0.1,0.4-0.2,1.3-0.1,2c0.1,0.6,0.5,1,0.9,1.2c0.4,0.2,0.8,0.2,1.2,0.1c0.2,0,0.3-0.1,0.5-0.1
		c0,0,0,0,0,0c0,0,0.1,0,0.1,0c0,0,0,0,0,0c0.5-0.1,1-0.3,1.5-0.4c0.5-0.2,0.8-0.7,0.7-1.2C22.9,9.8,22.4,9.5,21.9,9.6z"/>
</g>
</svg>
