<?xml version="1.0" encoding="utf-8"?>
<!-- Generator: Adobe Illustrator 24.2.0, SVG Export Plug-In . SVG Version: 6.00 Build 0)  -->
<svg version="1.1" id="Calque_1" xmlns="http://www.w3.org/2000/svg" xmlns:xlink="http://www.w3.org/1999/xlink" x="0px" y="0px"
	 viewBox="0 0 33.6 14.6" style="enable-background:new 0 0 33.6 14.6;" xml:space="preserve">
<style type="text/css">
	.st0{fill-rule:evenodd;clip-rule:evenodd;}
</style>
<g>
	<path class="st0" d="M32.6,12.3C32.6,12.3,32.6,12.3,32.6,12.3c0.6,0,1-0.5,1-1h-0.6l0.6-0.1c-0.1-0.5-0.5-1-1.1-0.9
		c-0.5,0.1-1,0.5-0.9,1.1C31.6,11.9,32,12.3,32.6,12.3z"/>
	<path class="st0" d="M32.2,8.9c0.1,0,0.2,0.1,0.4,0.1c0.4,0,0.7-0.2,0.9-0.6c0.2-0.5,0-1.1-0.4-1.3C33,7,32.9,7,32.8,7
		c-0.5-0.1-1.1,0.2-1.2,0.7C31.5,8.2,31.7,8.7,32.2,8.9z"/>
	<path class="st0" d="M1.5,6.6c1-0.5,1.9-1,2.9-1.4c0,2.8,0,5.6,0,8.4c0,0.6,0.4,1,1,1c0.6,0,1-0.4,1-1c0-3,0-6,0-9
		c0-0.1,0-0.2-0.1-0.3c1.4-0.6,2.7-1.2,4.1-1.8c0.5-0.2,0.7-0.8,0.5-1.3c-0.2-0.5-0.8-0.7-1.3-0.5c-3,1.4-6.1,2.6-9.1,4.1
		C0,5.1-0.1,5.7,0.1,6.2C0.4,6.7,1,6.9,1.5,6.6z"/>
	<path class="st0" d="M8.6,6.9c0,1.2,0,2.5-0.1,3.7c0,0.6,0.4,1,0.9,1.1c0.6,0,1-0.4,1.1-0.9c0.1-1.3,0.1-2.5,0.1-3.8
		c0-0.6-0.4-1-1-1S8.6,6.4,8.6,6.9z"/>
	<path class="st0" d="M18.6,0.1c-2.7,1.1-5.3,2.5-8.1,3.4C10,3.7,9.7,4.2,9.9,4.8c0.2,0.5,0.7,0.8,1.3,0.6c0.5-0.2,0.9-0.3,1.4-0.5
		c0,2.2-0.1,4.4-0.2,6.6c0,0.6,0.4,1,0.9,1.1c0.6,0,1-0.4,1.1-0.9c0.1-2.5,0.3-5,0.2-7.5c1.6-0.7,3.2-1.5,4.8-2.1
		c0.5-0.2,0.8-0.8,0.6-1.3C19.7,0.1,19.1-0.1,18.6,0.1z"/>
	<path class="st0" d="M22.9,7c-0.2-1.8-1.2-3.1-2.4-3.4c-0.9-0.2-1.9,0.1-2.9,1.2c-0.3,0.3-0.3,0.8-0.1,1.1
		c-0.2,2.1-0.6,4.3-0.7,6.4c0,0.6,0.4,1,0.9,1.1c0.6,0,1-0.4,1.1-0.9c0.1-2.2,0.5-4.4,0.8-6.6c0,0,0,0,0,0c0.2-0.1,0.4-0.2,0.5-0.2
		c0.2,0,0.4,0.2,0.5,0.4c0.2,0.3,0.3,0.7,0.4,1.2c0,0.3-0.1,0.5-0.3,0.8c-0.2,0.4-0.3,0.7-0.4,1.1c0,0.1,0,0.2,0,0.4
		c-0.1,0.3-0.2,0.6,0,0.9c0.7,1.3,1.4,2.5,2.2,3.8c0.3,0.5,0.9,0.6,1.4,0.3c0.5-0.3,0.6-0.9,0.3-1.4c-0.6-0.9-1.1-1.9-1.6-2.8
		c0,0,0-0.1,0-0.1c0-0.1-0.1-0.3-0.2-0.5c0-0.1-0.1-0.2-0.1-0.3c0.1-0.4,0.3-0.6,0.4-1C22.8,8,22.9,7.6,22.9,7z"/>
	<path class="st0" d="M23.8,11c0.3,0.4,0.8,0.6,1.4,0.8c0.4,0.1,0.8,0.1,1.2,0c0.4-0.1,0.9-0.2,1.3-0.3c0.6-0.2,1.1-0.4,1.6-0.7
		c0.5-0.3,0.7-0.9,0.4-1.4C29.5,9,28.9,8.8,28.4,9c-0.4,0.2-0.8,0.4-1.2,0.5c-0.3,0.1-0.7,0.2-1,0.3c-0.2,0-0.4,0-0.5,0
		c-0.2,0-0.3-0.1-0.3-0.1c-0.1-0.1-0.1-0.2-0.1-0.4c0-0.2,0-0.4,0.1-0.7c0-0.2,0.1-0.3,0.1-0.5c0.1,0,0.1,0,0.1,0.1
		c1,0.1,1.8,0.2,2.8,0c0.5-0.1,0.9-0.6,0.8-1.2c-0.1-0.5-0.6-0.9-1.2-0.8c-0.6,0.1-1.2,0.1-1.8,0c0.1-0.2,0.2-0.4,0.2-0.5
		c0.1-0.3,0.2-0.6,0.3-0.8c1.3-0.2,2.5-0.4,3.8-0.6c0.5-0.1,0.9-0.6,0.8-1.1c-0.1-0.5-0.6-0.9-1.1-0.8C29,2.6,27.8,2.8,26.6,3
		c-0.5-0.2-1.1,0-1.3,0.5C25,4,24.8,4.5,24.6,5.1c-0.3,0.8-1.2,2.6-1.3,3.9C23.2,9.8,23.4,10.5,23.8,11z"/>
</g>
</svg>
