<?xml version="1.0" encoding="utf-8"?>
<!-- Generator: Adobe Illustrator 24.2.0, SVG Export Plug-In . SVG Version: 6.00 Build 0)  -->
<svg version="1.1" id="Calque_1" xmlns="http://www.w3.org/2000/svg" xmlns:xlink="http://www.w3.org/1999/xlink" x="0px" y="0px"
	 viewBox="0 0 15 9.7" style="enable-background:new 0 0 15 9.7;" xml:space="preserve">
<style type="text/css">
	.st0{fill-rule:evenodd;clip-rule:evenodd;}
</style>
<g>
	<path class="st0" d="M4.4,0c-0.3-0.1-0.5,0-0.7,0.3C3.3,1.4,2.8,2.6,2.4,3.7c-0.5-1-1-2-1.5-2.9C0.8,0.5,0.5,0.4,0.3,0.5
		C0,0.6-0.1,0.9,0.1,1.2c0.5,1,1.1,2.1,1.6,3.1c0.1,0.2,0.3,0.3,0.5,0.3C1.5,6.1,1,7.5,0.4,9c-0.1,0.3,0,0.5,0.3,0.6
		c0.3,0.1,0.5,0,0.6-0.3c1.1-2.9,2.1-5.8,3.3-8.7C4.8,0.4,4.7,0.1,4.4,0z"/>
	<path class="st0" d="M10,0.5C9.2,0.7,8.3,0.8,7.4,0.9C7.2,0.8,6.8,0.8,6.7,1c-1,1.5-1.9,3.1-2.2,4.8C4.4,6.1,4.3,6.6,4.3,7
		c0,0.4,0.2,0.7,0.4,0.9C5.1,8.1,5.5,8.2,6,8.2c0.5,0,1.1-0.2,1.5-0.3C8.2,7.7,8.8,7.4,9.4,7c0.2-0.2,0.3-0.5,0.1-0.7
		C9.3,6,9,6,8.8,6.2C8.3,6.5,7.9,6.7,7.3,6.9C7,7,6.4,7.1,5.9,7.2c-0.2,0-0.4,0-0.5-0.1c0,0,0-0.1,0-0.1c0-0.1,0-0.1,0-0.2
		c0-0.3,0.1-0.5,0.1-0.7C5.6,5.4,5.8,4.9,6,4.3c0.1,0.2,0.3,0.3,0.5,0.2c0.7-0.1,1.3-0.2,2-0.5c0.3-0.1,0.4-0.4,0.3-0.6
		C8.7,3.1,8.4,3,8.2,3.1C7.6,3.3,7,3.4,6.4,3.5C6.7,3,7,2.4,7.3,1.9c0,0,0,0,0.1,0c1-0.1,2-0.2,2.9-0.4c0.3-0.1,0.4-0.3,0.4-0.6
		C10.6,0.6,10.3,0.4,10,0.5z"/>
	<path class="st0" d="M14.9,1c-0.1-0.3-0.4-0.4-0.6-0.3c-0.8,0.3-1.2,0.6-1.5,1c-0.3,0.4-0.3,0.9-0.2,1.4c0.1,0.7,0.5,1.5,0.5,2.4
		c0,0.6-0.5,1.1-1,1.5c-0.3,0.2-0.5,0.4-0.9,0.4c-0.3,0-0.5,0.3-0.4,0.6c0,0.3,0.3,0.5,0.6,0.4c0.5-0.1,0.9-0.3,1.3-0.6
		c0.7-0.5,1.4-1.4,1.4-2.3c0-0.8-0.3-1.5-0.4-2.2c-0.1-0.4-0.2-0.7-0.1-1c0.1-0.3,0.4-0.5,1-0.7C14.9,1.6,15,1.3,14.9,1z"/>
</g>
</svg>
