<?xml version="1.0" encoding="utf-8"?>
<!-- Generator: Adobe Illustrator 24.2.0, SVG Export Plug-In . SVG Version: 6.00 Build 0)  -->
<svg version="1.1" id="Calque_1" xmlns="http://www.w3.org/2000/svg" xmlns:xlink="http://www.w3.org/1999/xlink" x="0px" y="0px"
	 viewBox="0 0 8.2 16.5" style="enable-background:new 0 0 8.2 16.5;" xml:space="preserve">
<style type="text/css">
	.st0{fill-rule:evenodd;clip-rule:evenodd;fill:#FFFFFF;}
</style>
<path class="st0" d="M8,9.8c0.1-0.1,0.2-0.3,0.1-0.4C8.1,9.1,7.9,9,7.6,9C6.7,9.2,5.9,9.3,5,9.4c-0.4,0-0.7,0-1.1,0
	c0-2.7,0-5.4,0.1-8c0-0.3-0.2-0.5-0.5-0.5S3,1,3,1.3c0,0.4,0,0.9,0,1.3C2.3,2.4,1.7,2.2,1,2c0,0,0,0,0,0c0-0.5,0-1,0-1.5
	C1,0.2,0.8,0,0.5,0S0,0.2,0,0.5c0,3.1,0,6.1,0,9.2c0,0,0,0,0,0c0,0,0,0,0,0c0,2,0,3.9,0,5.9c0,0.3,0.2,0.5,0.5,0.5S1,15.9,1,15.6
	c0-1.8,0-3.6,0-5.4c0.6,0,1.3,0.1,1.9,0.1c0,1,0,2.1,0,3.1c0,0.3,0.2,0.5,0.5,0.5c0.3,0,0.5-0.2,0.5-0.5c0-1,0-2,0-3
	c0.1,0,0.3,0,0.4,0c0.1,0.1,0.2,0.1,0.4,0.1c0,0,0,0,0.1,0c0.1,1.9,0,3.7,0.2,5.6c0,0.3,0.3,0.5,0.5,0.5c0.3,0,0.5-0.3,0.5-0.5
	c-0.2-1.8-0.1-3.7-0.2-5.6c0.1,0,0.1-0.1,0.2-0.1c0.4-0.1,0.8-0.1,1.1-0.2c0,1.3-0.1,2.5-0.1,3.8c0,0.3,0.2,0.5,0.5,0.5
	c0.3,0,0.5-0.2,0.5-0.5C7.9,12.5,8.1,11.2,8,9.8z M3,3.6c0,0.3,0,0.6,0,0.9C2.3,4.5,1.7,4.4,1,4.4C1,3.9,1,3.5,1,3
	C1.7,3.2,2.3,3.4,3,3.6z M1,9.2c0-1.3,0-2.6,0-3.9c0.6,0.1,1.3,0.1,1.9,0.1c0,1.3,0,2.6,0,3.8C2.3,9.3,1.6,9.3,1,9.2z"/>
</svg>
